%TF.GenerationSoftware,KiCad,Pcbnew,(6.0.6)*%
%TF.CreationDate,2022-08-08T11:29:03-04:00*%
%TF.ProjectId,Jupiter,4a757069-7465-4722-9e6b-696361645f70,rev?*%
%TF.SameCoordinates,Original*%
%TF.FileFunction,Copper,L2,Bot*%
%TF.FilePolarity,Positive*%
%FSLAX46Y46*%
G04 Gerber Fmt 4.6, Leading zero omitted, Abs format (unit mm)*
G04 Created by KiCad (PCBNEW (6.0.6)) date 2022-08-08 11:29:03*
%MOMM*%
%LPD*%
G01*
G04 APERTURE LIST*
G04 Aperture macros list*
%AMRoundRect*
0 Rectangle with rounded corners*
0 $1 Rounding radius*
0 $2 $3 $4 $5 $6 $7 $8 $9 X,Y pos of 4 corners*
0 Add a 4 corners polygon primitive as box body*
4,1,4,$2,$3,$4,$5,$6,$7,$8,$9,$2,$3,0*
0 Add four circle primitives for the rounded corners*
1,1,$1+$1,$2,$3*
1,1,$1+$1,$4,$5*
1,1,$1+$1,$6,$7*
1,1,$1+$1,$8,$9*
0 Add four rect primitives between the rounded corners*
20,1,$1+$1,$2,$3,$4,$5,0*
20,1,$1+$1,$4,$5,$6,$7,0*
20,1,$1+$1,$6,$7,$8,$9,0*
20,1,$1+$1,$8,$9,$2,$3,0*%
%AMRotRect*
0 Rectangle, with rotation*
0 The origin of the aperture is its center*
0 $1 length*
0 $2 width*
0 $3 Rotation angle, in degrees counterclockwise*
0 Add horizontal line*
21,1,$1,$2,0,0,$3*%
%AMFreePoly0*
4,1,18,-0.410000,0.593000,-0.403758,0.624380,-0.385983,0.650983,-0.359380,0.668758,-0.328000,0.675000,0.328000,0.675000,0.359380,0.668758,0.385983,0.650983,0.403758,0.624380,0.410000,0.593000,0.410000,-0.593000,0.403758,-0.624380,0.385983,-0.650983,0.359380,-0.668758,0.328000,-0.675000,0.000000,-0.675000,-0.410000,-0.265000,-0.410000,0.593000,-0.410000,0.593000,$1*%
G04 Aperture macros list end*
%TA.AperFunction,ComponentPad*%
%ADD10C,5.000000*%
%TD*%
%TA.AperFunction,ComponentPad*%
%ADD11C,4.000000*%
%TD*%
%TA.AperFunction,SMDPad,CuDef*%
%ADD12R,1.650000X2.500000*%
%TD*%
%TA.AperFunction,SMDPad,CuDef*%
%ADD13RoundRect,0.250000X1.025000X1.000000X-1.025000X1.000000X-1.025000X-1.000000X1.025000X-1.000000X0*%
%TD*%
%TA.AperFunction,ComponentPad*%
%ADD14C,3.300000*%
%TD*%
%TA.AperFunction,SMDPad,CuDef*%
%ADD15RoundRect,0.082000X-0.593000X0.328000X-0.593000X-0.328000X0.593000X-0.328000X0.593000X0.328000X0*%
%TD*%
%TA.AperFunction,SMDPad,CuDef*%
%ADD16FreePoly0,270.000000*%
%TD*%
%TA.AperFunction,SMDPad,CuDef*%
%ADD17RoundRect,0.218750X0.256250X-0.218750X0.256250X0.218750X-0.256250X0.218750X-0.256250X-0.218750X0*%
%TD*%
%TA.AperFunction,SMDPad,CuDef*%
%ADD18RoundRect,0.225000X-0.250000X0.225000X-0.250000X-0.225000X0.250000X-0.225000X0.250000X0.225000X0*%
%TD*%
%TA.AperFunction,SMDPad,CuDef*%
%ADD19RoundRect,0.082000X0.593000X-0.328000X0.593000X0.328000X-0.593000X0.328000X-0.593000X-0.328000X0*%
%TD*%
%TA.AperFunction,SMDPad,CuDef*%
%ADD20FreePoly0,90.000000*%
%TD*%
%TA.AperFunction,SMDPad,CuDef*%
%ADD21RoundRect,0.225000X0.250000X-0.225000X0.250000X0.225000X-0.250000X0.225000X-0.250000X-0.225000X0*%
%TD*%
%TA.AperFunction,SMDPad,CuDef*%
%ADD22RoundRect,0.225000X-0.017678X0.335876X-0.335876X0.017678X0.017678X-0.335876X0.335876X-0.017678X0*%
%TD*%
%TA.AperFunction,SMDPad,CuDef*%
%ADD23RoundRect,0.200000X0.335876X0.053033X0.053033X0.335876X-0.335876X-0.053033X-0.053033X-0.335876X0*%
%TD*%
%TA.AperFunction,SMDPad,CuDef*%
%ADD24RoundRect,0.200000X-0.275000X0.200000X-0.275000X-0.200000X0.275000X-0.200000X0.275000X0.200000X0*%
%TD*%
%TA.AperFunction,SMDPad,CuDef*%
%ADD25RotRect,1.400000X1.200000X315.000000*%
%TD*%
%TA.AperFunction,SMDPad,CuDef*%
%ADD26R,1.100000X1.800000*%
%TD*%
%TA.AperFunction,SMDPad,CuDef*%
%ADD27RoundRect,0.250000X-0.625000X0.375000X-0.625000X-0.375000X0.625000X-0.375000X0.625000X0.375000X0*%
%TD*%
%TA.AperFunction,SMDPad,CuDef*%
%ADD28RoundRect,0.225000X0.335876X0.017678X0.017678X0.335876X-0.335876X-0.017678X-0.017678X-0.335876X0*%
%TD*%
%TA.AperFunction,SMDPad,CuDef*%
%ADD29R,0.700000X1.000000*%
%TD*%
%TA.AperFunction,SMDPad,CuDef*%
%ADD30R,0.700000X0.600000*%
%TD*%
%TA.AperFunction,SMDPad,CuDef*%
%ADD31RoundRect,0.225000X-0.335876X-0.017678X-0.017678X-0.335876X0.335876X0.017678X0.017678X0.335876X0*%
%TD*%
%TA.AperFunction,SMDPad,CuDef*%
%ADD32R,0.540000X1.100000*%
%TD*%
%TA.AperFunction,SMDPad,CuDef*%
%ADD33R,0.300000X1.100000*%
%TD*%
%TA.AperFunction,ComponentPad*%
%ADD34O,1.200000X2.250000*%
%TD*%
%TA.AperFunction,SMDPad,CuDef*%
%ADD35RoundRect,0.200000X0.053033X-0.335876X0.335876X-0.053033X-0.053033X0.335876X-0.335876X0.053033X0*%
%TD*%
%TA.AperFunction,SMDPad,CuDef*%
%ADD36RoundRect,0.062500X0.380070X-0.291682X-0.291682X0.380070X-0.380070X0.291682X0.291682X-0.380070X0*%
%TD*%
%TA.AperFunction,SMDPad,CuDef*%
%ADD37RoundRect,0.062500X0.380070X0.291682X0.291682X0.380070X-0.380070X-0.291682X-0.291682X-0.380070X0*%
%TD*%
%TA.AperFunction,SMDPad,CuDef*%
%ADD38RotRect,5.200000X5.200000X135.000000*%
%TD*%
%TA.AperFunction,SMDPad,CuDef*%
%ADD39RoundRect,0.225000X0.017678X-0.335876X0.335876X-0.017678X-0.017678X0.335876X-0.335876X0.017678X0*%
%TD*%
%TA.AperFunction,ViaPad*%
%ADD40C,0.800000*%
%TD*%
%TA.AperFunction,Conductor*%
%ADD41C,0.250000*%
%TD*%
%TA.AperFunction,Conductor*%
%ADD42C,0.200000*%
%TD*%
G04 APERTURE END LIST*
D10*
%TO.P,,1*%
%TO.N,N/C*%
X222900000Y-148100000D03*
%TD*%
%TO.P,,1*%
%TO.N,N/C*%
X239300000Y-74200000D03*
%TD*%
%TO.P,,1*%
%TO.N,N/C*%
X246400000Y-110000000D03*
%TD*%
%TO.P,,1*%
%TO.N,N/C*%
X367200000Y-187900000D03*
%TD*%
%TO.P,,1*%
%TO.N,N/C*%
X366300000Y-71600000D03*
%TD*%
%TO.P,,1*%
%TO.N,N/C*%
X77100000Y-75000000D03*
%TD*%
%TO.P,,1*%
%TO.N,N/C*%
X60100000Y-187700000D03*
%TD*%
%TO.P,,1*%
%TO.N,N/C*%
X304800000Y-97500000D03*
%TD*%
D11*
%TO.P,REF\u002A\u002A,*%
%TO.N,*%
X237206250Y-170215000D03*
X137193750Y-170215000D03*
%TD*%
D10*
%TO.P,,1*%
%TO.N,N/C*%
X151700000Y-92400000D03*
%TD*%
%TO.P,,1*%
%TO.N,N/C*%
X127600000Y-148100000D03*
%TD*%
%TO.P,,1*%
%TO.N,N/C*%
X81700000Y-114000000D03*
%TD*%
%TO.P,,1*%
%TO.N,N/C*%
X296300000Y-149500000D03*
%TD*%
D12*
%TO.P,K_T1,1,COL*%
%TO.N,COL5*%
X164865000Y-117460000D03*
D13*
X163140000Y-117460000D03*
D14*
X166690000Y-117460000D03*
D12*
%TO.P,K_T1,2,ROW*%
%TO.N,Net-(D35-Pad2)*%
X174840000Y-114920000D03*
D14*
X173040000Y-114920000D03*
D13*
X176590000Y-114920000D03*
%TD*%
D15*
%TO.P,LED_R1,1,VDD*%
%TO.N,+5V*%
X154125000Y-125830000D03*
%TO.P,LED_R1,2,DOUT*%
%TO.N,Net-(LED_R1-Pad2)*%
X154125000Y-124330000D03*
%TO.P,LED_R1,3,DIN*%
%TO.N,Net-(LED_E1-Pad2)*%
X148675000Y-125830000D03*
D16*
%TO.P,LED_R1,4,VSS*%
%TO.N,GND*%
X148675000Y-124330000D03*
%TD*%
D17*
%TO.P,D13,1,K*%
%TO.N,ROW0*%
X315600000Y-78787500D03*
%TO.P,D13,2,A*%
%TO.N,Net-(D13-Pad2)*%
X315600000Y-77212500D03*
%TD*%
%TO.P,D38,1,K*%
%TO.N,ROW2*%
X234700000Y-121575000D03*
%TO.P,D38,2,A*%
%TO.N,Net-(D38-Pad2)*%
X234700000Y-120000000D03*
%TD*%
D13*
%TO.P,K_E1,1,COL*%
%TO.N,COL3*%
X125040000Y-117460000D03*
D14*
X128590000Y-117460000D03*
D12*
X126765000Y-117460000D03*
%TO.P,K_E1,2,ROW*%
%TO.N,Net-(D33-Pad2)*%
X136740000Y-114920000D03*
D14*
X134940000Y-114920000D03*
D13*
X138490000Y-114920000D03*
%TD*%
D14*
%TO.P,K_pgUp1,1,COL*%
%TO.N,COL14*%
X357190000Y-117460000D03*
D13*
X353640000Y-117460000D03*
D12*
X355365000Y-117460000D03*
D14*
%TO.P,K_pgUp1,2,ROW*%
%TO.N,Net-(D44-Pad2)*%
X363540000Y-114920000D03*
D13*
X367090000Y-114920000D03*
D12*
X365340000Y-114920000D03*
%TD*%
D18*
%TO.P,C29,1*%
%TO.N,+5V*%
X193200000Y-105350000D03*
%TO.P,C29,2*%
%TO.N,GND*%
X193200000Y-106900000D03*
%TD*%
D19*
%TO.P,LED_quote1,1,VDD*%
%TO.N,+5V*%
X286875000Y-143430000D03*
%TO.P,LED_quote1,2,DOUT*%
%TO.N,Net-(LED_colon1-Pad3)*%
X286875000Y-144930000D03*
%TO.P,LED_quote1,3,DIN*%
%TO.N,Net-(LED_enter1-Pad2)*%
X292325000Y-143430000D03*
D20*
%TO.P,LED_quote1,4,VSS*%
%TO.N,GND*%
X292325000Y-144930000D03*
%TD*%
D17*
%TO.P,D27,1,K*%
%TO.N,ROW1*%
X301300000Y-102575000D03*
%TO.P,D27,2,A*%
%TO.N,Net-(D27-Pad2)*%
X301300000Y-101000000D03*
%TD*%
%TO.P,D52,1,K*%
%TO.N,ROW3*%
X220400000Y-140575000D03*
%TO.P,D52,2,A*%
%TO.N,Net-(D52-Pad2)*%
X220400000Y-139000000D03*
%TD*%
%TO.P,D10,1,K*%
%TO.N,ROW0*%
X258500000Y-78787500D03*
%TO.P,D10,2,A*%
%TO.N,Net-(D10-Pad2)*%
X258500000Y-77212500D03*
%TD*%
D21*
%TO.P,C64,1*%
%TO.N,+5V*%
X114600000Y-164000000D03*
%TO.P,C64,2*%
%TO.N,GND*%
X114600000Y-162450000D03*
%TD*%
D17*
%TO.P,D3,1,K*%
%TO.N,ROW0*%
X115600000Y-78787500D03*
%TO.P,D3,2,A*%
%TO.N,Net-(D3-Pad2)*%
X115600000Y-77212500D03*
%TD*%
%TO.P,D78,1,K*%
%TO.N,ROW5*%
X282300000Y-178775000D03*
%TO.P,D78,2,A*%
%TO.N,Net-(D78-Pad2)*%
X282300000Y-177200000D03*
%TD*%
D18*
%TO.P,C26,1*%
%TO.N,+5V*%
X136100000Y-105350000D03*
%TO.P,C26,2*%
%TO.N,GND*%
X136100000Y-106900000D03*
%TD*%
D12*
%TO.P,K_rightArrow1,1,COL*%
%TO.N,COL14*%
X350565000Y-179360000D03*
D13*
X348840000Y-179360000D03*
D14*
X352390000Y-179360000D03*
%TO.P,K_rightArrow1,2,ROW*%
%TO.N,Net-(D82-Pad2)*%
X358740000Y-176820000D03*
D13*
X362290000Y-176820000D03*
D12*
X360540000Y-176820000D03*
%TD*%
D19*
%TO.P,LED_5,1,VDD*%
%TO.N,+5V*%
X158275000Y-105330000D03*
%TO.P,LED_5,2,DOUT*%
%TO.N,Net-(LED_4-Pad3)*%
X158275000Y-106830000D03*
%TO.P,LED_5,3,DIN*%
%TO.N,Net-(LED_5-Pad3)*%
X163725000Y-105330000D03*
D20*
%TO.P,LED_5,4,VSS*%
%TO.N,GND*%
X163725000Y-106830000D03*
%TD*%
D22*
%TO.P,C5,1*%
%TO.N,+5V*%
X345180000Y-145930000D03*
%TO.P,C5,2*%
%TO.N,GND*%
X344083984Y-147026016D03*
%TD*%
D15*
%TO.P,LED_leftShift1,1,VDD*%
%TO.N,+5V*%
X80425000Y-164030000D03*
%TO.P,LED_leftShift1,2,DOUT*%
%TO.N,Net-(LED_Z1-Pad3)*%
X80425000Y-162530000D03*
%TO.P,LED_leftShift1,3,DIN*%
%TO.N,Net-(LED_leftControl1-Pad2)*%
X74975000Y-164030000D03*
D16*
%TO.P,LED_leftShift1,4,VSS*%
%TO.N,GND*%
X74975000Y-162530000D03*
%TD*%
D17*
%TO.P,D23,1,K*%
%TO.N,ROW1*%
X225100000Y-102587500D03*
%TO.P,D23,2,A*%
%TO.N,Net-(D23-Pad2)*%
X225100000Y-101012500D03*
%TD*%
D21*
%TO.P,C8,1*%
%TO.N,+5V*%
X71700000Y-82800000D03*
%TO.P,C8,2*%
%TO.N,GND*%
X71700000Y-81250000D03*
%TD*%
%TO.P,C69,1*%
%TO.N,+5V*%
X209800000Y-163900000D03*
%TO.P,C69,2*%
%TO.N,GND*%
X209800000Y-162350000D03*
%TD*%
D17*
%TO.P,D73,1,K*%
%TO.N,ROW5*%
X75100000Y-178775000D03*
%TO.P,D73,2,A*%
%TO.N,Net-(D73-Pad2)*%
X75100000Y-177200000D03*
%TD*%
D13*
%TO.P,K_B1,1,COL*%
%TO.N,COL5*%
X177440000Y-155560000D03*
D14*
X180990000Y-155560000D03*
D12*
X179165000Y-155560000D03*
%TO.P,K_B1,2,ROW*%
%TO.N,Net-(D64-Pad2)*%
X189140000Y-153020000D03*
D13*
X190890000Y-153020000D03*
D14*
X187340000Y-153020000D03*
%TD*%
D18*
%TO.P,C59,1*%
%TO.N,+5V*%
X245700000Y-143400000D03*
%TO.P,C59,2*%
%TO.N,GND*%
X245700000Y-144950000D03*
%TD*%
D21*
%TO.P,C49,1*%
%TO.N,+5V*%
X76600000Y-125800000D03*
%TO.P,C49,2*%
%TO.N,GND*%
X76600000Y-124250000D03*
%TD*%
D15*
%TO.P,LED_F5,1,VDD*%
%TO.N,+5V*%
X173225000Y-83030000D03*
%TO.P,LED_F5,2,DOUT*%
%TO.N,Net-(LED_F5-Pad2)*%
X173225000Y-81530000D03*
%TO.P,LED_F5,3,DIN*%
%TO.N,Net-(LED_F4-Pad2)*%
X167775000Y-83030000D03*
D16*
%TO.P,LED_F5,4,VSS*%
%TO.N,GND*%
X167775000Y-81530000D03*
%TD*%
D21*
%TO.P,C40,1*%
%TO.N,+5V*%
X252700000Y-125800000D03*
%TO.P,C40,2*%
%TO.N,GND*%
X252700000Y-124250000D03*
%TD*%
D17*
%TO.P,D70,1,K*%
%TO.N,ROW4*%
X313200000Y-159675000D03*
%TO.P,D70,2,A*%
%TO.N,Net-(D70-Pad2)*%
X313200000Y-158100000D03*
%TD*%
%TO.P,D43,1,K*%
%TO.N,ROW2*%
X334700000Y-121575000D03*
%TO.P,D43,2,A*%
%TO.N,Net-(D43-Pad2)*%
X334700000Y-120000000D03*
%TD*%
D21*
%TO.P,C73,1*%
%TO.N,+5V*%
X286000000Y-164000000D03*
%TO.P,C73,2*%
%TO.N,GND*%
X286000000Y-162450000D03*
%TD*%
D17*
%TO.P,D61,1,K*%
%TO.N,ROW4*%
X134600000Y-159675000D03*
%TO.P,D61,2,A*%
%TO.N,Net-(D61-Pad2)*%
X134600000Y-158100000D03*
%TD*%
D23*
%TO.P,R2,1*%
%TO.N,Net-(R2-Pad1)*%
X342300000Y-131800000D03*
%TO.P,R2,2*%
%TO.N,GND*%
X341133274Y-130633274D03*
%TD*%
D21*
%TO.P,C66,1*%
%TO.N,+5V*%
X152700000Y-163900000D03*
%TO.P,C66,2*%
%TO.N,GND*%
X152700000Y-162350000D03*
%TD*%
D17*
%TO.P,D81,1,K*%
%TO.N,ROW5*%
X344200000Y-183487500D03*
%TO.P,D81,2,A*%
%TO.N,Net-(D81-Pad2)*%
X344200000Y-181912500D03*
%TD*%
D21*
%TO.P,C21,1*%
%TO.N,+5V*%
X355100000Y-106850000D03*
%TO.P,C21,2*%
%TO.N,GND*%
X355100000Y-105300000D03*
%TD*%
D17*
%TO.P,D74,1,K*%
%TO.N,ROW5*%
X98900000Y-178787500D03*
%TO.P,D74,2,A*%
%TO.N,Net-(D74-Pad2)*%
X98900000Y-177212500D03*
%TD*%
D18*
%TO.P,C79,1*%
%TO.N,+5V*%
X181400000Y-181550000D03*
%TO.P,C79,2*%
%TO.N,GND*%
X181400000Y-183100000D03*
%TD*%
D21*
%TO.P,C67,1*%
%TO.N,+5V*%
X171800000Y-163900000D03*
%TO.P,C67,2*%
%TO.N,GND*%
X171800000Y-162350000D03*
%TD*%
D12*
%TO.P,K_G1,1,COL*%
%TO.N,COL5*%
X169665000Y-136460000D03*
D14*
X171490000Y-136460000D03*
D13*
X167940000Y-136460000D03*
%TO.P,K_G1,2,ROW*%
%TO.N,Net-(D50-Pad2)*%
X181390000Y-133920000D03*
D14*
X177840000Y-133920000D03*
D12*
X179640000Y-133920000D03*
%TD*%
D18*
%TO.P,C31,1*%
%TO.N,+5V*%
X231200000Y-105350000D03*
%TO.P,C31,2*%
%TO.N,GND*%
X231200000Y-106900000D03*
%TD*%
D19*
%TO.P,LED_tilda1,1,VDD*%
%TO.N,+5V*%
X63075000Y-105330000D03*
%TO.P,LED_tilda1,2,DOUT*%
%TO.N,Net-(LED_esc1-Pad3)*%
X63075000Y-106830000D03*
%TO.P,LED_tilda1,3,DIN*%
%TO.N,Net-(LED_1-Pad2)*%
X68525000Y-105330000D03*
D20*
%TO.P,LED_tilda1,4,VSS*%
%TO.N,GND*%
X68525000Y-106830000D03*
%TD*%
D18*
%TO.P,C60,1*%
%TO.N,+5V*%
X264700000Y-143400000D03*
%TO.P,C60,2*%
%TO.N,GND*%
X264700000Y-144950000D03*
%TD*%
D17*
%TO.P,D80,1,K*%
%TO.N,ROW5*%
X325100000Y-183575000D03*
%TO.P,D80,2,A*%
%TO.N,Net-(D80-Pad2)*%
X325100000Y-182000000D03*
%TD*%
D14*
%TO.P,K_I1,1,COL*%
%TO.N,COL8*%
X223790000Y-117460000D03*
D13*
X220240000Y-117460000D03*
D12*
X221965000Y-117460000D03*
D14*
%TO.P,K_I1,2,ROW*%
%TO.N,Net-(D38-Pad2)*%
X230140000Y-114920000D03*
D12*
X231940000Y-114920000D03*
D13*
X233690000Y-114920000D03*
%TD*%
D17*
%TO.P,D44,1,K*%
%TO.N,ROW2*%
X368000000Y-121575000D03*
%TO.P,D44,2,A*%
%TO.N,Net-(D44-Pad2)*%
X368000000Y-120000000D03*
%TD*%
D18*
%TO.P,C52,1*%
%TO.N,+5V*%
X112200000Y-143400000D03*
%TO.P,C52,2*%
%TO.N,GND*%
X112200000Y-144950000D03*
%TD*%
D14*
%TO.P,K_V1,1,COL*%
%TO.N,COL4*%
X161990000Y-155560000D03*
D13*
X158440000Y-155560000D03*
D12*
X160165000Y-155560000D03*
%TO.P,K_V1,2,ROW*%
%TO.N,Net-(D63-Pad2)*%
X170140000Y-153020000D03*
D13*
X171890000Y-153020000D03*
D14*
X168340000Y-153020000D03*
%TD*%
D17*
%TO.P,D66,1,K*%
%TO.N,ROW4*%
X229900000Y-159687500D03*
%TO.P,D66,2,A*%
%TO.N,Net-(D66-Pad2)*%
X229900000Y-158112500D03*
%TD*%
D18*
%TO.P,C27,1*%
%TO.N,+5V*%
X155000000Y-105350000D03*
%TO.P,C27,2*%
%TO.N,GND*%
X155000000Y-106900000D03*
%TD*%
D17*
%TO.P,D82,1,K*%
%TO.N,ROW5*%
X363200000Y-183475000D03*
%TO.P,D82,2,A*%
%TO.N,Net-(D82-Pad2)*%
X363200000Y-181900000D03*
%TD*%
%TO.P,D60,1,K*%
%TO.N,ROW4*%
X115600000Y-159675000D03*
%TO.P,D60,2,A*%
%TO.N,Net-(D60-Pad2)*%
X115600000Y-158100000D03*
%TD*%
D19*
%TO.P,LED_J1,1,VDD*%
%TO.N,+5V*%
X210675000Y-143330000D03*
%TO.P,LED_J1,2,DOUT*%
%TO.N,Net-(LED_H1-Pad3)*%
X210675000Y-144830000D03*
%TO.P,LED_J1,3,DIN*%
%TO.N,Net-(LED_J1-Pad3)*%
X216125000Y-143330000D03*
D20*
%TO.P,LED_J1,4,VSS*%
%TO.N,GND*%
X216125000Y-144830000D03*
%TD*%
D19*
%TO.P,LED_rightAlt1,1,VDD*%
%TO.N,+5V*%
X253475000Y-181530000D03*
%TO.P,LED_rightAlt1,2,DOUT*%
%TO.N,Net-(LED_rightAlt1-Pad2)*%
X253475000Y-183030000D03*
%TO.P,LED_rightAlt1,3,DIN*%
%TO.N,Net-(LED_function1-Pad2)*%
X258925000Y-181530000D03*
D20*
%TO.P,LED_rightAlt1,4,VSS*%
%TO.N,GND*%
X258925000Y-183030000D03*
%TD*%
D19*
%TO.P,LED_D1,1,VDD*%
%TO.N,+5V*%
X134475000Y-143430000D03*
%TO.P,LED_D1,2,DOUT*%
%TO.N,Net-(LED_D1-Pad2)*%
X134475000Y-144930000D03*
%TO.P,LED_D1,3,DIN*%
%TO.N,Net-(LED_D1-Pad3)*%
X139925000Y-143430000D03*
D20*
%TO.P,LED_D1,4,VSS*%
%TO.N,GND*%
X139925000Y-144930000D03*
%TD*%
D21*
%TO.P,C20,1*%
%TO.N,+5V*%
X314500000Y-83100000D03*
%TO.P,C20,2*%
%TO.N,GND*%
X314500000Y-81550000D03*
%TD*%
D19*
%TO.P,LED_4,1,VDD*%
%TO.N,+5V*%
X139175000Y-105330000D03*
%TO.P,LED_4,2,DOUT*%
%TO.N,Net-(LED_3-Pad3)*%
X139175000Y-106830000D03*
%TO.P,LED_4,3,DIN*%
%TO.N,Net-(LED_4-Pad3)*%
X144625000Y-105330000D03*
D20*
%TO.P,LED_4,4,VSS*%
%TO.N,GND*%
X144625000Y-106830000D03*
%TD*%
D21*
%TO.P,C65,1*%
%TO.N,+5V*%
X133700000Y-163900000D03*
%TO.P,C65,2*%
%TO.N,GND*%
X133700000Y-162350000D03*
%TD*%
D12*
%TO.P,K_enter1,1,COL*%
%TO.N,COL12*%
X314965000Y-136560000D03*
D14*
X316790000Y-136560000D03*
D13*
X313240000Y-136560000D03*
%TO.P,K_enter1,2,ROW*%
%TO.N,Net-(D57-Pad2)*%
X326690000Y-134020000D03*
D12*
X324940000Y-134020000D03*
D14*
X323140000Y-134020000D03*
%TD*%
D18*
%TO.P,C87,1*%
%TO.N,+5V*%
X367000000Y-162400000D03*
%TO.P,C87,2*%
%TO.N,GND*%
X367000000Y-163950000D03*
%TD*%
D21*
%TO.P,C74,1*%
%TO.N,+5V*%
X312200000Y-163900000D03*
%TO.P,C74,2*%
%TO.N,GND*%
X312200000Y-162350000D03*
%TD*%
%TO.P,C46,1*%
%TO.N,+5V*%
X138400000Y-125800000D03*
%TO.P,C46,2*%
%TO.N,GND*%
X138400000Y-124250000D03*
%TD*%
D19*
%TO.P,LED_6,1,VDD*%
%TO.N,+5V*%
X177375000Y-105330000D03*
%TO.P,LED_6,2,DOUT*%
%TO.N,Net-(LED_5-Pad3)*%
X177375000Y-106830000D03*
%TO.P,LED_6,3,DIN*%
%TO.N,Net-(LED_6-Pad3)*%
X182825000Y-105330000D03*
D20*
%TO.P,LED_6,4,VSS*%
%TO.N,GND*%
X182825000Y-106830000D03*
%TD*%
D19*
%TO.P,LED_equals1,1,VDD*%
%TO.N,+5V*%
X291575000Y-105330000D03*
%TO.P,LED_equals1,2,DOUT*%
%TO.N,Net-(LED_equals1-Pad2)*%
X291575000Y-106830000D03*
%TO.P,LED_equals1,3,DIN*%
%TO.N,Net-(LED_backspace1-Pad2)*%
X297025000Y-105330000D03*
D20*
%TO.P,LED_equals1,4,VSS*%
%TO.N,GND*%
X297025000Y-106830000D03*
%TD*%
D15*
%TO.P,LED_N1,1,VDD*%
%TO.N,+5V*%
X206525000Y-163930000D03*
%TO.P,LED_N1,2,DOUT*%
%TO.N,Net-(LED_M1-Pad3)*%
X206525000Y-162430000D03*
%TO.P,LED_N1,3,DIN*%
%TO.N,Net-(LED_B1-Pad2)*%
X201075000Y-163930000D03*
D16*
%TO.P,LED_N1,4,VSS*%
%TO.N,GND*%
X201075000Y-162430000D03*
%TD*%
D21*
%TO.P,C41,1*%
%TO.N,+5V*%
X233600000Y-125800000D03*
%TO.P,C41,2*%
%TO.N,GND*%
X233600000Y-124250000D03*
%TD*%
D12*
%TO.P,K_end1,1,COL*%
%TO.N,COL14*%
X355365000Y-155560000D03*
D14*
X357190000Y-155560000D03*
D13*
X353640000Y-155560000D03*
%TO.P,K_end1,2,ROW*%
%TO.N,Net-(D72-Pad2)*%
X367090000Y-153020000D03*
D12*
X365340000Y-153020000D03*
D14*
X363540000Y-153020000D03*
%TD*%
D15*
%TO.P,LED_rightShift1,1,VDD*%
%TO.N,+5V*%
X308925000Y-163930000D03*
%TO.P,LED_rightShift1,2,DOUT*%
%TO.N,Net-(LED_rightShift1-Pad2)*%
X308925000Y-162430000D03*
%TO.P,LED_rightShift1,3,DIN*%
%TO.N,Net-(LED_questionMark1-Pad2)*%
X303475000Y-163930000D03*
D16*
%TO.P,LED_rightShift1,4,VSS*%
%TO.N,GND*%
X303475000Y-162430000D03*
%TD*%
D15*
%TO.P,LED_P1,1,VDD*%
%TO.N,+5V*%
X268525000Y-125830000D03*
%TO.P,LED_P1,2,DOUT*%
%TO.N,Net-(LED_P1-Pad2)*%
X268525000Y-124330000D03*
%TO.P,LED_P1,3,DIN*%
%TO.N,Net-(LED_O1-Pad2)*%
X263075000Y-125830000D03*
D16*
%TO.P,LED_P1,4,VSS*%
%TO.N,GND*%
X263075000Y-124330000D03*
%TD*%
D12*
%TO.P,K_tilda1,1,COL*%
%TO.N,COL0*%
X60165000Y-98460000D03*
D14*
X61990000Y-98460000D03*
D13*
X58440000Y-98460000D03*
D14*
%TO.P,K_tilda1,2,ROW*%
%TO.N,Net-(D15-Pad2)*%
X68340000Y-95920000D03*
D12*
X70140000Y-95920000D03*
D13*
X71890000Y-95920000D03*
%TD*%
D17*
%TO.P,D48,1,K*%
%TO.N,ROW3*%
X144200000Y-140675000D03*
%TO.P,D48,2,A*%
%TO.N,Net-(D48-Pad2)*%
X144200000Y-139100000D03*
%TD*%
D15*
%TO.P,LED_F4,1,VDD*%
%TO.N,+5V*%
X149425000Y-82930000D03*
%TO.P,LED_F4,2,DOUT*%
%TO.N,Net-(LED_F4-Pad2)*%
X149425000Y-81430000D03*
%TO.P,LED_F4,3,DIN*%
%TO.N,Net-(LED_F3-Pad2)*%
X143975000Y-82930000D03*
D16*
%TO.P,LED_F4,4,VSS*%
%TO.N,GND*%
X143975000Y-81430000D03*
%TD*%
D15*
%TO.P,LED_upArrow1,1,VDD*%
%TO.N,+5V*%
X339925000Y-168730000D03*
%TO.P,LED_upArrow1,2,DOUT*%
%TO.N,Net-(LED_enter1-Pad3)*%
X339925000Y-167230000D03*
%TO.P,LED_upArrow1,3,DIN*%
%TO.N,Net-(LED_rightShift1-Pad2)*%
X334475000Y-168730000D03*
D16*
%TO.P,LED_upArrow1,4,VSS*%
%TO.N,GND*%
X334475000Y-167230000D03*
%TD*%
D15*
%TO.P,LED_F6,1,VDD*%
%TO.N,+5V*%
X192325000Y-83030000D03*
%TO.P,LED_F6,2,DOUT*%
%TO.N,Net-(LED_F6-Pad2)*%
X192325000Y-81530000D03*
%TO.P,LED_F6,3,DIN*%
%TO.N,Net-(LED_F5-Pad2)*%
X186875000Y-83030000D03*
D16*
%TO.P,LED_F6,4,VSS*%
%TO.N,GND*%
X186875000Y-81530000D03*
%TD*%
D15*
%TO.P,LED_X1,1,VDD*%
%TO.N,+5V*%
X130325000Y-163930000D03*
%TO.P,LED_X1,2,DOUT*%
%TO.N,Net-(LED_C1-Pad3)*%
X130325000Y-162430000D03*
%TO.P,LED_X1,3,DIN*%
%TO.N,Net-(LED_X1-Pad3)*%
X124875000Y-163930000D03*
D16*
%TO.P,LED_X1,4,VSS*%
%TO.N,GND*%
X124875000Y-162430000D03*
%TD*%
D14*
%TO.P,K_rightAlt1,1,COL*%
%TO.N,COL8*%
X252390000Y-174660000D03*
D12*
X250565000Y-174660000D03*
D13*
X248840000Y-174660000D03*
D14*
%TO.P,K_rightAlt1,2,ROW*%
%TO.N,Net-(D77-Pad2)*%
X258740000Y-172120000D03*
D13*
X262290000Y-172120000D03*
D12*
X260540000Y-172120000D03*
%TD*%
D15*
%TO.P,LED_esc1,1,VDD*%
%TO.N,+5V*%
X68425000Y-83030000D03*
%TO.P,LED_esc1,2,DOUT*%
%TO.N,Net-(LED_F1-Pad3)*%
X68425000Y-81530000D03*
%TO.P,LED_esc1,3,DIN*%
%TO.N,Net-(LED_esc1-Pad3)*%
X62975000Y-83030000D03*
D16*
%TO.P,LED_esc1,4,VSS*%
%TO.N,GND*%
X62975000Y-81530000D03*
%TD*%
D19*
%TO.P,LED_K1,1,VDD*%
%TO.N,+5V*%
X229675000Y-143430000D03*
%TO.P,LED_K1,2,DOUT*%
%TO.N,Net-(LED_J1-Pad3)*%
X229675000Y-144930000D03*
%TO.P,LED_K1,3,DIN*%
%TO.N,Net-(LED_K1-Pad3)*%
X235125000Y-143430000D03*
D20*
%TO.P,LED_K1,4,VSS*%
%TO.N,GND*%
X235125000Y-144930000D03*
%TD*%
D12*
%TO.P,K_7,1,COL*%
%TO.N,COL7*%
X193465000Y-98460000D03*
D14*
X195290000Y-98460000D03*
D13*
X191740000Y-98460000D03*
D12*
%TO.P,K_7,2,ROW*%
%TO.N,Net-(D22-Pad2)*%
X203440000Y-95920000D03*
D14*
X201640000Y-95920000D03*
D13*
X205190000Y-95920000D03*
%TD*%
%TO.P,K_A1,1,COL*%
%TO.N,COL1*%
X91740000Y-136560000D03*
D14*
X95290000Y-136560000D03*
D12*
X93465000Y-136560000D03*
D14*
%TO.P,K_A1,2,ROW*%
%TO.N,Net-(D46-Pad2)*%
X101640000Y-134020000D03*
D12*
X103440000Y-134020000D03*
D13*
X105190000Y-134020000D03*
%TD*%
D18*
%TO.P,C22,1*%
%TO.N,+5V*%
X59900000Y-105300000D03*
%TO.P,C22,2*%
%TO.N,GND*%
X59900000Y-106850000D03*
%TD*%
%TO.P,C30,1*%
%TO.N,+5V*%
X212100000Y-105350000D03*
%TO.P,C30,2*%
%TO.N,GND*%
X212100000Y-106900000D03*
%TD*%
D13*
%TO.P,K_home1,1,COL*%
%TO.N,COL14*%
X353640000Y-98460000D03*
D14*
X357190000Y-98460000D03*
D12*
X355365000Y-98460000D03*
D14*
%TO.P,K_home1,2,ROW*%
%TO.N,Net-(D29-Pad2)*%
X363540000Y-95920000D03*
D12*
X365340000Y-95920000D03*
D13*
X367090000Y-95920000D03*
%TD*%
D14*
%TO.P,K_space1,1,COL*%
%TO.N,COL5*%
X183390000Y-174660000D03*
D13*
X179840000Y-174660000D03*
D12*
X181565000Y-174660000D03*
D14*
%TO.P,K_space1,2,ROW*%
%TO.N,Net-(D76-Pad2)*%
X189740000Y-172120000D03*
D13*
X193290000Y-172120000D03*
D12*
X191540000Y-172120000D03*
%TD*%
D15*
%TO.P,LED_F2,1,VDD*%
%TO.N,+5V*%
X111325000Y-83030000D03*
%TO.P,LED_F2,2,DOUT*%
%TO.N,Net-(LED_F2-Pad2)*%
X111325000Y-81530000D03*
%TO.P,LED_F2,3,DIN*%
%TO.N,Net-(LED_F1-Pad2)*%
X105875000Y-83030000D03*
D16*
%TO.P,LED_F2,4,VSS*%
%TO.N,GND*%
X105875000Y-81530000D03*
%TD*%
D21*
%TO.P,C39,1*%
%TO.N,+5V*%
X271900000Y-125800000D03*
%TO.P,C39,2*%
%TO.N,GND*%
X271900000Y-124250000D03*
%TD*%
%TO.P,C13,1*%
%TO.N,+5V*%
X176500000Y-83000000D03*
%TO.P,C13,2*%
%TO.N,GND*%
X176500000Y-81450000D03*
%TD*%
D15*
%TO.P,LED_F7,1,VDD*%
%TO.N,+5V*%
X211325000Y-83030000D03*
%TO.P,LED_F7,2,DOUT*%
%TO.N,Net-(LED_F7-Pad2)*%
X211325000Y-81530000D03*
%TO.P,LED_F7,3,DIN*%
%TO.N,Net-(LED_F6-Pad2)*%
X205875000Y-83030000D03*
D16*
%TO.P,LED_F7,4,VSS*%
%TO.N,GND*%
X205875000Y-81530000D03*
%TD*%
D17*
%TO.P,D33,1,K*%
%TO.N,ROW2*%
X139400000Y-121575000D03*
%TO.P,D33,2,A*%
%TO.N,Net-(D33-Pad2)*%
X139400000Y-120000000D03*
%TD*%
D18*
%TO.P,C57,1*%
%TO.N,+5V*%
X207400000Y-143300000D03*
%TO.P,C57,2*%
%TO.N,GND*%
X207400000Y-144850000D03*
%TD*%
D22*
%TO.P,C4,1*%
%TO.N,+5V*%
X350200000Y-133600000D03*
%TO.P,C4,2*%
%TO.N,GND*%
X349103984Y-134696016D03*
%TD*%
D17*
%TO.P,D40,1,K*%
%TO.N,ROW2*%
X272800000Y-121575000D03*
%TO.P,D40,2,A*%
%TO.N,Net-(D40-Pad2)*%
X272800000Y-120000000D03*
%TD*%
D15*
%TO.P,LED_Z1,1,VDD*%
%TO.N,+5V*%
X111325000Y-164030000D03*
%TO.P,LED_Z1,2,DOUT*%
%TO.N,Net-(LED_X1-Pad3)*%
X111325000Y-162530000D03*
%TO.P,LED_Z1,3,DIN*%
%TO.N,Net-(LED_Z1-Pad3)*%
X105875000Y-164030000D03*
D16*
%TO.P,LED_Z1,4,VSS*%
%TO.N,GND*%
X105875000Y-162530000D03*
%TD*%
D24*
%TO.P,R4,1*%
%TO.N,Net-(J1-PadA6)*%
X355750000Y-81600000D03*
%TO.P,R4,2*%
%TO.N,D+*%
X355750000Y-83250000D03*
%TD*%
D19*
%TO.P,LED_minus1,1,VDD*%
%TO.N,+5V*%
X272525000Y-105310000D03*
%TO.P,LED_minus1,2,DOUT*%
%TO.N,Net-(LED_0-Pad3)*%
X272525000Y-106810000D03*
%TO.P,LED_minus1,3,DIN*%
%TO.N,Net-(LED_equals1-Pad2)*%
X277975000Y-105310000D03*
D20*
%TO.P,LED_minus1,4,VSS*%
%TO.N,GND*%
X277975000Y-106810000D03*
%TD*%
D18*
%TO.P,C58,1*%
%TO.N,+5V*%
X226500000Y-143400000D03*
%TO.P,C58,2*%
%TO.N,GND*%
X226500000Y-144950000D03*
%TD*%
D13*
%TO.P,K_U1,1,COL*%
%TO.N,COL7*%
X201240000Y-117460000D03*
D14*
X204790000Y-117460000D03*
D12*
X202965000Y-117460000D03*
D13*
%TO.P,K_U1,2,ROW*%
%TO.N,Net-(D37-Pad2)*%
X214690000Y-114920000D03*
D14*
X211140000Y-114920000D03*
D12*
X212940000Y-114920000D03*
%TD*%
D19*
%TO.P,LED_A1,1,VDD*%
%TO.N,+5V*%
X96375000Y-143430000D03*
%TO.P,LED_A1,2,DOUT*%
%TO.N,Net-(LED_A1-Pad2)*%
X96375000Y-144930000D03*
%TO.P,LED_A1,3,DIN*%
%TO.N,Net-(LED_A1-Pad3)*%
X101825000Y-143430000D03*
D20*
%TO.P,LED_A1,4,VSS*%
%TO.N,GND*%
X101825000Y-144930000D03*
%TD*%
D17*
%TO.P,D35,1,K*%
%TO.N,ROW2*%
X177500000Y-121587500D03*
%TO.P,D35,2,A*%
%TO.N,Net-(D35-Pad2)*%
X177500000Y-120012500D03*
%TD*%
D18*
%TO.P,C84,1*%
%TO.N,+5V*%
X331400000Y-186250000D03*
%TO.P,C84,2*%
%TO.N,GND*%
X331400000Y-187800000D03*
%TD*%
%TO.P,C51,1*%
%TO.N,+5V*%
X93100000Y-143400000D03*
%TO.P,C51,2*%
%TO.N,GND*%
X93100000Y-144950000D03*
%TD*%
D25*
%TO.P,Y1,1,1*%
%TO.N,Net-(C1-Pad1)*%
X337223223Y-141721142D03*
%TO.P,Y1,2,2*%
%TO.N,GND*%
X338778858Y-143276777D03*
%TO.P,Y1,3,3*%
%TO.N,Net-(C2-Pad1)*%
X337576777Y-144478858D03*
%TO.P,Y1,4,4*%
%TO.N,GND*%
X336021142Y-142923223D03*
%TD*%
D17*
%TO.P,D16,1,K*%
%TO.N,ROW1*%
X91800000Y-102587500D03*
%TO.P,D16,2,A*%
%TO.N,Net-(D16-Pad2)*%
X91800000Y-101012500D03*
%TD*%
D13*
%TO.P,K_leftAlt1,1,COL*%
%TO.N,COL2*%
X108440000Y-174660000D03*
D12*
X110165000Y-174660000D03*
D14*
X111990000Y-174660000D03*
D13*
%TO.P,K_leftAlt1,2,ROW*%
%TO.N,Net-(D75-Pad2)*%
X121890000Y-172120000D03*
D12*
X120140000Y-172120000D03*
D14*
X118340000Y-172120000D03*
%TD*%
D19*
%TO.P,LED_H1,1,VDD*%
%TO.N,+5V*%
X191575000Y-143330000D03*
%TO.P,LED_H1,2,DOUT*%
%TO.N,Net-(LED_G1-Pad3)*%
X191575000Y-144830000D03*
%TO.P,LED_H1,3,DIN*%
%TO.N,Net-(LED_H1-Pad3)*%
X197025000Y-143330000D03*
D20*
%TO.P,LED_H1,4,VSS*%
%TO.N,GND*%
X197025000Y-144830000D03*
%TD*%
D17*
%TO.P,D6,1,K*%
%TO.N,ROW0*%
X177500000Y-78787500D03*
%TO.P,D6,2,A*%
%TO.N,Net-(D6-Pad2)*%
X177500000Y-77212500D03*
%TD*%
D21*
%TO.P,C44,1*%
%TO.N,+5V*%
X176500000Y-125800000D03*
%TO.P,C44,2*%
%TO.N,GND*%
X176500000Y-124250000D03*
%TD*%
D17*
%TO.P,D57,1,K*%
%TO.N,ROW3*%
X327500000Y-140675000D03*
%TO.P,D57,2,A*%
%TO.N,Net-(D57-Pad2)*%
X327500000Y-139100000D03*
%TD*%
D15*
%TO.P,LED_F11,1,VDD*%
%TO.N,+5V*%
X292325000Y-83030000D03*
%TO.P,LED_F11,2,DOUT*%
%TO.N,Net-(LED_F11-Pad2)*%
X292325000Y-81530000D03*
%TO.P,LED_F11,3,DIN*%
%TO.N,Net-(LED_F10-Pad2)*%
X286875000Y-83030000D03*
D16*
%TO.P,LED_F11,4,VSS*%
%TO.N,GND*%
X286875000Y-81530000D03*
%TD*%
D15*
%TO.P,LED_M1,1,VDD*%
%TO.N,+5V*%
X225625000Y-163930000D03*
%TO.P,LED_M1,2,DOUT*%
%TO.N,Net-(LED_M1-Pad2)*%
X225625000Y-162430000D03*
%TO.P,LED_M1,3,DIN*%
%TO.N,Net-(LED_M1-Pad3)*%
X220175000Y-163930000D03*
D16*
%TO.P,LED_M1,4,VSS*%
%TO.N,GND*%
X220175000Y-162430000D03*
%TD*%
D15*
%TO.P,LED_closeBracket1,1,VDD*%
%TO.N,+5V*%
X306625000Y-125830000D03*
%TO.P,LED_closeBracket1,2,DOUT*%
%TO.N,Net-(LED_backslash1-Pad3)*%
X306625000Y-124330000D03*
%TO.P,LED_closeBracket1,3,DIN*%
%TO.N,Net-(LED_closeBracket1-Pad3)*%
X301175000Y-125830000D03*
D16*
%TO.P,LED_closeBracket1,4,VSS*%
%TO.N,GND*%
X301175000Y-124330000D03*
%TD*%
D19*
%TO.P,LED_windows1,1,VDD*%
%TO.N,+5V*%
X89175000Y-181530000D03*
%TO.P,LED_windows1,2,DOUT*%
%TO.N,Net-(LED_leftControl1-Pad3)*%
X89175000Y-183030000D03*
%TO.P,LED_windows1,3,DIN*%
%TO.N,Net-(LED_leftAlt1-Pad2)*%
X94625000Y-181530000D03*
D20*
%TO.P,LED_windows1,4,VSS*%
%TO.N,GND*%
X94625000Y-183030000D03*
%TD*%
D21*
%TO.P,C48,1*%
%TO.N,+5V*%
X100300000Y-125800000D03*
%TO.P,C48,2*%
%TO.N,GND*%
X100300000Y-124250000D03*
%TD*%
D17*
%TO.P,D72,1,K*%
%TO.N,ROW4*%
X368000000Y-159675000D03*
%TO.P,D72,2,A*%
%TO.N,Net-(D72-Pad2)*%
X368000000Y-158100000D03*
%TD*%
D13*
%TO.P,K_F2,1,COL*%
%TO.N,COL2*%
X101240000Y-74660000D03*
D14*
X104790000Y-74660000D03*
D12*
X102965000Y-74660000D03*
D13*
%TO.P,K_F2,2,ROW*%
%TO.N,Net-(D3-Pad2)*%
X114690000Y-72120000D03*
D12*
X112940000Y-72120000D03*
D14*
X111140000Y-72120000D03*
%TD*%
D19*
%TO.P,LED_rightControl1,1,VDD*%
%TO.N,+5V*%
X291575000Y-181530000D03*
%TO.P,LED_rightControl1,2,DOUT*%
%TO.N,Net-(LED_function1-Pad3)*%
X291575000Y-183030000D03*
%TO.P,LED_rightControl1,3,DIN*%
%TO.N,Net-(LED_leftArrow1-Pad2)*%
X297025000Y-181530000D03*
D20*
%TO.P,LED_rightControl1,4,VSS*%
%TO.N,GND*%
X297025000Y-183030000D03*
%TD*%
D17*
%TO.P,D58,1,K*%
%TO.N,ROW3*%
X368000000Y-140687500D03*
%TO.P,D58,2,A*%
%TO.N,Net-(D58-Pad2)*%
X368000000Y-139112500D03*
%TD*%
%TO.P,D71,1,K*%
%TO.N,ROW4*%
X344200000Y-164475000D03*
%TO.P,D71,2,A*%
%TO.N,Net-(D71-Pad2)*%
X344200000Y-162900000D03*
%TD*%
D21*
%TO.P,C37,1*%
%TO.N,+5V*%
X309900000Y-125800000D03*
%TO.P,C37,2*%
%TO.N,GND*%
X309900000Y-124250000D03*
%TD*%
D17*
%TO.P,D59,1,K*%
%TO.N,ROW4*%
X84600000Y-159787500D03*
%TO.P,D59,2,A*%
%TO.N,Net-(D59-Pad2)*%
X84600000Y-158212500D03*
%TD*%
D13*
%TO.P,K_F3,1,COL*%
%TO.N,COL3*%
X120340000Y-74660000D03*
D14*
X123890000Y-74660000D03*
D12*
X122065000Y-74660000D03*
%TO.P,K_F3,2,ROW*%
%TO.N,Net-(D4-Pad2)*%
X132040000Y-72120000D03*
D13*
X133790000Y-72120000D03*
D14*
X130240000Y-72120000D03*
%TD*%
D21*
%TO.P,C9,1*%
%TO.N,+5V*%
X95500000Y-83000000D03*
%TO.P,C9,2*%
%TO.N,GND*%
X95500000Y-81450000D03*
%TD*%
D12*
%TO.P,K_M1,1,COL*%
%TO.N,COL7*%
X217265000Y-155560000D03*
D13*
X215540000Y-155560000D03*
D14*
X219090000Y-155560000D03*
D13*
%TO.P,K_M1,2,ROW*%
%TO.N,Net-(D66-Pad2)*%
X228990000Y-153020000D03*
D14*
X225440000Y-153020000D03*
D12*
X227240000Y-153020000D03*
%TD*%
D17*
%TO.P,D2,1,K*%
%TO.N,ROW0*%
X96500000Y-78687500D03*
%TO.P,D2,2,A*%
%TO.N,Net-(D2-Pad2)*%
X96500000Y-77112500D03*
%TD*%
D13*
%TO.P,K_windows1,1,COL*%
%TO.N,COL1*%
X84540000Y-174660000D03*
D12*
X86265000Y-174660000D03*
D14*
X88090000Y-174660000D03*
D13*
%TO.P,K_windows1,2,ROW*%
%TO.N,Net-(D74-Pad2)*%
X97990000Y-172120000D03*
D12*
X96240000Y-172120000D03*
D14*
X94440000Y-172120000D03*
%TD*%
D18*
%TO.P,C32,1*%
%TO.N,+5V*%
X250200000Y-105350000D03*
%TO.P,C32,2*%
%TO.N,GND*%
X250200000Y-106900000D03*
%TD*%
D14*
%TO.P,K_R1,1,COL*%
%TO.N,COL4*%
X147590000Y-117460000D03*
D13*
X144040000Y-117460000D03*
D12*
X145765000Y-117460000D03*
D14*
%TO.P,K_R1,2,ROW*%
%TO.N,Net-(D34-Pad2)*%
X153940000Y-114920000D03*
D12*
X155740000Y-114920000D03*
D13*
X157490000Y-114920000D03*
%TD*%
D17*
%TO.P,D22,1,K*%
%TO.N,ROW1*%
X206100000Y-102575000D03*
%TO.P,D22,2,A*%
%TO.N,Net-(D22-Pad2)*%
X206100000Y-101000000D03*
%TD*%
D21*
%TO.P,C71,1*%
%TO.N,+5V*%
X248000000Y-163900000D03*
%TO.P,C71,2*%
%TO.N,GND*%
X248000000Y-162350000D03*
%TD*%
D18*
%TO.P,C76,1*%
%TO.N,+5V*%
X62200000Y-181550000D03*
%TO.P,C76,2*%
%TO.N,GND*%
X62200000Y-183100000D03*
%TD*%
D13*
%TO.P,K_2,1,COL*%
%TO.N,COL2*%
X96440000Y-98460000D03*
D12*
X98165000Y-98460000D03*
D14*
X99990000Y-98460000D03*
D12*
%TO.P,K_2,2,ROW*%
%TO.N,Net-(D17-Pad2)*%
X108140000Y-95920000D03*
D13*
X109890000Y-95920000D03*
D14*
X106340000Y-95920000D03*
%TD*%
D12*
%TO.P,K_leftShift1,1,COL*%
%TO.N,COL0*%
X72065000Y-155660000D03*
D14*
X73890000Y-155660000D03*
D13*
X70340000Y-155660000D03*
D14*
%TO.P,K_leftShift1,2,ROW*%
%TO.N,Net-(D59-Pad2)*%
X80240000Y-153120000D03*
D13*
X83790000Y-153120000D03*
D12*
X82040000Y-153120000D03*
%TD*%
D26*
%TO.P,SW1,1,1*%
%TO.N,GND*%
X351050000Y-163300000D03*
%TO.P,SW1,2,2*%
%TO.N,Net-(R1-Pad2)*%
X347350000Y-157100000D03*
%TO.P,SW1,3*%
%TO.N,N/C*%
X347350000Y-163300000D03*
%TO.P,SW1,4*%
X351050000Y-157100000D03*
%TD*%
D17*
%TO.P,D34,1,K*%
%TO.N,ROW2*%
X158400000Y-121575000D03*
%TO.P,D34,2,A*%
%TO.N,Net-(D34-Pad2)*%
X158400000Y-120000000D03*
%TD*%
D13*
%TO.P,K_F1,1,COL*%
%TO.N,COL1*%
X82140000Y-74660000D03*
D14*
X85690000Y-74660000D03*
D12*
X83865000Y-74660000D03*
%TO.P,K_F1,2,ROW*%
%TO.N,Net-(D2-Pad2)*%
X93840000Y-72120000D03*
D14*
X92040000Y-72120000D03*
D13*
X95590000Y-72120000D03*
%TD*%
D19*
%TO.P,LED_function1,1,VDD*%
%TO.N,+5V*%
X272475000Y-181530000D03*
%TO.P,LED_function1,2,DOUT*%
%TO.N,Net-(LED_function1-Pad2)*%
X272475000Y-183030000D03*
%TO.P,LED_function1,3,DIN*%
%TO.N,Net-(LED_function1-Pad3)*%
X277925000Y-181530000D03*
D20*
%TO.P,LED_function1,4,VSS*%
%TO.N,GND*%
X277925000Y-183030000D03*
%TD*%
D12*
%TO.P,K_9,1,COL*%
%TO.N,COL9*%
X231565000Y-98460000D03*
D14*
X233390000Y-98460000D03*
D13*
X229840000Y-98460000D03*
D14*
%TO.P,K_9,2,ROW*%
%TO.N,Net-(D24-Pad2)*%
X239740000Y-95920000D03*
D13*
X243290000Y-95920000D03*
D12*
X241540000Y-95920000D03*
%TD*%
D18*
%TO.P,C35,1*%
%TO.N,+5V*%
X317000000Y-105350000D03*
%TO.P,C35,2*%
%TO.N,GND*%
X317000000Y-106900000D03*
%TD*%
D19*
%TO.P,LED_3,1,VDD*%
%TO.N,+5V*%
X120175000Y-105330000D03*
%TO.P,LED_3,2,DOUT*%
%TO.N,Net-(LED_2-Pad3)*%
X120175000Y-106830000D03*
%TO.P,LED_3,3,DIN*%
%TO.N,Net-(LED_3-Pad3)*%
X125625000Y-105330000D03*
D20*
%TO.P,LED_3,4,VSS*%
%TO.N,GND*%
X125625000Y-106830000D03*
%TD*%
D17*
%TO.P,D39,1,K*%
%TO.N,ROW2*%
X253700000Y-121587500D03*
%TO.P,D39,2,A*%
%TO.N,Net-(D39-Pad2)*%
X253700000Y-120012500D03*
%TD*%
D19*
%TO.P,LED_7,1,VDD*%
%TO.N,+5V*%
X196375000Y-105330000D03*
%TO.P,LED_7,2,DOUT*%
%TO.N,Net-(LED_6-Pad3)*%
X196375000Y-106830000D03*
%TO.P,LED_7,3,DIN*%
%TO.N,Net-(LED_7-Pad3)*%
X201825000Y-105330000D03*
D20*
%TO.P,LED_7,4,VSS*%
%TO.N,GND*%
X201825000Y-106830000D03*
%TD*%
D17*
%TO.P,D17,1,K*%
%TO.N,ROW1*%
X110800000Y-102575000D03*
%TO.P,D17,2,A*%
%TO.N,Net-(D17-Pad2)*%
X110800000Y-101000000D03*
%TD*%
D13*
%TO.P,K_D1,1,COL*%
%TO.N,COL3*%
X129840000Y-136560000D03*
D14*
X133390000Y-136560000D03*
D12*
X131565000Y-136560000D03*
D14*
%TO.P,K_D1,2,ROW*%
%TO.N,Net-(D48-Pad2)*%
X139740000Y-134020000D03*
D13*
X143290000Y-134020000D03*
D12*
X141540000Y-134020000D03*
%TD*%
D15*
%TO.P,LED_C1,1,VDD*%
%TO.N,+5V*%
X149435000Y-163870000D03*
%TO.P,LED_C1,2,DOUT*%
%TO.N,Net-(LED_C1-Pad2)*%
X149435000Y-162370000D03*
%TO.P,LED_C1,3,DIN*%
%TO.N,Net-(LED_C1-Pad3)*%
X143985000Y-163870000D03*
D16*
%TO.P,LED_C1,4,VSS*%
%TO.N,GND*%
X143985000Y-162370000D03*
%TD*%
D27*
%TO.P,F1,1*%
%TO.N,VBUS*%
X350500000Y-81500000D03*
%TO.P,F1,2*%
%TO.N,+5V*%
X350500000Y-84300000D03*
%TD*%
D15*
%TO.P,LED_F9,1,VDD*%
%TO.N,+5V*%
X254225000Y-83030000D03*
%TO.P,LED_F9,2,DOUT*%
%TO.N,Net-(LED_F10-Pad3)*%
X254225000Y-81530000D03*
%TO.P,LED_F9,3,DIN*%
%TO.N,Net-(LED_F8-Pad2)*%
X248775000Y-83030000D03*
D16*
%TO.P,LED_F9,4,VSS*%
%TO.N,GND*%
X248775000Y-81530000D03*
%TD*%
D12*
%TO.P,K_leftArrow1,1,COL*%
%TO.N,COL12*%
X312465000Y-179360000D03*
D14*
X314290000Y-179360000D03*
D13*
X310740000Y-179360000D03*
%TO.P,K_leftArrow1,2,ROW*%
%TO.N,Net-(D80-Pad2)*%
X324190000Y-176820000D03*
D12*
X322440000Y-176820000D03*
D14*
X320640000Y-176820000D03*
%TD*%
D21*
%TO.P,C38,1*%
%TO.N,+5V*%
X290900000Y-125800000D03*
%TO.P,C38,2*%
%TO.N,GND*%
X290900000Y-124250000D03*
%TD*%
D17*
%TO.P,D62,1,K*%
%TO.N,ROW4*%
X153700000Y-159575000D03*
%TO.P,D62,2,A*%
%TO.N,Net-(D62-Pad2)*%
X153700000Y-158000000D03*
%TD*%
D18*
%TO.P,C56,1*%
%TO.N,+5V*%
X188400000Y-143300000D03*
%TO.P,C56,2*%
%TO.N,GND*%
X188400000Y-144850000D03*
%TD*%
D12*
%TO.P,K_F11,1,COL*%
%TO.N,COL11*%
X283965000Y-74660000D03*
D14*
X285790000Y-74660000D03*
D13*
X282240000Y-74660000D03*
D14*
%TO.P,K_F11,2,ROW*%
%TO.N,Net-(D12-Pad2)*%
X292140000Y-72120000D03*
D12*
X293940000Y-72120000D03*
D13*
X295690000Y-72120000D03*
%TD*%
%TO.P,K_period1,1,COL*%
%TO.N,COL9*%
X253640000Y-155560000D03*
D12*
X255365000Y-155560000D03*
D14*
X257190000Y-155560000D03*
D13*
%TO.P,K_period1,2,ROW*%
%TO.N,Net-(D68-Pad2)*%
X267090000Y-153020000D03*
D12*
X265340000Y-153020000D03*
D14*
X263540000Y-153020000D03*
%TD*%
D18*
%TO.P,C33,1*%
%TO.N,+5V*%
X269300000Y-105325000D03*
%TO.P,C33,2*%
%TO.N,GND*%
X269300000Y-106875000D03*
%TD*%
D21*
%TO.P,C43,1*%
%TO.N,+5V*%
X195600000Y-125800000D03*
%TO.P,C43,2*%
%TO.N,GND*%
X195600000Y-124250000D03*
%TD*%
D12*
%TO.P,K_tab1,1,COL*%
%TO.N,COL0*%
X64865000Y-117460000D03*
D14*
X66690000Y-117460000D03*
D13*
X63140000Y-117460000D03*
%TO.P,K_tab1,2,ROW*%
%TO.N,Net-(D30-Pad2)*%
X76590000Y-114920000D03*
D14*
X73040000Y-114920000D03*
D12*
X74840000Y-114920000D03*
%TD*%
D17*
%TO.P,D76,1,K*%
%TO.N,ROW5*%
X194200000Y-178775000D03*
%TO.P,D76,2,A*%
%TO.N,Net-(D76-Pad2)*%
X194200000Y-177200000D03*
%TD*%
%TO.P,D29,1,K*%
%TO.N,ROW1*%
X368000000Y-102587500D03*
%TO.P,D29,2,A*%
%TO.N,Net-(D29-Pad2)*%
X368000000Y-101012500D03*
%TD*%
%TO.P,D50,1,K*%
%TO.N,ROW3*%
X182300000Y-140575000D03*
%TO.P,D50,2,A*%
%TO.N,Net-(D50-Pad2)*%
X182300000Y-139000000D03*
%TD*%
D19*
%TO.P,LED_capsLock1,1,VDD*%
%TO.N,+5V*%
X70175000Y-143430000D03*
%TO.P,LED_capsLock1,2,DOUT*%
%TO.N,Net-(LED_capsLock1-Pad2)*%
X70175000Y-144930000D03*
%TO.P,LED_capsLock1,3,DIN*%
%TO.N,Net-(LED_A1-Pad2)*%
X75625000Y-143430000D03*
D20*
%TO.P,LED_capsLock1,4,VSS*%
%TO.N,GND*%
X75625000Y-144930000D03*
%TD*%
D19*
%TO.P,LED_downArrow1,1,VDD*%
%TO.N,+5V*%
X334475000Y-186230000D03*
%TO.P,LED_downArrow1,2,DOUT*%
%TO.N,Net-(LED_downArrow1-Pad2)*%
X334475000Y-187730000D03*
%TO.P,LED_downArrow1,3,DIN*%
%TO.N,Net-(LED_downArrow1-Pad3)*%
X339925000Y-186230000D03*
D20*
%TO.P,LED_downArrow1,4,VSS*%
%TO.N,GND*%
X339925000Y-187730000D03*
%TD*%
D19*
%TO.P,LED_end1,1,VDD*%
%TO.N,+5V*%
X358275000Y-162430000D03*
%TO.P,LED_end1,2,DOUT*%
%TO.N,Net-(LED_rightArrow1-Pad3)*%
X358275000Y-163930000D03*
%TO.P,LED_end1,3,DIN*%
%TO.N,Net-(LED_end1-Pad3)*%
X363725000Y-162430000D03*
D20*
%TO.P,LED_end1,4,VSS*%
%TO.N,GND*%
X363725000Y-163930000D03*
%TD*%
D17*
%TO.P,D41,1,K*%
%TO.N,ROW2*%
X291800000Y-121575000D03*
%TO.P,D41,2,A*%
%TO.N,Net-(D41-Pad2)*%
X291800000Y-120000000D03*
%TD*%
D28*
%TO.P,C6,1*%
%TO.N,+5V*%
X337348008Y-135148008D03*
%TO.P,C6,2*%
%TO.N,GND*%
X336251992Y-134051992D03*
%TD*%
D17*
%TO.P,D45,1,K*%
%TO.N,ROW3*%
X79900000Y-140675000D03*
%TO.P,D45,2,A*%
%TO.N,Net-(D45-Pad2)*%
X79900000Y-139100000D03*
%TD*%
D15*
%TO.P,LED_E1,1,VDD*%
%TO.N,+5V*%
X135125000Y-125830000D03*
%TO.P,LED_E1,2,DOUT*%
%TO.N,Net-(LED_E1-Pad2)*%
X135125000Y-124330000D03*
%TO.P,LED_E1,3,DIN*%
%TO.N,Net-(LED_E1-Pad3)*%
X129675000Y-125830000D03*
D16*
%TO.P,LED_E1,4,VSS*%
%TO.N,GND*%
X129675000Y-124330000D03*
%TD*%
D21*
%TO.P,C15,1*%
%TO.N,+5V*%
X214500000Y-83000000D03*
%TO.P,C15,2*%
%TO.N,GND*%
X214500000Y-81450000D03*
%TD*%
%TO.P,C36,1*%
%TO.N,+5V*%
X333800000Y-125850000D03*
%TO.P,C36,2*%
%TO.N,GND*%
X333800000Y-124300000D03*
%TD*%
D13*
%TO.P,K_rightShift1,1,COL*%
%TO.N,COL11*%
X298840000Y-155560000D03*
D12*
X300565000Y-155560000D03*
D14*
X302390000Y-155560000D03*
%TO.P,K_rightShift1,2,ROW*%
%TO.N,Net-(D70-Pad2)*%
X308740000Y-153020000D03*
D12*
X310540000Y-153020000D03*
D13*
X312290000Y-153020000D03*
%TD*%
D14*
%TO.P,K_minus1,1,COL*%
%TO.N,COL11*%
X271440000Y-98440000D03*
D13*
X267890000Y-98440000D03*
D12*
X269615000Y-98440000D03*
D14*
%TO.P,K_minus1,2,ROW*%
%TO.N,Net-(D26-Pad2)*%
X277790000Y-95900000D03*
D13*
X281340000Y-95900000D03*
D12*
X279590000Y-95900000D03*
%TD*%
%TO.P,K_W1,1,COL*%
%TO.N,COL2*%
X107665000Y-117460000D03*
D14*
X109490000Y-117460000D03*
D13*
X105940000Y-117460000D03*
D14*
%TO.P,K_W1,2,ROW*%
%TO.N,Net-(D32-Pad2)*%
X115840000Y-114920000D03*
D13*
X119390000Y-114920000D03*
D12*
X117640000Y-114920000D03*
%TD*%
%TO.P,K_5,1,COL*%
%TO.N,COL5*%
X155365000Y-98460000D03*
D14*
X157190000Y-98460000D03*
D13*
X153640000Y-98460000D03*
D14*
%TO.P,K_5,2,ROW*%
%TO.N,Net-(D20-Pad2)*%
X163540000Y-95920000D03*
D13*
X167090000Y-95920000D03*
D12*
X165340000Y-95920000D03*
%TD*%
D24*
%TO.P,R6,1*%
%TO.N,Net-(J1-PadB5)*%
X358900000Y-77950000D03*
%TO.P,R6,2*%
%TO.N,GND*%
X358900000Y-79600000D03*
%TD*%
D13*
%TO.P,K_3,1,COL*%
%TO.N,COL3*%
X115540000Y-98460000D03*
D14*
X119090000Y-98460000D03*
D12*
X117265000Y-98460000D03*
D13*
%TO.P,K_3,2,ROW*%
%TO.N,Net-(D18-Pad2)*%
X128990000Y-95920000D03*
D12*
X127240000Y-95920000D03*
D14*
X125440000Y-95920000D03*
%TD*%
D18*
%TO.P,C28,1*%
%TO.N,+5V*%
X174100000Y-105350000D03*
%TO.P,C28,2*%
%TO.N,GND*%
X174100000Y-106900000D03*
%TD*%
%TO.P,C62,1*%
%TO.N,+5V*%
X314700000Y-143400000D03*
%TO.P,C62,2*%
%TO.N,GND*%
X314700000Y-144950000D03*
%TD*%
D12*
%TO.P,K_quote1,1,COL*%
%TO.N,COL11*%
X283965000Y-136560000D03*
D13*
X282240000Y-136560000D03*
D14*
X285790000Y-136560000D03*
%TO.P,K_quote1,2,ROW*%
%TO.N,Net-(D56-Pad2)*%
X292140000Y-134020000D03*
D13*
X295690000Y-134020000D03*
D12*
X293940000Y-134020000D03*
%TD*%
D17*
%TO.P,D30,1,K*%
%TO.N,ROW2*%
X77500000Y-121587500D03*
%TO.P,D30,2,A*%
%TO.N,Net-(D30-Pad2)*%
X77500000Y-120012500D03*
%TD*%
%TO.P,D20,1,K*%
%TO.N,ROW1*%
X168000000Y-102575000D03*
%TO.P,D20,2,A*%
%TO.N,Net-(D20-Pad2)*%
X168000000Y-101000000D03*
%TD*%
%TO.P,D14,1,K*%
%TO.N,ROW0*%
X339400000Y-78775000D03*
%TO.P,D14,2,A*%
%TO.N,Net-(D14-Pad2)*%
X339400000Y-77200000D03*
%TD*%
D21*
%TO.P,C12,1*%
%TO.N,+5V*%
X152600000Y-82900000D03*
%TO.P,C12,2*%
%TO.N,GND*%
X152600000Y-81350000D03*
%TD*%
D19*
%TO.P,LED_pgUp1,1,VDD*%
%TO.N,+5V*%
X358275000Y-124330000D03*
%TO.P,LED_pgUp1,2,DOUT*%
%TO.N,Net-(LED_pgDn1-Pad3)*%
X358275000Y-125830000D03*
%TO.P,LED_pgUp1,3,DIN*%
%TO.N,Net-(LED_home1-Pad2)*%
X363725000Y-124330000D03*
D20*
%TO.P,LED_pgUp1,4,VSS*%
%TO.N,GND*%
X363725000Y-125830000D03*
%TD*%
D14*
%TO.P,K_F7,1,COL*%
%TO.N,COL7*%
X204790000Y-74660000D03*
D12*
X202965000Y-74660000D03*
D13*
X201240000Y-74660000D03*
%TO.P,K_F7,2,ROW*%
%TO.N,Net-(D8-Pad2)*%
X214690000Y-72120000D03*
D12*
X212940000Y-72120000D03*
D14*
X211140000Y-72120000D03*
%TD*%
D12*
%TO.P,K_K1,1,COL*%
%TO.N,COL8*%
X226765000Y-136560000D03*
D14*
X228590000Y-136560000D03*
D13*
X225040000Y-136560000D03*
D14*
%TO.P,K_K1,2,ROW*%
%TO.N,Net-(D53-Pad2)*%
X234940000Y-134020000D03*
D13*
X238490000Y-134020000D03*
D12*
X236740000Y-134020000D03*
%TD*%
D17*
%TO.P,D69,1,K*%
%TO.N,ROW4*%
X287000000Y-159675000D03*
%TO.P,D69,2,A*%
%TO.N,Net-(D69-Pad2)*%
X287000000Y-158100000D03*
%TD*%
D13*
%TO.P,K_comma1,1,COL*%
%TO.N,COL8*%
X234640000Y-155560000D03*
D12*
X236365000Y-155560000D03*
D14*
X238190000Y-155560000D03*
D12*
%TO.P,K_comma1,2,ROW*%
%TO.N,Net-(D67-Pad2)*%
X246340000Y-153020000D03*
D13*
X248090000Y-153020000D03*
D14*
X244540000Y-153020000D03*
%TD*%
D15*
%TO.P,LED_Q1,1,VDD*%
%TO.N,+5V*%
X97025000Y-125830000D03*
%TO.P,LED_Q1,2,DOUT*%
%TO.N,Net-(LED_Q1-Pad2)*%
X97025000Y-124330000D03*
%TO.P,LED_Q1,3,DIN*%
%TO.N,Net-(LED_Q1-Pad3)*%
X91575000Y-125830000D03*
D16*
%TO.P,LED_Q1,4,VSS*%
%TO.N,GND*%
X91575000Y-124330000D03*
%TD*%
D19*
%TO.P,LED_colon1,1,VDD*%
%TO.N,+5V*%
X267875000Y-143430000D03*
%TO.P,LED_colon1,2,DOUT*%
%TO.N,Net-(LED_L1-Pad3)*%
X267875000Y-144930000D03*
%TO.P,LED_colon1,3,DIN*%
%TO.N,Net-(LED_colon1-Pad3)*%
X273325000Y-143430000D03*
D20*
%TO.P,LED_colon1,4,VSS*%
%TO.N,GND*%
X273325000Y-144930000D03*
%TD*%
D14*
%TO.P,K_1,1,COL*%
%TO.N,COL1*%
X80990000Y-98460000D03*
D12*
X79165000Y-98460000D03*
D13*
X77440000Y-98460000D03*
D12*
%TO.P,K_1,2,ROW*%
%TO.N,Net-(D16-Pad2)*%
X89140000Y-95920000D03*
D14*
X87340000Y-95920000D03*
D13*
X90890000Y-95920000D03*
%TD*%
%TO.P,K_4,1,COL*%
%TO.N,COL4*%
X134540000Y-98460000D03*
D14*
X138090000Y-98460000D03*
D12*
X136265000Y-98460000D03*
D14*
%TO.P,K_4,2,ROW*%
%TO.N,Net-(D19-Pad2)*%
X144440000Y-95920000D03*
D13*
X147990000Y-95920000D03*
D12*
X146240000Y-95920000D03*
%TD*%
D21*
%TO.P,C19,1*%
%TO.N,+5V*%
X295500000Y-83100000D03*
%TO.P,C19,2*%
%TO.N,GND*%
X295500000Y-81550000D03*
%TD*%
D17*
%TO.P,D8,1,K*%
%TO.N,ROW0*%
X215600000Y-78800000D03*
%TO.P,D8,2,A*%
%TO.N,Net-(D8-Pad2)*%
X215600000Y-77225000D03*
%TD*%
D14*
%TO.P,K_0,1,COL*%
%TO.N,COL10*%
X252390000Y-98460000D03*
D13*
X248840000Y-98460000D03*
D12*
X250565000Y-98460000D03*
D13*
%TO.P,K_0,2,ROW*%
%TO.N,Net-(D25-Pad2)*%
X262290000Y-95920000D03*
D12*
X260540000Y-95920000D03*
D14*
X258740000Y-95920000D03*
%TD*%
D12*
%TO.P,K_L1,1,COL*%
%TO.N,COL9*%
X245865000Y-136560000D03*
D14*
X247690000Y-136560000D03*
D13*
X244140000Y-136560000D03*
D12*
%TO.P,K_L1,2,ROW*%
%TO.N,Net-(D54-Pad2)*%
X255840000Y-134020000D03*
D14*
X254040000Y-134020000D03*
D13*
X257590000Y-134020000D03*
%TD*%
D21*
%TO.P,C18,1*%
%TO.N,+5V*%
X276500000Y-82850000D03*
%TO.P,C18,2*%
%TO.N,GND*%
X276500000Y-81300000D03*
%TD*%
D18*
%TO.P,C83,1*%
%TO.N,+5V*%
X312200000Y-186250000D03*
%TO.P,C83,2*%
%TO.N,GND*%
X312200000Y-187800000D03*
%TD*%
D17*
%TO.P,D37,1,K*%
%TO.N,ROW2*%
X215600000Y-121575000D03*
%TO.P,D37,2,A*%
%TO.N,Net-(D37-Pad2)*%
X215600000Y-120000000D03*
%TD*%
D21*
%TO.P,C63,1*%
%TO.N,+5V*%
X83700000Y-164000000D03*
%TO.P,C63,2*%
%TO.N,GND*%
X83700000Y-162450000D03*
%TD*%
D14*
%TO.P,K_closeBracket1,1,COL*%
%TO.N,COL12*%
X300090000Y-117460000D03*
D13*
X296540000Y-117460000D03*
D12*
X298265000Y-117460000D03*
D14*
%TO.P,K_closeBracket1,2,ROW*%
%TO.N,Net-(D42-Pad2)*%
X306440000Y-114920000D03*
D12*
X308240000Y-114920000D03*
D13*
X309990000Y-114920000D03*
%TD*%
D17*
%TO.P,D15,1,K*%
%TO.N,ROW1*%
X72700000Y-102575000D03*
%TO.P,D15,2,A*%
%TO.N,Net-(D15-Pad2)*%
X72700000Y-101000000D03*
%TD*%
%TO.P,D9,1,K*%
%TO.N,ROW0*%
X234700000Y-78775000D03*
%TO.P,D9,2,A*%
%TO.N,Net-(D9-Pad2)*%
X234700000Y-77200000D03*
%TD*%
%TO.P,D77,1,K*%
%TO.N,ROW5*%
X263200000Y-178775000D03*
%TO.P,D77,2,A*%
%TO.N,Net-(D77-Pad2)*%
X263200000Y-177200000D03*
%TD*%
%TO.P,D25,1,K*%
%TO.N,ROW1*%
X263200000Y-102587500D03*
%TO.P,D25,2,A*%
%TO.N,Net-(D25-Pad2)*%
X263200000Y-101012500D03*
%TD*%
D19*
%TO.P,LED_9,1,VDD*%
%TO.N,+5V*%
X234475000Y-105330000D03*
%TO.P,LED_9,2,DOUT*%
%TO.N,Net-(LED_8-Pad3)*%
X234475000Y-106830000D03*
%TO.P,LED_9,3,DIN*%
%TO.N,Net-(LED_0-Pad2)*%
X239925000Y-105330000D03*
D20*
%TO.P,LED_9,4,VSS*%
%TO.N,GND*%
X239925000Y-106830000D03*
%TD*%
D29*
%TO.P,U2,1,GND*%
%TO.N,GND*%
X355750000Y-78360000D03*
D30*
%TO.P,U2,2,IO1*%
%TO.N,Net-(J1-PadA6)*%
X355750000Y-80060000D03*
%TO.P,U2,3,IO2*%
%TO.N,Net-(J1-PadA7)*%
X353750000Y-80060000D03*
%TO.P,U2,4,VCC*%
%TO.N,VBUS*%
X353750000Y-78160000D03*
%TD*%
D14*
%TO.P,K_Y1,1,COL*%
%TO.N,COL6*%
X185790000Y-117460000D03*
D12*
X183965000Y-117460000D03*
D13*
X182240000Y-117460000D03*
D12*
%TO.P,K_Y1,2,ROW*%
%TO.N,Net-(D36-Pad2)*%
X193940000Y-114920000D03*
D14*
X192140000Y-114920000D03*
D13*
X195690000Y-114920000D03*
%TD*%
D21*
%TO.P,C45,1*%
%TO.N,+5V*%
X157400000Y-125800000D03*
%TO.P,C45,2*%
%TO.N,GND*%
X157400000Y-124250000D03*
%TD*%
D17*
%TO.P,D7,1,K*%
%TO.N,ROW0*%
X196600000Y-78787500D03*
%TO.P,D7,2,A*%
%TO.N,Net-(D7-Pad2)*%
X196600000Y-77212500D03*
%TD*%
%TO.P,D53,1,K*%
%TO.N,ROW3*%
X239400000Y-140675000D03*
%TO.P,D53,2,A*%
%TO.N,Net-(D53-Pad2)*%
X239400000Y-139100000D03*
%TD*%
D12*
%TO.P,K_backSlash1,1,COL*%
%TO.N,COL13*%
X322065000Y-117460000D03*
D14*
X323890000Y-117460000D03*
D13*
X320340000Y-117460000D03*
%TO.P,K_backSlash1,2,ROW*%
%TO.N,Net-(D43-Pad2)*%
X333790000Y-114920000D03*
D14*
X330240000Y-114920000D03*
D12*
X332040000Y-114920000D03*
%TD*%
D18*
%TO.P,C54,1*%
%TO.N,+5V*%
X150400000Y-143300000D03*
%TO.P,C54,2*%
%TO.N,GND*%
X150400000Y-144850000D03*
%TD*%
D21*
%TO.P,C14,1*%
%TO.N,+5V*%
X195500000Y-83000000D03*
%TO.P,C14,2*%
%TO.N,GND*%
X195500000Y-81450000D03*
%TD*%
D17*
%TO.P,D24,1,K*%
%TO.N,ROW1*%
X244200000Y-102575000D03*
%TO.P,D24,2,A*%
%TO.N,Net-(D24-Pad2)*%
X244200000Y-101000000D03*
%TD*%
D31*
%TO.P,C3,1*%
%TO.N,Net-(C3-Pad1)*%
X348003984Y-142203984D03*
%TO.P,C3,2*%
%TO.N,GND*%
X349100000Y-143300000D03*
%TD*%
D18*
%TO.P,C25,1*%
%TO.N,+5V*%
X117000000Y-105350000D03*
%TO.P,C25,2*%
%TO.N,GND*%
X117000000Y-106900000D03*
%TD*%
D15*
%TO.P,LED_F1,1,VDD*%
%TO.N,+5V*%
X92225000Y-83030000D03*
%TO.P,LED_F1,2,DOUT*%
%TO.N,Net-(LED_F1-Pad2)*%
X92225000Y-81530000D03*
%TO.P,LED_F1,3,DIN*%
%TO.N,Net-(LED_F1-Pad3)*%
X86775000Y-83030000D03*
D16*
%TO.P,LED_F1,4,VSS*%
%TO.N,GND*%
X86775000Y-81530000D03*
%TD*%
D13*
%TO.P,K_upArrow1,1,COL*%
%TO.N,COL13*%
X329840000Y-160360000D03*
D14*
X333390000Y-160360000D03*
D12*
X331565000Y-160360000D03*
D13*
%TO.P,K_upArrow1,2,ROW*%
%TO.N,Net-(D71-Pad2)*%
X343290000Y-157820000D03*
D14*
X339740000Y-157820000D03*
D12*
X341540000Y-157820000D03*
%TD*%
D17*
%TO.P,D75,1,K*%
%TO.N,ROW5*%
X122700000Y-178787500D03*
%TO.P,D75,2,A*%
%TO.N,Net-(D75-Pad2)*%
X122700000Y-177212500D03*
%TD*%
D19*
%TO.P,LED_backspace1,1,VDD*%
%TO.N,+5V*%
X320175000Y-105330000D03*
%TO.P,LED_backspace1,2,DOUT*%
%TO.N,Net-(LED_backspace1-Pad2)*%
X320175000Y-106830000D03*
%TO.P,LED_backspace1,3,DIN*%
%TO.N,Net-(LED_backslash1-Pad2)*%
X325625000Y-105330000D03*
D20*
%TO.P,LED_backspace1,4,VSS*%
%TO.N,GND*%
X325625000Y-106830000D03*
%TD*%
D15*
%TO.P,LED_T1,1,VDD*%
%TO.N,+5V*%
X173225000Y-125830000D03*
%TO.P,LED_T1,2,DOUT*%
%TO.N,Net-(LED_T1-Pad2)*%
X173225000Y-124330000D03*
%TO.P,LED_T1,3,DIN*%
%TO.N,Net-(LED_R1-Pad2)*%
X167775000Y-125830000D03*
D16*
%TO.P,LED_T1,4,VSS*%
%TO.N,GND*%
X167775000Y-124330000D03*
%TD*%
D17*
%TO.P,D11,1,K*%
%TO.N,ROW0*%
X277500000Y-78687500D03*
%TO.P,D11,2,A*%
%TO.N,Net-(D11-Pad2)*%
X277500000Y-77112500D03*
%TD*%
%TO.P,D63,1,K*%
%TO.N,ROW4*%
X172800000Y-159687500D03*
%TO.P,D63,2,A*%
%TO.N,Net-(D63-Pad2)*%
X172800000Y-158112500D03*
%TD*%
%TO.P,D4,1,K*%
%TO.N,ROW0*%
X134600000Y-78775000D03*
%TO.P,D4,2,A*%
%TO.N,Net-(D4-Pad2)*%
X134600000Y-77200000D03*
%TD*%
D24*
%TO.P,R3,1*%
%TO.N,Net-(J1-PadA7)*%
X353750000Y-81600000D03*
%TO.P,R3,2*%
%TO.N,D-*%
X353750000Y-83250000D03*
%TD*%
D18*
%TO.P,C55,1*%
%TO.N,+5V*%
X169500000Y-143325000D03*
%TO.P,C55,2*%
%TO.N,GND*%
X169500000Y-144875000D03*
%TD*%
D17*
%TO.P,D49,1,K*%
%TO.N,ROW3*%
X163200000Y-140600000D03*
%TO.P,D49,2,A*%
%TO.N,Net-(D49-Pad2)*%
X163200000Y-139025000D03*
%TD*%
D12*
%TO.P,K_S1,1,COL*%
%TO.N,COL2*%
X112465000Y-136560000D03*
D14*
X114290000Y-136560000D03*
D13*
X110740000Y-136560000D03*
D12*
%TO.P,K_S1,2,ROW*%
%TO.N,Net-(D47-Pad2)*%
X122440000Y-134020000D03*
D14*
X120640000Y-134020000D03*
D13*
X124190000Y-134020000D03*
%TD*%
D17*
%TO.P,D46,1,K*%
%TO.N,ROW3*%
X106100000Y-140675000D03*
%TO.P,D46,2,A*%
%TO.N,Net-(D46-Pad2)*%
X106100000Y-139100000D03*
%TD*%
D19*
%TO.P,LED_0,1,VDD*%
%TO.N,+5V*%
X253475000Y-105330000D03*
%TO.P,LED_0,2,DOUT*%
%TO.N,Net-(LED_0-Pad2)*%
X253475000Y-106830000D03*
%TO.P,LED_0,3,DIN*%
%TO.N,Net-(LED_0-Pad3)*%
X258925000Y-105330000D03*
D20*
%TO.P,LED_0,4,VSS*%
%TO.N,GND*%
X258925000Y-106830000D03*
%TD*%
D15*
%TO.P,LED_F8,1,VDD*%
%TO.N,+5V*%
X230325000Y-83030000D03*
%TO.P,LED_F8,2,DOUT*%
%TO.N,Net-(LED_F8-Pad2)*%
X230325000Y-81530000D03*
%TO.P,LED_F8,3,DIN*%
%TO.N,Net-(LED_F7-Pad2)*%
X224875000Y-83030000D03*
D16*
%TO.P,LED_F8,4,VSS*%
%TO.N,GND*%
X224875000Y-81530000D03*
%TD*%
D13*
%TO.P,K_F4,1,COL*%
%TO.N,COL4*%
X139340000Y-74560000D03*
D12*
X141065000Y-74560000D03*
D14*
X142890000Y-74560000D03*
%TO.P,K_F4,2,ROW*%
%TO.N,Net-(D5-Pad2)*%
X149240000Y-72020000D03*
D13*
X152790000Y-72020000D03*
D12*
X151040000Y-72020000D03*
%TD*%
D15*
%TO.P,LED_period1,1,VDD*%
%TO.N,+5V*%
X263725000Y-163930000D03*
%TO.P,LED_period1,2,DOUT*%
%TO.N,Net-(LED_period1-Pad2)*%
X263725000Y-162430000D03*
%TO.P,LED_period1,3,DIN*%
%TO.N,Net-(LED_comma1-Pad2)*%
X258275000Y-163930000D03*
D16*
%TO.P,LED_period1,4,VSS*%
%TO.N,GND*%
X258275000Y-162430000D03*
%TD*%
D32*
%TO.P,J1,A1,GND*%
%TO.N,GND*%
X351510000Y-75202500D03*
%TO.P,J1,A4,VBUS*%
%TO.N,VBUS*%
X352260000Y-75202500D03*
D33*
%TO.P,J1,A5,CC1*%
%TO.N,Net-(J1-PadA5)*%
X353460000Y-75202500D03*
%TO.P,J1,A6,D+*%
%TO.N,Net-(J1-PadA6)*%
X354460000Y-75202500D03*
%TO.P,J1,A7,D-*%
%TO.N,Net-(J1-PadA7)*%
X354960000Y-75202500D03*
%TO.P,J1,A8,SBU1*%
%TO.N,unconnected-(J1-PadA8)*%
X355960000Y-75202500D03*
D32*
%TO.P,J1,A9,VBUS*%
%TO.N,VBUS*%
X357160000Y-75202500D03*
%TO.P,J1,A12,GND*%
%TO.N,GND*%
X357910000Y-75202500D03*
%TO.P,J1,B1,GND*%
X357910000Y-75202500D03*
%TO.P,J1,B4,VBUS*%
%TO.N,VBUS*%
X357160000Y-75202500D03*
D33*
%TO.P,J1,B5,CC2*%
%TO.N,Net-(J1-PadB5)*%
X356460000Y-75202500D03*
%TO.P,J1,B6,D+*%
%TO.N,Net-(J1-PadA6)*%
X355460000Y-75202500D03*
%TO.P,J1,B7,D-*%
%TO.N,Net-(J1-PadA7)*%
X353960000Y-75202500D03*
%TO.P,J1,B8,SBU2*%
%TO.N,unconnected-(J1-PadB8)*%
X352960000Y-75202500D03*
D32*
%TO.P,J1,B9,VBUS*%
%TO.N,VBUS*%
X352260000Y-75202500D03*
%TO.P,J1,B12,GND*%
%TO.N,GND*%
X351510000Y-75202500D03*
D34*
%TO.P,J1,S1,SHIELD*%
X360285000Y-73922500D03*
X349135000Y-73922500D03*
X349115000Y-69322500D03*
X360265000Y-69322500D03*
%TD*%
D18*
%TO.P,C81,1*%
%TO.N,+5V*%
X269400000Y-181550000D03*
%TO.P,C81,2*%
%TO.N,GND*%
X269400000Y-183100000D03*
%TD*%
%TO.P,C82,1*%
%TO.N,+5V*%
X288500000Y-181550000D03*
%TO.P,C82,2*%
%TO.N,GND*%
X288500000Y-183100000D03*
%TD*%
D12*
%TO.P,K_Z1,1,COL*%
%TO.N,COL1*%
X102965000Y-155560000D03*
D13*
X101240000Y-155560000D03*
D14*
X104790000Y-155560000D03*
D13*
%TO.P,K_Z1,2,ROW*%
%TO.N,Net-(D60-Pad2)*%
X114690000Y-153020000D03*
D14*
X111140000Y-153020000D03*
D12*
X112940000Y-153020000D03*
%TD*%
D15*
%TO.P,LED_O1,1,VDD*%
%TO.N,+5V*%
X249425000Y-125830000D03*
%TO.P,LED_O1,2,DOUT*%
%TO.N,Net-(LED_O1-Pad2)*%
X249425000Y-124330000D03*
%TO.P,LED_O1,3,DIN*%
%TO.N,Net-(LED_I1-Pad2)*%
X243975000Y-125830000D03*
D16*
%TO.P,LED_O1,4,VSS*%
%TO.N,GND*%
X243975000Y-124330000D03*
%TD*%
D13*
%TO.P,K_Q1,1,COL*%
%TO.N,COL1*%
X86940000Y-117460000D03*
D14*
X90490000Y-117460000D03*
D12*
X88665000Y-117460000D03*
%TO.P,K_Q1,2,ROW*%
%TO.N,Net-(D31-Pad2)*%
X98640000Y-114920000D03*
D14*
X96840000Y-114920000D03*
D13*
X100390000Y-114920000D03*
%TD*%
D12*
%TO.P,K_downArrow1,1,COL*%
%TO.N,COL13*%
X331565000Y-179360000D03*
D14*
X333390000Y-179360000D03*
D13*
X329840000Y-179360000D03*
D12*
%TO.P,K_downArrow1,2,ROW*%
%TO.N,Net-(D81-Pad2)*%
X341540000Y-176820000D03*
D14*
X339740000Y-176820000D03*
D13*
X343290000Y-176820000D03*
%TD*%
D17*
%TO.P,D21,1,K*%
%TO.N,ROW1*%
X187000000Y-102587500D03*
%TO.P,D21,2,A*%
%TO.N,Net-(D21-Pad2)*%
X187000000Y-101012500D03*
%TD*%
D12*
%TO.P,K_function1,1,COL*%
%TO.N,COL9*%
X269565000Y-174660000D03*
D13*
X267840000Y-174660000D03*
D14*
X271390000Y-174660000D03*
%TO.P,K_function1,2,ROW*%
%TO.N,Net-(D78-Pad2)*%
X277740000Y-172120000D03*
D13*
X281290000Y-172120000D03*
D12*
X279540000Y-172120000D03*
%TD*%
%TO.P,K_F13,1,COL*%
%TO.N,COL4*%
X150665000Y-136460000D03*
D14*
X152490000Y-136460000D03*
D13*
X148940000Y-136460000D03*
%TO.P,K_F13,2,ROW*%
%TO.N,Net-(D49-Pad2)*%
X162390000Y-133920000D03*
D12*
X160640000Y-133920000D03*
D14*
X158840000Y-133920000D03*
%TD*%
D18*
%TO.P,C61,1*%
%TO.N,+5V*%
X283700000Y-143400000D03*
%TO.P,C61,2*%
%TO.N,GND*%
X283700000Y-144950000D03*
%TD*%
D17*
%TO.P,D68,1,K*%
%TO.N,ROW4*%
X268000000Y-159675000D03*
%TO.P,D68,2,A*%
%TO.N,Net-(D68-Pad2)*%
X268000000Y-158100000D03*
%TD*%
D15*
%TO.P,LED_W1,1,VDD*%
%TO.N,+5V*%
X116025000Y-125830000D03*
%TO.P,LED_W1,2,DOUT*%
%TO.N,Net-(LED_E1-Pad3)*%
X116025000Y-124330000D03*
%TO.P,LED_W1,3,DIN*%
%TO.N,Net-(LED_Q1-Pad2)*%
X110575000Y-125830000D03*
D16*
%TO.P,LED_W1,4,VSS*%
%TO.N,GND*%
X110575000Y-124330000D03*
%TD*%
D21*
%TO.P,C17,1*%
%TO.N,+5V*%
X257500000Y-82900000D03*
%TO.P,C17,2*%
%TO.N,GND*%
X257500000Y-81350000D03*
%TD*%
D17*
%TO.P,D36,1,K*%
%TO.N,ROW2*%
X196600000Y-121587500D03*
%TO.P,D36,2,A*%
%TO.N,Net-(D36-Pad2)*%
X196600000Y-120012500D03*
%TD*%
D12*
%TO.P,K_colon1,1,COL*%
%TO.N,COL10*%
X264965000Y-136560000D03*
D14*
X266790000Y-136560000D03*
D13*
X263240000Y-136560000D03*
D12*
%TO.P,K_colon1,2,ROW*%
%TO.N,Net-(D55-Pad2)*%
X274940000Y-134020000D03*
D14*
X273140000Y-134020000D03*
D13*
X276690000Y-134020000D03*
%TD*%
D17*
%TO.P,D28,1,K*%
%TO.N,ROW1*%
X329900000Y-102687500D03*
%TO.P,D28,2,A*%
%TO.N,Net-(D28-Pad2)*%
X329900000Y-101112500D03*
%TD*%
D21*
%TO.P,C70,1*%
%TO.N,+5V*%
X228900000Y-163900000D03*
%TO.P,C70,2*%
%TO.N,GND*%
X228900000Y-162350000D03*
%TD*%
D17*
%TO.P,D55,1,K*%
%TO.N,ROW3*%
X277500000Y-140687500D03*
%TO.P,D55,2,A*%
%TO.N,Net-(D55-Pad2)*%
X277500000Y-139112500D03*
%TD*%
D14*
%TO.P,K_F8,1,COL*%
%TO.N,COL8*%
X223790000Y-74660000D03*
D13*
X220240000Y-74660000D03*
D12*
X221965000Y-74660000D03*
D13*
%TO.P,K_F8,2,ROW*%
%TO.N,Net-(D9-Pad2)*%
X233690000Y-72120000D03*
D14*
X230140000Y-72120000D03*
D12*
X231940000Y-72120000D03*
%TD*%
D17*
%TO.P,D1,1,K*%
%TO.N,ROW0*%
X72700000Y-78987500D03*
%TO.P,D1,2,A*%
%TO.N,Net-(D1-Pad2)*%
X72700000Y-77412500D03*
%TD*%
D12*
%TO.P,K_6,1,COL*%
%TO.N,COL6*%
X174465000Y-98460000D03*
D13*
X172740000Y-98460000D03*
D14*
X176290000Y-98460000D03*
D13*
%TO.P,K_6,2,ROW*%
%TO.N,Net-(D21-Pad2)*%
X186190000Y-95920000D03*
D12*
X184440000Y-95920000D03*
D14*
X182640000Y-95920000D03*
%TD*%
D18*
%TO.P,C86,1*%
%TO.N,+5V*%
X362200000Y-186200000D03*
%TO.P,C86,2*%
%TO.N,GND*%
X362200000Y-187750000D03*
%TD*%
D17*
%TO.P,D32,1,K*%
%TO.N,ROW2*%
X120400000Y-121575000D03*
%TO.P,D32,2,A*%
%TO.N,Net-(D32-Pad2)*%
X120400000Y-120000000D03*
%TD*%
D19*
%TO.P,LED_leftAlt1,1,VDD*%
%TO.N,+5V*%
X113075000Y-181530000D03*
%TO.P,LED_leftAlt1,2,DOUT*%
%TO.N,Net-(LED_leftAlt1-Pad2)*%
X113075000Y-183030000D03*
%TO.P,LED_leftAlt1,3,DIN*%
%TO.N,Net-(LED_leftAlt1-Pad3)*%
X118525000Y-181530000D03*
D20*
%TO.P,LED_leftAlt1,4,VSS*%
%TO.N,GND*%
X118525000Y-183030000D03*
%TD*%
D21*
%TO.P,C16,1*%
%TO.N,+5V*%
X233500000Y-83000000D03*
%TO.P,C16,2*%
%TO.N,GND*%
X233500000Y-81450000D03*
%TD*%
D17*
%TO.P,D67,1,K*%
%TO.N,ROW4*%
X249000000Y-159687500D03*
%TO.P,D67,2,A*%
%TO.N,Net-(D67-Pad2)*%
X249000000Y-158112500D03*
%TD*%
D12*
%TO.P,K_C1,1,COL*%
%TO.N,COL3*%
X141075000Y-155500000D03*
D13*
X139350000Y-155500000D03*
D14*
X142900000Y-155500000D03*
D12*
%TO.P,K_C1,2,ROW*%
%TO.N,Net-(D62-Pad2)*%
X151050000Y-152960000D03*
D14*
X149250000Y-152960000D03*
D13*
X152800000Y-152960000D03*
%TD*%
D12*
%TO.P,K_rightControl1,1,COL*%
%TO.N,COL11*%
X288665000Y-174660000D03*
D14*
X290490000Y-174660000D03*
D13*
X286940000Y-174660000D03*
D12*
%TO.P,K_rightControl1,2,ROW*%
%TO.N,Net-(D79-Pad2)*%
X298640000Y-172120000D03*
D13*
X300390000Y-172120000D03*
D14*
X296840000Y-172120000D03*
%TD*%
D15*
%TO.P,LED_B1,1,VDD*%
%TO.N,+5V*%
X187525000Y-163930000D03*
%TO.P,LED_B1,2,DOUT*%
%TO.N,Net-(LED_B1-Pad2)*%
X187525000Y-162430000D03*
%TO.P,LED_B1,3,DIN*%
%TO.N,Net-(LED_B1-Pad3)*%
X182075000Y-163930000D03*
D16*
%TO.P,LED_B1,4,VSS*%
%TO.N,GND*%
X182075000Y-162430000D03*
%TD*%
D12*
%TO.P,K_F10,1,COL*%
%TO.N,COL10*%
X264965000Y-74560000D03*
D13*
X263240000Y-74560000D03*
D14*
X266790000Y-74560000D03*
%TO.P,K_F10,2,ROW*%
%TO.N,Net-(D11-Pad2)*%
X273140000Y-72020000D03*
D12*
X274940000Y-72020000D03*
D13*
X276690000Y-72020000D03*
%TD*%
D21*
%TO.P,C10,1*%
%TO.N,+5V*%
X114600000Y-83000000D03*
%TO.P,C10,2*%
%TO.N,GND*%
X114600000Y-81450000D03*
%TD*%
D19*
%TO.P,LED_L1,1,VDD*%
%TO.N,+5V*%
X248775000Y-143430000D03*
%TO.P,LED_L1,2,DOUT*%
%TO.N,Net-(LED_K1-Pad3)*%
X248775000Y-144930000D03*
%TO.P,LED_L1,3,DIN*%
%TO.N,Net-(LED_L1-Pad3)*%
X254225000Y-143430000D03*
D20*
%TO.P,LED_L1,4,VSS*%
%TO.N,GND*%
X254225000Y-144930000D03*
%TD*%
D13*
%TO.P,K_J1,1,COL*%
%TO.N,COL7*%
X206040000Y-136460000D03*
D14*
X209590000Y-136460000D03*
D12*
X207765000Y-136460000D03*
%TO.P,K_J1,2,ROW*%
%TO.N,Net-(D52-Pad2)*%
X217740000Y-133920000D03*
D14*
X215940000Y-133920000D03*
D13*
X219490000Y-133920000D03*
%TD*%
D14*
%TO.P,K_X1,1,COL*%
%TO.N,COL2*%
X123790000Y-155560000D03*
D12*
X121965000Y-155560000D03*
D13*
X120240000Y-155560000D03*
%TO.P,K_X1,2,ROW*%
%TO.N,Net-(D61-Pad2)*%
X133690000Y-153020000D03*
D12*
X131940000Y-153020000D03*
D14*
X130140000Y-153020000D03*
%TD*%
D15*
%TO.P,LED_F10,1,VDD*%
%TO.N,+5V*%
X273325000Y-82930000D03*
%TO.P,LED_F10,2,DOUT*%
%TO.N,Net-(LED_F10-Pad2)*%
X273325000Y-81430000D03*
%TO.P,LED_F10,3,DIN*%
%TO.N,Net-(LED_F10-Pad3)*%
X267875000Y-82930000D03*
D16*
%TO.P,LED_F10,4,VSS*%
%TO.N,GND*%
X267875000Y-81430000D03*
%TD*%
D15*
%TO.P,LED_Y1,1,VDD*%
%TO.N,+5V*%
X192325000Y-125830000D03*
%TO.P,LED_Y1,2,DOUT*%
%TO.N,Net-(LED_U1-Pad3)*%
X192325000Y-124330000D03*
%TO.P,LED_Y1,3,DIN*%
%TO.N,Net-(LED_T1-Pad2)*%
X186875000Y-125830000D03*
D16*
%TO.P,LED_Y1,4,VSS*%
%TO.N,GND*%
X186875000Y-124330000D03*
%TD*%
D15*
%TO.P,LED_V1,1,VDD*%
%TO.N,+5V*%
X168525000Y-163930000D03*
%TO.P,LED_V1,2,DOUT*%
%TO.N,Net-(LED_B1-Pad3)*%
X168525000Y-162430000D03*
%TO.P,LED_V1,3,DIN*%
%TO.N,Net-(LED_C1-Pad2)*%
X163075000Y-163930000D03*
D16*
%TO.P,LED_V1,4,VSS*%
%TO.N,GND*%
X163075000Y-162430000D03*
%TD*%
D17*
%TO.P,D42,1,K*%
%TO.N,ROW2*%
X310900000Y-121575000D03*
%TO.P,D42,2,A*%
%TO.N,Net-(D42-Pad2)*%
X310900000Y-120000000D03*
%TD*%
D15*
%TO.P,LED_I1,1,VDD*%
%TO.N,+5V*%
X230325000Y-125830000D03*
%TO.P,LED_I1,2,DOUT*%
%TO.N,Net-(LED_I1-Pad2)*%
X230325000Y-124330000D03*
%TO.P,LED_I1,3,DIN*%
%TO.N,Net-(LED_I1-Pad3)*%
X224875000Y-125830000D03*
D16*
%TO.P,LED_I1,4,VSS*%
%TO.N,GND*%
X224875000Y-124330000D03*
%TD*%
D12*
%TO.P,K_leftControl1,1,COL*%
%TO.N,COL0*%
X62465000Y-174660000D03*
D13*
X60740000Y-174660000D03*
D14*
X64290000Y-174660000D03*
D12*
%TO.P,K_leftControl1,2,ROW*%
%TO.N,Net-(D73-Pad2)*%
X72440000Y-172120000D03*
D13*
X74190000Y-172120000D03*
D14*
X70640000Y-172120000D03*
%TD*%
D19*
%TO.P,LED_space1,1,VDD*%
%TO.N,+5V*%
X184475000Y-181530000D03*
%TO.P,LED_space1,2,DOUT*%
%TO.N,Net-(LED_leftAlt1-Pad3)*%
X184475000Y-183030000D03*
%TO.P,LED_space1,3,DIN*%
%TO.N,Net-(LED_rightAlt1-Pad2)*%
X189925000Y-181530000D03*
D20*
%TO.P,LED_space1,4,VSS*%
%TO.N,GND*%
X189925000Y-183030000D03*
%TD*%
D13*
%TO.P,K_P1,1,COL*%
%TO.N,COL10*%
X258440000Y-117460000D03*
D14*
X261990000Y-117460000D03*
D12*
X260165000Y-117460000D03*
D13*
%TO.P,K_P1,2,ROW*%
%TO.N,Net-(D40-Pad2)*%
X271890000Y-114920000D03*
D14*
X268340000Y-114920000D03*
D12*
X270140000Y-114920000D03*
%TD*%
D18*
%TO.P,C34,1*%
%TO.N,+5V*%
X288400000Y-105350000D03*
%TO.P,C34,2*%
%TO.N,GND*%
X288400000Y-106900000D03*
%TD*%
D17*
%TO.P,D79,1,K*%
%TO.N,ROW5*%
X301300000Y-178787500D03*
%TO.P,D79,2,A*%
%TO.N,Net-(D79-Pad2)*%
X301300000Y-177212500D03*
%TD*%
D24*
%TO.P,R5,1*%
%TO.N,Net-(J1-PadA5)*%
X350600000Y-77900000D03*
%TO.P,R5,2*%
%TO.N,GND*%
X350600000Y-79550000D03*
%TD*%
D21*
%TO.P,C72,1*%
%TO.N,+5V*%
X267000000Y-163900000D03*
%TO.P,C72,2*%
%TO.N,GND*%
X267000000Y-162350000D03*
%TD*%
D17*
%TO.P,D19,1,K*%
%TO.N,ROW1*%
X148900000Y-102575000D03*
%TO.P,D19,2,A*%
%TO.N,Net-(D19-Pad2)*%
X148900000Y-101000000D03*
%TD*%
D19*
%TO.P,LED_leftControl1,1,VDD*%
%TO.N,+5V*%
X65375000Y-181530000D03*
%TO.P,LED_leftControl1,2,DOUT*%
%TO.N,Net-(LED_leftControl1-Pad2)*%
X65375000Y-183030000D03*
%TO.P,LED_leftControl1,3,DIN*%
%TO.N,Net-(LED_leftControl1-Pad3)*%
X70825000Y-181530000D03*
D20*
%TO.P,LED_leftControl1,4,VSS*%
%TO.N,GND*%
X70825000Y-183030000D03*
%TD*%
D21*
%TO.P,C47,1*%
%TO.N,+5V*%
X119400000Y-125800000D03*
%TO.P,C47,2*%
%TO.N,GND*%
X119400000Y-124250000D03*
%TD*%
D18*
%TO.P,C88,1*%
%TO.N,+5V*%
X367000000Y-143350000D03*
%TO.P,C88,2*%
%TO.N,GND*%
X367000000Y-144900000D03*
%TD*%
D13*
%TO.P,K_questionMark1,1,COL*%
%TO.N,COL10*%
X272650000Y-155600000D03*
D12*
X274375000Y-155600000D03*
D14*
X276200000Y-155600000D03*
D12*
%TO.P,K_questionMark1,2,ROW*%
%TO.N,Net-(D69-Pad2)*%
X284350000Y-153060000D03*
D13*
X286100000Y-153060000D03*
D14*
X282550000Y-153060000D03*
%TD*%
D21*
%TO.P,C68,1*%
%TO.N,+5V*%
X190800000Y-163900000D03*
%TO.P,C68,2*%
%TO.N,GND*%
X190800000Y-162350000D03*
%TD*%
D13*
%TO.P,K_backspace1,1,COL*%
%TO.N,COL13*%
X315540000Y-98460000D03*
D14*
X319090000Y-98460000D03*
D12*
X317265000Y-98460000D03*
%TO.P,K_backspace1,2,ROW*%
%TO.N,Net-(D28-Pad2)*%
X327240000Y-95920000D03*
D13*
X328990000Y-95920000D03*
D14*
X325440000Y-95920000D03*
%TD*%
D19*
%TO.P,LED_8,1,VDD*%
%TO.N,+5V*%
X215375000Y-105330000D03*
%TO.P,LED_8,2,DOUT*%
%TO.N,Net-(LED_7-Pad3)*%
X215375000Y-106830000D03*
%TO.P,LED_8,3,DIN*%
%TO.N,Net-(LED_8-Pad3)*%
X220825000Y-105330000D03*
D20*
%TO.P,LED_8,4,VSS*%
%TO.N,GND*%
X220825000Y-106830000D03*
%TD*%
D15*
%TO.P,LED_openBracket1,1,VDD*%
%TO.N,+5V*%
X287625000Y-125830000D03*
%TO.P,LED_openBracket1,2,DOUT*%
%TO.N,Net-(LED_closeBracket1-Pad3)*%
X287625000Y-124330000D03*
%TO.P,LED_openBracket1,3,DIN*%
%TO.N,Net-(LED_P1-Pad2)*%
X282175000Y-125830000D03*
D16*
%TO.P,LED_openBracket1,4,VSS*%
%TO.N,GND*%
X282175000Y-124330000D03*
%TD*%
D14*
%TO.P,K_F6,1,COL*%
%TO.N,COL6*%
X185790000Y-74660000D03*
D12*
X183965000Y-74660000D03*
D13*
X182240000Y-74660000D03*
D14*
%TO.P,K_F6,2,ROW*%
%TO.N,Net-(D7-Pad2)*%
X192140000Y-72120000D03*
D13*
X195690000Y-72120000D03*
D12*
X193940000Y-72120000D03*
%TD*%
D35*
%TO.P,R1,1*%
%TO.N,+5V*%
X345163274Y-148186726D03*
%TO.P,R1,2*%
%TO.N,Net-(R1-Pad2)*%
X346330000Y-147020000D03*
%TD*%
D17*
%TO.P,D26,1,K*%
%TO.N,ROW1*%
X282300000Y-102575000D03*
%TO.P,D26,2,A*%
%TO.N,Net-(D26-Pad2)*%
X282300000Y-101000000D03*
%TD*%
D18*
%TO.P,C53,1*%
%TO.N,+5V*%
X131300000Y-143400000D03*
%TO.P,C53,2*%
%TO.N,GND*%
X131300000Y-144950000D03*
%TD*%
D22*
%TO.P,C1,1*%
%TO.N,Net-(C1-Pad1)*%
X335200000Y-139800000D03*
%TO.P,C1,2*%
%TO.N,GND*%
X334103984Y-140896016D03*
%TD*%
D15*
%TO.P,LED_home1,1,VDD*%
%TO.N,+5V*%
X363725000Y-106830000D03*
%TO.P,LED_home1,2,DOUT*%
%TO.N,Net-(LED_home1-Pad2)*%
X363725000Y-105330000D03*
%TO.P,LED_home1,3,DIN*%
%TO.N,RGBLED*%
X358275000Y-106830000D03*
D16*
%TO.P,LED_home1,4,VSS*%
%TO.N,GND*%
X358275000Y-105330000D03*
%TD*%
D14*
%TO.P,K_openBracket1,1,COL*%
%TO.N,COL11*%
X281090000Y-117460000D03*
D13*
X277540000Y-117460000D03*
D12*
X279265000Y-117460000D03*
%TO.P,K_openBracket1,2,ROW*%
%TO.N,Net-(D41-Pad2)*%
X289240000Y-114920000D03*
D14*
X287440000Y-114920000D03*
D13*
X290990000Y-114920000D03*
%TD*%
D18*
%TO.P,C24,1*%
%TO.N,+5V*%
X97900000Y-105400000D03*
%TO.P,C24,2*%
%TO.N,GND*%
X97900000Y-106950000D03*
%TD*%
D14*
%TO.P,K_O1,1,COL*%
%TO.N,COL9*%
X242890000Y-117460000D03*
D12*
X241065000Y-117460000D03*
D13*
X239340000Y-117460000D03*
D12*
%TO.P,K_O1,2,ROW*%
%TO.N,Net-(D39-Pad2)*%
X251040000Y-114920000D03*
D13*
X252790000Y-114920000D03*
D14*
X249240000Y-114920000D03*
%TD*%
%TO.P,K_H1,1,COL*%
%TO.N,COL6*%
X190490000Y-136460000D03*
D12*
X188665000Y-136460000D03*
D13*
X186940000Y-136460000D03*
D12*
%TO.P,K_H1,2,ROW*%
%TO.N,Net-(D51-Pad2)*%
X198640000Y-133920000D03*
D14*
X196840000Y-133920000D03*
D13*
X200390000Y-133920000D03*
%TD*%
D14*
%TO.P,K_N1,1,COL*%
%TO.N,COL6*%
X199990000Y-155560000D03*
D13*
X196440000Y-155560000D03*
D12*
X198165000Y-155560000D03*
%TO.P,K_N1,2,ROW*%
%TO.N,Net-(D65-Pad2)*%
X208140000Y-153020000D03*
D13*
X209890000Y-153020000D03*
D14*
X206340000Y-153020000D03*
%TD*%
D36*
%TO.P,U1,1,PE6*%
%TO.N,unconnected-(U1-Pad1)*%
X347627736Y-138292202D03*
%TO.P,U1,2,UVCC*%
%TO.N,+5V*%
X347274182Y-138645755D03*
%TO.P,U1,3,D-*%
%TO.N,D-*%
X346920629Y-138999309D03*
%TO.P,U1,4,D+*%
%TO.N,D+*%
X346567076Y-139352862D03*
%TO.P,U1,5,UGND*%
%TO.N,GND*%
X346213522Y-139706415D03*
%TO.P,U1,6,UCAP*%
%TO.N,Net-(C3-Pad1)*%
X345859969Y-140059969D03*
%TO.P,U1,7,VBUS*%
%TO.N,+5V*%
X345506415Y-140413522D03*
%TO.P,U1,8,PB0*%
%TO.N,unconnected-(U1-Pad8)*%
X345152862Y-140767076D03*
%TO.P,U1,9,PB1*%
%TO.N,RGBLED*%
X344799309Y-141120629D03*
%TO.P,U1,10,PB2*%
%TO.N,COL14*%
X344445755Y-141474182D03*
%TO.P,U1,11,PB3*%
%TO.N,ROW4*%
X344092202Y-141827736D03*
D37*
%TO.P,U1,12,PB7*%
%TO.N,ROW5*%
X342907798Y-141827736D03*
%TO.P,U1,13,~{RESET}*%
%TO.N,Net-(R1-Pad2)*%
X342554245Y-141474182D03*
%TO.P,U1,14,VCC*%
%TO.N,+5V*%
X342200691Y-141120629D03*
%TO.P,U1,15,GND*%
%TO.N,GND*%
X341847138Y-140767076D03*
%TO.P,U1,16,XTAL2*%
%TO.N,Net-(C2-Pad1)*%
X341493585Y-140413522D03*
%TO.P,U1,17,XTAL1*%
%TO.N,Net-(C1-Pad1)*%
X341140031Y-140059969D03*
%TO.P,U1,18,PD0*%
%TO.N,unconnected-(U1-Pad18)*%
X340786478Y-139706415D03*
%TO.P,U1,19,PD1*%
%TO.N,ROW3*%
X340432924Y-139352862D03*
%TO.P,U1,20,PD2*%
%TO.N,ROW2*%
X340079371Y-138999309D03*
%TO.P,U1,21,PD3*%
%TO.N,COL13*%
X339725818Y-138645755D03*
%TO.P,U1,22,PD5*%
%TO.N,COL12*%
X339372264Y-138292202D03*
D36*
%TO.P,U1,23,GND*%
%TO.N,GND*%
X339372264Y-137107798D03*
%TO.P,U1,24,AVCC*%
%TO.N,+5V*%
X339725818Y-136754245D03*
%TO.P,U1,25,PD4*%
%TO.N,COL11*%
X340079371Y-136400691D03*
%TO.P,U1,26,PD6*%
%TO.N,COL10*%
X340432924Y-136047138D03*
%TO.P,U1,27,PD7*%
%TO.N,COL9*%
X340786478Y-135693585D03*
%TO.P,U1,28,PB4*%
%TO.N,COL8*%
X341140031Y-135340031D03*
%TO.P,U1,29,PB5*%
%TO.N,COL7*%
X341493585Y-134986478D03*
%TO.P,U1,30,PB6*%
%TO.N,COL6*%
X341847138Y-134632924D03*
%TO.P,U1,31,PC6*%
%TO.N,COL5*%
X342200691Y-134279371D03*
%TO.P,U1,32,PC7*%
%TO.N,COL4*%
X342554245Y-133925818D03*
%TO.P,U1,33,~{HWB}/PE2*%
%TO.N,Net-(R2-Pad1)*%
X342907798Y-133572264D03*
D37*
%TO.P,U1,34,VCC*%
%TO.N,+5V*%
X344092202Y-133572264D03*
%TO.P,U1,35,GND*%
%TO.N,GND*%
X344445755Y-133925818D03*
%TO.P,U1,36,PF7*%
%TO.N,COL3*%
X344799309Y-134279371D03*
%TO.P,U1,37,PF6*%
%TO.N,COL2*%
X345152862Y-134632924D03*
%TO.P,U1,38,PF5*%
%TO.N,COL1*%
X345506415Y-134986478D03*
%TO.P,U1,39,PF4*%
%TO.N,ROW1*%
X345859969Y-135340031D03*
%TO.P,U1,40,PF1*%
%TO.N,COL0*%
X346213522Y-135693585D03*
%TO.P,U1,41,PF0*%
%TO.N,ROW0*%
X346567076Y-136047138D03*
%TO.P,U1,42,AREF*%
%TO.N,unconnected-(U1-Pad42)*%
X346920629Y-136400691D03*
%TO.P,U1,43,GND*%
%TO.N,GND*%
X347274182Y-136754245D03*
%TO.P,U1,44,AVCC*%
%TO.N,+5V*%
X347627736Y-137107798D03*
D38*
%TO.P,U1,45,GND*%
%TO.N,GND*%
X343500000Y-137700000D03*
%TD*%
D18*
%TO.P,C77,1*%
%TO.N,+5V*%
X86200000Y-181525000D03*
%TO.P,C77,2*%
%TO.N,GND*%
X86200000Y-183075000D03*
%TD*%
D21*
%TO.P,C42,1*%
%TO.N,+5V*%
X214600000Y-125800000D03*
%TO.P,C42,2*%
%TO.N,GND*%
X214600000Y-124250000D03*
%TD*%
D19*
%TO.P,LED_1,1,VDD*%
%TO.N,+5V*%
X82075000Y-105330000D03*
%TO.P,LED_1,2,DOUT*%
%TO.N,Net-(LED_1-Pad2)*%
X82075000Y-106830000D03*
%TO.P,LED_1,3,DIN*%
%TO.N,Net-(LED_1-Pad3)*%
X87525000Y-105330000D03*
D20*
%TO.P,LED_1,4,VSS*%
%TO.N,GND*%
X87525000Y-106830000D03*
%TD*%
D14*
%TO.P,K_F9,1,COL*%
%TO.N,COL9*%
X247690000Y-74660000D03*
D12*
X245865000Y-74660000D03*
D13*
X244140000Y-74660000D03*
%TO.P,K_F9,2,ROW*%
%TO.N,Net-(D10-Pad2)*%
X257590000Y-72120000D03*
D14*
X254040000Y-72120000D03*
D12*
X255840000Y-72120000D03*
%TD*%
%TO.P,K_F5,1,COL*%
%TO.N,COL5*%
X164865000Y-74660000D03*
D14*
X166690000Y-74660000D03*
D13*
X163140000Y-74660000D03*
D12*
%TO.P,K_F5,2,ROW*%
%TO.N,Net-(D6-Pad2)*%
X174840000Y-72120000D03*
D13*
X176590000Y-72120000D03*
D14*
X173040000Y-72120000D03*
%TD*%
D19*
%TO.P,LED_G1,1,VDD*%
%TO.N,+5V*%
X172575000Y-143330000D03*
%TO.P,LED_G1,2,DOUT*%
%TO.N,Net-(LED_F13-Pad3)*%
X172575000Y-144830000D03*
%TO.P,LED_G1,3,DIN*%
%TO.N,Net-(LED_G1-Pad3)*%
X178025000Y-143330000D03*
D20*
%TO.P,LED_G1,4,VSS*%
%TO.N,GND*%
X178025000Y-144830000D03*
%TD*%
D15*
%TO.P,LED_tab1,1,VDD*%
%TO.N,+5V*%
X73225000Y-125830000D03*
%TO.P,LED_tab1,2,DOUT*%
%TO.N,Net-(LED_Q1-Pad3)*%
X73225000Y-124330000D03*
%TO.P,LED_tab1,3,DIN*%
%TO.N,Net-(LED_capsLock1-Pad2)*%
X67775000Y-125830000D03*
D16*
%TO.P,LED_tab1,4,VSS*%
%TO.N,GND*%
X67775000Y-124330000D03*
%TD*%
D13*
%TO.P,K_capsLock1,1,COL*%
%TO.N,COL0*%
X65540000Y-136560000D03*
D14*
X69090000Y-136560000D03*
D12*
X67265000Y-136560000D03*
D14*
%TO.P,K_capsLock1,2,ROW*%
%TO.N,Net-(D45-Pad2)*%
X75440000Y-134020000D03*
D12*
X77240000Y-134020000D03*
D13*
X78990000Y-134020000D03*
%TD*%
D19*
%TO.P,LED_F13,1,VDD*%
%TO.N,+5V*%
X153575000Y-143330000D03*
%TO.P,LED_F13,2,DOUT*%
%TO.N,Net-(LED_D1-Pad3)*%
X153575000Y-144830000D03*
%TO.P,LED_F13,3,DIN*%
%TO.N,Net-(LED_F13-Pad3)*%
X159025000Y-143330000D03*
D20*
%TO.P,LED_F13,4,VSS*%
%TO.N,GND*%
X159025000Y-144830000D03*
%TD*%
D14*
%TO.P,K_delete1,1,COL*%
%TO.N,COL13*%
X328590000Y-74660000D03*
D12*
X326765000Y-74660000D03*
D13*
X325040000Y-74660000D03*
%TO.P,K_delete1,2,ROW*%
%TO.N,Net-(D14-Pad2)*%
X338490000Y-72120000D03*
D12*
X336740000Y-72120000D03*
D14*
X334940000Y-72120000D03*
%TD*%
D19*
%TO.P,LED_leftArrow1,1,VDD*%
%TO.N,+5V*%
X315375000Y-186230000D03*
%TO.P,LED_leftArrow1,2,DOUT*%
%TO.N,Net-(LED_leftArrow1-Pad2)*%
X315375000Y-187730000D03*
%TO.P,LED_leftArrow1,3,DIN*%
%TO.N,Net-(LED_downArrow1-Pad2)*%
X320825000Y-186230000D03*
D20*
%TO.P,LED_leftArrow1,4,VSS*%
%TO.N,GND*%
X320825000Y-187730000D03*
%TD*%
D18*
%TO.P,C78,1*%
%TO.N,+5V*%
X110000000Y-181550000D03*
%TO.P,C78,2*%
%TO.N,GND*%
X110000000Y-183100000D03*
%TD*%
D17*
%TO.P,D54,1,K*%
%TO.N,ROW3*%
X258500000Y-140675000D03*
%TO.P,D54,2,A*%
%TO.N,Net-(D54-Pad2)*%
X258500000Y-139100000D03*
%TD*%
D15*
%TO.P,LED_comma1,1,VDD*%
%TO.N,+5V*%
X244725000Y-163930000D03*
%TO.P,LED_comma1,2,DOUT*%
%TO.N,Net-(LED_comma1-Pad2)*%
X244725000Y-162430000D03*
%TO.P,LED_comma1,3,DIN*%
%TO.N,Net-(LED_M1-Pad2)*%
X239275000Y-163930000D03*
D16*
%TO.P,LED_comma1,4,VSS*%
%TO.N,GND*%
X239275000Y-162430000D03*
%TD*%
D17*
%TO.P,D56,1,K*%
%TO.N,ROW3*%
X296600000Y-140687500D03*
%TO.P,D56,2,A*%
%TO.N,Net-(D56-Pad2)*%
X296600000Y-139112500D03*
%TD*%
D15*
%TO.P,LED_F12,1,VDD*%
%TO.N,+5V*%
X311325000Y-83030000D03*
%TO.P,LED_F12,2,DOUT*%
%TO.N,Net-(LED_F12-Pad2)*%
X311325000Y-81530000D03*
%TO.P,LED_F12,3,DIN*%
%TO.N,Net-(LED_F11-Pad2)*%
X305875000Y-83030000D03*
D16*
%TO.P,LED_F12,4,VSS*%
%TO.N,GND*%
X305875000Y-81530000D03*
%TD*%
D15*
%TO.P,LED_F3,1,VDD*%
%TO.N,+5V*%
X130525000Y-82930000D03*
%TO.P,LED_F3,2,DOUT*%
%TO.N,Net-(LED_F3-Pad2)*%
X130525000Y-81430000D03*
%TO.P,LED_F3,3,DIN*%
%TO.N,Net-(LED_F2-Pad2)*%
X125075000Y-82930000D03*
D16*
%TO.P,LED_F3,4,VSS*%
%TO.N,GND*%
X125075000Y-81430000D03*
%TD*%
D19*
%TO.P,LED_enter1,1,VDD*%
%TO.N,+5V*%
X317875000Y-143430000D03*
%TO.P,LED_enter1,2,DOUT*%
%TO.N,Net-(LED_enter1-Pad2)*%
X317875000Y-144930000D03*
%TO.P,LED_enter1,3,DIN*%
%TO.N,Net-(LED_enter1-Pad3)*%
X323325000Y-143430000D03*
D20*
%TO.P,LED_enter1,4,VSS*%
%TO.N,GND*%
X323325000Y-144930000D03*
%TD*%
D19*
%TO.P,LED_rightArrow1,1,VDD*%
%TO.N,+5V*%
X353475000Y-186230000D03*
%TO.P,LED_rightArrow1,2,DOUT*%
%TO.N,Net-(LED_downArrow1-Pad3)*%
X353475000Y-187730000D03*
%TO.P,LED_rightArrow1,3,DIN*%
%TO.N,Net-(LED_rightArrow1-Pad3)*%
X358925000Y-186230000D03*
D20*
%TO.P,LED_rightArrow1,4,VSS*%
%TO.N,GND*%
X358925000Y-187730000D03*
%TD*%
D19*
%TO.P,LED_S1,1,VDD*%
%TO.N,+5V*%
X115375000Y-143430000D03*
%TO.P,LED_S1,2,DOUT*%
%TO.N,Net-(LED_A1-Pad3)*%
X115375000Y-144930000D03*
%TO.P,LED_S1,3,DIN*%
%TO.N,Net-(LED_D1-Pad2)*%
X120825000Y-143430000D03*
D20*
%TO.P,LED_S1,4,VSS*%
%TO.N,GND*%
X120825000Y-144930000D03*
%TD*%
D13*
%TO.P,K_F12,1,COL*%
%TO.N,COL12*%
X301240000Y-74660000D03*
D14*
X304790000Y-74660000D03*
D12*
X302965000Y-74660000D03*
%TO.P,K_F12,2,ROW*%
%TO.N,Net-(D13-Pad2)*%
X312940000Y-72120000D03*
D13*
X314690000Y-72120000D03*
D14*
X311140000Y-72120000D03*
%TD*%
D21*
%TO.P,C11,1*%
%TO.N,+5V*%
X133800000Y-82900000D03*
%TO.P,C11,2*%
%TO.N,GND*%
X133800000Y-81350000D03*
%TD*%
D18*
%TO.P,C23,1*%
%TO.N,+5V*%
X79000000Y-105300000D03*
%TO.P,C23,2*%
%TO.N,GND*%
X79000000Y-106850000D03*
%TD*%
D17*
%TO.P,D31,1,K*%
%TO.N,ROW2*%
X101300000Y-121587500D03*
%TO.P,D31,2,A*%
%TO.N,Net-(D31-Pad2)*%
X101300000Y-120012500D03*
%TD*%
D13*
%TO.P,K_esc1,1,COL*%
%TO.N,COL0*%
X58340000Y-74660000D03*
D12*
X60065000Y-74660000D03*
D14*
X61890000Y-74660000D03*
D13*
%TO.P,K_esc1,2,ROW*%
%TO.N,Net-(D1-Pad2)*%
X71790000Y-72120000D03*
D12*
X70040000Y-72120000D03*
D14*
X68240000Y-72120000D03*
%TD*%
D17*
%TO.P,D47,1,K*%
%TO.N,ROW3*%
X125100000Y-140775000D03*
%TO.P,D47,2,A*%
%TO.N,Net-(D47-Pad2)*%
X125100000Y-139200000D03*
%TD*%
D13*
%TO.P,K_equals1,1,COL*%
%TO.N,COL12*%
X286940000Y-98460000D03*
D14*
X290490000Y-98460000D03*
D12*
X288665000Y-98460000D03*
D13*
%TO.P,K_equals1,2,ROW*%
%TO.N,Net-(D27-Pad2)*%
X300390000Y-95920000D03*
D12*
X298640000Y-95920000D03*
D14*
X296840000Y-95920000D03*
%TD*%
D17*
%TO.P,D64,1,K*%
%TO.N,ROW4*%
X191800000Y-159775000D03*
%TO.P,D64,2,A*%
%TO.N,Net-(D64-Pad2)*%
X191800000Y-158200000D03*
%TD*%
D15*
%TO.P,LED_U1,1,VDD*%
%TO.N,+5V*%
X211325000Y-125830000D03*
%TO.P,LED_U1,2,DOUT*%
%TO.N,Net-(LED_I1-Pad3)*%
X211325000Y-124330000D03*
%TO.P,LED_U1,3,DIN*%
%TO.N,Net-(LED_U1-Pad3)*%
X205875000Y-125830000D03*
D16*
%TO.P,LED_U1,4,VSS*%
%TO.N,GND*%
X205875000Y-124330000D03*
%TD*%
D28*
%TO.P,C7,1*%
%TO.N,+5V*%
X343600000Y-130400000D03*
%TO.P,C7,2*%
%TO.N,GND*%
X342503984Y-129303984D03*
%TD*%
D15*
%TO.P,LED_delete1,1,VDD*%
%TO.N,+5V*%
X335125000Y-83030000D03*
%TO.P,LED_delete1,2,DOUT*%
%TO.N,unconnected-(LED_delete1-Pad2)*%
X335125000Y-81530000D03*
%TO.P,LED_delete1,3,DIN*%
%TO.N,Net-(LED_F12-Pad2)*%
X329675000Y-83030000D03*
D16*
%TO.P,LED_delete1,4,VSS*%
%TO.N,GND*%
X329675000Y-81530000D03*
%TD*%
D18*
%TO.P,C89,1*%
%TO.N,+5V*%
X367000000Y-124300000D03*
%TO.P,C89,2*%
%TO.N,GND*%
X367000000Y-125850000D03*
%TD*%
D17*
%TO.P,D51,1,K*%
%TO.N,ROW3*%
X201300000Y-140587500D03*
%TO.P,D51,2,A*%
%TO.N,Net-(D51-Pad2)*%
X201300000Y-139012500D03*
%TD*%
%TO.P,D18,1,K*%
%TO.N,ROW1*%
X129900000Y-102575000D03*
%TO.P,D18,2,A*%
%TO.N,Net-(D18-Pad2)*%
X129900000Y-101000000D03*
%TD*%
D13*
%TO.P,K_pgDown1,1,COL*%
%TO.N,COL14*%
X353640000Y-136560000D03*
D12*
X355365000Y-136560000D03*
D14*
X357190000Y-136560000D03*
D13*
%TO.P,K_pgDown1,2,ROW*%
%TO.N,Net-(D58-Pad2)*%
X367090000Y-134020000D03*
D14*
X363540000Y-134020000D03*
D12*
X365340000Y-134020000D03*
%TD*%
D15*
%TO.P,LED_backslash1,1,VDD*%
%TO.N,+5V*%
X330425000Y-125830000D03*
%TO.P,LED_backslash1,2,DOUT*%
%TO.N,Net-(LED_backslash1-Pad2)*%
X330425000Y-124330000D03*
%TO.P,LED_backslash1,3,DIN*%
%TO.N,Net-(LED_backslash1-Pad3)*%
X324975000Y-125830000D03*
D16*
%TO.P,LED_backslash1,4,VSS*%
%TO.N,GND*%
X324975000Y-124330000D03*
%TD*%
D15*
%TO.P,LED_questionMark1,1,VDD*%
%TO.N,+5V*%
X282735000Y-163970000D03*
%TO.P,LED_questionMark1,2,DOUT*%
%TO.N,Net-(LED_questionMark1-Pad2)*%
X282735000Y-162470000D03*
%TO.P,LED_questionMark1,3,DIN*%
%TO.N,Net-(LED_period1-Pad2)*%
X277285000Y-163970000D03*
D16*
%TO.P,LED_questionMark1,4,VSS*%
%TO.N,GND*%
X277285000Y-162470000D03*
%TD*%
D19*
%TO.P,LED_2,1,VDD*%
%TO.N,+5V*%
X101075000Y-105330000D03*
%TO.P,LED_2,2,DOUT*%
%TO.N,Net-(LED_1-Pad3)*%
X101075000Y-106830000D03*
%TO.P,LED_2,3,DIN*%
%TO.N,Net-(LED_2-Pad3)*%
X106525000Y-105330000D03*
D20*
%TO.P,LED_2,4,VSS*%
%TO.N,GND*%
X106525000Y-106830000D03*
%TD*%
D39*
%TO.P,C2,1*%
%TO.N,Net-(C2-Pad1)*%
X339503984Y-146296016D03*
%TO.P,C2,2*%
%TO.N,GND*%
X340600000Y-145200000D03*
%TD*%
D12*
%TO.P,K_8,1,COL*%
%TO.N,COL8*%
X212465000Y-98460000D03*
D13*
X210740000Y-98460000D03*
D14*
X214290000Y-98460000D03*
D13*
%TO.P,K_8,2,ROW*%
%TO.N,Net-(D23-Pad2)*%
X224190000Y-95920000D03*
D14*
X220640000Y-95920000D03*
D12*
X222440000Y-95920000D03*
%TD*%
D18*
%TO.P,C50,1*%
%TO.N,+5V*%
X67000000Y-143400000D03*
%TO.P,C50,2*%
%TO.N,GND*%
X67000000Y-144950000D03*
%TD*%
D17*
%TO.P,D12,1,K*%
%TO.N,ROW0*%
X296600000Y-78787500D03*
%TO.P,D12,2,A*%
%TO.N,Net-(D12-Pad2)*%
X296600000Y-77212500D03*
%TD*%
D18*
%TO.P,C85,1*%
%TO.N,+5V*%
X350300000Y-186250000D03*
%TO.P,C85,2*%
%TO.N,GND*%
X350300000Y-187800000D03*
%TD*%
D17*
%TO.P,D65,1,K*%
%TO.N,ROW4*%
X210800000Y-159675000D03*
%TO.P,D65,2,A*%
%TO.N,Net-(D65-Pad2)*%
X210800000Y-158100000D03*
%TD*%
D21*
%TO.P,C75,1*%
%TO.N,+5V*%
X343200000Y-168700000D03*
%TO.P,C75,2*%
%TO.N,GND*%
X343200000Y-167150000D03*
%TD*%
D19*
%TO.P,LED_pgDn1,1,VDD*%
%TO.N,+5V*%
X358275000Y-143430000D03*
%TO.P,LED_pgDn1,2,DOUT*%
%TO.N,Net-(LED_end1-Pad3)*%
X358275000Y-144930000D03*
%TO.P,LED_pgDn1,3,DIN*%
%TO.N,Net-(LED_pgDn1-Pad3)*%
X363725000Y-143430000D03*
D20*
%TO.P,LED_pgDn1,4,VSS*%
%TO.N,GND*%
X363725000Y-144930000D03*
%TD*%
D18*
%TO.P,C80,1*%
%TO.N,+5V*%
X250400000Y-181550000D03*
%TO.P,C80,2*%
%TO.N,GND*%
X250400000Y-183100000D03*
%TD*%
D17*
%TO.P,D5,1,K*%
%TO.N,ROW0*%
X153700000Y-78700000D03*
%TO.P,D5,2,A*%
%TO.N,Net-(D5-Pad2)*%
X153700000Y-77125000D03*
%TD*%
D40*
%TO.N,GND*%
X343800000Y-84800000D03*
X358430000Y-170820000D03*
X343700000Y-79600000D03*
X360380000Y-168670000D03*
%TO.N,+5V*%
X343400000Y-132700000D03*
X354810000Y-125760000D03*
X344600000Y-131400000D03*
X348512299Y-136312299D03*
X338300000Y-136000000D03*
X348500000Y-125980000D03*
X347112299Y-142987701D03*
X348800000Y-138800000D03*
%TO.N,ROW0*%
X73100000Y-84900000D03*
X73000000Y-80500000D03*
%TO.N,ROW1*%
X331300000Y-102700000D03*
X356000000Y-103200000D03*
%TO.N,ROW2*%
X334600000Y-126800000D03*
X356400000Y-122600000D03*
X333700000Y-121500000D03*
%TO.N,ROW3*%
X355100000Y-141800000D03*
X341900000Y-152600000D03*
%TO.N,ROW4*%
X355500000Y-160700000D03*
X343100000Y-164500000D03*
%TO.N,ROW5*%
X349200000Y-161600000D03*
X348098120Y-167624500D03*
%TO.N,COL0*%
X70300000Y-86600000D03*
%TO.N,VBUS*%
X352400000Y-76900000D03*
X357185500Y-77068563D03*
%TO.N,Net-(J1-PadA5)*%
X350600000Y-76900000D03*
X353500000Y-76500000D03*
%TO.N,Net-(J1-PadB5)*%
X356207243Y-76344063D03*
X358900000Y-76500000D03*
%TD*%
D41*
%TO.N,GND*%
X366949501Y-175239501D02*
X360380000Y-168670000D01*
X366949501Y-183421879D02*
X366949501Y-175239501D01*
%TO.N,+5V*%
X357275000Y-163430000D02*
X358275000Y-162430000D01*
X366000000Y-176100000D02*
X357275000Y-167375000D01*
X366000000Y-183100000D02*
X366000000Y-176100000D01*
X362900000Y-186200000D02*
X366000000Y-183100000D01*
X362200000Y-186200000D02*
X362900000Y-186200000D01*
X357275000Y-167375000D02*
X357275000Y-163430000D01*
%TO.N,GND*%
X362621380Y-187750000D02*
X366949501Y-183421879D01*
%TO.N,Net-(LED_rightArrow1-Pad3)*%
X358275000Y-167739310D02*
X358275000Y-163930000D01*
%TO.N,GND*%
X362200000Y-187750000D02*
X362621380Y-187750000D01*
%TO.N,Net-(LED_rightArrow1-Pad3)*%
X366500000Y-175964310D02*
X358275000Y-167739310D01*
X361375000Y-186975000D02*
X362760690Y-186975000D01*
X358925000Y-186230000D02*
X360630000Y-186230000D01*
X362760690Y-186975000D02*
X366500000Y-183235690D01*
X360630000Y-186230000D02*
X361375000Y-186975000D01*
X366500000Y-183235690D02*
X366500000Y-175964310D01*
%TO.N,GND*%
X269255000Y-106830000D02*
X269300000Y-106875000D01*
X139925000Y-144930000D02*
X138832688Y-146022312D01*
X106525000Y-106830000D02*
X105412764Y-107942236D01*
X246772311Y-146022311D02*
X245700000Y-144950000D01*
X68092236Y-146042236D02*
X67000000Y-144950000D01*
X68525000Y-106830000D02*
X68545000Y-106850000D01*
X120825000Y-144930000D02*
X119712764Y-146042236D01*
X369800000Y-142438507D02*
X369800000Y-142400000D01*
X200995000Y-162350000D02*
X201075000Y-162430000D01*
X349115000Y-73902500D02*
X349135000Y-73922500D01*
X175456798Y-123206798D02*
X176500000Y-124250000D01*
X288500000Y-183100000D02*
X289500000Y-184100000D01*
X270325000Y-107900000D02*
X276885000Y-107900000D01*
X208859732Y-161409732D02*
X202095268Y-161409732D01*
X202095268Y-161409732D02*
X201075000Y-162430000D01*
X132754343Y-80304343D02*
X133800000Y-81350000D01*
X125075000Y-81361962D02*
X126132619Y-80304343D01*
X182500000Y-184200000D02*
X181400000Y-183100000D01*
X265967764Y-161317764D02*
X267000000Y-162350000D01*
X358900000Y-79600000D02*
X357660000Y-78360000D01*
X86775000Y-81530000D02*
X87898202Y-80406798D01*
X86200000Y-183075000D02*
X87225000Y-184100000D01*
X363725000Y-145545000D02*
X363725000Y-144930000D01*
X216125000Y-144830000D02*
X215055000Y-145900000D01*
X74512764Y-146042236D02*
X68092236Y-146042236D01*
X257855000Y-107900000D02*
X258925000Y-106830000D01*
X170756798Y-161306798D02*
X171800000Y-162350000D01*
X137356798Y-123206798D02*
X138400000Y-124250000D01*
X270950000Y-123300000D02*
X271900000Y-124250000D01*
X214500000Y-81450000D02*
X224795000Y-81450000D01*
X125055000Y-81450000D02*
X125075000Y-81430000D01*
X305875000Y-81530000D02*
X295520000Y-81530000D01*
X86412764Y-107942236D02*
X80092236Y-107942236D01*
X100300000Y-124250000D02*
X100380000Y-124330000D01*
X276500000Y-81300000D02*
X286645000Y-81300000D01*
X269330000Y-183030000D02*
X269400000Y-183100000D01*
X68924752Y-123180248D02*
X75530248Y-123180248D01*
X248775000Y-81530000D02*
X249898202Y-80406798D01*
X273325000Y-144930000D02*
X272212764Y-146042236D01*
X358925000Y-187730000D02*
X362180000Y-187730000D01*
X125625000Y-106830000D02*
X136030000Y-106830000D01*
X342372972Y-130633274D02*
X341133274Y-130633274D01*
X232200000Y-107900000D02*
X231200000Y-106900000D01*
X67775000Y-124330000D02*
X68924752Y-123180248D01*
X366980000Y-125830000D02*
X367000000Y-125850000D01*
X357910000Y-78090000D02*
X357640000Y-78360000D01*
X152600000Y-81350000D02*
X151502841Y-80252841D01*
X346213522Y-139706415D02*
X344207107Y-137700000D01*
X152700000Y-162350000D02*
X162995000Y-162350000D01*
X309980000Y-124330000D02*
X309900000Y-124250000D01*
X367338507Y-125850000D02*
X369900000Y-123288507D01*
X359005000Y-75202500D02*
X357910000Y-75202500D01*
X224875000Y-81530000D02*
X225998202Y-80406798D01*
X257855000Y-184100000D02*
X258925000Y-183030000D01*
X69755000Y-184100000D02*
X70825000Y-183030000D01*
X111698202Y-123206798D02*
X118356798Y-123206798D01*
X251200000Y-107900000D02*
X257855000Y-107900000D01*
X344445755Y-133925818D02*
X343500000Y-134871573D01*
X181655000Y-108000000D02*
X175200000Y-108000000D01*
X289500000Y-184100000D02*
X295955000Y-184100000D01*
X76087236Y-161417764D02*
X82667764Y-161417764D01*
X369730000Y-151550000D02*
X363725000Y-145545000D01*
X295520000Y-81530000D02*
X295500000Y-81550000D01*
X58200000Y-169000000D02*
X58200000Y-180200000D01*
X159025000Y-144830000D02*
X169455000Y-144830000D01*
X182825000Y-106830000D02*
X181655000Y-108000000D01*
X232556798Y-123206798D02*
X233600000Y-124250000D01*
X317418507Y-167230000D02*
X334475000Y-167230000D01*
X68570000Y-162530000D02*
X68000000Y-163100000D01*
X341133274Y-130633274D02*
X341174694Y-130633274D01*
X224875000Y-124330000D02*
X225998202Y-123206798D01*
X330852159Y-80352841D02*
X349797159Y-80352841D01*
X318000000Y-107900000D02*
X324555000Y-107900000D01*
X349103984Y-130110380D02*
X346400000Y-127406396D01*
X118356798Y-123206798D02*
X119400000Y-124250000D01*
X171800000Y-162350000D02*
X181995000Y-162350000D01*
X363725000Y-125830000D02*
X369800000Y-131905000D01*
X315792236Y-146042236D02*
X314700000Y-144950000D01*
X258925000Y-183030000D02*
X269330000Y-183030000D01*
X75625000Y-144930000D02*
X74512764Y-146042236D01*
X182075000Y-162430000D02*
X183224752Y-161280248D01*
X74975000Y-162530000D02*
X76087236Y-161417764D01*
X143985000Y-162370000D02*
X145108202Y-161246798D01*
X366970000Y-144930000D02*
X367000000Y-144900000D01*
X238855000Y-107900000D02*
X232200000Y-107900000D01*
X343750000Y-79550000D02*
X343700000Y-79600000D01*
X301175000Y-124330000D02*
X302205000Y-123300000D01*
X277285000Y-162470000D02*
X278397236Y-161357764D01*
X258195000Y-162350000D02*
X258275000Y-162430000D01*
X275600000Y-80400000D02*
X276500000Y-81300000D01*
X302205000Y-123300000D02*
X308950000Y-123300000D01*
X355100000Y-105300000D02*
X355130000Y-105330000D01*
X87898202Y-80406798D02*
X94456798Y-80406798D01*
X250200000Y-106900000D02*
X251200000Y-107900000D01*
X349135000Y-73922500D02*
X350415000Y-75202500D01*
X61100000Y-183100000D02*
X62200000Y-183100000D01*
X286645000Y-81300000D02*
X286875000Y-81530000D01*
X294356798Y-80406798D02*
X295500000Y-81550000D01*
X335500000Y-113791827D02*
X334757674Y-113049501D01*
X105795000Y-81450000D02*
X105875000Y-81530000D01*
X138832688Y-146022312D02*
X132372312Y-146022312D01*
X129595000Y-124250000D02*
X129675000Y-124330000D01*
X282095000Y-124250000D02*
X282175000Y-124330000D01*
X277165000Y-162350000D02*
X277285000Y-162470000D01*
X182825000Y-106830000D02*
X193130000Y-106830000D01*
X167775000Y-81530000D02*
X152780000Y-81530000D01*
X254245000Y-144950000D02*
X254225000Y-144930000D01*
X347274182Y-136754245D02*
X347274182Y-136725818D01*
X367580000Y-163950000D02*
X369730000Y-161800000D01*
X338971663Y-147181892D02*
X339749480Y-147181892D01*
X349797159Y-80352841D02*
X350600000Y-79550000D01*
X201895000Y-106900000D02*
X201825000Y-106830000D01*
X197025000Y-144830000D02*
X207380000Y-144830000D01*
X194556798Y-123206798D02*
X195600000Y-124250000D01*
X251400000Y-184100000D02*
X257855000Y-184100000D01*
X326098202Y-123206798D02*
X332706798Y-123206798D01*
X267000000Y-162350000D02*
X277165000Y-162350000D01*
X239925000Y-106830000D02*
X238855000Y-107900000D01*
X322212764Y-146042236D02*
X315792236Y-146042236D01*
X324975000Y-124330000D02*
X326098202Y-123206798D01*
X334103984Y-141006065D02*
X334103984Y-140896016D01*
X340600000Y-146331372D02*
X340600000Y-145200000D01*
X101825000Y-144930000D02*
X100712764Y-146042236D01*
X212100000Y-106900000D02*
X201895000Y-106900000D01*
X224795000Y-81450000D02*
X224875000Y-81530000D01*
X175511052Y-80461052D02*
X176500000Y-81450000D01*
X344859772Y-133120074D02*
X342372972Y-130633274D01*
X87525000Y-106830000D02*
X97780000Y-106830000D01*
X117000000Y-106900000D02*
X106595000Y-106900000D01*
X174100000Y-106900000D02*
X163795000Y-106900000D01*
X314520000Y-81530000D02*
X314500000Y-81550000D01*
X114600000Y-162450000D02*
X124855000Y-162450000D01*
X60950000Y-107900000D02*
X59900000Y-106850000D01*
X63040000Y-141329213D02*
X63040000Y-129068415D01*
X125625000Y-106830000D02*
X124512764Y-107942236D01*
X106998202Y-161406798D02*
X113556798Y-161406798D01*
X186875000Y-124330000D02*
X187998202Y-123206798D01*
X341174694Y-130633274D02*
X342503984Y-129303984D01*
X258925000Y-106830000D02*
X269255000Y-106830000D01*
X110000000Y-183100000D02*
X111000000Y-184100000D01*
X248695000Y-81450000D02*
X248775000Y-81530000D01*
X168898202Y-123206798D02*
X175456798Y-123206798D01*
X110575000Y-124330000D02*
X111698202Y-123206798D01*
X344207107Y-137700000D02*
X343500000Y-137700000D01*
X288430000Y-183030000D02*
X288500000Y-183100000D01*
X151450000Y-145900000D02*
X157955000Y-145900000D01*
X249898202Y-80406798D02*
X256556798Y-80406798D01*
X67775000Y-124333415D02*
X67775000Y-124330000D01*
X167775000Y-124330000D02*
X168898202Y-123206798D01*
X114600000Y-81450000D02*
X125055000Y-81450000D01*
X289400000Y-107900000D02*
X295955000Y-107900000D01*
X125905000Y-161400000D02*
X132750000Y-161400000D01*
X215055000Y-145900000D02*
X208450000Y-145900000D01*
X239275000Y-162430000D02*
X240400657Y-161304343D01*
X350300000Y-187800000D02*
X351300000Y-188800000D01*
X154930000Y-106830000D02*
X155000000Y-106900000D01*
X338778858Y-143276777D02*
X339755635Y-142300000D01*
X347274182Y-136754245D02*
X346328427Y-137700000D01*
X360265000Y-69322500D02*
X360265000Y-73902500D01*
X63200000Y-184100000D02*
X69755000Y-184100000D01*
X143455000Y-108000000D02*
X137200000Y-108000000D01*
X343321815Y-137521815D02*
X343500000Y-137700000D01*
X308950000Y-123300000D02*
X309900000Y-124250000D01*
X113556798Y-161406798D02*
X114600000Y-162450000D01*
X343500000Y-134871573D02*
X343500000Y-137700000D01*
X269300000Y-106875000D02*
X270325000Y-107900000D01*
X176955000Y-145900000D02*
X178025000Y-144830000D01*
X193130000Y-106830000D02*
X193200000Y-106900000D01*
X301095000Y-124250000D02*
X301175000Y-124330000D01*
X351792500Y-74200000D02*
X353976810Y-74200000D01*
X67455000Y-107900000D02*
X60950000Y-107900000D01*
X187943948Y-80461052D02*
X194511052Y-80461052D01*
X339925000Y-187730000D02*
X350230000Y-187730000D01*
X148595000Y-124250000D02*
X148675000Y-124330000D01*
X207380000Y-144830000D02*
X207400000Y-144850000D01*
X297025000Y-106830000D02*
X316930000Y-106830000D01*
X357910000Y-75202500D02*
X357910000Y-78090000D01*
X319755000Y-188800000D02*
X313200000Y-188800000D01*
X339282027Y-137017561D02*
X338086189Y-137017561D01*
X329675000Y-81530000D02*
X330852159Y-80352841D01*
X145108202Y-161246798D02*
X151596798Y-161246798D01*
X227856798Y-161306798D02*
X228900000Y-162350000D01*
X354298811Y-73877999D02*
X355677999Y-73877999D01*
X277925000Y-183030000D02*
X288430000Y-183030000D01*
X207000657Y-80404343D02*
X213454343Y-80404343D01*
X75530248Y-123180248D02*
X76600000Y-124250000D01*
X270400000Y-184100000D02*
X276855000Y-184100000D01*
X56700000Y-103988507D02*
X59561493Y-106850000D01*
X124855000Y-162450000D02*
X124875000Y-162430000D01*
X360380000Y-168670000D02*
X360380000Y-167275000D01*
X336021142Y-144231371D02*
X338971663Y-147181892D01*
X282175000Y-124330000D02*
X283298202Y-123206798D01*
X323325000Y-144930000D02*
X322212764Y-146042236D01*
X347456608Y-140949501D02*
X347880873Y-140949501D01*
X351050000Y-163440000D02*
X358430000Y-170820000D01*
X206998202Y-123206798D02*
X213556798Y-123206798D01*
X74975000Y-162530000D02*
X68570000Y-162530000D01*
X70950000Y-80500000D02*
X64005000Y-80500000D01*
X93555000Y-184100000D02*
X94625000Y-183030000D01*
X289856798Y-123206798D02*
X290900000Y-124250000D01*
X362180000Y-187730000D02*
X362200000Y-187750000D01*
X367338507Y-144900000D02*
X369800000Y-142438507D01*
X86775000Y-81530000D02*
X71980000Y-81530000D01*
X331400000Y-187800000D02*
X332400000Y-188800000D01*
X338778858Y-143276777D02*
X340600000Y-145097919D01*
X189730248Y-161280248D02*
X190800000Y-162350000D01*
X145152159Y-80252841D02*
X143975000Y-81430000D01*
X59561493Y-106850000D02*
X59900000Y-106850000D01*
X144625000Y-106830000D02*
X143455000Y-108000000D01*
X367000000Y-144900000D02*
X367338507Y-144900000D01*
X369900000Y-107700000D02*
X366406800Y-104206800D01*
X343800000Y-90400000D02*
X343800000Y-84800000D01*
X343500000Y-139114214D02*
X343500000Y-137700000D01*
X317000000Y-106900000D02*
X318000000Y-107900000D01*
X351050000Y-163300000D02*
X351050000Y-163440000D01*
X226500000Y-144950000D02*
X227550000Y-146000000D01*
X276855000Y-184100000D02*
X277925000Y-183030000D01*
X126132619Y-80304343D02*
X132754343Y-80304343D01*
X227550000Y-146000000D02*
X234055000Y-146000000D01*
X312200000Y-187800000D02*
X301795000Y-187800000D01*
X284907764Y-161357764D02*
X286000000Y-162450000D01*
X369800000Y-131905000D02*
X369800000Y-142400000D01*
X359398200Y-104206800D02*
X358275000Y-105330000D01*
X201825000Y-106830000D02*
X200755000Y-107900000D01*
X144625000Y-106830000D02*
X154930000Y-106830000D01*
X267875000Y-81430000D02*
X268905000Y-80400000D01*
X366406800Y-104206800D02*
X359398200Y-104206800D01*
X220175000Y-162430000D02*
X209880000Y-162430000D01*
X232456798Y-80406798D02*
X233500000Y-81450000D01*
X369900000Y-123288507D02*
X369900000Y-107700000D01*
X324555000Y-107900000D02*
X325625000Y-106830000D01*
X366980000Y-163930000D02*
X367000000Y-163950000D01*
X178025000Y-144830000D02*
X188380000Y-144830000D01*
X183224752Y-161280248D02*
X189730248Y-161280248D01*
X250400000Y-183100000D02*
X251400000Y-184100000D01*
X351300000Y-188800000D02*
X357855000Y-188800000D01*
X194200000Y-107900000D02*
X193200000Y-106900000D01*
X70870000Y-183075000D02*
X70825000Y-183030000D01*
X343389340Y-146331372D02*
X344083984Y-147026016D01*
X111000000Y-184100000D02*
X117455000Y-184100000D01*
X363725000Y-125830000D02*
X366980000Y-125830000D01*
X357855000Y-188800000D02*
X358925000Y-187730000D01*
X353976810Y-74200000D02*
X354298811Y-73877999D01*
X335500000Y-122600000D02*
X335500000Y-113791827D01*
X91575000Y-124330000D02*
X92643948Y-123261052D01*
X71980000Y-81530000D02*
X71700000Y-81250000D01*
X347880873Y-140949501D02*
X349100000Y-142168628D01*
X190800000Y-162350000D02*
X200995000Y-162350000D01*
X98892236Y-107942236D02*
X97900000Y-106950000D01*
X312538507Y-162350000D02*
X317418507Y-167230000D01*
X357910000Y-75202500D02*
X357910000Y-74482500D01*
X304598202Y-161306798D02*
X311156798Y-161306798D01*
X150400000Y-144850000D02*
X151450000Y-145900000D01*
X170525000Y-145900000D02*
X176955000Y-145900000D01*
X295955000Y-184100000D02*
X297025000Y-183030000D01*
X140005000Y-144850000D02*
X139925000Y-144930000D01*
X105412764Y-107942236D02*
X98892236Y-107942236D01*
X188755000Y-184200000D02*
X182500000Y-184200000D01*
X220825000Y-106830000D02*
X219712764Y-107942236D01*
X131280000Y-144930000D02*
X131300000Y-144950000D01*
X291212764Y-146042236D02*
X284792236Y-146042236D01*
X157955000Y-145900000D02*
X159025000Y-144830000D01*
X369730000Y-161800000D02*
X369730000Y-151550000D01*
X87225000Y-184100000D02*
X93555000Y-184100000D01*
X119400000Y-124250000D02*
X129595000Y-124250000D01*
X117455000Y-184100000D02*
X118525000Y-183030000D01*
X233600000Y-124250000D02*
X243895000Y-124250000D01*
X221298202Y-161306798D02*
X227856798Y-161306798D01*
X106998202Y-80406798D02*
X113556798Y-80406798D01*
X344108173Y-155800000D02*
X334195000Y-155800000D01*
X133720000Y-162370000D02*
X133700000Y-162350000D01*
X234055000Y-146000000D02*
X235125000Y-144930000D01*
X312200000Y-162350000D02*
X312538507Y-162350000D01*
X129675000Y-124330000D02*
X130798202Y-123206798D01*
X358900000Y-79600000D02*
X358900000Y-86110000D01*
X83780000Y-162530000D02*
X83700000Y-162450000D01*
X112180000Y-144930000D02*
X112200000Y-144950000D01*
X113292236Y-146042236D02*
X112200000Y-144950000D01*
X132750000Y-161400000D02*
X133700000Y-162350000D01*
X213454343Y-80404343D02*
X214500000Y-81450000D01*
X176500000Y-124250000D02*
X186795000Y-124250000D01*
X292325000Y-144930000D02*
X291212764Y-146042236D01*
X256556798Y-80406798D02*
X257500000Y-81350000D01*
X292345000Y-144950000D02*
X292325000Y-144930000D01*
X118525000Y-183030000D02*
X181330000Y-183030000D01*
X64100000Y-163100000D02*
X58200000Y-169000000D01*
X276885000Y-107900000D02*
X277975000Y-106810000D01*
X216125000Y-144830000D02*
X226380000Y-144830000D01*
X136030000Y-106830000D02*
X136100000Y-106900000D01*
X58200000Y-180200000D02*
X61100000Y-183100000D01*
X290900000Y-124250000D02*
X301095000Y-124250000D01*
X105875000Y-81530000D02*
X106998202Y-80406798D01*
X344859772Y-133511801D02*
X344859772Y-133120074D01*
X188400000Y-144850000D02*
X189450000Y-145900000D01*
X245700000Y-144950000D02*
X235145000Y-144950000D01*
X350600000Y-79550000D02*
X349135000Y-78085000D01*
X347748503Y-136051497D02*
X349103984Y-134696016D01*
X93080000Y-144930000D02*
X93100000Y-144950000D01*
X338855000Y-188800000D02*
X339925000Y-187730000D01*
X243895000Y-124250000D02*
X243975000Y-124330000D01*
X156000000Y-107900000D02*
X155000000Y-106900000D01*
X272212764Y-146042236D02*
X265792236Y-146042236D01*
X349100000Y-142168628D02*
X349100000Y-143300000D01*
X225998202Y-80406798D02*
X232456798Y-80406798D01*
X339372264Y-137107798D02*
X339786281Y-137521815D01*
X351450000Y-101650000D02*
X355100000Y-105300000D01*
X259387236Y-161317764D02*
X265967764Y-161317764D01*
X351510000Y-74482500D02*
X351792500Y-74200000D01*
X307052159Y-80352841D02*
X305875000Y-81530000D01*
X357910000Y-74482500D02*
X357627500Y-74200000D01*
X351510000Y-75202500D02*
X351510000Y-74482500D01*
X301795000Y-187800000D02*
X297025000Y-183030000D01*
X219712764Y-107942236D02*
X213142236Y-107942236D01*
X66660787Y-144950000D02*
X63040000Y-141329213D01*
X235145000Y-144950000D02*
X235125000Y-144930000D01*
X143985000Y-162370000D02*
X133720000Y-162370000D01*
X137200000Y-108000000D02*
X136100000Y-106900000D01*
X176500000Y-81450000D02*
X186795000Y-81450000D01*
X258275000Y-162430000D02*
X259387236Y-161317764D01*
X120825000Y-144930000D02*
X131280000Y-144930000D01*
X189925000Y-183030000D02*
X188755000Y-184200000D01*
X71700000Y-81250000D02*
X70950000Y-80500000D01*
X99311052Y-123261052D02*
X100300000Y-124250000D01*
X132372312Y-146022312D02*
X131300000Y-144950000D01*
X295955000Y-107900000D02*
X297025000Y-106830000D01*
X335505000Y-166200000D02*
X342250000Y-166200000D01*
X314500000Y-81550000D02*
X313302841Y-80352841D01*
X334195000Y-155800000D02*
X323325000Y-144930000D01*
X329675000Y-81530000D02*
X314520000Y-81530000D01*
X264700000Y-144950000D02*
X254245000Y-144950000D01*
X336251992Y-135183364D02*
X336251992Y-134051992D01*
X195955000Y-145900000D02*
X197025000Y-144830000D01*
X167695000Y-124250000D02*
X167775000Y-124330000D01*
X245098202Y-123206798D02*
X251656798Y-123206798D01*
X341847138Y-140767076D02*
X341832924Y-140767076D01*
X169500000Y-144875000D02*
X170525000Y-145900000D01*
X220895000Y-106900000D02*
X220825000Y-106830000D01*
X75625000Y-144930000D02*
X93080000Y-144930000D01*
X67000000Y-144950000D02*
X66660787Y-144950000D01*
X97780000Y-106830000D02*
X97900000Y-106950000D01*
X367000000Y-125850000D02*
X367338507Y-125850000D01*
X336021142Y-142923223D02*
X334103984Y-141006065D01*
X181995000Y-162350000D02*
X182075000Y-162430000D01*
X262995000Y-124250000D02*
X263075000Y-124330000D01*
X320825000Y-187730000D02*
X319755000Y-188800000D01*
X113556798Y-80406798D02*
X114600000Y-81450000D01*
X119712764Y-146042236D02*
X113292236Y-146042236D01*
X187998202Y-123206798D02*
X194556798Y-123206798D01*
X64005000Y-80500000D02*
X62975000Y-81530000D01*
X363725000Y-163930000D02*
X366980000Y-163930000D01*
X333800000Y-124300000D02*
X335500000Y-122600000D01*
X243975000Y-124330000D02*
X245098202Y-123206798D01*
X252700000Y-124250000D02*
X262995000Y-124250000D01*
X257500000Y-81350000D02*
X267795000Y-81350000D01*
X363725000Y-144930000D02*
X366970000Y-144930000D01*
X163075000Y-162430000D02*
X164198202Y-161306798D01*
X346213522Y-139706415D02*
X347456608Y-140949501D01*
X263075000Y-124330000D02*
X264105000Y-123300000D01*
X340600000Y-146331372D02*
X343389340Y-146331372D01*
X189925000Y-183030000D02*
X250330000Y-183030000D01*
X340600000Y-145097919D02*
X340600000Y-145200000D01*
X118042236Y-107942236D02*
X117000000Y-106900000D01*
X167775000Y-81530000D02*
X168843948Y-80461052D01*
X303475000Y-162430000D02*
X286020000Y-162430000D01*
X105875000Y-162530000D02*
X83780000Y-162530000D01*
X250330000Y-183030000D02*
X250400000Y-183100000D01*
X311156798Y-161306798D02*
X312200000Y-162350000D01*
X162655000Y-107900000D02*
X156000000Y-107900000D01*
X200755000Y-107900000D02*
X194200000Y-107900000D01*
X265792236Y-146042236D02*
X264700000Y-144950000D01*
X100380000Y-124330000D02*
X110575000Y-124330000D01*
X150400000Y-144850000D02*
X140005000Y-144850000D01*
X360380000Y-167275000D02*
X363725000Y-163930000D01*
X188380000Y-144830000D02*
X188400000Y-144850000D01*
X151596798Y-161246798D02*
X152700000Y-162350000D01*
X248000000Y-162350000D02*
X258195000Y-162350000D01*
X360285000Y-73922500D02*
X359005000Y-75202500D01*
X347748503Y-136251497D02*
X347748503Y-136051497D01*
X231200000Y-106900000D02*
X220895000Y-106900000D01*
X162995000Y-162350000D02*
X163075000Y-162430000D01*
X355130000Y-105330000D02*
X358275000Y-105330000D01*
X273325000Y-144930000D02*
X273345000Y-144950000D01*
X213142236Y-107942236D02*
X212100000Y-106900000D01*
X181330000Y-183030000D02*
X181400000Y-183100000D01*
X346400000Y-127406396D02*
X346400000Y-93000000D01*
X350415000Y-75202500D02*
X351510000Y-75202500D01*
X332400000Y-188800000D02*
X338855000Y-188800000D01*
X186795000Y-124250000D02*
X186875000Y-124330000D01*
X314700000Y-144950000D02*
X292345000Y-144950000D01*
X92643948Y-123261052D02*
X99311052Y-123261052D01*
X271900000Y-124250000D02*
X282095000Y-124250000D01*
X286875000Y-81530000D02*
X287998202Y-80406798D01*
X68525000Y-106830000D02*
X67455000Y-107900000D01*
X357640000Y-78360000D02*
X355750000Y-78360000D01*
X214600000Y-124250000D02*
X224795000Y-124250000D01*
X133800000Y-81350000D02*
X143895000Y-81350000D01*
X106595000Y-106900000D02*
X106525000Y-106830000D01*
X277975000Y-106810000D02*
X288310000Y-106810000D01*
X250200000Y-106900000D02*
X250130000Y-106830000D01*
X339749480Y-147181892D02*
X340600000Y-146331372D01*
X224795000Y-124250000D02*
X224875000Y-124330000D01*
X288310000Y-106810000D02*
X288400000Y-106900000D01*
X349115000Y-69322500D02*
X349115000Y-73902500D01*
X345000000Y-156691827D02*
X345000000Y-165350000D01*
X68000000Y-163100000D02*
X64100000Y-163100000D01*
X175200000Y-108000000D02*
X174100000Y-106900000D01*
X284792236Y-146042236D02*
X283700000Y-144950000D01*
X240400657Y-161304343D02*
X246954343Y-161304343D01*
X355677999Y-73877999D02*
X356000000Y-74200000D01*
X220175000Y-162430000D02*
X221298202Y-161306798D01*
X163795000Y-106900000D02*
X163725000Y-106830000D01*
X324975000Y-124330000D02*
X309980000Y-124330000D01*
X130798202Y-123206798D02*
X137356798Y-123206798D01*
X138400000Y-124250000D02*
X148595000Y-124250000D01*
X156356798Y-123206798D02*
X157400000Y-124250000D01*
X233500000Y-81450000D02*
X248695000Y-81450000D01*
X320895000Y-187800000D02*
X320825000Y-187730000D01*
X269400000Y-183100000D02*
X270400000Y-184100000D01*
X313200000Y-188800000D02*
X312200000Y-187800000D01*
X303475000Y-162430000D02*
X304598202Y-161306798D01*
X151502841Y-80252841D02*
X145152159Y-80252841D01*
X340314214Y-142300000D02*
X341847138Y-140767076D01*
X195500000Y-81450000D02*
X205795000Y-81450000D01*
X336021142Y-142923223D02*
X336021142Y-144231371D01*
X334475000Y-167230000D02*
X335505000Y-166200000D01*
X338086189Y-137017561D02*
X336251992Y-135183364D01*
X205875000Y-81530000D02*
X207000657Y-80404343D01*
X367000000Y-163950000D02*
X367580000Y-163950000D01*
X148675000Y-124330000D02*
X149798202Y-123206798D01*
X360265000Y-73902500D02*
X360285000Y-73922500D01*
X339755635Y-142300000D02*
X340314214Y-142300000D01*
X208450000Y-145900000D02*
X207400000Y-144850000D01*
X250130000Y-106830000D02*
X239925000Y-106830000D01*
X226380000Y-144830000D02*
X226500000Y-144950000D01*
X186875000Y-81530000D02*
X187943948Y-80461052D01*
X268905000Y-80400000D02*
X275600000Y-80400000D01*
X273345000Y-144950000D02*
X283700000Y-144950000D01*
X325625000Y-107796380D02*
X325625000Y-106830000D01*
X264105000Y-123300000D02*
X270950000Y-123300000D01*
X339786281Y-137521815D02*
X343321815Y-137521815D01*
X164198202Y-161306798D02*
X170756798Y-161306798D01*
X344108173Y-155800000D02*
X345000000Y-156691827D01*
X287998202Y-80406798D02*
X294356798Y-80406798D01*
X358900000Y-86110000D02*
X351450000Y-93560000D01*
X349103984Y-134696016D02*
X349103984Y-130110380D01*
X342250000Y-166200000D02*
X343200000Y-167150000D01*
X283298202Y-123206798D02*
X289856798Y-123206798D01*
X347274182Y-136725818D02*
X347748503Y-136251497D01*
X63040000Y-129068415D02*
X67775000Y-124333415D01*
X345000000Y-165350000D02*
X343200000Y-167150000D01*
X62200000Y-183100000D02*
X63200000Y-184100000D01*
X331400000Y-187800000D02*
X320895000Y-187800000D01*
X189450000Y-145900000D02*
X195955000Y-145900000D01*
X251656798Y-123206798D02*
X252700000Y-124250000D01*
X253132689Y-146022311D02*
X246772311Y-146022311D01*
X80092236Y-107942236D02*
X79000000Y-106850000D01*
X316930000Y-106830000D02*
X317000000Y-106900000D01*
X213556798Y-123206798D02*
X214600000Y-124250000D01*
X100712764Y-146042236D02*
X94192236Y-146042236D01*
X94695000Y-183100000D02*
X94625000Y-183030000D01*
X344445755Y-133925818D02*
X344859772Y-133511801D01*
X110000000Y-183100000D02*
X94695000Y-183100000D01*
X91575000Y-124330000D02*
X76680000Y-124330000D01*
X152780000Y-81530000D02*
X152600000Y-81350000D01*
X350600000Y-79550000D02*
X343750000Y-79550000D01*
X339372264Y-137107798D02*
X339282027Y-137017561D01*
X267795000Y-81350000D02*
X267875000Y-81430000D01*
X125075000Y-81430000D02*
X125075000Y-81361962D01*
X332706798Y-123206798D02*
X333800000Y-124300000D01*
X357660000Y-78360000D02*
X357640000Y-78360000D01*
X349135000Y-78085000D02*
X349135000Y-73922500D01*
X205875000Y-124330000D02*
X206998202Y-123206798D01*
X350230000Y-187730000D02*
X350300000Y-187800000D01*
X346328427Y-137700000D02*
X343500000Y-137700000D01*
X149798202Y-123206798D02*
X156356798Y-123206798D01*
X228900000Y-162350000D02*
X228980000Y-162430000D01*
X62975000Y-81530000D02*
X56700000Y-87805000D01*
X209800000Y-162350000D02*
X208859732Y-161409732D01*
X86200000Y-183075000D02*
X70870000Y-183075000D01*
X82667764Y-161417764D02*
X83700000Y-162450000D01*
X124512764Y-107942236D02*
X118042236Y-107942236D01*
X194511052Y-80461052D02*
X195500000Y-81450000D01*
X76680000Y-124330000D02*
X76600000Y-124250000D01*
X225998202Y-123206798D02*
X232556798Y-123206798D01*
X228980000Y-162430000D02*
X239275000Y-162430000D01*
X157400000Y-124250000D02*
X167695000Y-124250000D01*
X169455000Y-144830000D02*
X169500000Y-144875000D01*
X87525000Y-106830000D02*
X86412764Y-107942236D01*
X278397236Y-161357764D02*
X284907764Y-161357764D01*
X341847138Y-140767076D02*
X343500000Y-139114214D01*
X356000000Y-74200000D02*
X357627500Y-74200000D01*
X313302841Y-80352841D02*
X307052159Y-80352841D01*
X351450000Y-93560000D02*
X351450000Y-101650000D01*
X334757674Y-113049501D02*
X330878121Y-113049501D01*
X186795000Y-81450000D02*
X186875000Y-81530000D01*
X205795000Y-81450000D02*
X205875000Y-81530000D01*
X205795000Y-124250000D02*
X205875000Y-124330000D01*
X94456798Y-80406798D02*
X95500000Y-81450000D01*
X94192236Y-146042236D02*
X93100000Y-144950000D01*
X56700000Y-87805000D02*
X56700000Y-103988507D01*
X105875000Y-162530000D02*
X106998202Y-161406798D01*
X288400000Y-106900000D02*
X289400000Y-107900000D01*
X195600000Y-124250000D02*
X205795000Y-124250000D01*
X246954343Y-161304343D02*
X248000000Y-162350000D01*
X68545000Y-106850000D02*
X79000000Y-106850000D01*
X346400000Y-93000000D02*
X343800000Y-90400000D01*
X124875000Y-162430000D02*
X125905000Y-161400000D01*
X101825000Y-144930000D02*
X112180000Y-144930000D01*
X209880000Y-162430000D02*
X209800000Y-162350000D01*
X143895000Y-81350000D02*
X143975000Y-81430000D01*
X163725000Y-106830000D02*
X162655000Y-107900000D01*
X168843948Y-80461052D02*
X175511052Y-80461052D01*
X254225000Y-144930000D02*
X253132689Y-146022311D01*
X330878121Y-113049501D02*
X325625000Y-107796380D01*
X286020000Y-162430000D02*
X286000000Y-162450000D01*
X95500000Y-81450000D02*
X105795000Y-81450000D01*
%TO.N,Net-(C3-Pad1)*%
X345884567Y-140059969D02*
X348003984Y-142179386D01*
X348003984Y-142179386D02*
X348003984Y-142203984D01*
X345859969Y-140059969D02*
X345884567Y-140059969D01*
%TO.N,+5V*%
X346910000Y-127280000D02*
X348210000Y-125980000D01*
X97900000Y-105400000D02*
X97970000Y-105330000D01*
X257500000Y-82900000D02*
X257370000Y-83030000D01*
X135125000Y-125830000D02*
X134012763Y-126942237D01*
X178487237Y-104217763D02*
X192067763Y-104217763D01*
X174120000Y-105330000D02*
X177375000Y-105330000D01*
X188430000Y-143330000D02*
X191575000Y-143330000D01*
X205455000Y-165000000D02*
X191900000Y-165000000D01*
X111106800Y-142306800D02*
X112200000Y-143400000D01*
X96375000Y-143430000D02*
X97498200Y-142306800D01*
X350200000Y-130570000D02*
X350200000Y-133600000D01*
X211325000Y-125830000D02*
X210212763Y-126942237D01*
X252670000Y-125830000D02*
X252700000Y-125800000D01*
X116025000Y-125830000D02*
X114912763Y-126942237D01*
X286875000Y-143430000D02*
X287987237Y-142317763D01*
X295430000Y-83030000D02*
X292325000Y-83030000D01*
X78000000Y-104300000D02*
X79000000Y-105300000D01*
X197487237Y-104217763D02*
X210967763Y-104217763D01*
X92225000Y-83030000D02*
X95470000Y-83030000D01*
X338200000Y-136000000D02*
X337348008Y-135148008D01*
X159398200Y-104206800D02*
X172956800Y-104206800D01*
X70175000Y-143430000D02*
X71287237Y-142317763D01*
X233500000Y-83000000D02*
X233470000Y-83030000D01*
X196602994Y-84102994D02*
X195500000Y-83000000D01*
X335125997Y-112125997D02*
X331225997Y-112125997D01*
X100270000Y-125830000D02*
X100300000Y-125800000D01*
X344379553Y-154800000D02*
X335800000Y-154800000D01*
X335550000Y-125850000D02*
X336500000Y-124900000D01*
X158500000Y-126900000D02*
X157400000Y-125800000D01*
X177598946Y-126898946D02*
X176500000Y-125800000D01*
X349230000Y-83030000D02*
X350500000Y-84300000D01*
X191900000Y-165000000D02*
X190800000Y-163900000D01*
X355540000Y-125760000D02*
X356600000Y-124700000D01*
X365787582Y-123087582D02*
X359517418Y-123087582D01*
X248355000Y-126900000D02*
X234700000Y-126900000D01*
X168375000Y-142200000D02*
X169500000Y-143325000D01*
X86200000Y-181525000D02*
X86205000Y-181530000D01*
X360110000Y-149050000D02*
X356580000Y-145520000D01*
X89175000Y-181530000D02*
X90205000Y-180500000D01*
X317000000Y-105350000D02*
X315802840Y-104152840D01*
X273325000Y-82930000D02*
X276420000Y-82930000D01*
X117020000Y-105330000D02*
X120175000Y-105330000D01*
X61800000Y-103400000D02*
X59900000Y-105300000D01*
X180350000Y-180500000D02*
X181400000Y-181550000D01*
X292000000Y-126900000D02*
X290900000Y-125800000D01*
X92017763Y-142317763D02*
X93100000Y-143400000D01*
X331420000Y-186230000D02*
X334475000Y-186230000D01*
X63940000Y-131460000D02*
X63940000Y-140340000D01*
X348619073Y-136312299D02*
X350200000Y-134731372D01*
X102224751Y-104180249D02*
X115830249Y-104180249D01*
X362655000Y-107900000D02*
X356150000Y-107900000D01*
X112230000Y-143430000D02*
X115375000Y-143430000D01*
X267875000Y-143430000D02*
X268895222Y-142409778D01*
X253152006Y-84102994D02*
X234602994Y-84102994D01*
X134012763Y-126942237D02*
X120542237Y-126942237D01*
X149406800Y-142306800D02*
X150400000Y-143300000D01*
X190770000Y-163930000D02*
X187525000Y-163930000D01*
X344092202Y-133392202D02*
X343400000Y-132700000D01*
X157370000Y-125830000D02*
X157400000Y-125800000D01*
X212120000Y-105330000D02*
X215375000Y-105330000D01*
X336500000Y-113500000D02*
X335125997Y-112125997D01*
X292752160Y-104152840D02*
X291575000Y-105330000D01*
X292325000Y-83030000D02*
X291255000Y-84100000D01*
X59900000Y-105300000D02*
X59930000Y-105330000D01*
X249100000Y-165000000D02*
X262655000Y-165000000D01*
X267455000Y-126900000D02*
X253800000Y-126900000D01*
X172575000Y-143330000D02*
X173687237Y-142217763D01*
X288400000Y-105350000D02*
X288420000Y-105330000D01*
X139522314Y-126922314D02*
X138400000Y-125800000D01*
X71287237Y-142317763D02*
X92017763Y-142317763D01*
X59140000Y-178490000D02*
X62200000Y-181550000D01*
X306625000Y-125830000D02*
X309870000Y-125830000D01*
X77700000Y-126900000D02*
X76600000Y-125800000D01*
X345163274Y-148186726D02*
X345163274Y-145946726D01*
X230325000Y-125830000D02*
X229212763Y-126942237D01*
X331400000Y-186250000D02*
X331420000Y-186230000D01*
X73225000Y-125830000D02*
X76570000Y-125830000D01*
X114570000Y-164030000D02*
X114600000Y-164000000D01*
X80425000Y-164030000D02*
X79055000Y-165400000D01*
X93130000Y-143430000D02*
X96375000Y-143430000D01*
X314730000Y-143430000D02*
X317875000Y-143430000D01*
X254543947Y-104261053D02*
X268236053Y-104261053D01*
X244725000Y-163930000D02*
X247970000Y-163930000D01*
X249425000Y-125830000D02*
X252670000Y-125830000D01*
X282709778Y-142409778D02*
X283700000Y-143400000D01*
X283700000Y-143400000D02*
X283730000Y-143430000D01*
X229675000Y-143430000D02*
X230705000Y-142400000D01*
X150400000Y-143300000D02*
X150430000Y-143330000D01*
X368850499Y-132350499D02*
X364000000Y-127500000D01*
X346910000Y-93060000D02*
X350500000Y-89470000D01*
X63940000Y-140340000D02*
X67000000Y-143400000D01*
X73042237Y-84142237D02*
X71700000Y-82800000D01*
X313617763Y-142317763D02*
X314700000Y-143400000D01*
X325998385Y-104206800D02*
X321298200Y-104206800D01*
X287625000Y-125830000D02*
X290870000Y-125830000D01*
X215742237Y-126942237D02*
X214600000Y-125800000D01*
X168525000Y-163930000D02*
X171770000Y-163930000D01*
X345163274Y-145946726D02*
X345180000Y-145930000D01*
X171800000Y-163900000D02*
X172900000Y-165000000D01*
X330425000Y-125830000D02*
X333780000Y-125830000D01*
X185543947Y-180461053D02*
X249311053Y-180461053D01*
X249805000Y-142400000D02*
X263700000Y-142400000D01*
X173225000Y-83030000D02*
X172152006Y-84102994D01*
X130325000Y-163930000D02*
X133670000Y-163930000D01*
X66405000Y-180500000D02*
X85175000Y-180500000D01*
X67030000Y-143430000D02*
X70175000Y-143430000D01*
X306625000Y-125830000D02*
X305555000Y-126900000D01*
X210967763Y-104217763D02*
X212100000Y-105350000D01*
X172155000Y-126900000D02*
X158500000Y-126900000D01*
X354810000Y-125760000D02*
X355540000Y-125760000D01*
X115830249Y-104180249D02*
X117000000Y-105350000D01*
X116025000Y-125830000D02*
X119370000Y-125830000D01*
X62200000Y-181550000D02*
X62220000Y-181530000D01*
X130545000Y-82950000D02*
X130525000Y-82930000D01*
X173225000Y-125830000D02*
X176470000Y-125830000D01*
X276420000Y-82930000D02*
X276500000Y-82850000D01*
X268525000Y-125830000D02*
X267455000Y-126900000D01*
X211345000Y-83050000D02*
X211325000Y-83030000D01*
X308925000Y-163930000D02*
X312170000Y-163930000D01*
X83198200Y-104206800D02*
X96706800Y-104206800D01*
X331225997Y-112125997D02*
X327900000Y-108800000D01*
X133670000Y-163930000D02*
X133700000Y-163900000D01*
X149425000Y-82930000D02*
X148312763Y-84042237D01*
X359405000Y-142300000D02*
X358275000Y-143430000D01*
X172956800Y-104206800D02*
X174100000Y-105350000D01*
X85175000Y-180500000D02*
X86200000Y-181525000D01*
X316498200Y-185106800D02*
X330256800Y-185106800D01*
X333800000Y-125850000D02*
X335550000Y-125850000D01*
X210252006Y-84102994D02*
X196602994Y-84102994D01*
X230325000Y-125830000D02*
X233570000Y-125830000D01*
X250220000Y-105330000D02*
X253475000Y-105330000D01*
X263725000Y-163930000D02*
X266970000Y-163930000D01*
X330256800Y-185106800D02*
X331400000Y-186250000D01*
X169500000Y-143325000D02*
X169505000Y-143330000D01*
X68200000Y-102173901D02*
X66973901Y-103400000D01*
X314430000Y-83030000D02*
X311325000Y-83030000D01*
X249311053Y-180461053D02*
X250400000Y-181550000D01*
X314500000Y-83100000D02*
X314430000Y-83030000D01*
X154125000Y-125830000D02*
X157370000Y-125830000D01*
X134956800Y-104206800D02*
X136100000Y-105350000D01*
X312170000Y-163930000D02*
X312200000Y-163900000D01*
X343360000Y-145210000D02*
X344460000Y-145210000D01*
X210675000Y-143330000D02*
X211743947Y-142261053D01*
X119370000Y-125830000D02*
X119400000Y-125800000D01*
X345900000Y-166338507D02*
X345900000Y-156320447D01*
X230000000Y-165000000D02*
X228900000Y-163900000D01*
X158275000Y-105330000D02*
X159398200Y-104206800D01*
X295500000Y-83100000D02*
X295430000Y-83030000D01*
X305555000Y-126900000D02*
X292000000Y-126900000D01*
X153575000Y-143330000D02*
X154705000Y-142200000D01*
X96706800Y-104206800D02*
X97900000Y-105400000D01*
X184475000Y-181530000D02*
X185543947Y-180461053D01*
X186455000Y-165000000D02*
X187525000Y-163930000D01*
X342200691Y-141120629D02*
X341420000Y-141901320D01*
X230325000Y-83030000D02*
X229252006Y-84102994D01*
X335125000Y-83030000D02*
X349230000Y-83030000D01*
X65375000Y-181530000D02*
X66405000Y-180500000D01*
X150430000Y-143330000D02*
X153575000Y-143330000D01*
X317020000Y-105330000D02*
X320175000Y-105330000D01*
X249425000Y-125830000D02*
X248355000Y-126900000D01*
X105548415Y-165200000D02*
X110155000Y-165200000D01*
X341420000Y-143270000D02*
X343360000Y-145210000D01*
X191252006Y-84102994D02*
X177602994Y-84102994D01*
X111325000Y-83030000D02*
X110204501Y-84150499D01*
X207400000Y-143300000D02*
X207430000Y-143330000D01*
X264700000Y-143400000D02*
X264730000Y-143430000D01*
X338855000Y-169800000D02*
X339925000Y-168730000D01*
X243655000Y-165000000D02*
X230000000Y-165000000D01*
X62220000Y-181530000D02*
X65375000Y-181530000D01*
X345900000Y-156320447D02*
X344379553Y-154800000D01*
X115600000Y-165000000D02*
X129255000Y-165000000D01*
X187317763Y-142217763D02*
X188400000Y-143300000D01*
X90205000Y-180500000D02*
X108950000Y-180500000D01*
X152570000Y-82930000D02*
X149425000Y-82930000D01*
X269300000Y-105325000D02*
X269315000Y-105310000D01*
X359517418Y-123087582D02*
X358275000Y-124330000D01*
X228870000Y-163930000D02*
X228900000Y-163900000D01*
X367000000Y-124300000D02*
X368900000Y-122400000D01*
X116498200Y-142306800D02*
X130206800Y-142306800D01*
X356600000Y-124700000D02*
X356970000Y-124330000D01*
X318100000Y-169800000D02*
X338855000Y-169800000D01*
X121298200Y-104206800D02*
X134956800Y-104206800D01*
X177375000Y-105330000D02*
X178487237Y-104217763D01*
X357500000Y-127500000D02*
X356600000Y-126600000D01*
X312220000Y-186230000D02*
X315375000Y-186230000D01*
X268525000Y-125830000D02*
X271870000Y-125830000D01*
X272212763Y-84042237D02*
X258642237Y-84042237D01*
X136100000Y-105350000D02*
X136120000Y-105330000D01*
X245730000Y-143430000D02*
X248775000Y-143430000D01*
X266970000Y-163930000D02*
X267000000Y-163900000D01*
X356580000Y-145520000D02*
X356580000Y-144230000D01*
X312200000Y-186250000D02*
X312220000Y-186230000D01*
X327000000Y-146000000D02*
X327000000Y-144500000D01*
X66700000Y-164000000D02*
X64471380Y-164000000D01*
X95470000Y-83030000D02*
X95500000Y-83000000D01*
X210212763Y-126942237D02*
X196742237Y-126942237D01*
X345900000Y-148923452D02*
X345163274Y-148186726D01*
X215602994Y-84102994D02*
X214500000Y-83000000D01*
X211325000Y-125830000D02*
X214570000Y-125830000D01*
X68200000Y-99800000D02*
X68200000Y-102173901D01*
X335800000Y-154800000D02*
X327000000Y-146000000D01*
X206525000Y-163930000D02*
X205455000Y-165000000D01*
X356150000Y-107900000D02*
X355100000Y-106850000D01*
X154705000Y-142200000D02*
X168375000Y-142200000D01*
X365900000Y-161300000D02*
X359405000Y-161300000D01*
X153856800Y-104206800D02*
X155000000Y-105350000D01*
X110204501Y-84150499D02*
X96650499Y-84150499D01*
X350320000Y-186230000D02*
X353475000Y-186230000D01*
X173225000Y-83030000D02*
X176470000Y-83030000D01*
X173687237Y-142217763D02*
X187317763Y-142217763D01*
X73225000Y-125830000D02*
X71955000Y-127100000D01*
X253800000Y-126900000D02*
X252700000Y-125800000D01*
X365958173Y-149050000D02*
X360110000Y-149050000D01*
X367000000Y-143350000D02*
X367550000Y-143350000D01*
X138370000Y-125830000D02*
X138400000Y-125800000D01*
X359405000Y-161300000D02*
X358275000Y-162430000D01*
X363725000Y-106830000D02*
X362655000Y-107900000D01*
X290870000Y-125830000D02*
X290900000Y-125800000D01*
X361106800Y-185106800D02*
X362200000Y-186200000D01*
X315802840Y-104152840D02*
X292752160Y-104152840D01*
X231220000Y-105330000D02*
X234475000Y-105330000D01*
X234602994Y-84102994D02*
X233500000Y-83000000D01*
X295500000Y-83100000D02*
X296502994Y-84102994D01*
X214500000Y-83000000D02*
X214470000Y-83030000D01*
X83670000Y-164030000D02*
X83700000Y-164000000D01*
X329355000Y-126900000D02*
X311000000Y-126900000D01*
X192067763Y-104217763D02*
X193200000Y-105350000D01*
X80425000Y-164030000D02*
X83670000Y-164030000D01*
X206525000Y-163930000D02*
X209770000Y-163930000D01*
X136120000Y-105330000D02*
X139175000Y-105330000D01*
X134800000Y-165000000D02*
X148305000Y-165000000D01*
X354598200Y-185106800D02*
X361106800Y-185106800D01*
X68425000Y-83030000D02*
X71470000Y-83030000D01*
X129412763Y-84042237D02*
X115642237Y-84042237D01*
X353475000Y-186230000D02*
X354598200Y-185106800D01*
X110020000Y-181530000D02*
X113075000Y-181530000D01*
X346910000Y-127280000D02*
X350200000Y-130570000D01*
X249067763Y-104217763D02*
X250200000Y-105350000D01*
X215375000Y-105330000D02*
X216405000Y-104300000D01*
X171770000Y-163930000D02*
X171800000Y-163900000D01*
X59930000Y-105330000D02*
X63075000Y-105330000D01*
X97498200Y-142306800D02*
X111106800Y-142306800D01*
X291575000Y-181530000D02*
X292698200Y-180406800D01*
X207430000Y-143330000D02*
X210675000Y-143330000D01*
X169505000Y-143330000D02*
X172575000Y-143330000D01*
X314500000Y-83100000D02*
X315500000Y-84100000D01*
X211743947Y-142261053D02*
X225361053Y-142261053D01*
X140298200Y-104206800D02*
X153856800Y-104206800D01*
X191575000Y-143330000D02*
X192605000Y-142300000D01*
X287987237Y-142317763D02*
X313617763Y-142317763D01*
X229252006Y-84102994D02*
X215602994Y-84102994D01*
X314700000Y-143400000D02*
X314730000Y-143430000D01*
X216405000Y-104300000D02*
X230150000Y-104300000D01*
X188400000Y-143300000D02*
X188430000Y-143330000D01*
X211325000Y-83030000D02*
X210252006Y-84102994D01*
X66365000Y-97965000D02*
X68200000Y-99800000D01*
X229212763Y-126942237D02*
X215742237Y-126942237D01*
X152670000Y-163870000D02*
X152700000Y-163900000D01*
X97025000Y-125830000D02*
X100270000Y-125830000D01*
X273325000Y-82930000D02*
X272212763Y-84042237D01*
X273617314Y-104217686D02*
X287267686Y-104217686D01*
X135598200Y-142306800D02*
X149406800Y-142306800D01*
X224555000Y-165000000D02*
X210900000Y-165000000D01*
X192605000Y-142300000D02*
X206400000Y-142300000D01*
X303241585Y-186250000D02*
X312200000Y-186250000D01*
X368800000Y-151891827D02*
X365958173Y-149050000D01*
X120175000Y-105330000D02*
X121298200Y-104206800D01*
X214570000Y-125830000D02*
X214600000Y-125800000D01*
X225625000Y-163930000D02*
X228870000Y-163930000D01*
X66973901Y-103400000D02*
X61800000Y-103400000D01*
X338300000Y-136000000D02*
X338200000Y-136000000D01*
X273505000Y-180500000D02*
X287450000Y-180500000D01*
X327900000Y-106108415D02*
X325998385Y-104206800D01*
X312200000Y-163900000D02*
X318100000Y-169800000D01*
X155020000Y-105330000D02*
X158275000Y-105330000D01*
X153032686Y-126922314D02*
X139522314Y-126922314D01*
X191256054Y-126898946D02*
X192325000Y-125830000D01*
X64105000Y-104300000D02*
X78000000Y-104300000D01*
X271870000Y-125830000D02*
X271900000Y-125800000D01*
X344092202Y-133572264D02*
X344092202Y-133392202D01*
X226530000Y-143430000D02*
X229675000Y-143430000D01*
X341420000Y-141901320D02*
X341420000Y-143270000D01*
X262655000Y-165000000D02*
X263725000Y-163930000D01*
X230705000Y-142400000D02*
X244700000Y-142400000D01*
X345506415Y-140413522D02*
X345513522Y-140413522D01*
X338360464Y-136060464D02*
X338300000Y-136000000D01*
X68300000Y-127100000D02*
X63940000Y-131460000D01*
X192325000Y-83030000D02*
X191252006Y-84102994D01*
X282735000Y-163970000D02*
X281642686Y-165062314D01*
X342200691Y-141120629D02*
X342179371Y-141120629D01*
X364000000Y-127500000D02*
X357500000Y-127500000D01*
X177602994Y-84102994D02*
X176500000Y-83000000D01*
X112200000Y-143400000D02*
X112230000Y-143430000D01*
X134942237Y-84042237D02*
X133800000Y-82900000D01*
X195570000Y-125830000D02*
X195600000Y-125800000D01*
X248000000Y-163900000D02*
X249100000Y-165000000D01*
X268162314Y-165062314D02*
X267000000Y-163900000D01*
X111325000Y-164030000D02*
X114570000Y-164030000D01*
X343200000Y-168700000D02*
X343538507Y-168700000D01*
X108950000Y-180500000D02*
X110000000Y-181550000D01*
X233570000Y-125830000D02*
X233600000Y-125800000D01*
X212100000Y-105350000D02*
X212120000Y-105330000D01*
X153802994Y-84102994D02*
X152600000Y-82900000D01*
X176470000Y-83030000D02*
X176500000Y-83000000D01*
X367000000Y-162400000D02*
X365900000Y-161300000D01*
X348210000Y-125980000D02*
X348500000Y-125980000D01*
X356600000Y-126600000D02*
X356600000Y-124700000D01*
X334475000Y-186230000D02*
X335587237Y-185117763D01*
X59140000Y-169331380D02*
X59140000Y-178490000D01*
X367000000Y-124300000D02*
X365787582Y-123087582D01*
X288500000Y-181550000D02*
X288520000Y-181530000D01*
X91112763Y-84142237D02*
X73042237Y-84142237D01*
X345900000Y-156320447D02*
X345900000Y-148923452D01*
X177598946Y-126898946D02*
X191256054Y-126898946D01*
X357380000Y-143430000D02*
X358275000Y-143430000D01*
X272525000Y-105310000D02*
X273617314Y-104217686D01*
X131330000Y-143430000D02*
X134475000Y-143430000D01*
X339032037Y-136060464D02*
X338360464Y-136060464D01*
X368900000Y-108000000D02*
X367730000Y-106830000D01*
X324752840Y-142252840D02*
X319052160Y-142252840D01*
X253475000Y-181530000D02*
X254605000Y-180400000D01*
X172152006Y-84102994D02*
X153802994Y-84102994D01*
X209770000Y-163930000D02*
X209800000Y-163900000D01*
X153822314Y-165022314D02*
X152700000Y-163900000D01*
X264730000Y-143430000D02*
X267875000Y-143430000D01*
X148312763Y-84042237D02*
X134942237Y-84042237D01*
X184475000Y-181530000D02*
X181420000Y-181530000D01*
X172900000Y-165000000D02*
X186455000Y-165000000D01*
X268250000Y-180400000D02*
X269400000Y-181550000D01*
X272475000Y-181530000D02*
X273505000Y-180500000D01*
X86205000Y-181530000D02*
X89175000Y-181530000D01*
X82075000Y-105330000D02*
X83198200Y-104206800D01*
X291255000Y-84100000D02*
X277750000Y-84100000D01*
X348800000Y-138800000D02*
X348540228Y-139059772D01*
X350200000Y-134731372D02*
X350200000Y-133600000D01*
X130206800Y-142306800D02*
X131300000Y-143400000D01*
X173225000Y-125830000D02*
X172155000Y-126900000D01*
X230150000Y-104300000D02*
X231200000Y-105350000D01*
X214470000Y-83030000D02*
X211325000Y-83030000D01*
X193220000Y-105330000D02*
X196375000Y-105330000D01*
X152600000Y-82900000D02*
X152570000Y-82930000D01*
X327000000Y-144500000D02*
X324752840Y-142252840D01*
X154125000Y-125830000D02*
X153032686Y-126922314D01*
X315375000Y-186230000D02*
X316498200Y-185106800D01*
X321298200Y-104206800D02*
X320175000Y-105330000D01*
X319052160Y-142252840D02*
X317875000Y-143430000D01*
X96650499Y-84150499D02*
X95500000Y-83000000D01*
X283730000Y-143430000D02*
X286875000Y-143430000D01*
X287267686Y-104217686D02*
X288400000Y-105350000D01*
X277750000Y-84100000D02*
X276500000Y-82850000D01*
X347627736Y-137107798D02*
X348423235Y-136312299D01*
X79000000Y-105300000D02*
X79030000Y-105330000D01*
X176470000Y-125830000D02*
X176500000Y-125800000D01*
X348423235Y-136312299D02*
X348512299Y-136312299D01*
X68100000Y-165400000D02*
X66700000Y-164000000D01*
X317000000Y-105350000D02*
X317020000Y-105330000D01*
X114570000Y-83030000D02*
X111325000Y-83030000D01*
X114600000Y-83000000D02*
X114570000Y-83030000D01*
X192325000Y-125830000D02*
X195570000Y-125830000D01*
X114105000Y-180500000D02*
X180350000Y-180500000D01*
X133800000Y-82900000D02*
X133770000Y-82930000D01*
X343538507Y-168700000D02*
X345900000Y-166338507D01*
X344600000Y-131400000D02*
X343600000Y-130400000D01*
X269315000Y-105310000D02*
X272525000Y-105310000D01*
X349167763Y-185117763D02*
X350300000Y-186250000D01*
X195470000Y-83030000D02*
X192325000Y-83030000D01*
X250200000Y-105350000D02*
X250220000Y-105330000D01*
X181420000Y-181530000D02*
X181400000Y-181550000D01*
X346910000Y-127280000D02*
X346910000Y-93060000D01*
X297398385Y-180406800D02*
X303241585Y-186250000D01*
X110155000Y-165200000D02*
X111325000Y-164030000D01*
X250400000Y-181550000D02*
X250420000Y-181530000D01*
X95955000Y-126900000D02*
X77700000Y-126900000D01*
X196375000Y-105330000D02*
X197487237Y-104217763D01*
X210900000Y-165000000D02*
X209800000Y-163900000D01*
X350300000Y-186250000D02*
X350320000Y-186230000D01*
X347274182Y-138645755D02*
X347688199Y-139059772D01*
X79030000Y-105330000D02*
X82075000Y-105330000D01*
X92225000Y-83030000D02*
X91112763Y-84142237D01*
X67000000Y-143400000D02*
X67030000Y-143430000D01*
X244725000Y-163930000D02*
X243655000Y-165000000D01*
X64471380Y-164000000D02*
X59140000Y-169331380D01*
X97970000Y-105330000D02*
X101075000Y-105330000D01*
X285970000Y-163970000D02*
X286000000Y-164000000D01*
X225361053Y-142261053D02*
X226500000Y-143400000D01*
X288520000Y-181530000D02*
X291575000Y-181530000D01*
X268895222Y-142409778D02*
X282709778Y-142409778D01*
X226500000Y-143400000D02*
X226530000Y-143430000D01*
X269400000Y-181550000D02*
X269420000Y-181530000D01*
X309870000Y-125830000D02*
X309900000Y-125800000D01*
X287625000Y-125830000D02*
X286555000Y-126900000D01*
X350500000Y-89470000D02*
X350500000Y-84300000D01*
X367550000Y-143350000D02*
X368850499Y-142049501D01*
X76570000Y-125830000D02*
X76600000Y-125800000D01*
X83700000Y-164000000D02*
X104348415Y-164000000D01*
X336500000Y-124900000D02*
X336500000Y-113500000D01*
X367730000Y-106830000D02*
X363725000Y-106830000D01*
X254225000Y-83030000D02*
X253152006Y-84102994D01*
X247970000Y-163930000D02*
X248000000Y-163900000D01*
X195500000Y-83000000D02*
X195470000Y-83030000D01*
X129255000Y-165000000D02*
X130325000Y-163930000D01*
X134475000Y-143430000D02*
X135598200Y-142306800D01*
X110000000Y-181550000D02*
X110020000Y-181530000D01*
X167432686Y-165022314D02*
X153822314Y-165022314D01*
X365950000Y-142300000D02*
X359405000Y-142300000D01*
X356580000Y-144230000D02*
X357380000Y-143430000D01*
X120542237Y-126942237D02*
X119400000Y-125800000D01*
X234700000Y-126900000D02*
X233600000Y-125800000D01*
X287450000Y-180500000D02*
X288500000Y-181550000D01*
X257370000Y-83030000D02*
X254225000Y-83030000D01*
X115375000Y-143430000D02*
X116498200Y-142306800D01*
X273000000Y-126900000D02*
X271900000Y-125800000D01*
X296502994Y-84102994D02*
X310252006Y-84102994D01*
X334055000Y-84100000D02*
X335125000Y-83030000D01*
X288420000Y-105330000D02*
X291575000Y-105330000D01*
X101442237Y-126942237D02*
X100300000Y-125800000D01*
X193200000Y-105350000D02*
X193220000Y-105330000D01*
X168525000Y-163930000D02*
X167432686Y-165022314D01*
X281642686Y-165062314D02*
X268162314Y-165062314D01*
X149435000Y-163870000D02*
X152670000Y-163870000D01*
X245700000Y-143400000D02*
X245730000Y-143430000D01*
X190800000Y-163900000D02*
X190770000Y-163930000D01*
X368850499Y-142049501D02*
X368850499Y-132350499D01*
X71470000Y-83030000D02*
X71700000Y-82800000D01*
X93100000Y-143400000D02*
X93130000Y-143430000D01*
X344460000Y-145210000D02*
X345180000Y-145930000D01*
X347112299Y-142019406D02*
X347112299Y-142987701D01*
X234475000Y-105330000D02*
X235587237Y-104217763D01*
X286555000Y-126900000D02*
X273000000Y-126900000D01*
X253475000Y-105330000D02*
X254543947Y-104261053D01*
X254605000Y-180400000D02*
X268250000Y-180400000D01*
X368900000Y-122400000D02*
X368900000Y-108000000D01*
X367000000Y-143350000D02*
X365950000Y-142300000D01*
X131300000Y-143400000D02*
X131330000Y-143430000D01*
X343170000Y-168730000D02*
X343200000Y-168700000D01*
X335587237Y-185117763D02*
X349167763Y-185117763D01*
X133770000Y-82930000D02*
X130525000Y-82930000D01*
X68425000Y-83030000D02*
X66365000Y-85090000D01*
X269420000Y-181530000D02*
X272475000Y-181530000D01*
X206400000Y-142300000D02*
X207400000Y-143300000D01*
X71955000Y-127100000D02*
X68300000Y-127100000D01*
X368800000Y-160600000D02*
X368800000Y-151891827D01*
X104348415Y-164000000D02*
X105548415Y-165200000D01*
X79055000Y-165400000D02*
X68100000Y-165400000D01*
X333780000Y-125830000D02*
X333800000Y-125850000D01*
X348512299Y-136312299D02*
X348619073Y-136312299D01*
X139175000Y-105330000D02*
X140298200Y-104206800D01*
X155000000Y-105350000D02*
X155020000Y-105330000D01*
X345506415Y-140413522D02*
X347112299Y-142019406D01*
X63075000Y-105330000D02*
X64105000Y-104300000D01*
X367000000Y-162400000D02*
X368800000Y-160600000D01*
X114600000Y-164000000D02*
X115600000Y-165000000D01*
X235587237Y-104217763D02*
X249067763Y-104217763D01*
X292698200Y-180406800D02*
X297398385Y-180406800D01*
X133700000Y-163900000D02*
X134800000Y-165000000D01*
X311000000Y-126900000D02*
X309900000Y-125800000D01*
X101075000Y-105330000D02*
X102224751Y-104180249D01*
X117000000Y-105350000D02*
X117020000Y-105330000D01*
X114912763Y-126942237D02*
X101442237Y-126942237D01*
X148305000Y-165000000D02*
X149435000Y-163870000D01*
X263700000Y-142400000D02*
X264700000Y-143400000D01*
X327900000Y-108800000D02*
X327900000Y-106108415D01*
X315500000Y-84100000D02*
X334055000Y-84100000D01*
X233470000Y-83030000D02*
X230325000Y-83030000D01*
X282735000Y-163970000D02*
X285970000Y-163970000D01*
X248775000Y-143430000D02*
X249805000Y-142400000D01*
X196742237Y-126942237D02*
X195600000Y-125800000D01*
X268236053Y-104261053D02*
X269300000Y-105325000D01*
X113075000Y-181530000D02*
X114105000Y-180500000D01*
X244700000Y-142400000D02*
X245700000Y-143400000D01*
X174100000Y-105350000D02*
X174120000Y-105330000D01*
X348540228Y-139059772D02*
X347688199Y-139059772D01*
X250420000Y-181530000D02*
X253475000Y-181530000D01*
X356970000Y-124330000D02*
X358275000Y-124330000D01*
X66365000Y-85090000D02*
X66365000Y-97965000D01*
X115642237Y-84042237D02*
X114600000Y-83000000D01*
X339925000Y-168730000D02*
X343170000Y-168730000D01*
X310252006Y-84102994D02*
X311325000Y-83030000D01*
X339725818Y-136754245D02*
X339032037Y-136060464D01*
X231200000Y-105350000D02*
X231220000Y-105330000D01*
X130525000Y-82930000D02*
X129412763Y-84042237D01*
X258642237Y-84042237D02*
X257500000Y-82900000D01*
X330425000Y-125830000D02*
X329355000Y-126900000D01*
X97025000Y-125830000D02*
X95955000Y-126900000D01*
X135125000Y-125830000D02*
X138370000Y-125830000D01*
X225625000Y-163930000D02*
X224555000Y-165000000D01*
%TO.N,ROW0*%
X176718599Y-79568901D02*
X177500000Y-78787500D01*
X348100000Y-134500000D02*
X348100000Y-129900000D01*
X114818599Y-79568901D02*
X115600000Y-78787500D01*
X216368901Y-79568901D02*
X233906099Y-79568901D01*
X178281401Y-79568901D02*
X195818599Y-79568901D01*
X295818599Y-79568901D02*
X296600000Y-78787500D01*
X72700000Y-80200000D02*
X73000000Y-80500000D01*
X344600000Y-126400000D02*
X344600000Y-92700000D01*
X197381401Y-79568901D02*
X214831099Y-79568901D01*
X348100000Y-129900000D02*
X344600000Y-126400000D01*
X296600000Y-78787500D02*
X297381401Y-79568901D01*
X115600000Y-78787500D02*
X116381401Y-79568901D01*
X233906099Y-79568901D02*
X234700000Y-78775000D01*
X257718599Y-79568901D02*
X258500000Y-78787500D01*
X154568901Y-79568901D02*
X176718599Y-79568901D01*
X73281401Y-79568901D02*
X95618599Y-79568901D01*
X338000000Y-86100000D02*
X74300000Y-86100000D01*
X74300000Y-86100000D02*
X73100000Y-84900000D01*
X258500000Y-78787500D02*
X259181401Y-79468901D01*
X196600000Y-78787500D02*
X197381401Y-79568901D01*
X297381401Y-79568901D02*
X314818599Y-79568901D01*
X344600000Y-92700000D02*
X338000000Y-86100000D01*
X116381401Y-79568901D02*
X133806099Y-79568901D01*
X235493901Y-79568901D02*
X257718599Y-79568901D01*
X97381401Y-79568901D02*
X114818599Y-79568901D01*
X234700000Y-78775000D02*
X235493901Y-79568901D01*
X152931099Y-79468901D02*
X153700000Y-78700000D01*
X214831099Y-79568901D02*
X215600000Y-78800000D01*
X346567076Y-136047138D02*
X347299002Y-135315212D01*
X96500000Y-78687500D02*
X97381401Y-79568901D01*
X135293901Y-79468901D02*
X152931099Y-79468901D01*
X177500000Y-78787500D02*
X178281401Y-79568901D01*
X315600000Y-78787500D02*
X316381401Y-79568901D01*
X338606099Y-79568901D02*
X339400000Y-78775000D01*
X133806099Y-79568901D02*
X134600000Y-78775000D01*
X153700000Y-78700000D02*
X154568901Y-79568901D01*
X276718599Y-79468901D02*
X277500000Y-78687500D01*
X314818599Y-79568901D02*
X315600000Y-78787500D01*
X259181401Y-79468901D02*
X276718599Y-79468901D01*
X134600000Y-78775000D02*
X135293901Y-79468901D01*
X72700000Y-78987500D02*
X73281401Y-79568901D01*
X277500000Y-78687500D02*
X278381401Y-79568901D01*
X278381401Y-79568901D02*
X295818599Y-79568901D01*
X215600000Y-78800000D02*
X216368901Y-79568901D01*
X72700000Y-78987500D02*
X72700000Y-80200000D01*
X347299002Y-135315212D02*
X347299002Y-135300998D01*
X95618599Y-79568901D02*
X96500000Y-78687500D01*
X316381401Y-79568901D02*
X338606099Y-79568901D01*
X347299002Y-135300998D02*
X348100000Y-134500000D01*
X195818599Y-79568901D02*
X196600000Y-78787500D01*
%TO.N,Net-(D1-Pad2)*%
X72700000Y-73030000D02*
X71790000Y-72120000D01*
X72700000Y-77412500D02*
X72700000Y-73030000D01*
%TO.N,Net-(D2-Pad2)*%
X96500000Y-73030000D02*
X95590000Y-72120000D01*
X96500000Y-77112500D02*
X96500000Y-73030000D01*
%TO.N,Net-(D3-Pad2)*%
X115600000Y-73030000D02*
X114690000Y-72120000D01*
X115600000Y-77212500D02*
X115600000Y-73030000D01*
%TO.N,Net-(D4-Pad2)*%
X134600000Y-72930000D02*
X133790000Y-72120000D01*
X134600000Y-77200000D02*
X134600000Y-72930000D01*
%TO.N,Net-(D5-Pad2)*%
X153700000Y-72930000D02*
X152790000Y-72020000D01*
X153700000Y-77125000D02*
X153700000Y-72930000D01*
%TO.N,Net-(D6-Pad2)*%
X177500000Y-77212500D02*
X177500000Y-73030000D01*
X177500000Y-73030000D02*
X176590000Y-72120000D01*
%TO.N,Net-(D7-Pad2)*%
X196600000Y-77212500D02*
X196600000Y-73030000D01*
X196600000Y-73030000D02*
X195690000Y-72120000D01*
%TO.N,Net-(D8-Pad2)*%
X215600000Y-77225000D02*
X215600000Y-73030000D01*
X215600000Y-73030000D02*
X214690000Y-72120000D01*
%TO.N,Net-(D9-Pad2)*%
X234700000Y-77200000D02*
X234700000Y-73130000D01*
X234700000Y-73130000D02*
X233690000Y-72120000D01*
%TO.N,Net-(D10-Pad2)*%
X258500000Y-73030000D02*
X257590000Y-72120000D01*
X258500000Y-77212500D02*
X258500000Y-73030000D01*
%TO.N,Net-(D11-Pad2)*%
X277500000Y-72830000D02*
X276690000Y-72020000D01*
X277500000Y-77112500D02*
X277500000Y-72830000D01*
%TO.N,Net-(D12-Pad2)*%
X296600000Y-73030000D02*
X295690000Y-72120000D01*
X296600000Y-77212500D02*
X296600000Y-73030000D01*
%TO.N,Net-(D13-Pad2)*%
X315600000Y-77212500D02*
X315600000Y-73030000D01*
X315600000Y-73030000D02*
X314690000Y-72120000D01*
%TO.N,Net-(D14-Pad2)*%
X339400000Y-73030000D02*
X338490000Y-72120000D01*
X339400000Y-77200000D02*
X339400000Y-73030000D01*
%TO.N,ROW1*%
X187781401Y-103368901D02*
X205306099Y-103368901D01*
X91018599Y-103368901D02*
X91800000Y-102587500D01*
X347100000Y-130335690D02*
X343700000Y-126935690D01*
X244993901Y-103368901D02*
X262418599Y-103368901D01*
X283093901Y-103368901D02*
X300506099Y-103368901D01*
X367218599Y-103368901D02*
X356168901Y-103368901D01*
X356168901Y-103368901D02*
X356000000Y-103200000D01*
X92581401Y-103368901D02*
X110006099Y-103368901D01*
X224318599Y-103368901D02*
X225100000Y-102587500D01*
X281526099Y-103348901D02*
X282300000Y-102575000D01*
X262418599Y-103368901D02*
X263200000Y-102587500D01*
X206100000Y-102575000D02*
X206893901Y-103368901D01*
X347100000Y-134100000D02*
X347100000Y-130335690D01*
X110006099Y-103368901D02*
X110800000Y-102575000D01*
X331287500Y-102687500D02*
X331300000Y-102700000D01*
X206893901Y-103368901D02*
X224318599Y-103368901D01*
X300506099Y-103368901D02*
X301300000Y-102575000D01*
X91800000Y-102587500D02*
X92581401Y-103368901D01*
X73500000Y-99561827D02*
X73500000Y-101775000D01*
X337649501Y-87049501D02*
X86012326Y-87049501D01*
X72700000Y-102575000D02*
X73493901Y-103368901D01*
X302093901Y-103368901D02*
X301300000Y-102575000D01*
X73500000Y-101775000D02*
X72700000Y-102575000D01*
X73493901Y-103368901D02*
X91018599Y-103368901D01*
X149693901Y-103368901D02*
X167206099Y-103368901D01*
X368000000Y-102587500D02*
X367218599Y-103368901D01*
X130693901Y-103368901D02*
X148106099Y-103368901D01*
X329900000Y-102687500D02*
X331287500Y-102687500D01*
X205306099Y-103368901D02*
X206100000Y-102575000D01*
X148900000Y-102575000D02*
X149693901Y-103368901D01*
X282300000Y-102575000D02*
X283093901Y-103368901D01*
X86012326Y-87049501D02*
X73500000Y-99561827D01*
X343700000Y-93100000D02*
X337649501Y-87049501D01*
X263200000Y-102587500D02*
X263961401Y-103348901D01*
X343700000Y-126935690D02*
X343700000Y-93100000D01*
X110800000Y-102575000D02*
X111593901Y-103368901D01*
X111593901Y-103368901D02*
X129106099Y-103368901D01*
X187000000Y-102587500D02*
X187781401Y-103368901D01*
X167206099Y-103368901D02*
X168000000Y-102575000D01*
X129106099Y-103368901D02*
X129900000Y-102575000D01*
X329218599Y-103368901D02*
X302093901Y-103368901D01*
X168000000Y-102575000D02*
X168793901Y-103368901D01*
X225100000Y-102587500D02*
X225881401Y-103368901D01*
X263961401Y-103348901D02*
X281526099Y-103348901D01*
X345859969Y-135340031D02*
X347100000Y-134100000D01*
X244200000Y-102575000D02*
X244993901Y-103368901D01*
X148106099Y-103368901D02*
X148900000Y-102575000D01*
X168793901Y-103368901D02*
X186218599Y-103368901D01*
X186218599Y-103368901D02*
X187000000Y-102587500D01*
X243406099Y-103368901D02*
X244200000Y-102575000D01*
X329900000Y-102687500D02*
X329218599Y-103368901D01*
X225881401Y-103368901D02*
X243406099Y-103368901D01*
X129900000Y-102575000D02*
X130693901Y-103368901D01*
%TO.N,Net-(D15-Pad2)*%
X72700000Y-101000000D02*
X72700000Y-96730000D01*
X72700000Y-96730000D02*
X71890000Y-95920000D01*
%TO.N,Net-(D16-Pad2)*%
X91800000Y-96830000D02*
X90890000Y-95920000D01*
X91800000Y-101012500D02*
X91800000Y-96830000D01*
%TO.N,Net-(D17-Pad2)*%
X110800000Y-96830000D02*
X109890000Y-95920000D01*
X110800000Y-101000000D02*
X110800000Y-96830000D01*
%TO.N,Net-(D18-Pad2)*%
X129900000Y-96830000D02*
X128990000Y-95920000D01*
X129900000Y-101000000D02*
X129900000Y-96830000D01*
%TO.N,Net-(D19-Pad2)*%
X148900000Y-101000000D02*
X148900000Y-96830000D01*
X148900000Y-96830000D02*
X147990000Y-95920000D01*
%TO.N,Net-(D20-Pad2)*%
X168000000Y-96830000D02*
X167090000Y-95920000D01*
X168000000Y-101000000D02*
X168000000Y-96830000D01*
%TO.N,Net-(D21-Pad2)*%
X187000000Y-101012500D02*
X187000000Y-96730000D01*
X187000000Y-96730000D02*
X186190000Y-95920000D01*
%TO.N,Net-(D22-Pad2)*%
X206100000Y-101000000D02*
X206100000Y-96830000D01*
X206100000Y-96830000D02*
X205190000Y-95920000D01*
%TO.N,Net-(D23-Pad2)*%
X225100000Y-101012500D02*
X225100000Y-96830000D01*
X225100000Y-96830000D02*
X224190000Y-95920000D01*
%TO.N,Net-(D24-Pad2)*%
X244200000Y-101000000D02*
X244200000Y-96830000D01*
X244200000Y-96830000D02*
X243290000Y-95920000D01*
%TO.N,Net-(D25-Pad2)*%
X263200000Y-96830000D02*
X262290000Y-95920000D01*
X263200000Y-101012500D02*
X263200000Y-96830000D01*
%TO.N,Net-(D26-Pad2)*%
X282300000Y-96860000D02*
X281340000Y-95900000D01*
X282300000Y-101000000D02*
X282300000Y-96860000D01*
%TO.N,Net-(D27-Pad2)*%
X301300000Y-96830000D02*
X300390000Y-95920000D01*
X301300000Y-101000000D02*
X301300000Y-96830000D01*
%TO.N,Net-(D28-Pad2)*%
X329900000Y-96830000D02*
X328990000Y-95920000D01*
X329900000Y-101112500D02*
X329900000Y-96830000D01*
%TO.N,Net-(D29-Pad2)*%
X368000000Y-96830000D02*
X367090000Y-95920000D01*
X368000000Y-101012500D02*
X368000000Y-96830000D01*
%TO.N,ROW2*%
X272800000Y-121575000D02*
X273593901Y-122368901D01*
X215600000Y-121575000D02*
X216393901Y-122368901D01*
X334400000Y-135664310D02*
X334400000Y-133535882D01*
X139400000Y-121575000D02*
X140193901Y-122368901D01*
X177500000Y-121587500D02*
X178281401Y-122368901D01*
X254481401Y-122368901D02*
X272006099Y-122368901D01*
X158400000Y-121575000D02*
X159193901Y-122368901D01*
X334400000Y-133535882D02*
X335200000Y-132735882D01*
X138606099Y-122368901D02*
X139400000Y-121575000D01*
X197381401Y-122368901D02*
X214806099Y-122368901D01*
X291006099Y-122368901D02*
X291800000Y-121575000D01*
X253700000Y-121587500D02*
X254481401Y-122368901D01*
X310106099Y-122368901D02*
X310900000Y-121575000D01*
X119606099Y-122368901D02*
X120400000Y-121575000D01*
X102081401Y-122368901D02*
X119606099Y-122368901D01*
X291800000Y-121575000D02*
X292593901Y-122368901D01*
X78281401Y-122368901D02*
X100518599Y-122368901D01*
X310900000Y-121575000D02*
X311693901Y-122368901D01*
X366975000Y-122600000D02*
X356400000Y-122600000D01*
X292593901Y-122368901D02*
X310106099Y-122368901D01*
X216393901Y-122368901D02*
X233906099Y-122368901D01*
X140193901Y-122368901D02*
X157606099Y-122368901D01*
X334700000Y-121575000D02*
X333775000Y-121575000D01*
X338244963Y-139509273D02*
X334400000Y-135664310D01*
X101300000Y-121587500D02*
X102081401Y-122368901D01*
X159193901Y-122368901D02*
X176718599Y-122368901D01*
X157606099Y-122368901D02*
X158400000Y-121575000D01*
X339569407Y-139509273D02*
X338244963Y-139509273D01*
X333906099Y-122368901D02*
X334700000Y-121575000D01*
X100518599Y-122368901D02*
X101300000Y-121587500D01*
X368000000Y-121575000D02*
X367175000Y-122400000D01*
X196600000Y-121587500D02*
X197381401Y-122368901D01*
X272006099Y-122368901D02*
X272800000Y-121575000D01*
X214806099Y-122368901D02*
X215600000Y-121575000D01*
X176718599Y-122368901D02*
X177500000Y-121587500D01*
X77500000Y-121587500D02*
X78281401Y-122368901D01*
X234700000Y-121575000D02*
X235493901Y-122368901D01*
X178281401Y-122368901D02*
X195818599Y-122368901D01*
X367175000Y-122400000D02*
X366975000Y-122600000D01*
X335200000Y-127400000D02*
X334600000Y-126800000D01*
X233906099Y-122368901D02*
X234700000Y-121575000D01*
X311693901Y-122368901D02*
X333906099Y-122368901D01*
X335200000Y-132735882D02*
X335200000Y-127400000D01*
X235493901Y-122368901D02*
X252918599Y-122368901D01*
X252918599Y-122368901D02*
X253700000Y-121587500D01*
X340079371Y-138999309D02*
X339569407Y-139509273D01*
X195818599Y-122368901D02*
X196600000Y-121587500D01*
X333775000Y-121575000D02*
X333700000Y-121500000D01*
X121193901Y-122368901D02*
X138606099Y-122368901D01*
X273593901Y-122368901D02*
X291006099Y-122368901D01*
X120400000Y-121575000D02*
X121193901Y-122368901D01*
%TO.N,Net-(D30-Pad2)*%
X77500000Y-120012500D02*
X77500000Y-115830000D01*
X77500000Y-115830000D02*
X76590000Y-114920000D01*
%TO.N,Net-(D31-Pad2)*%
X101300000Y-115830000D02*
X100390000Y-114920000D01*
X101300000Y-120012500D02*
X101300000Y-115830000D01*
%TO.N,Net-(D32-Pad2)*%
X120400000Y-115930000D02*
X119390000Y-114920000D01*
X120400000Y-120000000D02*
X120400000Y-115930000D01*
%TO.N,Net-(D33-Pad2)*%
X139400000Y-115830000D02*
X138490000Y-114920000D01*
X139400000Y-120000000D02*
X139400000Y-115830000D01*
%TO.N,Net-(D34-Pad2)*%
X158400000Y-120000000D02*
X158400000Y-115830000D01*
X158400000Y-115830000D02*
X157490000Y-114920000D01*
%TO.N,Net-(D35-Pad2)*%
X177500000Y-120012500D02*
X177500000Y-115830000D01*
X177500000Y-115830000D02*
X176590000Y-114920000D01*
%TO.N,Net-(D36-Pad2)*%
X196600000Y-115830000D02*
X195690000Y-114920000D01*
X196600000Y-120012500D02*
X196600000Y-115830000D01*
%TO.N,Net-(D37-Pad2)*%
X215600000Y-120000000D02*
X215600000Y-115830000D01*
X215600000Y-115830000D02*
X214690000Y-114920000D01*
%TO.N,Net-(D38-Pad2)*%
X234700000Y-120000000D02*
X234700000Y-115930000D01*
X234700000Y-115930000D02*
X233690000Y-114920000D01*
%TO.N,Net-(D39-Pad2)*%
X253700000Y-115830000D02*
X252790000Y-114920000D01*
X253700000Y-120012500D02*
X253700000Y-115830000D01*
%TO.N,Net-(D40-Pad2)*%
X272800000Y-120000000D02*
X272800000Y-115830000D01*
X272800000Y-115830000D02*
X271890000Y-114920000D01*
%TO.N,Net-(D41-Pad2)*%
X291800000Y-120000000D02*
X291800000Y-115730000D01*
X291800000Y-115730000D02*
X290990000Y-114920000D01*
%TO.N,Net-(D42-Pad2)*%
X310900000Y-120000000D02*
X310900000Y-115830000D01*
X310900000Y-115830000D02*
X309990000Y-114920000D01*
%TO.N,Net-(D43-Pad2)*%
X334700000Y-120000000D02*
X334700000Y-115830000D01*
X334700000Y-115830000D02*
X333790000Y-114920000D01*
%TO.N,Net-(D44-Pad2)*%
X368000000Y-120000000D02*
X368000000Y-115830000D01*
X368000000Y-115830000D02*
X367090000Y-114920000D01*
%TO.N,ROW3*%
X258500000Y-140675000D02*
X259775499Y-141950499D01*
X339827012Y-139958774D02*
X340432924Y-139352862D01*
X221293901Y-141468901D02*
X238606099Y-141468901D01*
X240193901Y-141468901D02*
X257706099Y-141468901D01*
X333900000Y-135800000D02*
X338058774Y-139958774D01*
X80693901Y-141468901D02*
X105306099Y-141468901D01*
X327500000Y-140600000D02*
X332300000Y-135800000D01*
X332300000Y-135800000D02*
X333900000Y-135800000D01*
X181506099Y-141368901D02*
X182300000Y-140575000D01*
X144200000Y-140675000D02*
X144893901Y-141368901D01*
X163200000Y-140600000D02*
X163968901Y-141368901D01*
X327500000Y-145764310D02*
X334335690Y-152600000D01*
X163968901Y-141368901D02*
X181506099Y-141368901D01*
X162431099Y-141368901D02*
X163200000Y-140600000D01*
X297381401Y-141468901D02*
X326706099Y-141468901D01*
X239400000Y-140675000D02*
X240193901Y-141468901D01*
X296600000Y-140687500D02*
X297381401Y-141468901D01*
X182300000Y-140575000D02*
X183093901Y-141368901D01*
X334335690Y-152600000D02*
X341900000Y-152600000D01*
X125793901Y-141468901D02*
X143406099Y-141468901D01*
X366887500Y-141800000D02*
X368000000Y-140687500D01*
X183093901Y-141368901D02*
X200518599Y-141368901D01*
X79900000Y-140675000D02*
X80693901Y-141468901D01*
X220400000Y-140575000D02*
X221293901Y-141468901D01*
X355100000Y-141800000D02*
X366887500Y-141800000D01*
X327500000Y-140675000D02*
X327500000Y-140600000D01*
X124406099Y-141468901D02*
X125100000Y-140775000D01*
X326706099Y-141468901D02*
X327500000Y-140675000D01*
X125100000Y-140775000D02*
X125793901Y-141468901D01*
X219606099Y-141368901D02*
X220400000Y-140575000D01*
X257706099Y-141468901D02*
X258500000Y-140675000D01*
X201300000Y-140587500D02*
X202081401Y-141368901D01*
X277500000Y-140687500D02*
X278281401Y-141468901D01*
X278281401Y-141468901D02*
X295818599Y-141468901D01*
X259775499Y-141950499D02*
X276237001Y-141950499D01*
X106893901Y-141468901D02*
X124406099Y-141468901D01*
X338058774Y-139958774D02*
X339827012Y-139958774D01*
X238606099Y-141468901D02*
X239400000Y-140675000D01*
X276237001Y-141950499D02*
X277500000Y-140687500D01*
X143406099Y-141468901D02*
X144200000Y-140675000D01*
X106100000Y-140675000D02*
X106893901Y-141468901D01*
X200518599Y-141368901D02*
X201300000Y-140587500D01*
X105306099Y-141468901D02*
X106100000Y-140675000D01*
X295818599Y-141468901D02*
X296600000Y-140687500D01*
X327500000Y-140675000D02*
X327500000Y-145764310D01*
X202081401Y-141368901D02*
X219606099Y-141368901D01*
X144893901Y-141368901D02*
X162431099Y-141368901D01*
%TO.N,Net-(D45-Pad2)*%
X79900000Y-134930000D02*
X78990000Y-134020000D01*
X79900000Y-139100000D02*
X79900000Y-134930000D01*
%TO.N,Net-(D46-Pad2)*%
X106100000Y-139100000D02*
X106100000Y-134930000D01*
X106100000Y-134930000D02*
X105190000Y-134020000D01*
%TO.N,Net-(D47-Pad2)*%
X125100000Y-134930000D02*
X124190000Y-134020000D01*
X125100000Y-139200000D02*
X125100000Y-134930000D01*
%TO.N,Net-(D48-Pad2)*%
X144200000Y-139100000D02*
X144200000Y-134930000D01*
X144200000Y-134930000D02*
X143290000Y-134020000D01*
%TO.N,Net-(D49-Pad2)*%
X163200000Y-134730000D02*
X162390000Y-133920000D01*
X163200000Y-139025000D02*
X163200000Y-134730000D01*
%TO.N,Net-(D50-Pad2)*%
X182300000Y-139000000D02*
X182300000Y-134830000D01*
X182300000Y-134830000D02*
X181390000Y-133920000D01*
%TO.N,Net-(D51-Pad2)*%
X201300000Y-139012500D02*
X201300000Y-134830000D01*
X201300000Y-134830000D02*
X200390000Y-133920000D01*
%TO.N,Net-(D52-Pad2)*%
X220400000Y-139000000D02*
X220400000Y-134830000D01*
X220400000Y-134830000D02*
X219490000Y-133920000D01*
%TO.N,Net-(D53-Pad2)*%
X239400000Y-139100000D02*
X239400000Y-134930000D01*
X239400000Y-134930000D02*
X238490000Y-134020000D01*
%TO.N,Net-(D54-Pad2)*%
X258500000Y-139100000D02*
X258500000Y-134930000D01*
X258500000Y-134930000D02*
X257590000Y-134020000D01*
%TO.N,Net-(D55-Pad2)*%
X277500000Y-139112500D02*
X277500000Y-134830000D01*
X277500000Y-134830000D02*
X276690000Y-134020000D01*
%TO.N,Net-(D56-Pad2)*%
X296600000Y-139112500D02*
X296600000Y-134930000D01*
X296600000Y-134930000D02*
X295690000Y-134020000D01*
%TO.N,Net-(D57-Pad2)*%
X327500000Y-139100000D02*
X327500000Y-134830000D01*
X327500000Y-134830000D02*
X326690000Y-134020000D01*
%TO.N,Net-(D58-Pad2)*%
X368000000Y-139112500D02*
X368000000Y-134930000D01*
X368000000Y-134930000D02*
X367090000Y-134020000D01*
%TO.N,ROW4*%
X211593901Y-160468901D02*
X229118599Y-160468901D01*
X343125000Y-164475000D02*
X343100000Y-164500000D01*
X116393901Y-160468901D02*
X133806099Y-160468901D01*
X344200000Y-164475000D02*
X343125000Y-164475000D01*
X173581401Y-160468901D02*
X191106099Y-160468901D01*
X229118599Y-160468901D02*
X229900000Y-159687500D01*
X133806099Y-160468901D02*
X134600000Y-159675000D01*
X172800000Y-159687500D02*
X173581401Y-160468901D01*
X349124002Y-157274002D02*
X352550000Y-160700000D01*
X267206099Y-160468901D02*
X268000000Y-159675000D01*
X349124002Y-147424002D02*
X349124002Y-157274002D01*
X229900000Y-159687500D02*
X230681401Y-160468901D01*
X134600000Y-159675000D02*
X135333901Y-160408901D01*
X115600000Y-159675000D02*
X116393901Y-160468901D01*
X344092202Y-141832202D02*
X344910000Y-142650000D01*
X268000000Y-159675000D02*
X268833901Y-160508901D01*
X344910000Y-142650000D02*
X344910000Y-143210000D01*
X344092202Y-141827736D02*
X344092202Y-141832202D01*
X286166099Y-160508901D02*
X287000000Y-159675000D01*
X312406099Y-160468901D02*
X313200000Y-159675000D01*
X172018599Y-160468901D02*
X172800000Y-159687500D01*
X268833901Y-160508901D02*
X286166099Y-160508901D01*
X318793901Y-165268901D02*
X313200000Y-159675000D01*
X135333901Y-160408901D02*
X152866099Y-160408901D01*
X230681401Y-160468901D02*
X248218599Y-160468901D01*
X318793901Y-165268901D02*
X343406099Y-165268901D01*
X152866099Y-160408901D02*
X153700000Y-159575000D01*
X249781401Y-160468901D02*
X267206099Y-160468901D01*
X355500000Y-160700000D02*
X366975000Y-160700000D01*
X366975000Y-160700000D02*
X368000000Y-159675000D01*
X115600000Y-159675000D02*
X114806099Y-160468901D01*
X210006099Y-160468901D02*
X210800000Y-159675000D01*
X343406099Y-165268901D02*
X344200000Y-164475000D01*
X352550000Y-160700000D02*
X355500000Y-160700000D01*
X287793901Y-160468901D02*
X312406099Y-160468901D01*
X287000000Y-159675000D02*
X287793901Y-160468901D01*
X249000000Y-159687500D02*
X249781401Y-160468901D01*
X191800000Y-159775000D02*
X192493901Y-160468901D01*
X154593901Y-160468901D02*
X172018599Y-160468901D01*
X85281401Y-160468901D02*
X84600000Y-159787500D01*
X210800000Y-159675000D02*
X211593901Y-160468901D01*
X191106099Y-160468901D02*
X191800000Y-159775000D01*
X192493901Y-160468901D02*
X210006099Y-160468901D01*
X114806099Y-160468901D02*
X85281401Y-160468901D01*
X248218599Y-160468901D02*
X249000000Y-159687500D01*
X153700000Y-159575000D02*
X154593901Y-160468901D01*
X344910000Y-143210000D02*
X349124002Y-147424002D01*
%TO.N,Net-(D59-Pad2)*%
X84600000Y-153930000D02*
X83790000Y-153120000D01*
X84600000Y-158212500D02*
X84600000Y-153930000D01*
%TO.N,Net-(D60-Pad2)*%
X115600000Y-153930000D02*
X114690000Y-153020000D01*
X115600000Y-158100000D02*
X115600000Y-153930000D01*
%TO.N,Net-(D61-Pad2)*%
X134600000Y-153930000D02*
X133690000Y-153020000D01*
X134600000Y-158100000D02*
X134600000Y-153930000D01*
%TO.N,Net-(D62-Pad2)*%
X153700000Y-153860000D02*
X152800000Y-152960000D01*
X153700000Y-158000000D02*
X153700000Y-153860000D01*
%TO.N,Net-(D63-Pad2)*%
X172800000Y-153930000D02*
X171890000Y-153020000D01*
X172800000Y-158112500D02*
X172800000Y-153930000D01*
%TO.N,Net-(D64-Pad2)*%
X191800000Y-153930000D02*
X190890000Y-153020000D01*
X191800000Y-158200000D02*
X191800000Y-153930000D01*
%TO.N,Net-(D65-Pad2)*%
X210800000Y-153930000D02*
X209890000Y-153020000D01*
X210800000Y-158100000D02*
X210800000Y-153930000D01*
%TO.N,Net-(D66-Pad2)*%
X229900000Y-158112500D02*
X229900000Y-153930000D01*
X229900000Y-153930000D02*
X228990000Y-153020000D01*
%TO.N,Net-(D67-Pad2)*%
X249000000Y-153930000D02*
X248090000Y-153020000D01*
X249000000Y-158112500D02*
X249000000Y-153930000D01*
%TO.N,Net-(D68-Pad2)*%
X268000000Y-158100000D02*
X268000000Y-153930000D01*
X268000000Y-153930000D02*
X267090000Y-153020000D01*
%TO.N,Net-(D69-Pad2)*%
X287000000Y-153960000D02*
X286100000Y-153060000D01*
X287000000Y-158100000D02*
X287000000Y-153960000D01*
%TO.N,Net-(D70-Pad2)*%
X313200000Y-158100000D02*
X313200000Y-153930000D01*
X313200000Y-153930000D02*
X312290000Y-153020000D01*
%TO.N,Net-(D71-Pad2)*%
X344200000Y-162900000D02*
X344200000Y-158730000D01*
X344200000Y-158730000D02*
X343290000Y-157820000D01*
%TO.N,Net-(D72-Pad2)*%
X368000000Y-153930000D02*
X367090000Y-153020000D01*
X368000000Y-158100000D02*
X368000000Y-153930000D01*
%TO.N,ROW5*%
X281506099Y-179568901D02*
X282300000Y-178775000D01*
X343418599Y-184268901D02*
X344200000Y-183487500D01*
X98900000Y-178787500D02*
X99681401Y-179568901D01*
X348674501Y-147610191D02*
X348674501Y-161074501D01*
X348674501Y-161074501D02*
X349200000Y-161600000D01*
X193406099Y-179568901D02*
X194200000Y-178775000D01*
X194993901Y-179568901D02*
X262406099Y-179568901D01*
X121918599Y-179568901D02*
X122700000Y-178787500D01*
X362406099Y-184268901D02*
X363200000Y-183475000D01*
X301300000Y-178787500D02*
X306812500Y-184300000D01*
X194200000Y-178775000D02*
X194993901Y-179568901D01*
X300518599Y-179568901D02*
X301300000Y-178787500D01*
X99681401Y-179568901D02*
X121918599Y-179568901D01*
X282300000Y-178775000D02*
X283093901Y-179568901D01*
X98118599Y-179568901D02*
X98900000Y-178787500D01*
X325793901Y-184268901D02*
X343418599Y-184268901D01*
X344200000Y-183487500D02*
X347240000Y-180447500D01*
X283093901Y-179568901D02*
X300518599Y-179568901D01*
X306812500Y-184300000D02*
X324375000Y-184300000D01*
X75100000Y-178775000D02*
X75893901Y-179568901D01*
X122700000Y-178787500D02*
X123481401Y-179568901D01*
X262406099Y-179568901D02*
X263200000Y-178775000D01*
X123481401Y-179568901D02*
X193406099Y-179568901D01*
X324375000Y-184300000D02*
X325100000Y-183575000D01*
X263200000Y-178775000D02*
X263993901Y-179568901D01*
X344981401Y-184268901D02*
X362406099Y-184268901D01*
X347240000Y-180447500D02*
X347240000Y-168482620D01*
X263993901Y-179568901D02*
X281506099Y-179568901D01*
X325100000Y-183575000D02*
X325793901Y-184268901D01*
X342907798Y-141843488D02*
X348674501Y-147610191D01*
X347240000Y-168482620D02*
X348098120Y-167624500D01*
X342907798Y-141827736D02*
X342907798Y-141843488D01*
X75893901Y-179568901D02*
X98118599Y-179568901D01*
X344200000Y-183487500D02*
X344981401Y-184268901D01*
%TO.N,Net-(D73-Pad2)*%
X75100000Y-177200000D02*
X75100000Y-173030000D01*
X75100000Y-173030000D02*
X74190000Y-172120000D01*
%TO.N,Net-(D74-Pad2)*%
X98900000Y-173030000D02*
X97990000Y-172120000D01*
X98900000Y-177212500D02*
X98900000Y-173030000D01*
%TO.N,Net-(D75-Pad2)*%
X122700000Y-172930000D02*
X121890000Y-172120000D01*
X122700000Y-177212500D02*
X122700000Y-172930000D01*
%TO.N,Net-(D76-Pad2)*%
X194200000Y-173030000D02*
X193290000Y-172120000D01*
X194200000Y-177200000D02*
X194200000Y-173030000D01*
%TO.N,Net-(D77-Pad2)*%
X263200000Y-177200000D02*
X263200000Y-173030000D01*
X263200000Y-173030000D02*
X262290000Y-172120000D01*
%TO.N,Net-(D78-Pad2)*%
X282300000Y-177200000D02*
X282300000Y-173130000D01*
X282300000Y-173130000D02*
X281290000Y-172120000D01*
%TO.N,Net-(D79-Pad2)*%
X301300000Y-177212500D02*
X301300000Y-173030000D01*
X301300000Y-173030000D02*
X300390000Y-172120000D01*
%TO.N,Net-(D80-Pad2)*%
X325100000Y-182000000D02*
X325100000Y-177730000D01*
X325100000Y-177730000D02*
X324190000Y-176820000D01*
%TO.N,Net-(D81-Pad2)*%
X344200000Y-177730000D02*
X343290000Y-176820000D01*
X344200000Y-181912500D02*
X344200000Y-177730000D01*
%TO.N,Net-(D82-Pad2)*%
X363200000Y-177730000D02*
X362290000Y-176820000D01*
X363200000Y-181900000D02*
X363200000Y-177730000D01*
D42*
%TO.N,D-*%
X350075000Y-139606800D02*
X350075000Y-135706800D01*
X347960966Y-140075000D02*
X349606800Y-140075000D01*
X346920629Y-139034663D02*
X347960966Y-140075000D01*
X350075000Y-135706800D02*
X351295000Y-134486800D01*
X351295000Y-134486800D02*
X351295000Y-130603200D01*
X349475000Y-128783200D02*
X349475000Y-92606800D01*
X354524999Y-84024999D02*
X353750000Y-83250000D01*
X351295000Y-130603200D02*
X349475000Y-128783200D01*
X349475000Y-92606800D02*
X354524999Y-87556801D01*
X349606800Y-140075000D02*
X350075000Y-139606800D01*
X346920629Y-138999309D02*
X346920629Y-139034663D01*
X354524999Y-87556801D02*
X354524999Y-84024999D01*
%TO.N,D+*%
X351745000Y-134673200D02*
X351745000Y-130416800D01*
X351745000Y-130416800D02*
X349925000Y-128596800D01*
X349793200Y-140525000D02*
X350525000Y-139793200D01*
X354975001Y-87743199D02*
X354975001Y-84024999D01*
X346567076Y-139352862D02*
X347739214Y-140525000D01*
X350525000Y-139793200D02*
X350525000Y-135893200D01*
X347739214Y-140525000D02*
X349793200Y-140525000D01*
X354975001Y-84024999D02*
X355750000Y-83250000D01*
X349925000Y-128596800D02*
X349925000Y-92793200D01*
X349925000Y-92793200D02*
X354975001Y-87743199D01*
X350525000Y-135893200D02*
X351745000Y-134673200D01*
D41*
%TO.N,COL10*%
X255750499Y-91549501D02*
X248840000Y-98460000D01*
X339099002Y-126472378D02*
X339099002Y-94855902D01*
X340432924Y-136047138D02*
X336998004Y-132612218D01*
X339099002Y-94855902D02*
X335792601Y-91549501D01*
X336998004Y-132612218D02*
X336998004Y-128573376D01*
X335792601Y-91549501D02*
X255750499Y-91549501D01*
X340432924Y-136047138D02*
X340432924Y-136032924D01*
X336998004Y-128573376D02*
X339099002Y-126472378D01*
%TO.N,COL1*%
X88050499Y-87849501D02*
X77440000Y-98460000D01*
X343249501Y-127120881D02*
X343249501Y-93285191D01*
X345506415Y-134986478D02*
X346600000Y-133892893D01*
X337464310Y-87500000D02*
X88400000Y-87500000D01*
X343249501Y-93285191D02*
X337464310Y-87500000D01*
X88051497Y-87850499D02*
X88050499Y-87849501D01*
X346600000Y-133892893D02*
X346600000Y-130471380D01*
X346600000Y-130471380D02*
X343249501Y-127120881D01*
X88400000Y-87500000D02*
X88050499Y-87849501D01*
%TO.N,COL2*%
X106950499Y-87949501D02*
X96440000Y-98460000D01*
X345152862Y-134632924D02*
X346100000Y-133685786D01*
X346100000Y-130607070D02*
X342800000Y-127307070D01*
X342800000Y-93471380D02*
X337278121Y-87949501D01*
X346100000Y-133685786D02*
X346100000Y-130607070D01*
X337278121Y-87949501D02*
X106950499Y-87949501D01*
X342800000Y-127307070D02*
X342800000Y-93471380D01*
%TO.N,COL3*%
X337092930Y-88400000D02*
X125600000Y-88400000D01*
X125600000Y-88400000D02*
X125250499Y-88749501D01*
X125251497Y-88750499D02*
X125250499Y-88749501D01*
X344799309Y-134279371D02*
X345600000Y-133478680D01*
X342350499Y-127493259D02*
X342350499Y-93657569D01*
X345600000Y-133478680D02*
X345600000Y-130742760D01*
X342350499Y-93657569D02*
X337092930Y-88400000D01*
X125250499Y-88749501D02*
X115540000Y-98460000D01*
X345600000Y-130742760D02*
X342350499Y-127493259D01*
%TO.N,COL4*%
X341849501Y-127593259D02*
X341849501Y-93792261D01*
X342554245Y-133925818D02*
X339800000Y-131171573D01*
X336906741Y-88849501D02*
X144150499Y-88849501D01*
X341849501Y-93792261D02*
X336906741Y-88849501D01*
X339800000Y-131171573D02*
X339800000Y-129642760D01*
X144150499Y-88849501D02*
X134540000Y-98460000D01*
X339800000Y-129642760D02*
X341849501Y-127593259D01*
%TO.N,COL5*%
X339300000Y-131400000D02*
X339300000Y-129507070D01*
X342200691Y-134279371D02*
X342179371Y-134279371D01*
X341399002Y-93977452D02*
X336720552Y-89299002D01*
X339300000Y-129507070D02*
X341399002Y-127408068D01*
X162800998Y-89299002D02*
X153640000Y-98460000D01*
X341399002Y-127408068D02*
X341399002Y-93977452D01*
X336720552Y-89299002D02*
X162800998Y-89299002D01*
X342179371Y-134279371D02*
X339300000Y-131400000D01*
%TO.N,COL6*%
X181051497Y-90150499D02*
X181050499Y-90149501D01*
X338800000Y-129335690D02*
X340949501Y-127186189D01*
X181050499Y-90149501D02*
X172740000Y-98460000D01*
X336534363Y-89748503D02*
X181453493Y-89748503D01*
X181453493Y-89748503D02*
X181051497Y-90150499D01*
X338800000Y-131585786D02*
X338800000Y-129335690D01*
X341847138Y-134632924D02*
X338800000Y-131585786D01*
X340949501Y-94163641D02*
X336534363Y-89748503D01*
X340949501Y-127186189D02*
X340949501Y-94163641D01*
%TO.N,COL7*%
X340449501Y-94299331D02*
X336350170Y-90200000D01*
X338346507Y-131839400D02*
X338346507Y-129153493D01*
X200000000Y-90200000D02*
X191740000Y-98460000D01*
X338346507Y-129153493D02*
X340449501Y-127050499D01*
X336350170Y-90200000D02*
X200000000Y-90200000D01*
X341493585Y-134986478D02*
X338346507Y-131839400D01*
X340449501Y-127050499D02*
X340449501Y-94299331D01*
%TO.N,COL8*%
X341140031Y-135340031D02*
X337897006Y-132097006D01*
X218550499Y-90649501D02*
X210740000Y-98460000D01*
X337897006Y-128945754D02*
X339998004Y-126844756D01*
X339998004Y-94483524D02*
X336163981Y-90649501D01*
X336163981Y-90649501D02*
X218550499Y-90649501D01*
X337897006Y-132097006D02*
X337897006Y-128945754D01*
X339998004Y-126844756D02*
X339998004Y-94483524D01*
%TO.N,COL9*%
X337447505Y-132354612D02*
X337447505Y-128759565D01*
X340786478Y-135693585D02*
X337447505Y-132354612D01*
X339548503Y-126658567D02*
X339548503Y-94669713D01*
X339548503Y-94669713D02*
X335978790Y-91100000D01*
X237200000Y-91100000D02*
X229840000Y-98460000D01*
X337447505Y-128759565D02*
X339548503Y-126658567D01*
X335978790Y-91100000D02*
X237200000Y-91100000D01*
%TO.N,COL13*%
X334849501Y-135249501D02*
X338659772Y-139059772D01*
X335649501Y-132922777D02*
X334849501Y-133722777D01*
X315540000Y-98460000D02*
X315711380Y-98460000D01*
X331300000Y-93900000D02*
X337700000Y-100300000D01*
X335649501Y-127950499D02*
X335649501Y-132922777D01*
X338659772Y-139059772D02*
X339311801Y-139059772D01*
X337700000Y-125900000D02*
X335649501Y-127950499D01*
X337700000Y-100300000D02*
X337700000Y-125900000D01*
X315711380Y-98460000D02*
X320271380Y-93900000D01*
X320271380Y-93900000D02*
X331300000Y-93900000D01*
X339311801Y-139059772D02*
X339725818Y-138645755D01*
X334849501Y-133722777D02*
X334849501Y-135249501D01*
%TO.N,COL0*%
X346849501Y-135050499D02*
X347600000Y-134300000D01*
X346849501Y-135057606D02*
X346849501Y-135050499D01*
X344150499Y-92886189D02*
X337864310Y-86600000D01*
X347600000Y-134300000D02*
X347600000Y-130035690D01*
X337864310Y-86600000D02*
X70300000Y-86600000D01*
X344150499Y-126586189D02*
X344150499Y-92886189D01*
X347600000Y-130035690D02*
X344150499Y-126586189D01*
X346213522Y-135693585D02*
X346849501Y-135057606D01*
%TO.N,COL12*%
X338200000Y-126100000D02*
X338200000Y-100100000D01*
X320086189Y-93449501D02*
X316935690Y-96600000D01*
X337900000Y-137467062D02*
X335299002Y-134866064D01*
X338547124Y-137467062D02*
X337900000Y-137467062D01*
X336099002Y-133108966D02*
X336099002Y-128200998D01*
X331549501Y-93449501D02*
X320086189Y-93449501D01*
X291950499Y-93449501D02*
X286940000Y-98460000D01*
X336099002Y-128200998D02*
X338200000Y-126100000D01*
X339372264Y-138292202D02*
X338547124Y-137467062D01*
X316935690Y-96600000D02*
X308300000Y-96600000D01*
X338200000Y-100100000D02*
X331549501Y-93449501D01*
X335299002Y-134866064D02*
X335299002Y-133908966D01*
X305149501Y-93449501D02*
X291950499Y-93449501D01*
X335299002Y-133908966D02*
X336099002Y-133108966D01*
X308300000Y-96600000D02*
X305149501Y-93449501D01*
%TO.N,COL14*%
X352760000Y-155560000D02*
X353640000Y-155560000D01*
X349600000Y-147200000D02*
X349600000Y-152400000D01*
X349600000Y-152400000D02*
X352760000Y-155560000D01*
X349600000Y-147200000D02*
X345400000Y-143000000D01*
X345400000Y-142428427D02*
X345400000Y-143000000D01*
X344445755Y-141474182D02*
X345400000Y-142428427D01*
%TO.N,COL11*%
X274330000Y-92000000D02*
X267890000Y-98440000D01*
X340079371Y-136400691D02*
X336548503Y-132869823D01*
X336548503Y-132869823D02*
X336548503Y-128387187D01*
X338649501Y-126286189D02*
X338649501Y-95042091D01*
X338649501Y-95042091D02*
X335607410Y-92000000D01*
X335607410Y-92000000D02*
X274330000Y-92000000D01*
X336548503Y-128387187D02*
X338649501Y-126286189D01*
%TO.N,Net-(LED_0-Pad2)*%
X252770000Y-106125000D02*
X240720000Y-106125000D01*
X240720000Y-106125000D02*
X239925000Y-105330000D01*
X253475000Y-106830000D02*
X252770000Y-106125000D01*
%TO.N,Net-(LED_0-Pad3)*%
X271815000Y-106100000D02*
X259695000Y-106100000D01*
X259695000Y-106100000D02*
X258925000Y-105330000D01*
X272525000Y-106810000D02*
X271815000Y-106100000D01*
%TO.N,Net-(LED_1-Pad3)*%
X88370000Y-106175000D02*
X87525000Y-105330000D01*
X101075000Y-106830000D02*
X100420000Y-106175000D01*
X100420000Y-106175000D02*
X88370000Y-106175000D01*
%TO.N,Net-(LED_1-Pad2)*%
X68525000Y-105330000D02*
X69270000Y-106075000D01*
X69270000Y-106075000D02*
X81320000Y-106075000D01*
X81320000Y-106075000D02*
X82075000Y-106830000D01*
%TO.N,Net-(LED_A1-Pad3)*%
X102570000Y-144175000D02*
X114620000Y-144175000D01*
X101825000Y-143430000D02*
X102570000Y-144175000D01*
X114620000Y-144175000D02*
X115375000Y-144930000D01*
%TO.N,Net-(LED_B1-Pad2)*%
X187525000Y-162430000D02*
X188220000Y-163125000D01*
X188220000Y-163125000D02*
X200270000Y-163125000D01*
X200270000Y-163125000D02*
X201075000Y-163930000D01*
%TO.N,Net-(LED_backslash1-Pad2)*%
X327350499Y-108886189D02*
X331064310Y-112600000D01*
X336000000Y-113656137D02*
X336000000Y-123352817D01*
X334943863Y-112600000D02*
X336000000Y-113656137D01*
X327350499Y-107055499D02*
X327350499Y-108886189D01*
X336000000Y-123352817D02*
X334277817Y-125075000D01*
X331170000Y-125075000D02*
X330425000Y-124330000D01*
X325625000Y-105330000D02*
X327350499Y-107055499D01*
X331064310Y-112600000D02*
X334943863Y-112600000D01*
X334277817Y-125075000D02*
X331170000Y-125075000D01*
%TO.N,Net-(LED_C1-Pad2)*%
X162270000Y-163125000D02*
X163075000Y-163930000D01*
X149435000Y-162370000D02*
X150190000Y-163125000D01*
X150190000Y-163125000D02*
X162270000Y-163125000D01*
%TO.N,Net-(LED_A1-Pad2)*%
X95620000Y-144175000D02*
X96375000Y-144930000D01*
X75625000Y-143430000D02*
X76370000Y-144175000D01*
X76370000Y-144175000D02*
X95620000Y-144175000D01*
%TO.N,Net-(LED_B1-Pad3)*%
X168525000Y-162430000D02*
X169220000Y-163125000D01*
X169220000Y-163125000D02*
X181270000Y-163125000D01*
X181270000Y-163125000D02*
X182075000Y-163930000D01*
%TO.N,Net-(LED_backslash1-Pad3)*%
X324170000Y-125025000D02*
X324975000Y-125830000D01*
X306625000Y-124330000D02*
X307320000Y-125025000D01*
X307320000Y-125025000D02*
X324170000Y-125025000D01*
%TO.N,Net-(LED_C1-Pad3)*%
X131020000Y-163125000D02*
X143240000Y-163125000D01*
X130325000Y-162430000D02*
X131020000Y-163125000D01*
X143240000Y-163125000D02*
X143985000Y-163870000D01*
%TO.N,Net-(LED_M1-Pad2)*%
X226320000Y-163125000D02*
X238470000Y-163125000D01*
X238470000Y-163125000D02*
X239275000Y-163930000D01*
X225625000Y-162430000D02*
X226320000Y-163125000D01*
%TO.N,Net-(LED_D1-Pad3)*%
X152820000Y-144075000D02*
X153575000Y-144830000D01*
X140570000Y-144075000D02*
X152820000Y-144075000D01*
X139925000Y-143430000D02*
X140570000Y-144075000D01*
%TO.N,Net-(LED_M1-Pad3)*%
X207220000Y-163125000D02*
X219370000Y-163125000D01*
X206525000Y-162430000D02*
X207220000Y-163125000D01*
X219370000Y-163125000D02*
X220175000Y-163930000D01*
%TO.N,Net-(LED_downArrow1-Pad3)*%
X352770000Y-187025000D02*
X340720000Y-187025000D01*
X353475000Y-187730000D02*
X352770000Y-187025000D01*
X340720000Y-187025000D02*
X339925000Y-186230000D01*
%TO.N,Net-(LED_E1-Pad2)*%
X135820000Y-125025000D02*
X135125000Y-124330000D01*
X148675000Y-125830000D02*
X147870000Y-125025000D01*
X147870000Y-125025000D02*
X135820000Y-125025000D01*
%TO.N,Net-(LED_D1-Pad2)*%
X121570000Y-144175000D02*
X133720000Y-144175000D01*
X133720000Y-144175000D02*
X134475000Y-144930000D01*
X120825000Y-143430000D02*
X121570000Y-144175000D01*
%TO.N,Net-(LED_downArrow1-Pad2)*%
X320825000Y-186230000D02*
X321620000Y-187025000D01*
X333770000Y-187025000D02*
X334475000Y-187730000D01*
X321620000Y-187025000D02*
X333770000Y-187025000D01*
%TO.N,Net-(LED_E1-Pad3)*%
X116720000Y-125025000D02*
X128870000Y-125025000D01*
X128870000Y-125025000D02*
X129675000Y-125830000D01*
X116025000Y-124330000D02*
X116720000Y-125025000D01*
%TO.N,RGBLED*%
X354159501Y-129183811D02*
X354229501Y-129253811D01*
X345900000Y-142800000D02*
X347800000Y-144700000D01*
X354159501Y-129173811D02*
X354159501Y-129183811D01*
X345900000Y-142200000D02*
X345900000Y-142800000D01*
X347800000Y-144700000D02*
X349740000Y-144700000D01*
X351040000Y-143400000D02*
X349740000Y-144700000D01*
X351040000Y-136120000D02*
X351040000Y-143400000D01*
X351100000Y-108200000D02*
X351100000Y-126114310D01*
X357520000Y-106075000D02*
X353225000Y-106075000D01*
X358275000Y-106830000D02*
X357520000Y-106075000D01*
X354229501Y-129253811D02*
X354229501Y-132930499D01*
X351100000Y-126114310D02*
X354159501Y-129173811D01*
X344799309Y-141120629D02*
X344820629Y-141120629D01*
X344820629Y-141120629D02*
X345900000Y-142200000D01*
X353225000Y-106075000D02*
X351100000Y-108200000D01*
X354229501Y-132930499D02*
X351040000Y-136120000D01*
%TO.N,Net-(LED_F1-Pad2)*%
X92920000Y-82225000D02*
X92225000Y-81530000D01*
X105875000Y-83030000D02*
X105070000Y-82225000D01*
X105070000Y-82225000D02*
X92920000Y-82225000D01*
%TO.N,Net-(LED_enter1-Pad2)*%
X317120000Y-144175000D02*
X317875000Y-144930000D01*
X292325000Y-143430000D02*
X293070000Y-144175000D01*
X293070000Y-144175000D02*
X317120000Y-144175000D01*
%TO.N,Net-(LED_F1-Pad3)*%
X86775000Y-83030000D02*
X85770000Y-82025000D01*
X85770000Y-82025000D02*
X68920000Y-82025000D01*
X68920000Y-82025000D02*
X68425000Y-81530000D01*
%TO.N,Net-(LED_F10-Pad2)*%
X286875000Y-83030000D02*
X285920000Y-82075000D01*
X285920000Y-82075000D02*
X273970000Y-82075000D01*
X273970000Y-82075000D02*
X273325000Y-81430000D01*
%TO.N,Net-(LED_function1-Pad3)*%
X277925000Y-181530000D02*
X278720000Y-182325000D01*
X278720000Y-182325000D02*
X290870000Y-182325000D01*
X290870000Y-182325000D02*
X291575000Y-183030000D01*
%TO.N,Net-(LED_F10-Pad3)*%
X267070000Y-82125000D02*
X254820000Y-82125000D01*
X267875000Y-82930000D02*
X267070000Y-82125000D01*
X254820000Y-82125000D02*
X254225000Y-81530000D01*
%TO.N,Net-(LED_I1-Pad2)*%
X243170000Y-125025000D02*
X231020000Y-125025000D01*
X231020000Y-125025000D02*
X230325000Y-124330000D01*
X243975000Y-125830000D02*
X243170000Y-125025000D01*
%TO.N,Net-(LED_function1-Pad2)*%
X259720000Y-182325000D02*
X271770000Y-182325000D01*
X258925000Y-181530000D02*
X259720000Y-182325000D01*
X271770000Y-182325000D02*
X272475000Y-183030000D01*
%TO.N,Net-(LED_leftAlt1-Pad3)*%
X183770000Y-182325000D02*
X184475000Y-183030000D01*
X119320000Y-182325000D02*
X183770000Y-182325000D01*
X118525000Y-181530000D02*
X119320000Y-182325000D01*
%TO.N,Net-(LED_I1-Pad3)*%
X224070000Y-125025000D02*
X224875000Y-125830000D01*
X212020000Y-125025000D02*
X224070000Y-125025000D01*
X211325000Y-124330000D02*
X212020000Y-125025000D01*
%TO.N,Net-(LED_leftAlt1-Pad2)*%
X94625000Y-181530000D02*
X95420000Y-182325000D01*
X112370000Y-182325000D02*
X113075000Y-183030000D01*
X95420000Y-182325000D02*
X112370000Y-182325000D01*
%TO.N,Net-(LED_leftControl1-Pad2)*%
X74975000Y-164030000D02*
X68666688Y-164030000D01*
X58649501Y-180013811D02*
X60960690Y-182325000D01*
X63730000Y-183030000D02*
X65375000Y-183030000D01*
X58649501Y-169186189D02*
X58649501Y-180013811D01*
X64286189Y-163549501D02*
X58649501Y-169186189D01*
X68186189Y-163549501D02*
X64286189Y-163549501D01*
X63025000Y-182325000D02*
X63730000Y-183030000D01*
X60960690Y-182325000D02*
X63025000Y-182325000D01*
X68666688Y-164030000D02*
X68186189Y-163549501D01*
%TO.N,Net-(LED_Q1-Pad2)*%
X97720000Y-125025000D02*
X109770000Y-125025000D01*
X97025000Y-124330000D02*
X97720000Y-125025000D01*
X109770000Y-125025000D02*
X110575000Y-125830000D01*
%TO.N,Net-(LED_Q1-Pad3)*%
X90770000Y-125025000D02*
X91575000Y-125830000D01*
X73920000Y-125025000D02*
X90770000Y-125025000D01*
X73225000Y-124330000D02*
X73920000Y-125025000D01*
%TO.N,Net-(R1-Pad2)*%
X342554245Y-141474182D02*
X342554245Y-141495755D01*
X345076016Y-144730000D02*
X346330000Y-145983984D01*
X347350000Y-157100000D02*
X347350000Y-148040000D01*
X346330000Y-145983984D02*
X346330000Y-147020000D01*
X341930000Y-143144310D02*
X343515690Y-144730000D01*
X347350000Y-148040000D02*
X346330000Y-147020000D01*
X343515690Y-144730000D02*
X345076016Y-144730000D01*
X342554245Y-141495755D02*
X341930000Y-142120000D01*
X341930000Y-142120000D02*
X341930000Y-143144310D01*
%TO.N,Net-(R2-Pad1)*%
X342300000Y-132964466D02*
X342300000Y-131800000D01*
X342907798Y-133572264D02*
X342300000Y-132964466D01*
%TO.N,Net-(C2-Pad1)*%
X337700000Y-144100000D02*
X337388604Y-143788604D01*
X338800000Y-141800000D02*
X340107107Y-141800000D01*
X340107107Y-141800000D02*
X341493585Y-140413522D01*
X337081802Y-143518198D02*
X338800000Y-141800000D01*
X337081802Y-143983883D02*
X337081802Y-143518198D01*
X339393935Y-146296016D02*
X337576777Y-144478858D01*
X337576777Y-144478858D02*
X337081802Y-143983883D01*
X339503984Y-146296016D02*
X339393935Y-146296016D01*
%TO.N,Net-(C1-Pad1)*%
X335200000Y-139800000D02*
X335302081Y-139800000D01*
X339903122Y-141296878D02*
X341140031Y-140059969D01*
X337647487Y-141296878D02*
X339903122Y-141296878D01*
X335302081Y-139800000D02*
X337223223Y-141721142D01*
X337223223Y-141721142D02*
X337647487Y-141296878D01*
%TO.N,Net-(LED_leftControl1-Pad3)*%
X71595000Y-182300000D02*
X88445000Y-182300000D01*
X70825000Y-181530000D02*
X71595000Y-182300000D01*
X88445000Y-182300000D02*
X89175000Y-183030000D01*
%TO.N,VBUS*%
X352260000Y-75202500D02*
X352260000Y-76760000D01*
X352490000Y-76900000D02*
X353750000Y-78160000D01*
X352400000Y-76900000D02*
X352490000Y-76900000D01*
X352260000Y-76760000D02*
X352400000Y-76900000D01*
X357160000Y-75202500D02*
X357160000Y-77043063D01*
X357160000Y-77043063D02*
X357185500Y-77068563D01*
X350500000Y-81500000D02*
X353750000Y-78250000D01*
X353750000Y-78250000D02*
X353750000Y-78160000D01*
%TO.N,Net-(J1-PadA5)*%
X353460000Y-75202500D02*
X353460000Y-76460000D01*
X350600000Y-77900000D02*
X350600000Y-76900000D01*
X353460000Y-76460000D02*
X353500000Y-76500000D01*
%TO.N,Net-(J1-PadA7)*%
X354960000Y-75864310D02*
X354960000Y-75202500D01*
X354460000Y-76364310D02*
X354960000Y-75864310D01*
X354460000Y-76374310D02*
X354460000Y-79350000D01*
X353960000Y-75874310D02*
X353960000Y-75202500D01*
X354460000Y-79350000D02*
X353750000Y-80060000D01*
X354460000Y-76374310D02*
X353960000Y-75874310D01*
X353750000Y-81600000D02*
X353750000Y-80060000D01*
%TO.N,Net-(J1-PadB5)*%
X356460000Y-76091306D02*
X356207243Y-76344063D01*
X356460000Y-75202500D02*
X356460000Y-76091306D01*
X358900000Y-76500000D02*
X358900000Y-77950000D01*
%TO.N,Net-(LED_2-Pad3)*%
X119470000Y-106125000D02*
X107320000Y-106125000D01*
X120175000Y-106830000D02*
X119470000Y-106125000D01*
X107320000Y-106125000D02*
X106525000Y-105330000D01*
%TO.N,Net-(LED_3-Pad3)*%
X139175000Y-106830000D02*
X138470000Y-106125000D01*
X138470000Y-106125000D02*
X126420000Y-106125000D01*
X126420000Y-106125000D02*
X125625000Y-105330000D01*
%TO.N,Net-(LED_4-Pad3)*%
X144625000Y-105330000D02*
X145420000Y-106125000D01*
X157570000Y-106125000D02*
X158275000Y-106830000D01*
X145420000Y-106125000D02*
X157570000Y-106125000D01*
%TO.N,Net-(LED_5-Pad3)*%
X163725000Y-105330000D02*
X164520000Y-106125000D01*
X176670000Y-106125000D02*
X177375000Y-106830000D01*
X164520000Y-106125000D02*
X176670000Y-106125000D01*
%TO.N,Net-(LED_6-Pad3)*%
X183620000Y-106125000D02*
X195670000Y-106125000D01*
X182825000Y-105330000D02*
X183620000Y-106125000D01*
X195670000Y-106125000D02*
X196375000Y-106830000D01*
%TO.N,Net-(LED_7-Pad3)*%
X214670000Y-106125000D02*
X202620000Y-106125000D01*
X202620000Y-106125000D02*
X201825000Y-105330000D01*
X215375000Y-106830000D02*
X214670000Y-106125000D01*
%TO.N,Net-(LED_8-Pad3)*%
X233770000Y-106125000D02*
X221620000Y-106125000D01*
X234475000Y-106830000D02*
X233770000Y-106125000D01*
X221620000Y-106125000D02*
X220825000Y-105330000D01*
%TO.N,Net-(LED_backspace1-Pad2)*%
X320175000Y-106830000D02*
X319470000Y-106125000D01*
X319470000Y-106125000D02*
X297820000Y-106125000D01*
X297820000Y-106125000D02*
X297025000Y-105330000D01*
%TO.N,Net-(LED_capsLock1-Pad2)*%
X63490000Y-130115000D02*
X63490000Y-141142817D01*
X63490000Y-141142817D02*
X66522183Y-144175000D01*
X69420000Y-144175000D02*
X70175000Y-144930000D01*
X67775000Y-125830000D02*
X63490000Y-130115000D01*
X66522183Y-144175000D02*
X69420000Y-144175000D01*
%TO.N,Net-(LED_closeBracket1-Pad3)*%
X287625000Y-124330000D02*
X288320000Y-125025000D01*
X288320000Y-125025000D02*
X300370000Y-125025000D01*
X300370000Y-125025000D02*
X301175000Y-125830000D01*
%TO.N,Net-(LED_L1-Pad3)*%
X254225000Y-143430000D02*
X254970000Y-144175000D01*
X267120000Y-144175000D02*
X267875000Y-144930000D01*
X254970000Y-144175000D02*
X267120000Y-144175000D01*
%TO.N,Net-(LED_colon1-Pad3)*%
X273325000Y-143430000D02*
X274070000Y-144175000D01*
X286120000Y-144175000D02*
X286875000Y-144930000D01*
X274070000Y-144175000D02*
X286120000Y-144175000D01*
%TO.N,Net-(LED_comma1-Pad2)*%
X257470000Y-163125000D02*
X258275000Y-163930000D01*
X245420000Y-163125000D02*
X257470000Y-163125000D01*
X244725000Y-162430000D02*
X245420000Y-163125000D01*
%TO.N,Net-(LED_F12-Pad2)*%
X328970000Y-82325000D02*
X312120000Y-82325000D01*
X329675000Y-83030000D02*
X328970000Y-82325000D01*
X312120000Y-82325000D02*
X311325000Y-81530000D01*
%TO.N,Net-(LED_equals1-Pad2)*%
X278790000Y-106125000D02*
X277975000Y-105310000D01*
X290870000Y-106125000D02*
X278790000Y-106125000D01*
X291575000Y-106830000D02*
X290870000Y-106125000D01*
%TO.N,Net-(LED_esc1-Pad3)*%
X59000000Y-104900000D02*
X59000000Y-105652817D01*
X63005535Y-100394465D02*
X63005535Y-100894465D01*
X62975000Y-83030000D02*
X64400000Y-84455000D01*
X64400000Y-84455000D02*
X64400000Y-99000000D01*
X59000000Y-105652817D02*
X59422183Y-106075000D01*
X62320000Y-106075000D02*
X63075000Y-106830000D01*
X59422183Y-106075000D02*
X62320000Y-106075000D01*
X63005535Y-100894465D02*
X59000000Y-104900000D01*
X64400000Y-99000000D02*
X63005535Y-100394465D01*
%TO.N,Net-(LED_F2-Pad2)*%
X112020000Y-82225000D02*
X111325000Y-81530000D01*
X124370000Y-82225000D02*
X112020000Y-82225000D01*
X125075000Y-82930000D02*
X124370000Y-82225000D01*
%TO.N,Net-(LED_F3-Pad2)*%
X143975000Y-82930000D02*
X143170000Y-82125000D01*
X143170000Y-82125000D02*
X131220000Y-82125000D01*
X131220000Y-82125000D02*
X130525000Y-81430000D01*
%TO.N,Net-(LED_F4-Pad2)*%
X150120000Y-82125000D02*
X166870000Y-82125000D01*
X166870000Y-82125000D02*
X167775000Y-83030000D01*
X149425000Y-81430000D02*
X150120000Y-82125000D01*
%TO.N,Net-(LED_F5-Pad2)*%
X186875000Y-83030000D02*
X186070000Y-82225000D01*
X173920000Y-82225000D02*
X173225000Y-81530000D01*
X186070000Y-82225000D02*
X173920000Y-82225000D01*
%TO.N,Net-(LED_F6-Pad2)*%
X205070000Y-82225000D02*
X193020000Y-82225000D01*
X193020000Y-82225000D02*
X192325000Y-81530000D01*
X205875000Y-83030000D02*
X205070000Y-82225000D01*
%TO.N,Net-(LED_F7-Pad2)*%
X212020000Y-82225000D02*
X211325000Y-81530000D01*
X224875000Y-83030000D02*
X224070000Y-82225000D01*
X224070000Y-82225000D02*
X212020000Y-82225000D01*
%TO.N,Net-(LED_F8-Pad2)*%
X248775000Y-83030000D02*
X247970000Y-82225000D01*
X247970000Y-82225000D02*
X231020000Y-82225000D01*
X231020000Y-82225000D02*
X230325000Y-81530000D01*
%TO.N,Net-(LED_F11-Pad2)*%
X294130000Y-81530000D02*
X294925000Y-82325000D01*
X294925000Y-82325000D02*
X305170000Y-82325000D01*
X305170000Y-82325000D02*
X305875000Y-83030000D01*
X292325000Y-81530000D02*
X294130000Y-81530000D01*
%TO.N,Net-(LED_F13-Pad3)*%
X159025000Y-143330000D02*
X159795000Y-144100000D01*
X159795000Y-144100000D02*
X171845000Y-144100000D01*
X171845000Y-144100000D02*
X172575000Y-144830000D01*
%TO.N,Net-(LED_G1-Pad3)*%
X178025000Y-143330000D02*
X178770000Y-144075000D01*
X178770000Y-144075000D02*
X190820000Y-144075000D01*
X190820000Y-144075000D02*
X191575000Y-144830000D01*
%TO.N,Net-(LED_H1-Pad3)*%
X197770000Y-144075000D02*
X209920000Y-144075000D01*
X197025000Y-143330000D02*
X197770000Y-144075000D01*
X209920000Y-144075000D02*
X210675000Y-144830000D01*
%TO.N,Net-(LED_home1-Pad2)*%
X367477817Y-125075000D02*
X369350499Y-123202318D01*
X366865690Y-105330000D02*
X363725000Y-105330000D01*
X369350499Y-123202318D02*
X369350499Y-107814809D01*
X366475000Y-125075000D02*
X367477817Y-125075000D01*
X363725000Y-124330000D02*
X365730000Y-124330000D01*
X365730000Y-124330000D02*
X366475000Y-125075000D01*
X369350499Y-107814809D02*
X366865690Y-105330000D01*
%TO.N,Net-(LED_J1-Pad3)*%
X228920000Y-144175000D02*
X229675000Y-144930000D01*
X216125000Y-143330000D02*
X216970000Y-144175000D01*
X216970000Y-144175000D02*
X228920000Y-144175000D01*
%TO.N,Net-(LED_K1-Pad3)*%
X235870000Y-144175000D02*
X248020000Y-144175000D01*
X235125000Y-143430000D02*
X235870000Y-144175000D01*
X248020000Y-144175000D02*
X248775000Y-144930000D01*
%TO.N,Net-(LED_leftArrow1-Pad2)*%
X302520000Y-187025000D02*
X314670000Y-187025000D01*
X297025000Y-181530000D02*
X302520000Y-187025000D01*
X314670000Y-187025000D02*
X315375000Y-187730000D01*
%TO.N,Net-(LED_Z1-Pad3)*%
X81120000Y-163225000D02*
X105070000Y-163225000D01*
X80425000Y-162530000D02*
X81120000Y-163225000D01*
X105070000Y-163225000D02*
X105875000Y-164030000D01*
%TO.N,Net-(LED_O1-Pad2)*%
X250120000Y-125025000D02*
X262270000Y-125025000D01*
X249425000Y-124330000D02*
X250120000Y-125025000D01*
X262270000Y-125025000D02*
X263075000Y-125830000D01*
%TO.N,Net-(LED_P1-Pad2)*%
X268525000Y-124330000D02*
X269220000Y-125025000D01*
X281370000Y-125025000D02*
X282175000Y-125830000D01*
X269220000Y-125025000D02*
X281370000Y-125025000D01*
%TO.N,Net-(LED_period1-Pad2)*%
X263725000Y-162430000D02*
X264420000Y-163125000D01*
X276440000Y-163125000D02*
X277285000Y-163970000D01*
X264420000Y-163125000D02*
X276440000Y-163125000D01*
%TO.N,Net-(LED_questionMark1-Pad2)*%
X282735000Y-162470000D02*
X283490000Y-163225000D01*
X283490000Y-163225000D02*
X302770000Y-163225000D01*
X302770000Y-163225000D02*
X303475000Y-163930000D01*
%TO.N,Net-(LED_R1-Pad2)*%
X154820000Y-125025000D02*
X166970000Y-125025000D01*
X154125000Y-124330000D02*
X154820000Y-125025000D01*
X166970000Y-125025000D02*
X167775000Y-125830000D01*
%TO.N,Net-(LED_rightAlt1-Pad2)*%
X252770000Y-182325000D02*
X253475000Y-183030000D01*
X189925000Y-181530000D02*
X190720000Y-182325000D01*
X190720000Y-182325000D02*
X252770000Y-182325000D01*
%TO.N,Net-(LED_rightShift1-Pad2)*%
X312677817Y-163125000D02*
X318282817Y-168730000D01*
X309620000Y-163125000D02*
X312677817Y-163125000D01*
X318282817Y-168730000D02*
X334475000Y-168730000D01*
X308925000Y-162430000D02*
X309620000Y-163125000D01*
%TO.N,Net-(LED_T1-Pad2)*%
X173225000Y-124330000D02*
X173920000Y-125025000D01*
X186070000Y-125025000D02*
X186875000Y-125830000D01*
X173920000Y-125025000D02*
X186070000Y-125025000D01*
%TO.N,Net-(LED_U1-Pad3)*%
X192325000Y-124330000D02*
X193020000Y-125025000D01*
X205070000Y-125025000D02*
X205875000Y-125830000D01*
X193020000Y-125025000D02*
X205070000Y-125025000D01*
%TO.N,Net-(LED_X1-Pad3)*%
X124170000Y-163225000D02*
X124875000Y-163930000D01*
X111325000Y-162530000D02*
X112020000Y-163225000D01*
X112020000Y-163225000D02*
X124170000Y-163225000D01*
%TO.N,Net-(LED_end1-Pad3)*%
X369249501Y-151705638D02*
X366143863Y-148600000D01*
X360300000Y-148600000D02*
X358275000Y-146575000D01*
X364470000Y-163175000D02*
X367477817Y-163175000D01*
X369249501Y-161403316D02*
X369249501Y-151705638D01*
X363725000Y-162430000D02*
X364470000Y-163175000D01*
X366143863Y-148600000D02*
X360300000Y-148600000D01*
X367477817Y-163175000D02*
X369249501Y-161403316D01*
X358275000Y-146575000D02*
X358275000Y-144930000D01*
%TO.N,Net-(LED_enter1-Pad3)*%
X345450499Y-156506636D02*
X345450499Y-166152318D01*
X323325000Y-143430000D02*
X335195000Y-155300000D01*
X340620000Y-167925000D02*
X339925000Y-167230000D01*
X345450499Y-166152318D02*
X343677817Y-167925000D01*
X335195000Y-155300000D02*
X344243863Y-155300000D01*
X344243863Y-155300000D02*
X345450499Y-156506636D01*
X343677817Y-167925000D02*
X340620000Y-167925000D01*
%TO.N,Net-(LED_pgDn1-Pad3)*%
X363725000Y-143430000D02*
X364420000Y-144125000D01*
X364186189Y-127050499D02*
X359495499Y-127050499D01*
X359495499Y-127050499D02*
X358275000Y-125830000D01*
X367477817Y-144125000D02*
X369300000Y-142302817D01*
X369300000Y-132164310D02*
X364186189Y-127050499D01*
X364420000Y-144125000D02*
X367477817Y-144125000D01*
X369300000Y-142302817D02*
X369300000Y-132164310D01*
%TO.N,Net-(J1-PadA6)*%
X354460000Y-74352500D02*
X354485000Y-74327500D01*
X354460000Y-75202500D02*
X354460000Y-74352500D01*
X355010000Y-76650000D02*
X355460000Y-76200000D01*
X354485000Y-74327500D02*
X355435000Y-74327500D01*
X355460000Y-74352500D02*
X355460000Y-75202500D01*
X355010000Y-79320000D02*
X355010000Y-76650000D01*
X355750000Y-80060000D02*
X355010000Y-79320000D01*
X355435000Y-74327500D02*
X355460000Y-74352500D01*
X355750000Y-81600000D02*
X355750000Y-80060000D01*
X355460000Y-76200000D02*
X355460000Y-75202500D01*
%TD*%
M02*
