%TF.GenerationSoftware,KiCad,Pcbnew,(6.0.6)*%
%TF.CreationDate,2022-08-08T11:29:03-04:00*%
%TF.ProjectId,Jupiter,4a757069-7465-4722-9e6b-696361645f70,rev?*%
%TF.SameCoordinates,Original*%
%TF.FileFunction,Paste,Bot*%
%TF.FilePolarity,Positive*%
%FSLAX46Y46*%
G04 Gerber Fmt 4.6, Leading zero omitted, Abs format (unit mm)*
G04 Created by KiCad (PCBNEW (6.0.6)) date 2022-08-08 11:29:03*
%MOMM*%
%LPD*%
G01*
G04 APERTURE LIST*
G04 Aperture macros list*
%AMRoundRect*
0 Rectangle with rounded corners*
0 $1 Rounding radius*
0 $2 $3 $4 $5 $6 $7 $8 $9 X,Y pos of 4 corners*
0 Add a 4 corners polygon primitive as box body*
4,1,4,$2,$3,$4,$5,$6,$7,$8,$9,$2,$3,0*
0 Add four circle primitives for the rounded corners*
1,1,$1+$1,$2,$3*
1,1,$1+$1,$4,$5*
1,1,$1+$1,$6,$7*
1,1,$1+$1,$8,$9*
0 Add four rect primitives between the rounded corners*
20,1,$1+$1,$2,$3,$4,$5,0*
20,1,$1+$1,$4,$5,$6,$7,0*
20,1,$1+$1,$6,$7,$8,$9,0*
20,1,$1+$1,$8,$9,$2,$3,0*%
%AMRotRect*
0 Rectangle, with rotation*
0 The origin of the aperture is its center*
0 $1 length*
0 $2 width*
0 $3 Rotation angle, in degrees counterclockwise*
0 Add horizontal line*
21,1,$1,$2,0,0,$3*%
%AMFreePoly0*
4,1,18,-0.410000,0.593000,-0.403758,0.624380,-0.385983,0.650983,-0.359380,0.668758,-0.328000,0.675000,0.328000,0.675000,0.359380,0.668758,0.385983,0.650983,0.403758,0.624380,0.410000,0.593000,0.410000,-0.593000,0.403758,-0.624380,0.385983,-0.650983,0.359380,-0.668758,0.328000,-0.675000,0.000000,-0.675000,-0.410000,-0.265000,-0.410000,0.593000,-0.410000,0.593000,$1*%
G04 Aperture macros list end*
%ADD10RoundRect,0.250000X1.025000X1.000000X-1.025000X1.000000X-1.025000X-1.000000X1.025000X-1.000000X0*%
%ADD11RoundRect,0.082000X-0.593000X0.328000X-0.593000X-0.328000X0.593000X-0.328000X0.593000X0.328000X0*%
%ADD12FreePoly0,270.000000*%
%ADD13RoundRect,0.218750X0.256250X-0.218750X0.256250X0.218750X-0.256250X0.218750X-0.256250X-0.218750X0*%
%ADD14RoundRect,0.225000X-0.250000X0.225000X-0.250000X-0.225000X0.250000X-0.225000X0.250000X0.225000X0*%
%ADD15RoundRect,0.082000X0.593000X-0.328000X0.593000X0.328000X-0.593000X0.328000X-0.593000X-0.328000X0*%
%ADD16FreePoly0,90.000000*%
%ADD17RoundRect,0.225000X0.250000X-0.225000X0.250000X0.225000X-0.250000X0.225000X-0.250000X-0.225000X0*%
%ADD18RoundRect,0.225000X-0.017678X0.335876X-0.335876X0.017678X0.017678X-0.335876X0.335876X-0.017678X0*%
%ADD19RoundRect,0.200000X0.335876X0.053033X0.053033X0.335876X-0.335876X-0.053033X-0.053033X-0.335876X0*%
%ADD20RoundRect,0.200000X-0.275000X0.200000X-0.275000X-0.200000X0.275000X-0.200000X0.275000X0.200000X0*%
%ADD21RotRect,1.400000X1.200000X315.000000*%
%ADD22R,1.100000X1.800000*%
%ADD23RoundRect,0.250000X-0.625000X0.375000X-0.625000X-0.375000X0.625000X-0.375000X0.625000X0.375000X0*%
%ADD24RoundRect,0.225000X0.335876X0.017678X0.017678X0.335876X-0.335876X-0.017678X-0.017678X-0.335876X0*%
%ADD25R,0.700000X1.000000*%
%ADD26R,0.700000X0.600000*%
%ADD27RoundRect,0.225000X-0.335876X-0.017678X-0.017678X-0.335876X0.335876X0.017678X0.017678X0.335876X0*%
%ADD28R,0.540000X1.100000*%
%ADD29R,0.300000X1.100000*%
%ADD30RoundRect,0.200000X0.053033X-0.335876X0.335876X-0.053033X-0.053033X0.335876X-0.335876X0.053033X0*%
%ADD31RoundRect,0.250000X0.388909X0.000000X0.000000X0.388909X-0.388909X0.000000X0.000000X-0.388909X0*%
%ADD32RoundRect,0.062500X0.380070X-0.291682X-0.291682X0.380070X-0.380070X0.291682X0.291682X-0.380070X0*%
%ADD33RoundRect,0.062500X0.380070X0.291682X0.291682X0.380070X-0.380070X-0.291682X-0.291682X-0.380070X0*%
%ADD34RoundRect,0.225000X0.017678X-0.335876X0.335876X-0.017678X-0.017678X0.335876X-0.335876X0.017678X0*%
G04 APERTURE END LIST*
D10*
%TO.C,K_T1*%
X163140000Y-117460000D03*
X176590000Y-114920000D03*
%TD*%
D11*
%TO.C,LED_R1*%
X154125000Y-125830000D03*
X154125000Y-124330000D03*
X148675000Y-125830000D03*
D12*
X148675000Y-124330000D03*
%TD*%
D13*
%TO.C,D13*%
X315600000Y-78787500D03*
X315600000Y-77212500D03*
%TD*%
%TO.C,D38*%
X234700000Y-121575000D03*
X234700000Y-120000000D03*
%TD*%
D10*
%TO.C,K_E1*%
X125040000Y-117460000D03*
X138490000Y-114920000D03*
%TD*%
%TO.C,K_pgUp1*%
X353640000Y-117460000D03*
X367090000Y-114920000D03*
%TD*%
D14*
%TO.C,C29*%
X193200000Y-105350000D03*
X193200000Y-106900000D03*
%TD*%
D15*
%TO.C,LED_quote1*%
X286875000Y-143430000D03*
X286875000Y-144930000D03*
X292325000Y-143430000D03*
D16*
X292325000Y-144930000D03*
%TD*%
D13*
%TO.C,D27*%
X301300000Y-102575000D03*
X301300000Y-101000000D03*
%TD*%
%TO.C,D52*%
X220400000Y-140575000D03*
X220400000Y-139000000D03*
%TD*%
%TO.C,D10*%
X258500000Y-78787500D03*
X258500000Y-77212500D03*
%TD*%
D17*
%TO.C,C64*%
X114600000Y-164000000D03*
X114600000Y-162450000D03*
%TD*%
D13*
%TO.C,D3*%
X115600000Y-78787500D03*
X115600000Y-77212500D03*
%TD*%
%TO.C,D78*%
X282300000Y-178775000D03*
X282300000Y-177200000D03*
%TD*%
D14*
%TO.C,C26*%
X136100000Y-105350000D03*
X136100000Y-106900000D03*
%TD*%
D10*
%TO.C,K_rightArrow1*%
X348840000Y-179360000D03*
X362290000Y-176820000D03*
%TD*%
D15*
%TO.C,LED_5*%
X158275000Y-105330000D03*
X158275000Y-106830000D03*
X163725000Y-105330000D03*
D16*
X163725000Y-106830000D03*
%TD*%
D18*
%TO.C,C5*%
X345180000Y-145930000D03*
X344083984Y-147026016D03*
%TD*%
D11*
%TO.C,LED_leftShift1*%
X80425000Y-164030000D03*
X80425000Y-162530000D03*
X74975000Y-164030000D03*
D12*
X74975000Y-162530000D03*
%TD*%
D13*
%TO.C,D23*%
X225100000Y-102587500D03*
X225100000Y-101012500D03*
%TD*%
D17*
%TO.C,C8*%
X71700000Y-82800000D03*
X71700000Y-81250000D03*
%TD*%
%TO.C,C69*%
X209800000Y-163900000D03*
X209800000Y-162350000D03*
%TD*%
D13*
%TO.C,D73*%
X75100000Y-178775000D03*
X75100000Y-177200000D03*
%TD*%
D10*
%TO.C,K_B1*%
X177440000Y-155560000D03*
X190890000Y-153020000D03*
%TD*%
D14*
%TO.C,C59*%
X245700000Y-143400000D03*
X245700000Y-144950000D03*
%TD*%
D17*
%TO.C,C49*%
X76600000Y-125800000D03*
X76600000Y-124250000D03*
%TD*%
D11*
%TO.C,LED_F5*%
X173225000Y-83030000D03*
X173225000Y-81530000D03*
X167775000Y-83030000D03*
D12*
X167775000Y-81530000D03*
%TD*%
D17*
%TO.C,C40*%
X252700000Y-125800000D03*
X252700000Y-124250000D03*
%TD*%
D13*
%TO.C,D70*%
X313200000Y-159675000D03*
X313200000Y-158100000D03*
%TD*%
%TO.C,D43*%
X334700000Y-121575000D03*
X334700000Y-120000000D03*
%TD*%
D17*
%TO.C,C73*%
X286000000Y-164000000D03*
X286000000Y-162450000D03*
%TD*%
D13*
%TO.C,D61*%
X134600000Y-159675000D03*
X134600000Y-158100000D03*
%TD*%
D19*
%TO.C,R2*%
X342300000Y-131800000D03*
X341133274Y-130633274D03*
%TD*%
D17*
%TO.C,C66*%
X152700000Y-163900000D03*
X152700000Y-162350000D03*
%TD*%
D13*
%TO.C,D81*%
X344200000Y-183487500D03*
X344200000Y-181912500D03*
%TD*%
D17*
%TO.C,C21*%
X355100000Y-106850000D03*
X355100000Y-105300000D03*
%TD*%
D13*
%TO.C,D74*%
X98900000Y-178787500D03*
X98900000Y-177212500D03*
%TD*%
D14*
%TO.C,C79*%
X181400000Y-181550000D03*
X181400000Y-183100000D03*
%TD*%
D17*
%TO.C,C67*%
X171800000Y-163900000D03*
X171800000Y-162350000D03*
%TD*%
D10*
%TO.C,K_G1*%
X167940000Y-136460000D03*
X181390000Y-133920000D03*
%TD*%
D14*
%TO.C,C31*%
X231200000Y-105350000D03*
X231200000Y-106900000D03*
%TD*%
D15*
%TO.C,LED_tilda1*%
X63075000Y-105330000D03*
X63075000Y-106830000D03*
X68525000Y-105330000D03*
D16*
X68525000Y-106830000D03*
%TD*%
D14*
%TO.C,C60*%
X264700000Y-143400000D03*
X264700000Y-144950000D03*
%TD*%
D13*
%TO.C,D80*%
X325100000Y-183575000D03*
X325100000Y-182000000D03*
%TD*%
D10*
%TO.C,K_I1*%
X220240000Y-117460000D03*
X233690000Y-114920000D03*
%TD*%
D13*
%TO.C,D44*%
X368000000Y-121575000D03*
X368000000Y-120000000D03*
%TD*%
D14*
%TO.C,C52*%
X112200000Y-143400000D03*
X112200000Y-144950000D03*
%TD*%
D10*
%TO.C,K_V1*%
X158440000Y-155560000D03*
X171890000Y-153020000D03*
%TD*%
D13*
%TO.C,D66*%
X229900000Y-159687500D03*
X229900000Y-158112500D03*
%TD*%
D14*
%TO.C,C27*%
X155000000Y-105350000D03*
X155000000Y-106900000D03*
%TD*%
D13*
%TO.C,D82*%
X363200000Y-183475000D03*
X363200000Y-181900000D03*
%TD*%
%TO.C,D60*%
X115600000Y-159675000D03*
X115600000Y-158100000D03*
%TD*%
D15*
%TO.C,LED_J1*%
X210675000Y-143330000D03*
X210675000Y-144830000D03*
X216125000Y-143330000D03*
D16*
X216125000Y-144830000D03*
%TD*%
D15*
%TO.C,LED_rightAlt1*%
X253475000Y-181530000D03*
X253475000Y-183030000D03*
X258925000Y-181530000D03*
D16*
X258925000Y-183030000D03*
%TD*%
D15*
%TO.C,LED_D1*%
X134475000Y-143430000D03*
X134475000Y-144930000D03*
X139925000Y-143430000D03*
D16*
X139925000Y-144930000D03*
%TD*%
D17*
%TO.C,C20*%
X314500000Y-83100000D03*
X314500000Y-81550000D03*
%TD*%
D15*
%TO.C,LED_4*%
X139175000Y-105330000D03*
X139175000Y-106830000D03*
X144625000Y-105330000D03*
D16*
X144625000Y-106830000D03*
%TD*%
D17*
%TO.C,C65*%
X133700000Y-163900000D03*
X133700000Y-162350000D03*
%TD*%
D10*
%TO.C,K_enter1*%
X313240000Y-136560000D03*
X326690000Y-134020000D03*
%TD*%
D14*
%TO.C,C87*%
X367000000Y-162400000D03*
X367000000Y-163950000D03*
%TD*%
D17*
%TO.C,C74*%
X312200000Y-163900000D03*
X312200000Y-162350000D03*
%TD*%
%TO.C,C46*%
X138400000Y-125800000D03*
X138400000Y-124250000D03*
%TD*%
D15*
%TO.C,LED_6*%
X177375000Y-105330000D03*
X177375000Y-106830000D03*
X182825000Y-105330000D03*
D16*
X182825000Y-106830000D03*
%TD*%
D15*
%TO.C,LED_equals1*%
X291575000Y-105330000D03*
X291575000Y-106830000D03*
X297025000Y-105330000D03*
D16*
X297025000Y-106830000D03*
%TD*%
D11*
%TO.C,LED_N1*%
X206525000Y-163930000D03*
X206525000Y-162430000D03*
X201075000Y-163930000D03*
D12*
X201075000Y-162430000D03*
%TD*%
D17*
%TO.C,C41*%
X233600000Y-125800000D03*
X233600000Y-124250000D03*
%TD*%
D10*
%TO.C,K_end1*%
X353640000Y-155560000D03*
X367090000Y-153020000D03*
%TD*%
D11*
%TO.C,LED_rightShift1*%
X308925000Y-163930000D03*
X308925000Y-162430000D03*
X303475000Y-163930000D03*
D12*
X303475000Y-162430000D03*
%TD*%
D11*
%TO.C,LED_P1*%
X268525000Y-125830000D03*
X268525000Y-124330000D03*
X263075000Y-125830000D03*
D12*
X263075000Y-124330000D03*
%TD*%
D10*
%TO.C,K_tilda1*%
X58440000Y-98460000D03*
X71890000Y-95920000D03*
%TD*%
D13*
%TO.C,D48*%
X144200000Y-140675000D03*
X144200000Y-139100000D03*
%TD*%
D11*
%TO.C,LED_F4*%
X149425000Y-82930000D03*
X149425000Y-81430000D03*
X143975000Y-82930000D03*
D12*
X143975000Y-81430000D03*
%TD*%
D11*
%TO.C,LED_upArrow1*%
X339925000Y-168730000D03*
X339925000Y-167230000D03*
X334475000Y-168730000D03*
D12*
X334475000Y-167230000D03*
%TD*%
D11*
%TO.C,LED_F6*%
X192325000Y-83030000D03*
X192325000Y-81530000D03*
X186875000Y-83030000D03*
D12*
X186875000Y-81530000D03*
%TD*%
D11*
%TO.C,LED_X1*%
X130325000Y-163930000D03*
X130325000Y-162430000D03*
X124875000Y-163930000D03*
D12*
X124875000Y-162430000D03*
%TD*%
D10*
%TO.C,K_rightAlt1*%
X248840000Y-174660000D03*
X262290000Y-172120000D03*
%TD*%
D11*
%TO.C,LED_esc1*%
X68425000Y-83030000D03*
X68425000Y-81530000D03*
X62975000Y-83030000D03*
D12*
X62975000Y-81530000D03*
%TD*%
D15*
%TO.C,LED_K1*%
X229675000Y-143430000D03*
X229675000Y-144930000D03*
X235125000Y-143430000D03*
D16*
X235125000Y-144930000D03*
%TD*%
D10*
%TO.C,K_7*%
X191740000Y-98460000D03*
X205190000Y-95920000D03*
%TD*%
%TO.C,K_A1*%
X91740000Y-136560000D03*
X105190000Y-134020000D03*
%TD*%
D14*
%TO.C,C22*%
X59900000Y-105300000D03*
X59900000Y-106850000D03*
%TD*%
%TO.C,C30*%
X212100000Y-105350000D03*
X212100000Y-106900000D03*
%TD*%
D10*
%TO.C,K_home1*%
X353640000Y-98460000D03*
X367090000Y-95920000D03*
%TD*%
%TO.C,K_space1*%
X179840000Y-174660000D03*
X193290000Y-172120000D03*
%TD*%
D11*
%TO.C,LED_F2*%
X111325000Y-83030000D03*
X111325000Y-81530000D03*
X105875000Y-83030000D03*
D12*
X105875000Y-81530000D03*
%TD*%
D17*
%TO.C,C39*%
X271900000Y-125800000D03*
X271900000Y-124250000D03*
%TD*%
%TO.C,C13*%
X176500000Y-83000000D03*
X176500000Y-81450000D03*
%TD*%
D11*
%TO.C,LED_F7*%
X211325000Y-83030000D03*
X211325000Y-81530000D03*
X205875000Y-83030000D03*
D12*
X205875000Y-81530000D03*
%TD*%
D13*
%TO.C,D33*%
X139400000Y-121575000D03*
X139400000Y-120000000D03*
%TD*%
D14*
%TO.C,C57*%
X207400000Y-143300000D03*
X207400000Y-144850000D03*
%TD*%
D18*
%TO.C,C4*%
X350200000Y-133600000D03*
X349103984Y-134696016D03*
%TD*%
D13*
%TO.C,D40*%
X272800000Y-121575000D03*
X272800000Y-120000000D03*
%TD*%
D11*
%TO.C,LED_Z1*%
X111325000Y-164030000D03*
X111325000Y-162530000D03*
X105875000Y-164030000D03*
D12*
X105875000Y-162530000D03*
%TD*%
D20*
%TO.C,R4*%
X355750000Y-81600000D03*
X355750000Y-83250000D03*
%TD*%
D15*
%TO.C,LED_minus1*%
X272525000Y-105310000D03*
X272525000Y-106810000D03*
X277975000Y-105310000D03*
D16*
X277975000Y-106810000D03*
%TD*%
D14*
%TO.C,C58*%
X226500000Y-143400000D03*
X226500000Y-144950000D03*
%TD*%
D10*
%TO.C,K_U1*%
X201240000Y-117460000D03*
X214690000Y-114920000D03*
%TD*%
D15*
%TO.C,LED_A1*%
X96375000Y-143430000D03*
X96375000Y-144930000D03*
X101825000Y-143430000D03*
D16*
X101825000Y-144930000D03*
%TD*%
D13*
%TO.C,D35*%
X177500000Y-121587500D03*
X177500000Y-120012500D03*
%TD*%
D14*
%TO.C,C84*%
X331400000Y-186250000D03*
X331400000Y-187800000D03*
%TD*%
%TO.C,C51*%
X93100000Y-143400000D03*
X93100000Y-144950000D03*
%TD*%
D21*
%TO.C,Y1*%
X337223223Y-141721142D03*
X338778858Y-143276777D03*
X337576777Y-144478858D03*
X336021142Y-142923223D03*
%TD*%
D13*
%TO.C,D16*%
X91800000Y-102587500D03*
X91800000Y-101012500D03*
%TD*%
D10*
%TO.C,K_leftAlt1*%
X108440000Y-174660000D03*
X121890000Y-172120000D03*
%TD*%
D15*
%TO.C,LED_H1*%
X191575000Y-143330000D03*
X191575000Y-144830000D03*
X197025000Y-143330000D03*
D16*
X197025000Y-144830000D03*
%TD*%
D13*
%TO.C,D6*%
X177500000Y-78787500D03*
X177500000Y-77212500D03*
%TD*%
D17*
%TO.C,C44*%
X176500000Y-125800000D03*
X176500000Y-124250000D03*
%TD*%
D13*
%TO.C,D57*%
X327500000Y-140675000D03*
X327500000Y-139100000D03*
%TD*%
D11*
%TO.C,LED_F11*%
X292325000Y-83030000D03*
X292325000Y-81530000D03*
X286875000Y-83030000D03*
D12*
X286875000Y-81530000D03*
%TD*%
D11*
%TO.C,LED_M1*%
X225625000Y-163930000D03*
X225625000Y-162430000D03*
X220175000Y-163930000D03*
D12*
X220175000Y-162430000D03*
%TD*%
D11*
%TO.C,LED_closeBracket1*%
X306625000Y-125830000D03*
X306625000Y-124330000D03*
X301175000Y-125830000D03*
D12*
X301175000Y-124330000D03*
%TD*%
D15*
%TO.C,LED_windows1*%
X89175000Y-181530000D03*
X89175000Y-183030000D03*
X94625000Y-181530000D03*
D16*
X94625000Y-183030000D03*
%TD*%
D17*
%TO.C,C48*%
X100300000Y-125800000D03*
X100300000Y-124250000D03*
%TD*%
D13*
%TO.C,D72*%
X368000000Y-159675000D03*
X368000000Y-158100000D03*
%TD*%
D10*
%TO.C,K_F2*%
X101240000Y-74660000D03*
X114690000Y-72120000D03*
%TD*%
D15*
%TO.C,LED_rightControl1*%
X291575000Y-181530000D03*
X291575000Y-183030000D03*
X297025000Y-181530000D03*
D16*
X297025000Y-183030000D03*
%TD*%
D13*
%TO.C,D58*%
X368000000Y-140687500D03*
X368000000Y-139112500D03*
%TD*%
%TO.C,D71*%
X344200000Y-164475000D03*
X344200000Y-162900000D03*
%TD*%
D17*
%TO.C,C37*%
X309900000Y-125800000D03*
X309900000Y-124250000D03*
%TD*%
D13*
%TO.C,D59*%
X84600000Y-159787500D03*
X84600000Y-158212500D03*
%TD*%
D10*
%TO.C,K_F3*%
X120340000Y-74660000D03*
X133790000Y-72120000D03*
%TD*%
D17*
%TO.C,C9*%
X95500000Y-83000000D03*
X95500000Y-81450000D03*
%TD*%
D10*
%TO.C,K_M1*%
X215540000Y-155560000D03*
X228990000Y-153020000D03*
%TD*%
D13*
%TO.C,D2*%
X96500000Y-78687500D03*
X96500000Y-77112500D03*
%TD*%
D10*
%TO.C,K_windows1*%
X84540000Y-174660000D03*
X97990000Y-172120000D03*
%TD*%
D14*
%TO.C,C32*%
X250200000Y-105350000D03*
X250200000Y-106900000D03*
%TD*%
D10*
%TO.C,K_R1*%
X144040000Y-117460000D03*
X157490000Y-114920000D03*
%TD*%
D13*
%TO.C,D22*%
X206100000Y-102575000D03*
X206100000Y-101000000D03*
%TD*%
D17*
%TO.C,C71*%
X248000000Y-163900000D03*
X248000000Y-162350000D03*
%TD*%
D14*
%TO.C,C76*%
X62200000Y-181550000D03*
X62200000Y-183100000D03*
%TD*%
D10*
%TO.C,K_2*%
X96440000Y-98460000D03*
X109890000Y-95920000D03*
%TD*%
%TO.C,K_leftShift1*%
X70340000Y-155660000D03*
X83790000Y-153120000D03*
%TD*%
D22*
%TO.C,SW1*%
X351050000Y-163300000D03*
X347350000Y-157100000D03*
X347350000Y-163300000D03*
X351050000Y-157100000D03*
%TD*%
D13*
%TO.C,D34*%
X158400000Y-121575000D03*
X158400000Y-120000000D03*
%TD*%
D10*
%TO.C,K_F1*%
X82140000Y-74660000D03*
X95590000Y-72120000D03*
%TD*%
D15*
%TO.C,LED_function1*%
X272475000Y-181530000D03*
X272475000Y-183030000D03*
X277925000Y-181530000D03*
D16*
X277925000Y-183030000D03*
%TD*%
D10*
%TO.C,K_9*%
X229840000Y-98460000D03*
X243290000Y-95920000D03*
%TD*%
D14*
%TO.C,C35*%
X317000000Y-105350000D03*
X317000000Y-106900000D03*
%TD*%
D15*
%TO.C,LED_3*%
X120175000Y-105330000D03*
X120175000Y-106830000D03*
X125625000Y-105330000D03*
D16*
X125625000Y-106830000D03*
%TD*%
D13*
%TO.C,D39*%
X253700000Y-121587500D03*
X253700000Y-120012500D03*
%TD*%
D15*
%TO.C,LED_7*%
X196375000Y-105330000D03*
X196375000Y-106830000D03*
X201825000Y-105330000D03*
D16*
X201825000Y-106830000D03*
%TD*%
D13*
%TO.C,D17*%
X110800000Y-102575000D03*
X110800000Y-101000000D03*
%TD*%
D10*
%TO.C,K_D1*%
X129840000Y-136560000D03*
X143290000Y-134020000D03*
%TD*%
D11*
%TO.C,LED_C1*%
X149435000Y-163870000D03*
X149435000Y-162370000D03*
X143985000Y-163870000D03*
D12*
X143985000Y-162370000D03*
%TD*%
D23*
%TO.C,F1*%
X350500000Y-81500000D03*
X350500000Y-84300000D03*
%TD*%
D11*
%TO.C,LED_F9*%
X254225000Y-83030000D03*
X254225000Y-81530000D03*
X248775000Y-83030000D03*
D12*
X248775000Y-81530000D03*
%TD*%
D10*
%TO.C,K_leftArrow1*%
X310740000Y-179360000D03*
X324190000Y-176820000D03*
%TD*%
D17*
%TO.C,C38*%
X290900000Y-125800000D03*
X290900000Y-124250000D03*
%TD*%
D13*
%TO.C,D62*%
X153700000Y-159575000D03*
X153700000Y-158000000D03*
%TD*%
D14*
%TO.C,C56*%
X188400000Y-143300000D03*
X188400000Y-144850000D03*
%TD*%
D10*
%TO.C,K_F11*%
X282240000Y-74660000D03*
X295690000Y-72120000D03*
%TD*%
%TO.C,K_period1*%
X253640000Y-155560000D03*
X267090000Y-153020000D03*
%TD*%
D14*
%TO.C,C33*%
X269300000Y-105325000D03*
X269300000Y-106875000D03*
%TD*%
D17*
%TO.C,C43*%
X195600000Y-125800000D03*
X195600000Y-124250000D03*
%TD*%
D10*
%TO.C,K_tab1*%
X63140000Y-117460000D03*
X76590000Y-114920000D03*
%TD*%
D13*
%TO.C,D76*%
X194200000Y-178775000D03*
X194200000Y-177200000D03*
%TD*%
%TO.C,D29*%
X368000000Y-102587500D03*
X368000000Y-101012500D03*
%TD*%
%TO.C,D50*%
X182300000Y-140575000D03*
X182300000Y-139000000D03*
%TD*%
D15*
%TO.C,LED_capsLock1*%
X70175000Y-143430000D03*
X70175000Y-144930000D03*
X75625000Y-143430000D03*
D16*
X75625000Y-144930000D03*
%TD*%
D15*
%TO.C,LED_downArrow1*%
X334475000Y-186230000D03*
X334475000Y-187730000D03*
X339925000Y-186230000D03*
D16*
X339925000Y-187730000D03*
%TD*%
D15*
%TO.C,LED_end1*%
X358275000Y-162430000D03*
X358275000Y-163930000D03*
X363725000Y-162430000D03*
D16*
X363725000Y-163930000D03*
%TD*%
D13*
%TO.C,D41*%
X291800000Y-121575000D03*
X291800000Y-120000000D03*
%TD*%
D24*
%TO.C,C6*%
X337348008Y-135148008D03*
X336251992Y-134051992D03*
%TD*%
D13*
%TO.C,D45*%
X79900000Y-140675000D03*
X79900000Y-139100000D03*
%TD*%
D11*
%TO.C,LED_E1*%
X135125000Y-125830000D03*
X135125000Y-124330000D03*
X129675000Y-125830000D03*
D12*
X129675000Y-124330000D03*
%TD*%
D17*
%TO.C,C15*%
X214500000Y-83000000D03*
X214500000Y-81450000D03*
%TD*%
%TO.C,C36*%
X333800000Y-125850000D03*
X333800000Y-124300000D03*
%TD*%
D10*
%TO.C,K_rightShift1*%
X298840000Y-155560000D03*
X312290000Y-153020000D03*
%TD*%
%TO.C,K_minus1*%
X267890000Y-98440000D03*
X281340000Y-95900000D03*
%TD*%
%TO.C,K_W1*%
X105940000Y-117460000D03*
X119390000Y-114920000D03*
%TD*%
%TO.C,K_5*%
X153640000Y-98460000D03*
X167090000Y-95920000D03*
%TD*%
D20*
%TO.C,R6*%
X358900000Y-77950000D03*
X358900000Y-79600000D03*
%TD*%
D10*
%TO.C,K_3*%
X115540000Y-98460000D03*
X128990000Y-95920000D03*
%TD*%
D14*
%TO.C,C28*%
X174100000Y-105350000D03*
X174100000Y-106900000D03*
%TD*%
%TO.C,C62*%
X314700000Y-143400000D03*
X314700000Y-144950000D03*
%TD*%
D10*
%TO.C,K_quote1*%
X282240000Y-136560000D03*
X295690000Y-134020000D03*
%TD*%
D13*
%TO.C,D30*%
X77500000Y-121587500D03*
X77500000Y-120012500D03*
%TD*%
%TO.C,D20*%
X168000000Y-102575000D03*
X168000000Y-101000000D03*
%TD*%
%TO.C,D14*%
X339400000Y-78775000D03*
X339400000Y-77200000D03*
%TD*%
D17*
%TO.C,C12*%
X152600000Y-82900000D03*
X152600000Y-81350000D03*
%TD*%
D15*
%TO.C,LED_pgUp1*%
X358275000Y-124330000D03*
X358275000Y-125830000D03*
X363725000Y-124330000D03*
D16*
X363725000Y-125830000D03*
%TD*%
D10*
%TO.C,K_F7*%
X201240000Y-74660000D03*
X214690000Y-72120000D03*
%TD*%
%TO.C,K_K1*%
X225040000Y-136560000D03*
X238490000Y-134020000D03*
%TD*%
D13*
%TO.C,D69*%
X287000000Y-159675000D03*
X287000000Y-158100000D03*
%TD*%
D10*
%TO.C,K_comma1*%
X234640000Y-155560000D03*
X248090000Y-153020000D03*
%TD*%
D11*
%TO.C,LED_Q1*%
X97025000Y-125830000D03*
X97025000Y-124330000D03*
X91575000Y-125830000D03*
D12*
X91575000Y-124330000D03*
%TD*%
D15*
%TO.C,LED_colon1*%
X267875000Y-143430000D03*
X267875000Y-144930000D03*
X273325000Y-143430000D03*
D16*
X273325000Y-144930000D03*
%TD*%
D10*
%TO.C,K_1*%
X77440000Y-98460000D03*
X90890000Y-95920000D03*
%TD*%
%TO.C,K_4*%
X134540000Y-98460000D03*
X147990000Y-95920000D03*
%TD*%
D17*
%TO.C,C19*%
X295500000Y-83100000D03*
X295500000Y-81550000D03*
%TD*%
D13*
%TO.C,D8*%
X215600000Y-78800000D03*
X215600000Y-77225000D03*
%TD*%
D10*
%TO.C,K_0*%
X248840000Y-98460000D03*
X262290000Y-95920000D03*
%TD*%
%TO.C,K_L1*%
X244140000Y-136560000D03*
X257590000Y-134020000D03*
%TD*%
D17*
%TO.C,C18*%
X276500000Y-82850000D03*
X276500000Y-81300000D03*
%TD*%
D14*
%TO.C,C83*%
X312200000Y-186250000D03*
X312200000Y-187800000D03*
%TD*%
D13*
%TO.C,D37*%
X215600000Y-121575000D03*
X215600000Y-120000000D03*
%TD*%
D17*
%TO.C,C63*%
X83700000Y-164000000D03*
X83700000Y-162450000D03*
%TD*%
D10*
%TO.C,K_closeBracket1*%
X296540000Y-117460000D03*
X309990000Y-114920000D03*
%TD*%
D13*
%TO.C,D15*%
X72700000Y-102575000D03*
X72700000Y-101000000D03*
%TD*%
%TO.C,D9*%
X234700000Y-78775000D03*
X234700000Y-77200000D03*
%TD*%
%TO.C,D77*%
X263200000Y-178775000D03*
X263200000Y-177200000D03*
%TD*%
%TO.C,D25*%
X263200000Y-102587500D03*
X263200000Y-101012500D03*
%TD*%
D15*
%TO.C,LED_9*%
X234475000Y-105330000D03*
X234475000Y-106830000D03*
X239925000Y-105330000D03*
D16*
X239925000Y-106830000D03*
%TD*%
D25*
%TO.C,U2*%
X355750000Y-78360000D03*
D26*
X355750000Y-80060000D03*
X353750000Y-80060000D03*
X353750000Y-78160000D03*
%TD*%
D10*
%TO.C,K_Y1*%
X182240000Y-117460000D03*
X195690000Y-114920000D03*
%TD*%
D17*
%TO.C,C45*%
X157400000Y-125800000D03*
X157400000Y-124250000D03*
%TD*%
D13*
%TO.C,D7*%
X196600000Y-78787500D03*
X196600000Y-77212500D03*
%TD*%
%TO.C,D53*%
X239400000Y-140675000D03*
X239400000Y-139100000D03*
%TD*%
D10*
%TO.C,K_backSlash1*%
X320340000Y-117460000D03*
X333790000Y-114920000D03*
%TD*%
D14*
%TO.C,C54*%
X150400000Y-143300000D03*
X150400000Y-144850000D03*
%TD*%
D17*
%TO.C,C14*%
X195500000Y-83000000D03*
X195500000Y-81450000D03*
%TD*%
D13*
%TO.C,D24*%
X244200000Y-102575000D03*
X244200000Y-101000000D03*
%TD*%
D27*
%TO.C,C3*%
X348003984Y-142203984D03*
X349100000Y-143300000D03*
%TD*%
D14*
%TO.C,C25*%
X117000000Y-105350000D03*
X117000000Y-106900000D03*
%TD*%
D11*
%TO.C,LED_F1*%
X92225000Y-83030000D03*
X92225000Y-81530000D03*
X86775000Y-83030000D03*
D12*
X86775000Y-81530000D03*
%TD*%
D10*
%TO.C,K_upArrow1*%
X329840000Y-160360000D03*
X343290000Y-157820000D03*
%TD*%
D13*
%TO.C,D75*%
X122700000Y-178787500D03*
X122700000Y-177212500D03*
%TD*%
D15*
%TO.C,LED_backspace1*%
X320175000Y-105330000D03*
X320175000Y-106830000D03*
X325625000Y-105330000D03*
D16*
X325625000Y-106830000D03*
%TD*%
D11*
%TO.C,LED_T1*%
X173225000Y-125830000D03*
X173225000Y-124330000D03*
X167775000Y-125830000D03*
D12*
X167775000Y-124330000D03*
%TD*%
D13*
%TO.C,D11*%
X277500000Y-78687500D03*
X277500000Y-77112500D03*
%TD*%
%TO.C,D63*%
X172800000Y-159687500D03*
X172800000Y-158112500D03*
%TD*%
%TO.C,D4*%
X134600000Y-78775000D03*
X134600000Y-77200000D03*
%TD*%
D20*
%TO.C,R3*%
X353750000Y-81600000D03*
X353750000Y-83250000D03*
%TD*%
D14*
%TO.C,C55*%
X169500000Y-143325000D03*
X169500000Y-144875000D03*
%TD*%
D13*
%TO.C,D49*%
X163200000Y-140600000D03*
X163200000Y-139025000D03*
%TD*%
D10*
%TO.C,K_S1*%
X110740000Y-136560000D03*
X124190000Y-134020000D03*
%TD*%
D13*
%TO.C,D46*%
X106100000Y-140675000D03*
X106100000Y-139100000D03*
%TD*%
D15*
%TO.C,LED_0*%
X253475000Y-105330000D03*
X253475000Y-106830000D03*
X258925000Y-105330000D03*
D16*
X258925000Y-106830000D03*
%TD*%
D11*
%TO.C,LED_F8*%
X230325000Y-83030000D03*
X230325000Y-81530000D03*
X224875000Y-83030000D03*
D12*
X224875000Y-81530000D03*
%TD*%
D10*
%TO.C,K_F4*%
X139340000Y-74560000D03*
X152790000Y-72020000D03*
%TD*%
D11*
%TO.C,LED_period1*%
X263725000Y-163930000D03*
X263725000Y-162430000D03*
X258275000Y-163930000D03*
D12*
X258275000Y-162430000D03*
%TD*%
D28*
%TO.C,J1*%
X351510000Y-75202500D03*
X352260000Y-75202500D03*
D29*
X353460000Y-75202500D03*
X354460000Y-75202500D03*
X354960000Y-75202500D03*
X355960000Y-75202500D03*
D28*
X357160000Y-75202500D03*
X357910000Y-75202500D03*
X357910000Y-75202500D03*
X357160000Y-75202500D03*
D29*
X356460000Y-75202500D03*
X355460000Y-75202500D03*
X353960000Y-75202500D03*
X352960000Y-75202500D03*
D28*
X352260000Y-75202500D03*
X351510000Y-75202500D03*
%TD*%
D14*
%TO.C,C81*%
X269400000Y-181550000D03*
X269400000Y-183100000D03*
%TD*%
%TO.C,C82*%
X288500000Y-181550000D03*
X288500000Y-183100000D03*
%TD*%
D10*
%TO.C,K_Z1*%
X101240000Y-155560000D03*
X114690000Y-153020000D03*
%TD*%
D11*
%TO.C,LED_O1*%
X249425000Y-125830000D03*
X249425000Y-124330000D03*
X243975000Y-125830000D03*
D12*
X243975000Y-124330000D03*
%TD*%
D10*
%TO.C,K_Q1*%
X86940000Y-117460000D03*
X100390000Y-114920000D03*
%TD*%
%TO.C,K_downArrow1*%
X329840000Y-179360000D03*
X343290000Y-176820000D03*
%TD*%
D13*
%TO.C,D21*%
X187000000Y-102587500D03*
X187000000Y-101012500D03*
%TD*%
D10*
%TO.C,K_function1*%
X267840000Y-174660000D03*
X281290000Y-172120000D03*
%TD*%
%TO.C,K_F13*%
X148940000Y-136460000D03*
X162390000Y-133920000D03*
%TD*%
D14*
%TO.C,C61*%
X283700000Y-143400000D03*
X283700000Y-144950000D03*
%TD*%
D13*
%TO.C,D68*%
X268000000Y-159675000D03*
X268000000Y-158100000D03*
%TD*%
D11*
%TO.C,LED_W1*%
X116025000Y-125830000D03*
X116025000Y-124330000D03*
X110575000Y-125830000D03*
D12*
X110575000Y-124330000D03*
%TD*%
D17*
%TO.C,C17*%
X257500000Y-82900000D03*
X257500000Y-81350000D03*
%TD*%
D13*
%TO.C,D36*%
X196600000Y-121587500D03*
X196600000Y-120012500D03*
%TD*%
D10*
%TO.C,K_colon1*%
X263240000Y-136560000D03*
X276690000Y-134020000D03*
%TD*%
D13*
%TO.C,D28*%
X329900000Y-102687500D03*
X329900000Y-101112500D03*
%TD*%
D17*
%TO.C,C70*%
X228900000Y-163900000D03*
X228900000Y-162350000D03*
%TD*%
D13*
%TO.C,D55*%
X277500000Y-140687500D03*
X277500000Y-139112500D03*
%TD*%
D10*
%TO.C,K_F8*%
X220240000Y-74660000D03*
X233690000Y-72120000D03*
%TD*%
D13*
%TO.C,D1*%
X72700000Y-78987500D03*
X72700000Y-77412500D03*
%TD*%
D10*
%TO.C,K_6*%
X172740000Y-98460000D03*
X186190000Y-95920000D03*
%TD*%
D14*
%TO.C,C86*%
X362200000Y-186200000D03*
X362200000Y-187750000D03*
%TD*%
D13*
%TO.C,D32*%
X120400000Y-121575000D03*
X120400000Y-120000000D03*
%TD*%
D15*
%TO.C,LED_leftAlt1*%
X113075000Y-181530000D03*
X113075000Y-183030000D03*
X118525000Y-181530000D03*
D16*
X118525000Y-183030000D03*
%TD*%
D17*
%TO.C,C16*%
X233500000Y-83000000D03*
X233500000Y-81450000D03*
%TD*%
D13*
%TO.C,D67*%
X249000000Y-159687500D03*
X249000000Y-158112500D03*
%TD*%
D10*
%TO.C,K_C1*%
X139350000Y-155500000D03*
X152800000Y-152960000D03*
%TD*%
%TO.C,K_rightControl1*%
X286940000Y-174660000D03*
X300390000Y-172120000D03*
%TD*%
D11*
%TO.C,LED_B1*%
X187525000Y-163930000D03*
X187525000Y-162430000D03*
X182075000Y-163930000D03*
D12*
X182075000Y-162430000D03*
%TD*%
D10*
%TO.C,K_F10*%
X263240000Y-74560000D03*
X276690000Y-72020000D03*
%TD*%
D17*
%TO.C,C10*%
X114600000Y-83000000D03*
X114600000Y-81450000D03*
%TD*%
D15*
%TO.C,LED_L1*%
X248775000Y-143430000D03*
X248775000Y-144930000D03*
X254225000Y-143430000D03*
D16*
X254225000Y-144930000D03*
%TD*%
D10*
%TO.C,K_J1*%
X206040000Y-136460000D03*
X219490000Y-133920000D03*
%TD*%
%TO.C,K_X1*%
X120240000Y-155560000D03*
X133690000Y-153020000D03*
%TD*%
D11*
%TO.C,LED_F10*%
X273325000Y-82930000D03*
X273325000Y-81430000D03*
X267875000Y-82930000D03*
D12*
X267875000Y-81430000D03*
%TD*%
D11*
%TO.C,LED_Y1*%
X192325000Y-125830000D03*
X192325000Y-124330000D03*
X186875000Y-125830000D03*
D12*
X186875000Y-124330000D03*
%TD*%
D11*
%TO.C,LED_V1*%
X168525000Y-163930000D03*
X168525000Y-162430000D03*
X163075000Y-163930000D03*
D12*
X163075000Y-162430000D03*
%TD*%
D13*
%TO.C,D42*%
X310900000Y-121575000D03*
X310900000Y-120000000D03*
%TD*%
D11*
%TO.C,LED_I1*%
X230325000Y-125830000D03*
X230325000Y-124330000D03*
X224875000Y-125830000D03*
D12*
X224875000Y-124330000D03*
%TD*%
D10*
%TO.C,K_leftControl1*%
X60740000Y-174660000D03*
X74190000Y-172120000D03*
%TD*%
D15*
%TO.C,LED_space1*%
X184475000Y-181530000D03*
X184475000Y-183030000D03*
X189925000Y-181530000D03*
D16*
X189925000Y-183030000D03*
%TD*%
D10*
%TO.C,K_P1*%
X258440000Y-117460000D03*
X271890000Y-114920000D03*
%TD*%
D14*
%TO.C,C34*%
X288400000Y-105350000D03*
X288400000Y-106900000D03*
%TD*%
D13*
%TO.C,D79*%
X301300000Y-178787500D03*
X301300000Y-177212500D03*
%TD*%
D20*
%TO.C,R5*%
X350600000Y-77900000D03*
X350600000Y-79550000D03*
%TD*%
D17*
%TO.C,C72*%
X267000000Y-163900000D03*
X267000000Y-162350000D03*
%TD*%
D13*
%TO.C,D19*%
X148900000Y-102575000D03*
X148900000Y-101000000D03*
%TD*%
D15*
%TO.C,LED_leftControl1*%
X65375000Y-181530000D03*
X65375000Y-183030000D03*
X70825000Y-181530000D03*
D16*
X70825000Y-183030000D03*
%TD*%
D17*
%TO.C,C47*%
X119400000Y-125800000D03*
X119400000Y-124250000D03*
%TD*%
D14*
%TO.C,C88*%
X367000000Y-143350000D03*
X367000000Y-144900000D03*
%TD*%
D10*
%TO.C,K_questionMark1*%
X272650000Y-155600000D03*
X286100000Y-153060000D03*
%TD*%
D17*
%TO.C,C68*%
X190800000Y-163900000D03*
X190800000Y-162350000D03*
%TD*%
D10*
%TO.C,K_backspace1*%
X315540000Y-98460000D03*
X328990000Y-95920000D03*
%TD*%
D15*
%TO.C,LED_8*%
X215375000Y-105330000D03*
X215375000Y-106830000D03*
X220825000Y-105330000D03*
D16*
X220825000Y-106830000D03*
%TD*%
D11*
%TO.C,LED_openBracket1*%
X287625000Y-125830000D03*
X287625000Y-124330000D03*
X282175000Y-125830000D03*
D12*
X282175000Y-124330000D03*
%TD*%
D10*
%TO.C,K_F6*%
X182240000Y-74660000D03*
X195690000Y-72120000D03*
%TD*%
D30*
%TO.C,R1*%
X345163274Y-148186726D03*
X346330000Y-147020000D03*
%TD*%
D13*
%TO.C,D26*%
X282300000Y-102575000D03*
X282300000Y-101000000D03*
%TD*%
D14*
%TO.C,C53*%
X131300000Y-143400000D03*
X131300000Y-144950000D03*
%TD*%
D18*
%TO.C,C1*%
X335200000Y-139800000D03*
X334103984Y-140896016D03*
%TD*%
D11*
%TO.C,LED_home1*%
X363725000Y-106830000D03*
X363725000Y-105330000D03*
X358275000Y-106830000D03*
D12*
X358275000Y-105330000D03*
%TD*%
D10*
%TO.C,K_openBracket1*%
X277540000Y-117460000D03*
X290990000Y-114920000D03*
%TD*%
D14*
%TO.C,C24*%
X97900000Y-105400000D03*
X97900000Y-106950000D03*
%TD*%
D10*
%TO.C,K_O1*%
X239340000Y-117460000D03*
X252790000Y-114920000D03*
%TD*%
%TO.C,K_H1*%
X186940000Y-136460000D03*
X200390000Y-133920000D03*
%TD*%
%TO.C,K_N1*%
X196440000Y-155560000D03*
X209890000Y-153020000D03*
%TD*%
D31*
%TO.C,U1*%
X345338478Y-136780761D03*
X343500000Y-136780761D03*
X344419239Y-137700000D03*
X345338478Y-138619239D03*
X344419239Y-135861522D03*
X342580761Y-135861522D03*
X344419239Y-139538478D03*
X343500000Y-134942284D03*
X341661522Y-138619239D03*
X343500000Y-140457716D03*
X340742284Y-137700000D03*
X346257716Y-137700000D03*
X343500000Y-138619239D03*
X342580761Y-139538478D03*
X341661522Y-136780761D03*
X342580761Y-137700000D03*
D32*
X347627736Y-138292202D03*
X347274182Y-138645755D03*
X346920629Y-138999309D03*
X346567076Y-139352862D03*
X346213522Y-139706415D03*
X345859969Y-140059969D03*
X345506415Y-140413522D03*
X345152862Y-140767076D03*
X344799309Y-141120629D03*
X344445755Y-141474182D03*
X344092202Y-141827736D03*
D33*
X342907798Y-141827736D03*
X342554245Y-141474182D03*
X342200691Y-141120629D03*
X341847138Y-140767076D03*
X341493585Y-140413522D03*
X341140031Y-140059969D03*
X340786478Y-139706415D03*
X340432924Y-139352862D03*
X340079371Y-138999309D03*
X339725818Y-138645755D03*
X339372264Y-138292202D03*
D32*
X339372264Y-137107798D03*
X339725818Y-136754245D03*
X340079371Y-136400691D03*
X340432924Y-136047138D03*
X340786478Y-135693585D03*
X341140031Y-135340031D03*
X341493585Y-134986478D03*
X341847138Y-134632924D03*
X342200691Y-134279371D03*
X342554245Y-133925818D03*
X342907798Y-133572264D03*
D33*
X344092202Y-133572264D03*
X344445755Y-133925818D03*
X344799309Y-134279371D03*
X345152862Y-134632924D03*
X345506415Y-134986478D03*
X345859969Y-135340031D03*
X346213522Y-135693585D03*
X346567076Y-136047138D03*
X346920629Y-136400691D03*
X347274182Y-136754245D03*
X347627736Y-137107798D03*
%TD*%
D14*
%TO.C,C77*%
X86200000Y-181525000D03*
X86200000Y-183075000D03*
%TD*%
D17*
%TO.C,C42*%
X214600000Y-125800000D03*
X214600000Y-124250000D03*
%TD*%
D15*
%TO.C,LED_1*%
X82075000Y-105330000D03*
X82075000Y-106830000D03*
X87525000Y-105330000D03*
D16*
X87525000Y-106830000D03*
%TD*%
D10*
%TO.C,K_F9*%
X244140000Y-74660000D03*
X257590000Y-72120000D03*
%TD*%
%TO.C,K_F5*%
X163140000Y-74660000D03*
X176590000Y-72120000D03*
%TD*%
D15*
%TO.C,LED_G1*%
X172575000Y-143330000D03*
X172575000Y-144830000D03*
X178025000Y-143330000D03*
D16*
X178025000Y-144830000D03*
%TD*%
D11*
%TO.C,LED_tab1*%
X73225000Y-125830000D03*
X73225000Y-124330000D03*
X67775000Y-125830000D03*
D12*
X67775000Y-124330000D03*
%TD*%
D10*
%TO.C,K_capsLock1*%
X65540000Y-136560000D03*
X78990000Y-134020000D03*
%TD*%
D15*
%TO.C,LED_F13*%
X153575000Y-143330000D03*
X153575000Y-144830000D03*
X159025000Y-143330000D03*
D16*
X159025000Y-144830000D03*
%TD*%
D10*
%TO.C,K_delete1*%
X325040000Y-74660000D03*
X338490000Y-72120000D03*
%TD*%
D15*
%TO.C,LED_leftArrow1*%
X315375000Y-186230000D03*
X315375000Y-187730000D03*
X320825000Y-186230000D03*
D16*
X320825000Y-187730000D03*
%TD*%
D14*
%TO.C,C78*%
X110000000Y-181550000D03*
X110000000Y-183100000D03*
%TD*%
D13*
%TO.C,D54*%
X258500000Y-140675000D03*
X258500000Y-139100000D03*
%TD*%
D11*
%TO.C,LED_comma1*%
X244725000Y-163930000D03*
X244725000Y-162430000D03*
X239275000Y-163930000D03*
D12*
X239275000Y-162430000D03*
%TD*%
D13*
%TO.C,D56*%
X296600000Y-140687500D03*
X296600000Y-139112500D03*
%TD*%
D11*
%TO.C,LED_F12*%
X311325000Y-83030000D03*
X311325000Y-81530000D03*
X305875000Y-83030000D03*
D12*
X305875000Y-81530000D03*
%TD*%
D11*
%TO.C,LED_F3*%
X130525000Y-82930000D03*
X130525000Y-81430000D03*
X125075000Y-82930000D03*
D12*
X125075000Y-81430000D03*
%TD*%
D15*
%TO.C,LED_enter1*%
X317875000Y-143430000D03*
X317875000Y-144930000D03*
X323325000Y-143430000D03*
D16*
X323325000Y-144930000D03*
%TD*%
D15*
%TO.C,LED_rightArrow1*%
X353475000Y-186230000D03*
X353475000Y-187730000D03*
X358925000Y-186230000D03*
D16*
X358925000Y-187730000D03*
%TD*%
D15*
%TO.C,LED_S1*%
X115375000Y-143430000D03*
X115375000Y-144930000D03*
X120825000Y-143430000D03*
D16*
X120825000Y-144930000D03*
%TD*%
D10*
%TO.C,K_F12*%
X301240000Y-74660000D03*
X314690000Y-72120000D03*
%TD*%
D17*
%TO.C,C11*%
X133800000Y-82900000D03*
X133800000Y-81350000D03*
%TD*%
D14*
%TO.C,C23*%
X79000000Y-105300000D03*
X79000000Y-106850000D03*
%TD*%
D13*
%TO.C,D31*%
X101300000Y-121587500D03*
X101300000Y-120012500D03*
%TD*%
D10*
%TO.C,K_esc1*%
X58340000Y-74660000D03*
X71790000Y-72120000D03*
%TD*%
D13*
%TO.C,D47*%
X125100000Y-140775000D03*
X125100000Y-139200000D03*
%TD*%
D10*
%TO.C,K_equals1*%
X286940000Y-98460000D03*
X300390000Y-95920000D03*
%TD*%
D13*
%TO.C,D64*%
X191800000Y-159775000D03*
X191800000Y-158200000D03*
%TD*%
D11*
%TO.C,LED_U1*%
X211325000Y-125830000D03*
X211325000Y-124330000D03*
X205875000Y-125830000D03*
D12*
X205875000Y-124330000D03*
%TD*%
D24*
%TO.C,C7*%
X343600000Y-130400000D03*
X342503984Y-129303984D03*
%TD*%
D11*
%TO.C,LED_delete1*%
X335125000Y-83030000D03*
X335125000Y-81530000D03*
X329675000Y-83030000D03*
D12*
X329675000Y-81530000D03*
%TD*%
D14*
%TO.C,C89*%
X367000000Y-124300000D03*
X367000000Y-125850000D03*
%TD*%
D13*
%TO.C,D51*%
X201300000Y-140587500D03*
X201300000Y-139012500D03*
%TD*%
%TO.C,D18*%
X129900000Y-102575000D03*
X129900000Y-101000000D03*
%TD*%
D10*
%TO.C,K_pgDown1*%
X353640000Y-136560000D03*
X367090000Y-134020000D03*
%TD*%
D11*
%TO.C,LED_backslash1*%
X330425000Y-125830000D03*
X330425000Y-124330000D03*
X324975000Y-125830000D03*
D12*
X324975000Y-124330000D03*
%TD*%
D11*
%TO.C,LED_questionMark1*%
X282735000Y-163970000D03*
X282735000Y-162470000D03*
X277285000Y-163970000D03*
D12*
X277285000Y-162470000D03*
%TD*%
D15*
%TO.C,LED_2*%
X101075000Y-105330000D03*
X101075000Y-106830000D03*
X106525000Y-105330000D03*
D16*
X106525000Y-106830000D03*
%TD*%
D34*
%TO.C,C2*%
X339503984Y-146296016D03*
X340600000Y-145200000D03*
%TD*%
D10*
%TO.C,K_8*%
X210740000Y-98460000D03*
X224190000Y-95920000D03*
%TD*%
D14*
%TO.C,C50*%
X67000000Y-143400000D03*
X67000000Y-144950000D03*
%TD*%
D13*
%TO.C,D12*%
X296600000Y-78787500D03*
X296600000Y-77212500D03*
%TD*%
D14*
%TO.C,C85*%
X350300000Y-186250000D03*
X350300000Y-187800000D03*
%TD*%
D13*
%TO.C,D65*%
X210800000Y-159675000D03*
X210800000Y-158100000D03*
%TD*%
D17*
%TO.C,C75*%
X343200000Y-168700000D03*
X343200000Y-167150000D03*
%TD*%
D15*
%TO.C,LED_pgDn1*%
X358275000Y-143430000D03*
X358275000Y-144930000D03*
X363725000Y-143430000D03*
D16*
X363725000Y-144930000D03*
%TD*%
D14*
%TO.C,C80*%
X250400000Y-181550000D03*
X250400000Y-183100000D03*
%TD*%
D13*
%TO.C,D5*%
X153700000Y-78700000D03*
X153700000Y-77125000D03*
%TD*%
M02*
