M48
; DRILL file {KiCad (6.0.6)} date Mon Aug  8 11:29:22 2022
; FORMAT={-:-/ absolute / inch / decimal}
; #@! TF.CreationDate,2022-08-08T11:29:22-04:00
; #@! TF.GenerationSoftware,Kicad,Pcbnew,(6.0.6)
; #@! TF.FileFunction,NonPlated,1,2,NPTH
FMAT,2
INCH
; #@! TA.AperFunction,NonPlated,NPTH,ComponentDrill
T1C0.0256
; #@! TA.AperFunction,NonPlated,NPTH,ComponentDrill
T2C0.0689
; #@! TA.AperFunction,NonPlated,NPTH,ComponentDrill
T3C0.1200
; #@! TA.AperFunction,NonPlated,NPTH,ComponentDrill
T4C0.1570
%
G90
G05
T1
X13.8173Y-2.9135
X14.1126Y-2.9135
T2
X2.3866Y-3.0394
X2.3906Y-3.9764
X2.4811Y-6.9764
X2.5756Y-4.7244
X2.6701Y-5.4764
X2.7866Y-3.0394
X2.7906Y-3.9764
X2.8591Y-6.2283
X2.8811Y-6.9764
X2.9756Y-4.7244
X3.0701Y-5.4764
X3.1386Y-3.9764
X3.2591Y-6.2283
X3.3236Y-3.0394
X3.4181Y-6.9764
X3.5126Y-4.7244
X3.5386Y-3.9764
X3.7016Y-5.4764
X3.7236Y-3.0394
X3.8181Y-6.9764
X3.8866Y-3.9764
X3.9126Y-4.7244
X4.0756Y-3.0394
X4.0756Y-6.2244
X4.1016Y-5.4764
X4.2606Y-4.7244
X4.2866Y-3.9764
X4.3591Y-6.9764
X4.4496Y-5.4764
X4.4756Y-3.0394
X4.4756Y-6.2244
X4.6386Y-3.9764
X4.6606Y-4.7244
X4.7591Y-6.9764
X4.8236Y-6.2244
X4.8276Y-3.0394
X4.8496Y-5.4764
X5.0126Y-4.7244
X5.0386Y-3.9764
X5.2016Y-5.4764
X5.2236Y-6.2244
X5.2276Y-3.0394
X5.3866Y-3.9764
X5.4126Y-4.7244
X5.5756Y-3.0354
X5.576Y-6.222
X5.6016Y-5.4764
X5.7606Y-4.7244
X5.7866Y-3.9764
X5.9535Y-5.4724
X5.9756Y-3.0354
X5.976Y-6.222
X6.1386Y-3.9764
X6.1606Y-4.7244
X6.3276Y-6.2244
X6.3535Y-5.4724
X6.5126Y-3.0394
X6.5126Y-4.7244
X6.5386Y-3.9764
X6.7016Y-5.4724
X6.7276Y-6.2244
X6.8906Y-3.9764
X6.9126Y-3.0394
X6.9126Y-4.7244
X7.0756Y-6.2244
X7.1016Y-5.4724
X7.1701Y-6.9764
X7.2646Y-3.0394
X7.2646Y-4.7244
X7.2906Y-3.9764
X7.4496Y-5.4724
X7.4756Y-6.2244
X7.5701Y-6.9764
X7.6386Y-3.9764
X7.6646Y-3.0394
X7.6646Y-4.7244
X7.8236Y-6.2244
X7.8496Y-5.4724
X8.0126Y-3.0394
X8.0126Y-4.7244
X8.0386Y-3.9764
X8.2016Y-5.4724
X8.2236Y-6.2244
X8.3866Y-3.9764
X8.4126Y-3.0394
X8.4126Y-4.7244
X8.5756Y-6.2244
X8.6016Y-5.4724
X8.7606Y-3.0394
X8.7606Y-4.7244
X8.7866Y-3.9764
X8.9496Y-5.4764
X8.9756Y-6.2244
X9.1386Y-3.9764
X9.1606Y-3.0394
X9.1606Y-4.7244
X9.3276Y-6.2244
X9.3496Y-5.4764
X9.5126Y-4.7244
X9.5386Y-3.9764
X9.7016Y-3.0394
X9.7016Y-5.4764
X9.7276Y-6.2244
X9.8866Y-3.9764
X9.8866Y-6.9764
X9.9126Y-4.7244
X10.0756Y-6.2244
X10.1016Y-3.0394
X10.1016Y-5.4764
X10.2646Y-4.7244
X10.2866Y-3.9764
X10.2866Y-6.9764
X10.4535Y-3.0354
X10.4535Y-5.4764
X10.4756Y-6.2244
X10.6346Y-6.9764
X10.6366Y-3.9756
X10.6646Y-4.7244
X10.824Y-6.226
X10.8535Y-3.0354
X10.8535Y-5.4764
X11.0165Y-4.7244
X11.0346Y-6.9764
X11.0366Y-3.9756
X11.2016Y-3.0394
X11.2016Y-5.4764
X11.224Y-6.226
X11.3866Y-3.9764
X11.3866Y-6.9764
X11.4165Y-4.7244
X11.6016Y-3.0394
X11.6016Y-5.4764
X11.7646Y-4.7244
X11.7866Y-3.9764
X11.7866Y-6.9764
X11.8551Y-6.2244
X11.9496Y-3.0394
X12.1646Y-4.7244
X12.2551Y-6.2244
X12.3236Y-7.1614
X12.3496Y-3.0394
X12.422Y-5.4764
X12.5126Y-3.9764
X12.7016Y-4.7244
X12.7236Y-7.1614
X12.822Y-5.4764
X12.8866Y-3.0394
X12.9126Y-3.9764
X13.0756Y-6.4134
X13.0756Y-7.1614
X13.1016Y-4.7244
X13.2866Y-3.0394
X13.4756Y-6.4134
X13.4756Y-7.1614
X13.8236Y-7.1614
X14.0126Y-3.9764
X14.0126Y-4.7244
X14.0126Y-5.4764
X14.0126Y-6.2244
X14.2236Y-7.1614
X14.4126Y-3.9764
X14.4126Y-4.7244
X14.4126Y-5.4764
X14.4126Y-6.2244
T3
X2.5903Y-5.9533
X3.5278Y-5.9533
X12.1533Y-5.2014
X12.2438Y-3.7014
X13.0908Y-5.2014
X13.1813Y-3.7014
T4
X2.5866Y-3.0394
X2.5903Y-6.5533
X2.5906Y-3.9764
X2.6811Y-6.9764
X2.7756Y-4.7244
X2.8701Y-5.4764
X3.0591Y-6.2283
X3.3386Y-3.9764
X3.5236Y-3.0394
X3.5278Y-6.5533
X3.6181Y-6.9764
X3.7126Y-4.7244
X3.9016Y-5.4764
X4.0866Y-3.9764
X4.2756Y-3.0394
X4.2756Y-6.2244
X4.4606Y-4.7244
X4.5591Y-6.9764
X4.6496Y-5.4764
X4.8386Y-3.9764
X5.0236Y-6.2244
X5.0276Y-3.0394
X5.2126Y-4.7244
X5.4013Y-7.3014
X5.4016Y-5.4764
X5.5866Y-3.9764
X5.7756Y-3.0354
X5.776Y-6.222
X5.9606Y-4.7244
X6.1535Y-5.4724
X6.3386Y-3.9764
X6.5276Y-6.2244
X6.7126Y-3.0394
X6.7126Y-4.7244
X6.9016Y-5.4724
X7.0906Y-3.9764
X7.2756Y-6.2244
X7.3701Y-6.9764
X7.4646Y-3.0394
X7.4646Y-4.7244
X7.6496Y-5.4724
X7.8386Y-3.9764
X8.0236Y-6.2244
X8.2126Y-3.0394
X8.2126Y-4.7244
X8.4016Y-5.4724
X8.5866Y-3.9764
X8.7756Y-6.2244
X8.9606Y-3.0394
X8.9606Y-4.7244
X9.1496Y-5.4764
X9.3386Y-3.9764
X9.3388Y-7.3014
X9.5276Y-6.2244
X9.7126Y-4.7244
X9.9016Y-3.0394
X9.9016Y-5.4764
X10.0866Y-3.9764
X10.0866Y-6.9764
X10.2756Y-6.2244
X10.4646Y-4.7244
X10.6535Y-3.0354
X10.6535Y-5.4764
X10.8346Y-6.9764
X10.8366Y-3.9756
X11.024Y-6.226
X11.2165Y-4.7244
X11.4016Y-3.0394
X11.4016Y-5.4764
X11.5866Y-3.9764
X11.5866Y-6.9764
X11.9646Y-4.7244
X12.0551Y-6.2244
X12.1496Y-3.0394
X12.1533Y-5.8014
X12.2438Y-4.3014
X12.5236Y-7.1614
X12.622Y-5.4764
X12.7126Y-3.9764
X12.9016Y-4.7244
X13.0866Y-3.0394
X13.0908Y-5.8014
X13.1813Y-4.3014
X13.2756Y-6.4134
X13.2756Y-7.1614
X14.0236Y-7.1614
X14.2126Y-3.9764
X14.2126Y-4.7244
X14.2126Y-5.4764
X14.2126Y-6.2244
T0
M30
