%TF.GenerationSoftware,KiCad,Pcbnew,(6.0.6)*%
%TF.CreationDate,2022-08-08T11:29:03-04:00*%
%TF.ProjectId,Jupiter,4a757069-7465-4722-9e6b-696361645f70,rev?*%
%TF.SameCoordinates,Original*%
%TF.FileFunction,Legend,Top*%
%TF.FilePolarity,Positive*%
%FSLAX46Y46*%
G04 Gerber Fmt 4.6, Leading zero omitted, Abs format (unit mm)*
G04 Created by KiCad (PCBNEW (6.0.6)) date 2022-08-08 11:29:03*
%MOMM*%
%LPD*%
G01*
G04 APERTURE LIST*
%ADD10C,0.500000*%
%ADD11C,0.150000*%
G04 APERTURE END LIST*
D10*
X73987142Y-85764285D02*
X73987142Y-90050000D01*
X73701428Y-90907142D01*
X73130000Y-91478571D01*
X72272857Y-91764285D01*
X71701428Y-91764285D01*
X79415714Y-87764285D02*
X79415714Y-91764285D01*
X76844285Y-87764285D02*
X76844285Y-90907142D01*
X77130000Y-91478571D01*
X77701428Y-91764285D01*
X78558571Y-91764285D01*
X79130000Y-91478571D01*
X79415714Y-91192857D01*
X82272857Y-87764285D02*
X82272857Y-93764285D01*
X82272857Y-88050000D02*
X82844285Y-87764285D01*
X83987142Y-87764285D01*
X84558571Y-88050000D01*
X84844285Y-88335714D01*
X85130000Y-88907142D01*
X85130000Y-90621428D01*
X84844285Y-91192857D01*
X84558571Y-91478571D01*
X83987142Y-91764285D01*
X82844285Y-91764285D01*
X82272857Y-91478571D01*
X87701428Y-91764285D02*
X87701428Y-87764285D01*
X87701428Y-85764285D02*
X87415714Y-86050000D01*
X87701428Y-86335714D01*
X87987142Y-86050000D01*
X87701428Y-85764285D01*
X87701428Y-86335714D01*
X89701428Y-87764285D02*
X91987142Y-87764285D01*
X90558571Y-85764285D02*
X90558571Y-90907142D01*
X90844285Y-91478571D01*
X91415714Y-91764285D01*
X91987142Y-91764285D01*
X96272857Y-91478571D02*
X95701428Y-91764285D01*
X94558571Y-91764285D01*
X93987142Y-91478571D01*
X93701428Y-90907142D01*
X93701428Y-88621428D01*
X93987142Y-88050000D01*
X94558571Y-87764285D01*
X95701428Y-87764285D01*
X96272857Y-88050000D01*
X96558571Y-88621428D01*
X96558571Y-89192857D01*
X93701428Y-89764285D01*
X99130000Y-91764285D02*
X99130000Y-87764285D01*
X99130000Y-88907142D02*
X99415714Y-88335714D01*
X99701428Y-88050000D01*
X100272857Y-87764285D01*
X100844285Y-87764285D01*
D11*
X101380952Y-91852380D02*
X101380952Y-90852380D01*
X101952380Y-91852380D02*
X101523809Y-91280952D01*
X101952380Y-90852380D02*
X101380952Y-91423809D01*
X102761904Y-91804761D02*
X102666666Y-91852380D01*
X102476190Y-91852380D01*
X102380952Y-91804761D01*
X102333333Y-91709523D01*
X102333333Y-91328571D01*
X102380952Y-91233333D01*
X102476190Y-91185714D01*
X102666666Y-91185714D01*
X102761904Y-91233333D01*
X102809523Y-91328571D01*
X102809523Y-91423809D01*
X102333333Y-91519047D01*
X103142857Y-91185714D02*
X103380952Y-91852380D01*
X103619047Y-91185714D02*
X103380952Y-91852380D01*
X103285714Y-92090476D01*
X103238095Y-92138095D01*
X103142857Y-92185714D01*
X103999999Y-91852380D02*
X103999999Y-90852380D01*
X103999999Y-91233333D02*
X104095238Y-91185714D01*
X104285714Y-91185714D01*
X104380952Y-91233333D01*
X104428571Y-91280952D01*
X104476190Y-91376190D01*
X104476190Y-91661904D01*
X104428571Y-91757142D01*
X104380952Y-91804761D01*
X104285714Y-91852380D01*
X104095238Y-91852380D01*
X103999999Y-91804761D01*
X105047619Y-91852380D02*
X104952380Y-91804761D01*
X104904761Y-91757142D01*
X104857142Y-91661904D01*
X104857142Y-91376190D01*
X104904761Y-91280952D01*
X104952380Y-91233333D01*
X105047619Y-91185714D01*
X105190476Y-91185714D01*
X105285714Y-91233333D01*
X105333333Y-91280952D01*
X105380952Y-91376190D01*
X105380952Y-91661904D01*
X105333333Y-91757142D01*
X105285714Y-91804761D01*
X105190476Y-91852380D01*
X105047619Y-91852380D01*
X106238095Y-91852380D02*
X106238095Y-91328571D01*
X106190476Y-91233333D01*
X106095238Y-91185714D01*
X105904761Y-91185714D01*
X105809523Y-91233333D01*
X106238095Y-91804761D02*
X106142857Y-91852380D01*
X105904761Y-91852380D01*
X105809523Y-91804761D01*
X105761904Y-91709523D01*
X105761904Y-91614285D01*
X105809523Y-91519047D01*
X105904761Y-91471428D01*
X106142857Y-91471428D01*
X106238095Y-91423809D01*
X106714285Y-91852380D02*
X106714285Y-91185714D01*
X106714285Y-91376190D02*
X106761904Y-91280952D01*
X106809523Y-91233333D01*
X106904761Y-91185714D01*
X106999999Y-91185714D01*
X107761904Y-91852380D02*
X107761904Y-90852380D01*
X107761904Y-91804761D02*
X107666666Y-91852380D01*
X107476190Y-91852380D01*
X107380952Y-91804761D01*
X107333333Y-91757142D01*
X107285714Y-91661904D01*
X107285714Y-91376190D01*
X107333333Y-91280952D01*
X107380952Y-91233333D01*
X107476190Y-91185714D01*
X107666666Y-91185714D01*
X107761904Y-91233333D01*
X108999999Y-91852380D02*
X108999999Y-90852380D01*
X109380952Y-90852380D01*
X109476190Y-90900000D01*
X109523809Y-90947619D01*
X109571428Y-91042857D01*
X109571428Y-91185714D01*
X109523809Y-91280952D01*
X109476190Y-91328571D01*
X109380952Y-91376190D01*
X108999999Y-91376190D01*
X110571428Y-91757142D02*
X110523809Y-91804761D01*
X110380952Y-91852380D01*
X110285714Y-91852380D01*
X110142857Y-91804761D01*
X110047619Y-91709523D01*
X110000000Y-91614285D01*
X109952380Y-91423809D01*
X109952380Y-91280952D01*
X110000000Y-91090476D01*
X110047619Y-90995238D01*
X110142857Y-90900000D01*
X110285714Y-90852380D01*
X110380952Y-90852380D01*
X110523809Y-90900000D01*
X110571428Y-90947619D01*
X111333333Y-91328571D02*
X111476190Y-91376190D01*
X111523809Y-91423809D01*
X111571428Y-91519047D01*
X111571428Y-91661904D01*
X111523809Y-91757142D01*
X111476190Y-91804761D01*
X111380952Y-91852380D01*
X111000000Y-91852380D01*
X111000000Y-90852380D01*
X111333333Y-90852380D01*
X111428571Y-90900000D01*
X111476190Y-90947619D01*
X111523809Y-91042857D01*
X111523809Y-91138095D01*
X111476190Y-91233333D01*
X111428571Y-91280952D01*
X111333333Y-91328571D01*
X111000000Y-91328571D01*
X113333333Y-91852380D02*
X112999999Y-91376190D01*
X112761904Y-91852380D02*
X112761904Y-90852380D01*
X113142857Y-90852380D01*
X113238095Y-90900000D01*
X113285714Y-90947619D01*
X113333333Y-91042857D01*
X113333333Y-91185714D01*
X113285714Y-91280952D01*
X113238095Y-91328571D01*
X113142857Y-91376190D01*
X112761904Y-91376190D01*
X114142857Y-91804761D02*
X114047619Y-91852380D01*
X113857142Y-91852380D01*
X113761904Y-91804761D01*
X113714285Y-91709523D01*
X113714285Y-91328571D01*
X113761904Y-91233333D01*
X113857142Y-91185714D01*
X114047619Y-91185714D01*
X114142857Y-91233333D01*
X114190476Y-91328571D01*
X114190476Y-91423809D01*
X113714285Y-91519047D01*
X114523809Y-91185714D02*
X114761904Y-91852380D01*
X114999999Y-91185714D01*
X116666666Y-91852380D02*
X116095238Y-91852380D01*
X116380952Y-91852380D02*
X116380952Y-90852380D01*
X116285714Y-90995238D01*
X116190476Y-91090476D01*
X116095238Y-91138095D01*
X117095238Y-91757142D02*
X117142857Y-91804761D01*
X117095238Y-91852380D01*
X117047619Y-91804761D01*
X117095238Y-91757142D01*
X117095238Y-91852380D01*
X117761904Y-90852380D02*
X117857142Y-90852380D01*
X117952380Y-90900000D01*
X117999999Y-90947619D01*
X118047619Y-91042857D01*
X118095238Y-91233333D01*
X118095238Y-91471428D01*
X118047619Y-91661904D01*
X117999999Y-91757142D01*
X117952380Y-91804761D01*
X117857142Y-91852380D01*
X117761904Y-91852380D01*
X117666666Y-91804761D01*
X117619047Y-91757142D01*
X117571428Y-91661904D01*
X117523809Y-91471428D01*
X117523809Y-91233333D01*
X117571428Y-91042857D01*
X117619047Y-90947619D01*
X117666666Y-90900000D01*
X117761904Y-90852380D01*
X119190476Y-90852380D02*
X119857142Y-90852380D01*
X119428571Y-91852380D01*
X120952380Y-90804761D02*
X120095238Y-92090476D01*
X121428571Y-91280952D02*
X121333333Y-91233333D01*
X121285714Y-91185714D01*
X121238095Y-91090476D01*
X121238095Y-91042857D01*
X121285714Y-90947619D01*
X121333333Y-90900000D01*
X121428571Y-90852380D01*
X121619047Y-90852380D01*
X121714285Y-90900000D01*
X121761904Y-90947619D01*
X121809523Y-91042857D01*
X121809523Y-91090476D01*
X121761904Y-91185714D01*
X121714285Y-91233333D01*
X121619047Y-91280952D01*
X121428571Y-91280952D01*
X121333333Y-91328571D01*
X121285714Y-91376190D01*
X121238095Y-91471428D01*
X121238095Y-91661904D01*
X121285714Y-91757142D01*
X121333333Y-91804761D01*
X121428571Y-91852380D01*
X121619047Y-91852380D01*
X121714285Y-91804761D01*
X121761904Y-91757142D01*
X121809523Y-91661904D01*
X121809523Y-91471428D01*
X121761904Y-91376190D01*
X121714285Y-91328571D01*
X121619047Y-91280952D01*
X122952380Y-90804761D02*
X122095238Y-92090476D01*
X123238095Y-90947619D02*
X123285714Y-90900000D01*
X123380952Y-90852380D01*
X123619047Y-90852380D01*
X123714285Y-90900000D01*
X123761904Y-90947619D01*
X123809523Y-91042857D01*
X123809523Y-91138095D01*
X123761904Y-91280952D01*
X123190476Y-91852380D01*
X123809523Y-91852380D01*
X124428571Y-90852380D02*
X124523809Y-90852380D01*
X124619047Y-90900000D01*
X124666666Y-90947619D01*
X124714285Y-91042857D01*
X124761904Y-91233333D01*
X124761904Y-91471428D01*
X124714285Y-91661904D01*
X124666666Y-91757142D01*
X124619047Y-91804761D01*
X124523809Y-91852380D01*
X124428571Y-91852380D01*
X124333333Y-91804761D01*
X124285714Y-91757142D01*
X124238095Y-91661904D01*
X124190476Y-91471428D01*
X124190476Y-91233333D01*
X124238095Y-91042857D01*
X124285714Y-90947619D01*
X124333333Y-90900000D01*
X124428571Y-90852380D01*
X125142857Y-90947619D02*
X125190476Y-90900000D01*
X125285714Y-90852380D01*
X125523809Y-90852380D01*
X125619047Y-90900000D01*
X125666666Y-90947619D01*
X125714285Y-91042857D01*
X125714285Y-91138095D01*
X125666666Y-91280952D01*
X125095238Y-91852380D01*
X125714285Y-91852380D01*
X126095238Y-90947619D02*
X126142857Y-90900000D01*
X126238095Y-90852380D01*
X126476190Y-90852380D01*
X126571428Y-90900000D01*
X126619047Y-90947619D01*
X126666666Y-91042857D01*
X126666666Y-91138095D01*
X126619047Y-91280952D01*
X126047619Y-91852380D01*
X126666666Y-91852380D01*
%TO.C,*%
%TO.C,K_T1*%
X173250000Y-118702380D02*
X173250000Y-117702380D01*
X173821428Y-118702380D02*
X173392857Y-118130952D01*
X173821428Y-117702380D02*
X173250000Y-118273809D01*
X174011904Y-118797619D02*
X174773809Y-118797619D01*
X174869047Y-117702380D02*
X175440476Y-117702380D01*
X175154761Y-118702380D02*
X175154761Y-117702380D01*
X176297619Y-118702380D02*
X175726190Y-118702380D01*
X176011904Y-118702380D02*
X176011904Y-117702380D01*
X175916666Y-117845238D01*
X175821428Y-117940476D01*
X175726190Y-117988095D01*
%TO.C,K_E1*%
X135078571Y-118702380D02*
X135078571Y-117702380D01*
X135650000Y-118702380D02*
X135221428Y-118130952D01*
X135650000Y-117702380D02*
X135078571Y-118273809D01*
X135840476Y-118797619D02*
X136602380Y-118797619D01*
X136840476Y-118178571D02*
X137173809Y-118178571D01*
X137316666Y-118702380D02*
X136840476Y-118702380D01*
X136840476Y-117702380D01*
X137316666Y-117702380D01*
X138269047Y-118702380D02*
X137697619Y-118702380D01*
X137983333Y-118702380D02*
X137983333Y-117702380D01*
X137888095Y-117845238D01*
X137792857Y-117940476D01*
X137697619Y-117988095D01*
%TO.C,K_pgUp1*%
X362250000Y-118702380D02*
X362250000Y-117702380D01*
X362821428Y-118702380D02*
X362392857Y-118130952D01*
X362821428Y-117702380D02*
X362250000Y-118273809D01*
X363011904Y-118797619D02*
X363773809Y-118797619D01*
X364011904Y-118035714D02*
X364011904Y-119035714D01*
X364011904Y-118083333D02*
X364107142Y-118035714D01*
X364297619Y-118035714D01*
X364392857Y-118083333D01*
X364440476Y-118130952D01*
X364488095Y-118226190D01*
X364488095Y-118511904D01*
X364440476Y-118607142D01*
X364392857Y-118654761D01*
X364297619Y-118702380D01*
X364107142Y-118702380D01*
X364011904Y-118654761D01*
X365345238Y-118035714D02*
X365345238Y-118845238D01*
X365297619Y-118940476D01*
X365250000Y-118988095D01*
X365154761Y-119035714D01*
X365011904Y-119035714D01*
X364916666Y-118988095D01*
X365345238Y-118654761D02*
X365250000Y-118702380D01*
X365059523Y-118702380D01*
X364964285Y-118654761D01*
X364916666Y-118607142D01*
X364869047Y-118511904D01*
X364869047Y-118226190D01*
X364916666Y-118130952D01*
X364964285Y-118083333D01*
X365059523Y-118035714D01*
X365250000Y-118035714D01*
X365345238Y-118083333D01*
X365821428Y-117702380D02*
X365821428Y-118511904D01*
X365869047Y-118607142D01*
X365916666Y-118654761D01*
X366011904Y-118702380D01*
X366202380Y-118702380D01*
X366297619Y-118654761D01*
X366345238Y-118607142D01*
X366392857Y-118511904D01*
X366392857Y-117702380D01*
X366869047Y-118035714D02*
X366869047Y-119035714D01*
X366869047Y-118083333D02*
X366964285Y-118035714D01*
X367154761Y-118035714D01*
X367250000Y-118083333D01*
X367297619Y-118130952D01*
X367345238Y-118226190D01*
X367345238Y-118511904D01*
X367297619Y-118607142D01*
X367250000Y-118654761D01*
X367154761Y-118702380D01*
X366964285Y-118702380D01*
X366869047Y-118654761D01*
X368297619Y-118702380D02*
X367726190Y-118702380D01*
X368011904Y-118702380D02*
X368011904Y-117702380D01*
X367916666Y-117845238D01*
X367821428Y-117940476D01*
X367726190Y-117988095D01*
%TO.C,K_rightArrow1*%
X355569047Y-180602380D02*
X355569047Y-179602380D01*
X356140476Y-180602380D02*
X355711904Y-180030952D01*
X356140476Y-179602380D02*
X355569047Y-180173809D01*
X356330952Y-180697619D02*
X357092857Y-180697619D01*
X357330952Y-180602380D02*
X357330952Y-179935714D01*
X357330952Y-180126190D02*
X357378571Y-180030952D01*
X357426190Y-179983333D01*
X357521428Y-179935714D01*
X357616666Y-179935714D01*
X357950000Y-180602380D02*
X357950000Y-179935714D01*
X357950000Y-179602380D02*
X357902380Y-179650000D01*
X357950000Y-179697619D01*
X357997619Y-179650000D01*
X357950000Y-179602380D01*
X357950000Y-179697619D01*
X358854761Y-179935714D02*
X358854761Y-180745238D01*
X358807142Y-180840476D01*
X358759523Y-180888095D01*
X358664285Y-180935714D01*
X358521428Y-180935714D01*
X358426190Y-180888095D01*
X358854761Y-180554761D02*
X358759523Y-180602380D01*
X358569047Y-180602380D01*
X358473809Y-180554761D01*
X358426190Y-180507142D01*
X358378571Y-180411904D01*
X358378571Y-180126190D01*
X358426190Y-180030952D01*
X358473809Y-179983333D01*
X358569047Y-179935714D01*
X358759523Y-179935714D01*
X358854761Y-179983333D01*
X359330952Y-180602380D02*
X359330952Y-179602380D01*
X359759523Y-180602380D02*
X359759523Y-180078571D01*
X359711904Y-179983333D01*
X359616666Y-179935714D01*
X359473809Y-179935714D01*
X359378571Y-179983333D01*
X359330952Y-180030952D01*
X360092857Y-179935714D02*
X360473809Y-179935714D01*
X360235714Y-179602380D02*
X360235714Y-180459523D01*
X360283333Y-180554761D01*
X360378571Y-180602380D01*
X360473809Y-180602380D01*
X360759523Y-180316666D02*
X361235714Y-180316666D01*
X360664285Y-180602380D02*
X360997619Y-179602380D01*
X361330952Y-180602380D01*
X361664285Y-180602380D02*
X361664285Y-179935714D01*
X361664285Y-180126190D02*
X361711904Y-180030952D01*
X361759523Y-179983333D01*
X361854761Y-179935714D01*
X361950000Y-179935714D01*
X362283333Y-180602380D02*
X362283333Y-179935714D01*
X362283333Y-180126190D02*
X362330952Y-180030952D01*
X362378571Y-179983333D01*
X362473809Y-179935714D01*
X362569047Y-179935714D01*
X363045238Y-180602380D02*
X362950000Y-180554761D01*
X362902380Y-180507142D01*
X362854761Y-180411904D01*
X362854761Y-180126190D01*
X362902380Y-180030952D01*
X362950000Y-179983333D01*
X363045238Y-179935714D01*
X363188095Y-179935714D01*
X363283333Y-179983333D01*
X363330952Y-180030952D01*
X363378571Y-180126190D01*
X363378571Y-180411904D01*
X363330952Y-180507142D01*
X363283333Y-180554761D01*
X363188095Y-180602380D01*
X363045238Y-180602380D01*
X363711904Y-179935714D02*
X363902380Y-180602380D01*
X364092857Y-180126190D01*
X364283333Y-180602380D01*
X364473809Y-179935714D01*
X365378571Y-180602380D02*
X364807142Y-180602380D01*
X365092857Y-180602380D02*
X365092857Y-179602380D01*
X364997619Y-179745238D01*
X364902380Y-179840476D01*
X364807142Y-179888095D01*
%TO.C,K_B1*%
X187430952Y-156802380D02*
X187430952Y-155802380D01*
X188002380Y-156802380D02*
X187573809Y-156230952D01*
X188002380Y-155802380D02*
X187430952Y-156373809D01*
X188192857Y-156897619D02*
X188954761Y-156897619D01*
X189526190Y-156278571D02*
X189669047Y-156326190D01*
X189716666Y-156373809D01*
X189764285Y-156469047D01*
X189764285Y-156611904D01*
X189716666Y-156707142D01*
X189669047Y-156754761D01*
X189573809Y-156802380D01*
X189192857Y-156802380D01*
X189192857Y-155802380D01*
X189526190Y-155802380D01*
X189621428Y-155850000D01*
X189669047Y-155897619D01*
X189716666Y-155992857D01*
X189716666Y-156088095D01*
X189669047Y-156183333D01*
X189621428Y-156230952D01*
X189526190Y-156278571D01*
X189192857Y-156278571D01*
X190716666Y-156802380D02*
X190145238Y-156802380D01*
X190430952Y-156802380D02*
X190430952Y-155802380D01*
X190335714Y-155945238D01*
X190240476Y-156040476D01*
X190145238Y-156088095D01*
%TO.C,K_G1*%
X177930952Y-137702380D02*
X177930952Y-136702380D01*
X178502380Y-137702380D02*
X178073809Y-137130952D01*
X178502380Y-136702380D02*
X177930952Y-137273809D01*
X178692857Y-137797619D02*
X179454761Y-137797619D01*
X180216666Y-136750000D02*
X180121428Y-136702380D01*
X179978571Y-136702380D01*
X179835714Y-136750000D01*
X179740476Y-136845238D01*
X179692857Y-136940476D01*
X179645238Y-137130952D01*
X179645238Y-137273809D01*
X179692857Y-137464285D01*
X179740476Y-137559523D01*
X179835714Y-137654761D01*
X179978571Y-137702380D01*
X180073809Y-137702380D01*
X180216666Y-137654761D01*
X180264285Y-137607142D01*
X180264285Y-137273809D01*
X180073809Y-137273809D01*
X181216666Y-137702380D02*
X180645238Y-137702380D01*
X180930952Y-137702380D02*
X180930952Y-136702380D01*
X180835714Y-136845238D01*
X180740476Y-136940476D01*
X180645238Y-136988095D01*
%TO.C,K_I1*%
X230492857Y-118702380D02*
X230492857Y-117702380D01*
X231064285Y-118702380D02*
X230635714Y-118130952D01*
X231064285Y-117702380D02*
X230492857Y-118273809D01*
X231254761Y-118797619D02*
X232016666Y-118797619D01*
X232254761Y-118702380D02*
X232254761Y-117702380D01*
X233254761Y-118702380D02*
X232683333Y-118702380D01*
X232969047Y-118702380D02*
X232969047Y-117702380D01*
X232873809Y-117845238D01*
X232778571Y-117940476D01*
X232683333Y-117988095D01*
%TO.C,K_V1*%
X168502380Y-156802380D02*
X168502380Y-155802380D01*
X169073809Y-156802380D02*
X168645238Y-156230952D01*
X169073809Y-155802380D02*
X168502380Y-156373809D01*
X169264285Y-156897619D02*
X170026190Y-156897619D01*
X170121428Y-155802380D02*
X170454761Y-156802380D01*
X170788095Y-155802380D01*
X171645238Y-156802380D02*
X171073809Y-156802380D01*
X171359523Y-156802380D02*
X171359523Y-155802380D01*
X171264285Y-155945238D01*
X171169047Y-156040476D01*
X171073809Y-156088095D01*
%TO.C,K_enter1*%
X321826190Y-137802380D02*
X321826190Y-136802380D01*
X322397619Y-137802380D02*
X321969047Y-137230952D01*
X322397619Y-136802380D02*
X321826190Y-137373809D01*
X322588095Y-137897619D02*
X323350000Y-137897619D01*
X323969047Y-137754761D02*
X323873809Y-137802380D01*
X323683333Y-137802380D01*
X323588095Y-137754761D01*
X323540476Y-137659523D01*
X323540476Y-137278571D01*
X323588095Y-137183333D01*
X323683333Y-137135714D01*
X323873809Y-137135714D01*
X323969047Y-137183333D01*
X324016666Y-137278571D01*
X324016666Y-137373809D01*
X323540476Y-137469047D01*
X324445238Y-137135714D02*
X324445238Y-137802380D01*
X324445238Y-137230952D02*
X324492857Y-137183333D01*
X324588095Y-137135714D01*
X324730952Y-137135714D01*
X324826190Y-137183333D01*
X324873809Y-137278571D01*
X324873809Y-137802380D01*
X325207142Y-137135714D02*
X325588095Y-137135714D01*
X325350000Y-136802380D02*
X325350000Y-137659523D01*
X325397619Y-137754761D01*
X325492857Y-137802380D01*
X325588095Y-137802380D01*
X326302380Y-137754761D02*
X326207142Y-137802380D01*
X326016666Y-137802380D01*
X325921428Y-137754761D01*
X325873809Y-137659523D01*
X325873809Y-137278571D01*
X325921428Y-137183333D01*
X326016666Y-137135714D01*
X326207142Y-137135714D01*
X326302380Y-137183333D01*
X326350000Y-137278571D01*
X326350000Y-137373809D01*
X325873809Y-137469047D01*
X326778571Y-137802380D02*
X326778571Y-137135714D01*
X326778571Y-137326190D02*
X326826190Y-137230952D01*
X326873809Y-137183333D01*
X326969047Y-137135714D01*
X327064285Y-137135714D01*
X327921428Y-137802380D02*
X327350000Y-137802380D01*
X327635714Y-137802380D02*
X327635714Y-136802380D01*
X327540476Y-136945238D01*
X327445238Y-137040476D01*
X327350000Y-137088095D01*
%TO.C,K_end1*%
X362797619Y-156802380D02*
X362797619Y-155802380D01*
X363369047Y-156802380D02*
X362940476Y-156230952D01*
X363369047Y-155802380D02*
X362797619Y-156373809D01*
X363559523Y-156897619D02*
X364321428Y-156897619D01*
X364940476Y-156754761D02*
X364845238Y-156802380D01*
X364654761Y-156802380D01*
X364559523Y-156754761D01*
X364511904Y-156659523D01*
X364511904Y-156278571D01*
X364559523Y-156183333D01*
X364654761Y-156135714D01*
X364845238Y-156135714D01*
X364940476Y-156183333D01*
X364988095Y-156278571D01*
X364988095Y-156373809D01*
X364511904Y-156469047D01*
X365416666Y-156135714D02*
X365416666Y-156802380D01*
X365416666Y-156230952D02*
X365464285Y-156183333D01*
X365559523Y-156135714D01*
X365702380Y-156135714D01*
X365797619Y-156183333D01*
X365845238Y-156278571D01*
X365845238Y-156802380D01*
X366750000Y-156802380D02*
X366750000Y-155802380D01*
X366750000Y-156754761D02*
X366654761Y-156802380D01*
X366464285Y-156802380D01*
X366369047Y-156754761D01*
X366321428Y-156707142D01*
X366273809Y-156611904D01*
X366273809Y-156326190D01*
X366321428Y-156230952D01*
X366369047Y-156183333D01*
X366464285Y-156135714D01*
X366654761Y-156135714D01*
X366750000Y-156183333D01*
X367750000Y-156802380D02*
X367178571Y-156802380D01*
X367464285Y-156802380D02*
X367464285Y-155802380D01*
X367369047Y-155945238D01*
X367273809Y-156040476D01*
X367178571Y-156088095D01*
%TO.C,K_tilda1*%
X67240476Y-99702380D02*
X67240476Y-98702380D01*
X67811904Y-99702380D02*
X67383333Y-99130952D01*
X67811904Y-98702380D02*
X67240476Y-99273809D01*
X68002380Y-99797619D02*
X68764285Y-99797619D01*
X68859523Y-99035714D02*
X69240476Y-99035714D01*
X69002380Y-98702380D02*
X69002380Y-99559523D01*
X69050000Y-99654761D01*
X69145238Y-99702380D01*
X69240476Y-99702380D01*
X69573809Y-99702380D02*
X69573809Y-99035714D01*
X69573809Y-98702380D02*
X69526190Y-98750000D01*
X69573809Y-98797619D01*
X69621428Y-98750000D01*
X69573809Y-98702380D01*
X69573809Y-98797619D01*
X70192857Y-99702380D02*
X70097619Y-99654761D01*
X70050000Y-99559523D01*
X70050000Y-98702380D01*
X71002380Y-99702380D02*
X71002380Y-98702380D01*
X71002380Y-99654761D02*
X70907142Y-99702380D01*
X70716666Y-99702380D01*
X70621428Y-99654761D01*
X70573809Y-99607142D01*
X70526190Y-99511904D01*
X70526190Y-99226190D01*
X70573809Y-99130952D01*
X70621428Y-99083333D01*
X70716666Y-99035714D01*
X70907142Y-99035714D01*
X71002380Y-99083333D01*
X71907142Y-99702380D02*
X71907142Y-99178571D01*
X71859523Y-99083333D01*
X71764285Y-99035714D01*
X71573809Y-99035714D01*
X71478571Y-99083333D01*
X71907142Y-99654761D02*
X71811904Y-99702380D01*
X71573809Y-99702380D01*
X71478571Y-99654761D01*
X71430952Y-99559523D01*
X71430952Y-99464285D01*
X71478571Y-99369047D01*
X71573809Y-99321428D01*
X71811904Y-99321428D01*
X71907142Y-99273809D01*
X72907142Y-99702380D02*
X72335714Y-99702380D01*
X72621428Y-99702380D02*
X72621428Y-98702380D01*
X72526190Y-98845238D01*
X72430952Y-98940476D01*
X72335714Y-98988095D01*
%TO.C,K_rightAlt1*%
X256616666Y-175902380D02*
X256616666Y-174902380D01*
X257188095Y-175902380D02*
X256759523Y-175330952D01*
X257188095Y-174902380D02*
X256616666Y-175473809D01*
X257378571Y-175997619D02*
X258140476Y-175997619D01*
X258378571Y-175902380D02*
X258378571Y-175235714D01*
X258378571Y-175426190D02*
X258426190Y-175330952D01*
X258473809Y-175283333D01*
X258569047Y-175235714D01*
X258664285Y-175235714D01*
X258997619Y-175902380D02*
X258997619Y-175235714D01*
X258997619Y-174902380D02*
X258950000Y-174950000D01*
X258997619Y-174997619D01*
X259045238Y-174950000D01*
X258997619Y-174902380D01*
X258997619Y-174997619D01*
X259902380Y-175235714D02*
X259902380Y-176045238D01*
X259854761Y-176140476D01*
X259807142Y-176188095D01*
X259711904Y-176235714D01*
X259569047Y-176235714D01*
X259473809Y-176188095D01*
X259902380Y-175854761D02*
X259807142Y-175902380D01*
X259616666Y-175902380D01*
X259521428Y-175854761D01*
X259473809Y-175807142D01*
X259426190Y-175711904D01*
X259426190Y-175426190D01*
X259473809Y-175330952D01*
X259521428Y-175283333D01*
X259616666Y-175235714D01*
X259807142Y-175235714D01*
X259902380Y-175283333D01*
X260378571Y-175902380D02*
X260378571Y-174902380D01*
X260807142Y-175902380D02*
X260807142Y-175378571D01*
X260759523Y-175283333D01*
X260664285Y-175235714D01*
X260521428Y-175235714D01*
X260426190Y-175283333D01*
X260378571Y-175330952D01*
X261140476Y-175235714D02*
X261521428Y-175235714D01*
X261283333Y-174902380D02*
X261283333Y-175759523D01*
X261330952Y-175854761D01*
X261426190Y-175902380D01*
X261521428Y-175902380D01*
X261807142Y-175616666D02*
X262283333Y-175616666D01*
X261711904Y-175902380D02*
X262045238Y-174902380D01*
X262378571Y-175902380D01*
X262854761Y-175902380D02*
X262759523Y-175854761D01*
X262711904Y-175759523D01*
X262711904Y-174902380D01*
X263092857Y-175235714D02*
X263473809Y-175235714D01*
X263235714Y-174902380D02*
X263235714Y-175759523D01*
X263283333Y-175854761D01*
X263378571Y-175902380D01*
X263473809Y-175902380D01*
X264330952Y-175902380D02*
X263759523Y-175902380D01*
X264045238Y-175902380D02*
X264045238Y-174902380D01*
X263950000Y-175045238D01*
X263854761Y-175140476D01*
X263759523Y-175188095D01*
%TO.C,K_7*%
X202230952Y-99702380D02*
X202230952Y-98702380D01*
X202802380Y-99702380D02*
X202373809Y-99130952D01*
X202802380Y-98702380D02*
X202230952Y-99273809D01*
X202992857Y-99797619D02*
X203754761Y-99797619D01*
X203897619Y-98702380D02*
X204564285Y-98702380D01*
X204135714Y-99702380D01*
%TO.C,K_A1*%
X101802380Y-137802380D02*
X101802380Y-136802380D01*
X102373809Y-137802380D02*
X101945238Y-137230952D01*
X102373809Y-136802380D02*
X101802380Y-137373809D01*
X102564285Y-137897619D02*
X103326190Y-137897619D01*
X103516666Y-137516666D02*
X103992857Y-137516666D01*
X103421428Y-137802380D02*
X103754761Y-136802380D01*
X104088095Y-137802380D01*
X104945238Y-137802380D02*
X104373809Y-137802380D01*
X104659523Y-137802380D02*
X104659523Y-136802380D01*
X104564285Y-136945238D01*
X104469047Y-137040476D01*
X104373809Y-137088095D01*
%TO.C,K_home1*%
X362130952Y-99702380D02*
X362130952Y-98702380D01*
X362702380Y-99702380D02*
X362273809Y-99130952D01*
X362702380Y-98702380D02*
X362130952Y-99273809D01*
X362892857Y-99797619D02*
X363654761Y-99797619D01*
X363892857Y-99702380D02*
X363892857Y-98702380D01*
X364321428Y-99702380D02*
X364321428Y-99178571D01*
X364273809Y-99083333D01*
X364178571Y-99035714D01*
X364035714Y-99035714D01*
X363940476Y-99083333D01*
X363892857Y-99130952D01*
X364940476Y-99702380D02*
X364845238Y-99654761D01*
X364797619Y-99607142D01*
X364750000Y-99511904D01*
X364750000Y-99226190D01*
X364797619Y-99130952D01*
X364845238Y-99083333D01*
X364940476Y-99035714D01*
X365083333Y-99035714D01*
X365178571Y-99083333D01*
X365226190Y-99130952D01*
X365273809Y-99226190D01*
X365273809Y-99511904D01*
X365226190Y-99607142D01*
X365178571Y-99654761D01*
X365083333Y-99702380D01*
X364940476Y-99702380D01*
X365702380Y-99702380D02*
X365702380Y-99035714D01*
X365702380Y-99130952D02*
X365750000Y-99083333D01*
X365845238Y-99035714D01*
X365988095Y-99035714D01*
X366083333Y-99083333D01*
X366130952Y-99178571D01*
X366130952Y-99702380D01*
X366130952Y-99178571D02*
X366178571Y-99083333D01*
X366273809Y-99035714D01*
X366416666Y-99035714D01*
X366511904Y-99083333D01*
X366559523Y-99178571D01*
X366559523Y-99702380D01*
X367416666Y-99654761D02*
X367321428Y-99702380D01*
X367130952Y-99702380D01*
X367035714Y-99654761D01*
X366988095Y-99559523D01*
X366988095Y-99178571D01*
X367035714Y-99083333D01*
X367130952Y-99035714D01*
X367321428Y-99035714D01*
X367416666Y-99083333D01*
X367464285Y-99178571D01*
X367464285Y-99273809D01*
X366988095Y-99369047D01*
X368416666Y-99702380D02*
X367845238Y-99702380D01*
X368130952Y-99702380D02*
X368130952Y-98702380D01*
X368035714Y-98845238D01*
X367940476Y-98940476D01*
X367845238Y-98988095D01*
%TO.C,K_space1*%
X188164285Y-175902380D02*
X188164285Y-174902380D01*
X188735714Y-175902380D02*
X188307142Y-175330952D01*
X188735714Y-174902380D02*
X188164285Y-175473809D01*
X188926190Y-175997619D02*
X189688095Y-175997619D01*
X189878571Y-175854761D02*
X189973809Y-175902380D01*
X190164285Y-175902380D01*
X190259523Y-175854761D01*
X190307142Y-175759523D01*
X190307142Y-175711904D01*
X190259523Y-175616666D01*
X190164285Y-175569047D01*
X190021428Y-175569047D01*
X189926190Y-175521428D01*
X189878571Y-175426190D01*
X189878571Y-175378571D01*
X189926190Y-175283333D01*
X190021428Y-175235714D01*
X190164285Y-175235714D01*
X190259523Y-175283333D01*
X190735714Y-175235714D02*
X190735714Y-176235714D01*
X190735714Y-175283333D02*
X190830952Y-175235714D01*
X191021428Y-175235714D01*
X191116666Y-175283333D01*
X191164285Y-175330952D01*
X191211904Y-175426190D01*
X191211904Y-175711904D01*
X191164285Y-175807142D01*
X191116666Y-175854761D01*
X191021428Y-175902380D01*
X190830952Y-175902380D01*
X190735714Y-175854761D01*
X192069047Y-175902380D02*
X192069047Y-175378571D01*
X192021428Y-175283333D01*
X191926190Y-175235714D01*
X191735714Y-175235714D01*
X191640476Y-175283333D01*
X192069047Y-175854761D02*
X191973809Y-175902380D01*
X191735714Y-175902380D01*
X191640476Y-175854761D01*
X191592857Y-175759523D01*
X191592857Y-175664285D01*
X191640476Y-175569047D01*
X191735714Y-175521428D01*
X191973809Y-175521428D01*
X192069047Y-175473809D01*
X192973809Y-175854761D02*
X192878571Y-175902380D01*
X192688095Y-175902380D01*
X192592857Y-175854761D01*
X192545238Y-175807142D01*
X192497619Y-175711904D01*
X192497619Y-175426190D01*
X192545238Y-175330952D01*
X192592857Y-175283333D01*
X192688095Y-175235714D01*
X192878571Y-175235714D01*
X192973809Y-175283333D01*
X193783333Y-175854761D02*
X193688095Y-175902380D01*
X193497619Y-175902380D01*
X193402380Y-175854761D01*
X193354761Y-175759523D01*
X193354761Y-175378571D01*
X193402380Y-175283333D01*
X193497619Y-175235714D01*
X193688095Y-175235714D01*
X193783333Y-175283333D01*
X193830952Y-175378571D01*
X193830952Y-175473809D01*
X193354761Y-175569047D01*
X194783333Y-175902380D02*
X194211904Y-175902380D01*
X194497619Y-175902380D02*
X194497619Y-174902380D01*
X194402380Y-175045238D01*
X194307142Y-175140476D01*
X194211904Y-175188095D01*
%TO.C,K_U1*%
X211207142Y-118702380D02*
X211207142Y-117702380D01*
X211778571Y-118702380D02*
X211350000Y-118130952D01*
X211778571Y-117702380D02*
X211207142Y-118273809D01*
X211969047Y-118797619D02*
X212730952Y-118797619D01*
X212969047Y-117702380D02*
X212969047Y-118511904D01*
X213016666Y-118607142D01*
X213064285Y-118654761D01*
X213159523Y-118702380D01*
X213350000Y-118702380D01*
X213445238Y-118654761D01*
X213492857Y-118607142D01*
X213540476Y-118511904D01*
X213540476Y-117702380D01*
X214540476Y-118702380D02*
X213969047Y-118702380D01*
X214254761Y-118702380D02*
X214254761Y-117702380D01*
X214159523Y-117845238D01*
X214064285Y-117940476D01*
X213969047Y-117988095D01*
%TO.C,K_leftAlt1*%
X116692857Y-175902380D02*
X116692857Y-174902380D01*
X117264285Y-175902380D02*
X116835714Y-175330952D01*
X117264285Y-174902380D02*
X116692857Y-175473809D01*
X117454761Y-175997619D02*
X118216666Y-175997619D01*
X118597619Y-175902380D02*
X118502380Y-175854761D01*
X118454761Y-175759523D01*
X118454761Y-174902380D01*
X119359523Y-175854761D02*
X119264285Y-175902380D01*
X119073809Y-175902380D01*
X118978571Y-175854761D01*
X118930952Y-175759523D01*
X118930952Y-175378571D01*
X118978571Y-175283333D01*
X119073809Y-175235714D01*
X119264285Y-175235714D01*
X119359523Y-175283333D01*
X119407142Y-175378571D01*
X119407142Y-175473809D01*
X118930952Y-175569047D01*
X119692857Y-175235714D02*
X120073809Y-175235714D01*
X119835714Y-175902380D02*
X119835714Y-175045238D01*
X119883333Y-174950000D01*
X119978571Y-174902380D01*
X120073809Y-174902380D01*
X120264285Y-175235714D02*
X120645238Y-175235714D01*
X120407142Y-174902380D02*
X120407142Y-175759523D01*
X120454761Y-175854761D01*
X120550000Y-175902380D01*
X120645238Y-175902380D01*
X120930952Y-175616666D02*
X121407142Y-175616666D01*
X120835714Y-175902380D02*
X121169047Y-174902380D01*
X121502380Y-175902380D01*
X121978571Y-175902380D02*
X121883333Y-175854761D01*
X121835714Y-175759523D01*
X121835714Y-174902380D01*
X122216666Y-175235714D02*
X122597619Y-175235714D01*
X122359523Y-174902380D02*
X122359523Y-175759523D01*
X122407142Y-175854761D01*
X122502380Y-175902380D01*
X122597619Y-175902380D01*
X123454761Y-175902380D02*
X122883333Y-175902380D01*
X123169047Y-175902380D02*
X123169047Y-174902380D01*
X123073809Y-175045238D01*
X122978571Y-175140476D01*
X122883333Y-175188095D01*
%TO.C,K_F2*%
X111302380Y-75902380D02*
X111302380Y-74902380D01*
X111873809Y-75902380D02*
X111445238Y-75330952D01*
X111873809Y-74902380D02*
X111302380Y-75473809D01*
X112064285Y-75997619D02*
X112826190Y-75997619D01*
X113397619Y-75378571D02*
X113064285Y-75378571D01*
X113064285Y-75902380D02*
X113064285Y-74902380D01*
X113540476Y-74902380D01*
X113873809Y-74997619D02*
X113921428Y-74950000D01*
X114016666Y-74902380D01*
X114254761Y-74902380D01*
X114350000Y-74950000D01*
X114397619Y-74997619D01*
X114445238Y-75092857D01*
X114445238Y-75188095D01*
X114397619Y-75330952D01*
X113826190Y-75902380D01*
X114445238Y-75902380D01*
%TO.C,K_F3*%
X130402380Y-75902380D02*
X130402380Y-74902380D01*
X130973809Y-75902380D02*
X130545238Y-75330952D01*
X130973809Y-74902380D02*
X130402380Y-75473809D01*
X131164285Y-75997619D02*
X131926190Y-75997619D01*
X132497619Y-75378571D02*
X132164285Y-75378571D01*
X132164285Y-75902380D02*
X132164285Y-74902380D01*
X132640476Y-74902380D01*
X132926190Y-74902380D02*
X133545238Y-74902380D01*
X133211904Y-75283333D01*
X133354761Y-75283333D01*
X133450000Y-75330952D01*
X133497619Y-75378571D01*
X133545238Y-75473809D01*
X133545238Y-75711904D01*
X133497619Y-75807142D01*
X133450000Y-75854761D01*
X133354761Y-75902380D01*
X133069047Y-75902380D01*
X132973809Y-75854761D01*
X132926190Y-75807142D01*
%TO.C,K_M1*%
X225459523Y-156802380D02*
X225459523Y-155802380D01*
X226030952Y-156802380D02*
X225602380Y-156230952D01*
X226030952Y-155802380D02*
X225459523Y-156373809D01*
X226221428Y-156897619D02*
X226983333Y-156897619D01*
X227221428Y-156802380D02*
X227221428Y-155802380D01*
X227554761Y-156516666D01*
X227888095Y-155802380D01*
X227888095Y-156802380D01*
X228888095Y-156802380D02*
X228316666Y-156802380D01*
X228602380Y-156802380D02*
X228602380Y-155802380D01*
X228507142Y-155945238D01*
X228411904Y-156040476D01*
X228316666Y-156088095D01*
%TO.C,K_windows1*%
X91983333Y-175902380D02*
X91983333Y-174902380D01*
X92554761Y-175902380D02*
X92126190Y-175330952D01*
X92554761Y-174902380D02*
X91983333Y-175473809D01*
X92745238Y-175997619D02*
X93507142Y-175997619D01*
X93650000Y-175235714D02*
X93840476Y-175902380D01*
X94030952Y-175426190D01*
X94221428Y-175902380D01*
X94411904Y-175235714D01*
X94792857Y-175902380D02*
X94792857Y-175235714D01*
X94792857Y-174902380D02*
X94745238Y-174950000D01*
X94792857Y-174997619D01*
X94840476Y-174950000D01*
X94792857Y-174902380D01*
X94792857Y-174997619D01*
X95269047Y-175235714D02*
X95269047Y-175902380D01*
X95269047Y-175330952D02*
X95316666Y-175283333D01*
X95411904Y-175235714D01*
X95554761Y-175235714D01*
X95650000Y-175283333D01*
X95697619Y-175378571D01*
X95697619Y-175902380D01*
X96602380Y-175902380D02*
X96602380Y-174902380D01*
X96602380Y-175854761D02*
X96507142Y-175902380D01*
X96316666Y-175902380D01*
X96221428Y-175854761D01*
X96173809Y-175807142D01*
X96126190Y-175711904D01*
X96126190Y-175426190D01*
X96173809Y-175330952D01*
X96221428Y-175283333D01*
X96316666Y-175235714D01*
X96507142Y-175235714D01*
X96602380Y-175283333D01*
X97221428Y-175902380D02*
X97126190Y-175854761D01*
X97078571Y-175807142D01*
X97030952Y-175711904D01*
X97030952Y-175426190D01*
X97078571Y-175330952D01*
X97126190Y-175283333D01*
X97221428Y-175235714D01*
X97364285Y-175235714D01*
X97459523Y-175283333D01*
X97507142Y-175330952D01*
X97554761Y-175426190D01*
X97554761Y-175711904D01*
X97507142Y-175807142D01*
X97459523Y-175854761D01*
X97364285Y-175902380D01*
X97221428Y-175902380D01*
X97888095Y-175235714D02*
X98078571Y-175902380D01*
X98269047Y-175426190D01*
X98459523Y-175902380D01*
X98650000Y-175235714D01*
X98983333Y-175854761D02*
X99078571Y-175902380D01*
X99269047Y-175902380D01*
X99364285Y-175854761D01*
X99411904Y-175759523D01*
X99411904Y-175711904D01*
X99364285Y-175616666D01*
X99269047Y-175569047D01*
X99126190Y-175569047D01*
X99030952Y-175521428D01*
X98983333Y-175426190D01*
X98983333Y-175378571D01*
X99030952Y-175283333D01*
X99126190Y-175235714D01*
X99269047Y-175235714D01*
X99364285Y-175283333D01*
X100364285Y-175902380D02*
X99792857Y-175902380D01*
X100078571Y-175902380D02*
X100078571Y-174902380D01*
X99983333Y-175045238D01*
X99888095Y-175140476D01*
X99792857Y-175188095D01*
%TO.C,K_R1*%
X154030952Y-118702380D02*
X154030952Y-117702380D01*
X154602380Y-118702380D02*
X154173809Y-118130952D01*
X154602380Y-117702380D02*
X154030952Y-118273809D01*
X154792857Y-118797619D02*
X155554761Y-118797619D01*
X156364285Y-118702380D02*
X156030952Y-118226190D01*
X155792857Y-118702380D02*
X155792857Y-117702380D01*
X156173809Y-117702380D01*
X156269047Y-117750000D01*
X156316666Y-117797619D01*
X156364285Y-117892857D01*
X156364285Y-118035714D01*
X156316666Y-118130952D01*
X156269047Y-118178571D01*
X156173809Y-118226190D01*
X155792857Y-118226190D01*
X157316666Y-118702380D02*
X156745238Y-118702380D01*
X157030952Y-118702380D02*
X157030952Y-117702380D01*
X156935714Y-117845238D01*
X156840476Y-117940476D01*
X156745238Y-117988095D01*
%TO.C,K_2*%
X106930952Y-99702380D02*
X106930952Y-98702380D01*
X107502380Y-99702380D02*
X107073809Y-99130952D01*
X107502380Y-98702380D02*
X106930952Y-99273809D01*
X107692857Y-99797619D02*
X108454761Y-99797619D01*
X108645238Y-98797619D02*
X108692857Y-98750000D01*
X108788095Y-98702380D01*
X109026190Y-98702380D01*
X109121428Y-98750000D01*
X109169047Y-98797619D01*
X109216666Y-98892857D01*
X109216666Y-98988095D01*
X109169047Y-99130952D01*
X108597619Y-99702380D01*
X109216666Y-99702380D01*
%TO.C,K_leftShift1*%
X77830952Y-156902380D02*
X77830952Y-155902380D01*
X78402380Y-156902380D02*
X77973809Y-156330952D01*
X78402380Y-155902380D02*
X77830952Y-156473809D01*
X78592857Y-156997619D02*
X79354761Y-156997619D01*
X79735714Y-156902380D02*
X79640476Y-156854761D01*
X79592857Y-156759523D01*
X79592857Y-155902380D01*
X80497619Y-156854761D02*
X80402380Y-156902380D01*
X80211904Y-156902380D01*
X80116666Y-156854761D01*
X80069047Y-156759523D01*
X80069047Y-156378571D01*
X80116666Y-156283333D01*
X80211904Y-156235714D01*
X80402380Y-156235714D01*
X80497619Y-156283333D01*
X80545238Y-156378571D01*
X80545238Y-156473809D01*
X80069047Y-156569047D01*
X80830952Y-156235714D02*
X81211904Y-156235714D01*
X80973809Y-156902380D02*
X80973809Y-156045238D01*
X81021428Y-155950000D01*
X81116666Y-155902380D01*
X81211904Y-155902380D01*
X81402380Y-156235714D02*
X81783333Y-156235714D01*
X81545238Y-155902380D02*
X81545238Y-156759523D01*
X81592857Y-156854761D01*
X81688095Y-156902380D01*
X81783333Y-156902380D01*
X82069047Y-156854761D02*
X82211904Y-156902380D01*
X82450000Y-156902380D01*
X82545238Y-156854761D01*
X82592857Y-156807142D01*
X82640476Y-156711904D01*
X82640476Y-156616666D01*
X82592857Y-156521428D01*
X82545238Y-156473809D01*
X82450000Y-156426190D01*
X82259523Y-156378571D01*
X82164285Y-156330952D01*
X82116666Y-156283333D01*
X82069047Y-156188095D01*
X82069047Y-156092857D01*
X82116666Y-155997619D01*
X82164285Y-155950000D01*
X82259523Y-155902380D01*
X82497619Y-155902380D01*
X82640476Y-155950000D01*
X83069047Y-156902380D02*
X83069047Y-155902380D01*
X83497619Y-156902380D02*
X83497619Y-156378571D01*
X83450000Y-156283333D01*
X83354761Y-156235714D01*
X83211904Y-156235714D01*
X83116666Y-156283333D01*
X83069047Y-156330952D01*
X83973809Y-156902380D02*
X83973809Y-156235714D01*
X83973809Y-155902380D02*
X83926190Y-155950000D01*
X83973809Y-155997619D01*
X84021428Y-155950000D01*
X83973809Y-155902380D01*
X83973809Y-155997619D01*
X84307142Y-156235714D02*
X84688095Y-156235714D01*
X84450000Y-156902380D02*
X84450000Y-156045238D01*
X84497619Y-155950000D01*
X84592857Y-155902380D01*
X84688095Y-155902380D01*
X84878571Y-156235714D02*
X85259523Y-156235714D01*
X85021428Y-155902380D02*
X85021428Y-156759523D01*
X85069047Y-156854761D01*
X85164285Y-156902380D01*
X85259523Y-156902380D01*
X86116666Y-156902380D02*
X85545238Y-156902380D01*
X85830952Y-156902380D02*
X85830952Y-155902380D01*
X85735714Y-156045238D01*
X85640476Y-156140476D01*
X85545238Y-156188095D01*
%TO.C,K_F1*%
X92202380Y-75902380D02*
X92202380Y-74902380D01*
X92773809Y-75902380D02*
X92345238Y-75330952D01*
X92773809Y-74902380D02*
X92202380Y-75473809D01*
X92964285Y-75997619D02*
X93726190Y-75997619D01*
X94297619Y-75378571D02*
X93964285Y-75378571D01*
X93964285Y-75902380D02*
X93964285Y-74902380D01*
X94440476Y-74902380D01*
X95345238Y-75902380D02*
X94773809Y-75902380D01*
X95059523Y-75902380D02*
X95059523Y-74902380D01*
X94964285Y-75045238D01*
X94869047Y-75140476D01*
X94773809Y-75188095D01*
%TO.C,K_9*%
X240330952Y-99702380D02*
X240330952Y-98702380D01*
X240902380Y-99702380D02*
X240473809Y-99130952D01*
X240902380Y-98702380D02*
X240330952Y-99273809D01*
X241092857Y-99797619D02*
X241854761Y-99797619D01*
X242140476Y-99702380D02*
X242330952Y-99702380D01*
X242426190Y-99654761D01*
X242473809Y-99607142D01*
X242569047Y-99464285D01*
X242616666Y-99273809D01*
X242616666Y-98892857D01*
X242569047Y-98797619D01*
X242521428Y-98750000D01*
X242426190Y-98702380D01*
X242235714Y-98702380D01*
X242140476Y-98750000D01*
X242092857Y-98797619D01*
X242045238Y-98892857D01*
X242045238Y-99130952D01*
X242092857Y-99226190D01*
X242140476Y-99273809D01*
X242235714Y-99321428D01*
X242426190Y-99321428D01*
X242521428Y-99273809D01*
X242569047Y-99226190D01*
X242616666Y-99130952D01*
%TO.C,K_D1*%
X139830952Y-137802380D02*
X139830952Y-136802380D01*
X140402380Y-137802380D02*
X139973809Y-137230952D01*
X140402380Y-136802380D02*
X139830952Y-137373809D01*
X140592857Y-137897619D02*
X141354761Y-137897619D01*
X141592857Y-137802380D02*
X141592857Y-136802380D01*
X141830952Y-136802380D01*
X141973809Y-136850000D01*
X142069047Y-136945238D01*
X142116666Y-137040476D01*
X142164285Y-137230952D01*
X142164285Y-137373809D01*
X142116666Y-137564285D01*
X142069047Y-137659523D01*
X141973809Y-137754761D01*
X141830952Y-137802380D01*
X141592857Y-137802380D01*
X143116666Y-137802380D02*
X142545238Y-137802380D01*
X142830952Y-137802380D02*
X142830952Y-136802380D01*
X142735714Y-136945238D01*
X142640476Y-137040476D01*
X142545238Y-137088095D01*
%TO.C,K_leftArrow1*%
X317945238Y-180602380D02*
X317945238Y-179602380D01*
X318516666Y-180602380D02*
X318088095Y-180030952D01*
X318516666Y-179602380D02*
X317945238Y-180173809D01*
X318707142Y-180697619D02*
X319469047Y-180697619D01*
X319850000Y-180602380D02*
X319754761Y-180554761D01*
X319707142Y-180459523D01*
X319707142Y-179602380D01*
X320611904Y-180554761D02*
X320516666Y-180602380D01*
X320326190Y-180602380D01*
X320230952Y-180554761D01*
X320183333Y-180459523D01*
X320183333Y-180078571D01*
X320230952Y-179983333D01*
X320326190Y-179935714D01*
X320516666Y-179935714D01*
X320611904Y-179983333D01*
X320659523Y-180078571D01*
X320659523Y-180173809D01*
X320183333Y-180269047D01*
X320945238Y-179935714D02*
X321326190Y-179935714D01*
X321088095Y-180602380D02*
X321088095Y-179745238D01*
X321135714Y-179650000D01*
X321230952Y-179602380D01*
X321326190Y-179602380D01*
X321516666Y-179935714D02*
X321897619Y-179935714D01*
X321659523Y-179602380D02*
X321659523Y-180459523D01*
X321707142Y-180554761D01*
X321802380Y-180602380D01*
X321897619Y-180602380D01*
X322183333Y-180316666D02*
X322659523Y-180316666D01*
X322088095Y-180602380D02*
X322421428Y-179602380D01*
X322754761Y-180602380D01*
X323088095Y-180602380D02*
X323088095Y-179935714D01*
X323088095Y-180126190D02*
X323135714Y-180030952D01*
X323183333Y-179983333D01*
X323278571Y-179935714D01*
X323373809Y-179935714D01*
X323707142Y-180602380D02*
X323707142Y-179935714D01*
X323707142Y-180126190D02*
X323754761Y-180030952D01*
X323802380Y-179983333D01*
X323897619Y-179935714D01*
X323992857Y-179935714D01*
X324469047Y-180602380D02*
X324373809Y-180554761D01*
X324326190Y-180507142D01*
X324278571Y-180411904D01*
X324278571Y-180126190D01*
X324326190Y-180030952D01*
X324373809Y-179983333D01*
X324469047Y-179935714D01*
X324611904Y-179935714D01*
X324707142Y-179983333D01*
X324754761Y-180030952D01*
X324802380Y-180126190D01*
X324802380Y-180411904D01*
X324754761Y-180507142D01*
X324707142Y-180554761D01*
X324611904Y-180602380D01*
X324469047Y-180602380D01*
X325135714Y-179935714D02*
X325326190Y-180602380D01*
X325516666Y-180126190D01*
X325707142Y-180602380D01*
X325897619Y-179935714D01*
X326802380Y-180602380D02*
X326230952Y-180602380D01*
X326516666Y-180602380D02*
X326516666Y-179602380D01*
X326421428Y-179745238D01*
X326326190Y-179840476D01*
X326230952Y-179888095D01*
%TO.C,K_F11*%
X291826190Y-75902380D02*
X291826190Y-74902380D01*
X292397619Y-75902380D02*
X291969047Y-75330952D01*
X292397619Y-74902380D02*
X291826190Y-75473809D01*
X292588095Y-75997619D02*
X293350000Y-75997619D01*
X293921428Y-75378571D02*
X293588095Y-75378571D01*
X293588095Y-75902380D02*
X293588095Y-74902380D01*
X294064285Y-74902380D01*
X294969047Y-75902380D02*
X294397619Y-75902380D01*
X294683333Y-75902380D02*
X294683333Y-74902380D01*
X294588095Y-75045238D01*
X294492857Y-75140476D01*
X294397619Y-75188095D01*
X295921428Y-75902380D02*
X295350000Y-75902380D01*
X295635714Y-75902380D02*
X295635714Y-74902380D01*
X295540476Y-75045238D01*
X295445238Y-75140476D01*
X295350000Y-75188095D01*
%TO.C,K_period1*%
X261797619Y-156802380D02*
X261797619Y-155802380D01*
X262369047Y-156802380D02*
X261940476Y-156230952D01*
X262369047Y-155802380D02*
X261797619Y-156373809D01*
X262559523Y-156897619D02*
X263321428Y-156897619D01*
X263559523Y-156135714D02*
X263559523Y-157135714D01*
X263559523Y-156183333D02*
X263654761Y-156135714D01*
X263845238Y-156135714D01*
X263940476Y-156183333D01*
X263988095Y-156230952D01*
X264035714Y-156326190D01*
X264035714Y-156611904D01*
X263988095Y-156707142D01*
X263940476Y-156754761D01*
X263845238Y-156802380D01*
X263654761Y-156802380D01*
X263559523Y-156754761D01*
X264845238Y-156754761D02*
X264750000Y-156802380D01*
X264559523Y-156802380D01*
X264464285Y-156754761D01*
X264416666Y-156659523D01*
X264416666Y-156278571D01*
X264464285Y-156183333D01*
X264559523Y-156135714D01*
X264750000Y-156135714D01*
X264845238Y-156183333D01*
X264892857Y-156278571D01*
X264892857Y-156373809D01*
X264416666Y-156469047D01*
X265321428Y-156802380D02*
X265321428Y-156135714D01*
X265321428Y-156326190D02*
X265369047Y-156230952D01*
X265416666Y-156183333D01*
X265511904Y-156135714D01*
X265607142Y-156135714D01*
X265940476Y-156802380D02*
X265940476Y-156135714D01*
X265940476Y-155802380D02*
X265892857Y-155850000D01*
X265940476Y-155897619D01*
X265988095Y-155850000D01*
X265940476Y-155802380D01*
X265940476Y-155897619D01*
X266559523Y-156802380D02*
X266464285Y-156754761D01*
X266416666Y-156707142D01*
X266369047Y-156611904D01*
X266369047Y-156326190D01*
X266416666Y-156230952D01*
X266464285Y-156183333D01*
X266559523Y-156135714D01*
X266702380Y-156135714D01*
X266797619Y-156183333D01*
X266845238Y-156230952D01*
X266892857Y-156326190D01*
X266892857Y-156611904D01*
X266845238Y-156707142D01*
X266797619Y-156754761D01*
X266702380Y-156802380D01*
X266559523Y-156802380D01*
X267750000Y-156802380D02*
X267750000Y-155802380D01*
X267750000Y-156754761D02*
X267654761Y-156802380D01*
X267464285Y-156802380D01*
X267369047Y-156754761D01*
X267321428Y-156707142D01*
X267273809Y-156611904D01*
X267273809Y-156326190D01*
X267321428Y-156230952D01*
X267369047Y-156183333D01*
X267464285Y-156135714D01*
X267654761Y-156135714D01*
X267750000Y-156183333D01*
X268750000Y-156802380D02*
X268178571Y-156802380D01*
X268464285Y-156802380D02*
X268464285Y-155802380D01*
X268369047Y-155945238D01*
X268273809Y-156040476D01*
X268178571Y-156088095D01*
%TO.C,K_tab1*%
X72440476Y-118702380D02*
X72440476Y-117702380D01*
X73011904Y-118702380D02*
X72583333Y-118130952D01*
X73011904Y-117702380D02*
X72440476Y-118273809D01*
X73202380Y-118797619D02*
X73964285Y-118797619D01*
X74059523Y-118035714D02*
X74440476Y-118035714D01*
X74202380Y-117702380D02*
X74202380Y-118559523D01*
X74250000Y-118654761D01*
X74345238Y-118702380D01*
X74440476Y-118702380D01*
X75202380Y-118702380D02*
X75202380Y-118178571D01*
X75154761Y-118083333D01*
X75059523Y-118035714D01*
X74869047Y-118035714D01*
X74773809Y-118083333D01*
X75202380Y-118654761D02*
X75107142Y-118702380D01*
X74869047Y-118702380D01*
X74773809Y-118654761D01*
X74726190Y-118559523D01*
X74726190Y-118464285D01*
X74773809Y-118369047D01*
X74869047Y-118321428D01*
X75107142Y-118321428D01*
X75202380Y-118273809D01*
X75678571Y-118702380D02*
X75678571Y-117702380D01*
X75678571Y-118083333D02*
X75773809Y-118035714D01*
X75964285Y-118035714D01*
X76059523Y-118083333D01*
X76107142Y-118130952D01*
X76154761Y-118226190D01*
X76154761Y-118511904D01*
X76107142Y-118607142D01*
X76059523Y-118654761D01*
X75964285Y-118702380D01*
X75773809Y-118702380D01*
X75678571Y-118654761D01*
X77107142Y-118702380D02*
X76535714Y-118702380D01*
X76821428Y-118702380D02*
X76821428Y-117702380D01*
X76726190Y-117845238D01*
X76630952Y-117940476D01*
X76535714Y-117988095D01*
%TO.C,K_rightShift1*%
X305854761Y-156802380D02*
X305854761Y-155802380D01*
X306426190Y-156802380D02*
X305997619Y-156230952D01*
X306426190Y-155802380D02*
X305854761Y-156373809D01*
X306616666Y-156897619D02*
X307378571Y-156897619D01*
X307616666Y-156802380D02*
X307616666Y-156135714D01*
X307616666Y-156326190D02*
X307664285Y-156230952D01*
X307711904Y-156183333D01*
X307807142Y-156135714D01*
X307902380Y-156135714D01*
X308235714Y-156802380D02*
X308235714Y-156135714D01*
X308235714Y-155802380D02*
X308188095Y-155850000D01*
X308235714Y-155897619D01*
X308283333Y-155850000D01*
X308235714Y-155802380D01*
X308235714Y-155897619D01*
X309140476Y-156135714D02*
X309140476Y-156945238D01*
X309092857Y-157040476D01*
X309045238Y-157088095D01*
X308950000Y-157135714D01*
X308807142Y-157135714D01*
X308711904Y-157088095D01*
X309140476Y-156754761D02*
X309045238Y-156802380D01*
X308854761Y-156802380D01*
X308759523Y-156754761D01*
X308711904Y-156707142D01*
X308664285Y-156611904D01*
X308664285Y-156326190D01*
X308711904Y-156230952D01*
X308759523Y-156183333D01*
X308854761Y-156135714D01*
X309045238Y-156135714D01*
X309140476Y-156183333D01*
X309616666Y-156802380D02*
X309616666Y-155802380D01*
X310045238Y-156802380D02*
X310045238Y-156278571D01*
X309997619Y-156183333D01*
X309902380Y-156135714D01*
X309759523Y-156135714D01*
X309664285Y-156183333D01*
X309616666Y-156230952D01*
X310378571Y-156135714D02*
X310759523Y-156135714D01*
X310521428Y-155802380D02*
X310521428Y-156659523D01*
X310569047Y-156754761D01*
X310664285Y-156802380D01*
X310759523Y-156802380D01*
X311045238Y-156754761D02*
X311188095Y-156802380D01*
X311426190Y-156802380D01*
X311521428Y-156754761D01*
X311569047Y-156707142D01*
X311616666Y-156611904D01*
X311616666Y-156516666D01*
X311569047Y-156421428D01*
X311521428Y-156373809D01*
X311426190Y-156326190D01*
X311235714Y-156278571D01*
X311140476Y-156230952D01*
X311092857Y-156183333D01*
X311045238Y-156088095D01*
X311045238Y-155992857D01*
X311092857Y-155897619D01*
X311140476Y-155850000D01*
X311235714Y-155802380D01*
X311473809Y-155802380D01*
X311616666Y-155850000D01*
X312045238Y-156802380D02*
X312045238Y-155802380D01*
X312473809Y-156802380D02*
X312473809Y-156278571D01*
X312426190Y-156183333D01*
X312330952Y-156135714D01*
X312188095Y-156135714D01*
X312092857Y-156183333D01*
X312045238Y-156230952D01*
X312950000Y-156802380D02*
X312950000Y-156135714D01*
X312950000Y-155802380D02*
X312902380Y-155850000D01*
X312950000Y-155897619D01*
X312997619Y-155850000D01*
X312950000Y-155802380D01*
X312950000Y-155897619D01*
X313283333Y-156135714D02*
X313664285Y-156135714D01*
X313426190Y-156802380D02*
X313426190Y-155945238D01*
X313473809Y-155850000D01*
X313569047Y-155802380D01*
X313664285Y-155802380D01*
X313854761Y-156135714D02*
X314235714Y-156135714D01*
X313997619Y-155802380D02*
X313997619Y-156659523D01*
X314045238Y-156754761D01*
X314140476Y-156802380D01*
X314235714Y-156802380D01*
X315092857Y-156802380D02*
X314521428Y-156802380D01*
X314807142Y-156802380D02*
X314807142Y-155802380D01*
X314711904Y-155945238D01*
X314616666Y-156040476D01*
X314521428Y-156088095D01*
%TO.C,K_minus1*%
X276166666Y-99682380D02*
X276166666Y-98682380D01*
X276738095Y-99682380D02*
X276309523Y-99110952D01*
X276738095Y-98682380D02*
X276166666Y-99253809D01*
X276928571Y-99777619D02*
X277690476Y-99777619D01*
X277928571Y-99682380D02*
X277928571Y-99015714D01*
X277928571Y-99110952D02*
X277976190Y-99063333D01*
X278071428Y-99015714D01*
X278214285Y-99015714D01*
X278309523Y-99063333D01*
X278357142Y-99158571D01*
X278357142Y-99682380D01*
X278357142Y-99158571D02*
X278404761Y-99063333D01*
X278500000Y-99015714D01*
X278642857Y-99015714D01*
X278738095Y-99063333D01*
X278785714Y-99158571D01*
X278785714Y-99682380D01*
X279261904Y-99682380D02*
X279261904Y-99015714D01*
X279261904Y-98682380D02*
X279214285Y-98730000D01*
X279261904Y-98777619D01*
X279309523Y-98730000D01*
X279261904Y-98682380D01*
X279261904Y-98777619D01*
X279738095Y-99015714D02*
X279738095Y-99682380D01*
X279738095Y-99110952D02*
X279785714Y-99063333D01*
X279880952Y-99015714D01*
X280023809Y-99015714D01*
X280119047Y-99063333D01*
X280166666Y-99158571D01*
X280166666Y-99682380D01*
X281071428Y-99015714D02*
X281071428Y-99682380D01*
X280642857Y-99015714D02*
X280642857Y-99539523D01*
X280690476Y-99634761D01*
X280785714Y-99682380D01*
X280928571Y-99682380D01*
X281023809Y-99634761D01*
X281071428Y-99587142D01*
X281500000Y-99634761D02*
X281595238Y-99682380D01*
X281785714Y-99682380D01*
X281880952Y-99634761D01*
X281928571Y-99539523D01*
X281928571Y-99491904D01*
X281880952Y-99396666D01*
X281785714Y-99349047D01*
X281642857Y-99349047D01*
X281547619Y-99301428D01*
X281500000Y-99206190D01*
X281500000Y-99158571D01*
X281547619Y-99063333D01*
X281642857Y-99015714D01*
X281785714Y-99015714D01*
X281880952Y-99063333D01*
X282880952Y-99682380D02*
X282309523Y-99682380D01*
X282595238Y-99682380D02*
X282595238Y-98682380D01*
X282500000Y-98825238D01*
X282404761Y-98920476D01*
X282309523Y-98968095D01*
%TO.C,K_W1*%
X115859523Y-118702380D02*
X115859523Y-117702380D01*
X116430952Y-118702380D02*
X116002380Y-118130952D01*
X116430952Y-117702380D02*
X115859523Y-118273809D01*
X116621428Y-118797619D02*
X117383333Y-118797619D01*
X117526190Y-117702380D02*
X117764285Y-118702380D01*
X117954761Y-117988095D01*
X118145238Y-118702380D01*
X118383333Y-117702380D01*
X119288095Y-118702380D02*
X118716666Y-118702380D01*
X119002380Y-118702380D02*
X119002380Y-117702380D01*
X118907142Y-117845238D01*
X118811904Y-117940476D01*
X118716666Y-117988095D01*
%TO.C,K_5*%
X164130952Y-99702380D02*
X164130952Y-98702380D01*
X164702380Y-99702380D02*
X164273809Y-99130952D01*
X164702380Y-98702380D02*
X164130952Y-99273809D01*
X164892857Y-99797619D02*
X165654761Y-99797619D01*
X166369047Y-98702380D02*
X165892857Y-98702380D01*
X165845238Y-99178571D01*
X165892857Y-99130952D01*
X165988095Y-99083333D01*
X166226190Y-99083333D01*
X166321428Y-99130952D01*
X166369047Y-99178571D01*
X166416666Y-99273809D01*
X166416666Y-99511904D01*
X166369047Y-99607142D01*
X166321428Y-99654761D01*
X166226190Y-99702380D01*
X165988095Y-99702380D01*
X165892857Y-99654761D01*
X165845238Y-99607142D01*
%TO.C,K_3*%
X126030952Y-99702380D02*
X126030952Y-98702380D01*
X126602380Y-99702380D02*
X126173809Y-99130952D01*
X126602380Y-98702380D02*
X126030952Y-99273809D01*
X126792857Y-99797619D02*
X127554761Y-99797619D01*
X127697619Y-98702380D02*
X128316666Y-98702380D01*
X127983333Y-99083333D01*
X128126190Y-99083333D01*
X128221428Y-99130952D01*
X128269047Y-99178571D01*
X128316666Y-99273809D01*
X128316666Y-99511904D01*
X128269047Y-99607142D01*
X128221428Y-99654761D01*
X128126190Y-99702380D01*
X127840476Y-99702380D01*
X127745238Y-99654761D01*
X127697619Y-99607142D01*
%TO.C,K_quote1*%
X290659523Y-137802380D02*
X290659523Y-136802380D01*
X291230952Y-137802380D02*
X290802380Y-137230952D01*
X291230952Y-136802380D02*
X290659523Y-137373809D01*
X291421428Y-137897619D02*
X292183333Y-137897619D01*
X292850000Y-137135714D02*
X292850000Y-138135714D01*
X292850000Y-137754761D02*
X292754761Y-137802380D01*
X292564285Y-137802380D01*
X292469047Y-137754761D01*
X292421428Y-137707142D01*
X292373809Y-137611904D01*
X292373809Y-137326190D01*
X292421428Y-137230952D01*
X292469047Y-137183333D01*
X292564285Y-137135714D01*
X292754761Y-137135714D01*
X292850000Y-137183333D01*
X293754761Y-137135714D02*
X293754761Y-137802380D01*
X293326190Y-137135714D02*
X293326190Y-137659523D01*
X293373809Y-137754761D01*
X293469047Y-137802380D01*
X293611904Y-137802380D01*
X293707142Y-137754761D01*
X293754761Y-137707142D01*
X294373809Y-137802380D02*
X294278571Y-137754761D01*
X294230952Y-137707142D01*
X294183333Y-137611904D01*
X294183333Y-137326190D01*
X294230952Y-137230952D01*
X294278571Y-137183333D01*
X294373809Y-137135714D01*
X294516666Y-137135714D01*
X294611904Y-137183333D01*
X294659523Y-137230952D01*
X294707142Y-137326190D01*
X294707142Y-137611904D01*
X294659523Y-137707142D01*
X294611904Y-137754761D01*
X294516666Y-137802380D01*
X294373809Y-137802380D01*
X294992857Y-137135714D02*
X295373809Y-137135714D01*
X295135714Y-136802380D02*
X295135714Y-137659523D01*
X295183333Y-137754761D01*
X295278571Y-137802380D01*
X295373809Y-137802380D01*
X296088095Y-137754761D02*
X295992857Y-137802380D01*
X295802380Y-137802380D01*
X295707142Y-137754761D01*
X295659523Y-137659523D01*
X295659523Y-137278571D01*
X295707142Y-137183333D01*
X295802380Y-137135714D01*
X295992857Y-137135714D01*
X296088095Y-137183333D01*
X296135714Y-137278571D01*
X296135714Y-137373809D01*
X295659523Y-137469047D01*
X297088095Y-137802380D02*
X296516666Y-137802380D01*
X296802380Y-137802380D02*
X296802380Y-136802380D01*
X296707142Y-136945238D01*
X296611904Y-137040476D01*
X296516666Y-137088095D01*
%TO.C,K_F7*%
X211302380Y-75902380D02*
X211302380Y-74902380D01*
X211873809Y-75902380D02*
X211445238Y-75330952D01*
X211873809Y-74902380D02*
X211302380Y-75473809D01*
X212064285Y-75997619D02*
X212826190Y-75997619D01*
X213397619Y-75378571D02*
X213064285Y-75378571D01*
X213064285Y-75902380D02*
X213064285Y-74902380D01*
X213540476Y-74902380D01*
X213826190Y-74902380D02*
X214492857Y-74902380D01*
X214064285Y-75902380D01*
%TO.C,K_K1*%
X235030952Y-137802380D02*
X235030952Y-136802380D01*
X235602380Y-137802380D02*
X235173809Y-137230952D01*
X235602380Y-136802380D02*
X235030952Y-137373809D01*
X235792857Y-137897619D02*
X236554761Y-137897619D01*
X236792857Y-137802380D02*
X236792857Y-136802380D01*
X237364285Y-137802380D02*
X236935714Y-137230952D01*
X237364285Y-136802380D02*
X236792857Y-137373809D01*
X238316666Y-137802380D02*
X237745238Y-137802380D01*
X238030952Y-137802380D02*
X238030952Y-136802380D01*
X237935714Y-136945238D01*
X237840476Y-137040476D01*
X237745238Y-137088095D01*
%TO.C,K_comma1*%
X242464285Y-156802380D02*
X242464285Y-155802380D01*
X243035714Y-156802380D02*
X242607142Y-156230952D01*
X243035714Y-155802380D02*
X242464285Y-156373809D01*
X243226190Y-156897619D02*
X243988095Y-156897619D01*
X244654761Y-156754761D02*
X244559523Y-156802380D01*
X244369047Y-156802380D01*
X244273809Y-156754761D01*
X244226190Y-156707142D01*
X244178571Y-156611904D01*
X244178571Y-156326190D01*
X244226190Y-156230952D01*
X244273809Y-156183333D01*
X244369047Y-156135714D01*
X244559523Y-156135714D01*
X244654761Y-156183333D01*
X245226190Y-156802380D02*
X245130952Y-156754761D01*
X245083333Y-156707142D01*
X245035714Y-156611904D01*
X245035714Y-156326190D01*
X245083333Y-156230952D01*
X245130952Y-156183333D01*
X245226190Y-156135714D01*
X245369047Y-156135714D01*
X245464285Y-156183333D01*
X245511904Y-156230952D01*
X245559523Y-156326190D01*
X245559523Y-156611904D01*
X245511904Y-156707142D01*
X245464285Y-156754761D01*
X245369047Y-156802380D01*
X245226190Y-156802380D01*
X245988095Y-156802380D02*
X245988095Y-156135714D01*
X245988095Y-156230952D02*
X246035714Y-156183333D01*
X246130952Y-156135714D01*
X246273809Y-156135714D01*
X246369047Y-156183333D01*
X246416666Y-156278571D01*
X246416666Y-156802380D01*
X246416666Y-156278571D02*
X246464285Y-156183333D01*
X246559523Y-156135714D01*
X246702380Y-156135714D01*
X246797619Y-156183333D01*
X246845238Y-156278571D01*
X246845238Y-156802380D01*
X247321428Y-156802380D02*
X247321428Y-156135714D01*
X247321428Y-156230952D02*
X247369047Y-156183333D01*
X247464285Y-156135714D01*
X247607142Y-156135714D01*
X247702380Y-156183333D01*
X247750000Y-156278571D01*
X247750000Y-156802380D01*
X247750000Y-156278571D02*
X247797619Y-156183333D01*
X247892857Y-156135714D01*
X248035714Y-156135714D01*
X248130952Y-156183333D01*
X248178571Y-156278571D01*
X248178571Y-156802380D01*
X249083333Y-156802380D02*
X249083333Y-156278571D01*
X249035714Y-156183333D01*
X248940476Y-156135714D01*
X248750000Y-156135714D01*
X248654761Y-156183333D01*
X249083333Y-156754761D02*
X248988095Y-156802380D01*
X248750000Y-156802380D01*
X248654761Y-156754761D01*
X248607142Y-156659523D01*
X248607142Y-156564285D01*
X248654761Y-156469047D01*
X248750000Y-156421428D01*
X248988095Y-156421428D01*
X249083333Y-156373809D01*
X250083333Y-156802380D02*
X249511904Y-156802380D01*
X249797619Y-156802380D02*
X249797619Y-155802380D01*
X249702380Y-155945238D01*
X249607142Y-156040476D01*
X249511904Y-156088095D01*
%TO.C,K_1*%
X87930952Y-99702380D02*
X87930952Y-98702380D01*
X88502380Y-99702380D02*
X88073809Y-99130952D01*
X88502380Y-98702380D02*
X87930952Y-99273809D01*
X88692857Y-99797619D02*
X89454761Y-99797619D01*
X90216666Y-99702380D02*
X89645238Y-99702380D01*
X89930952Y-99702380D02*
X89930952Y-98702380D01*
X89835714Y-98845238D01*
X89740476Y-98940476D01*
X89645238Y-98988095D01*
%TO.C,K_4*%
X145030952Y-99702380D02*
X145030952Y-98702380D01*
X145602380Y-99702380D02*
X145173809Y-99130952D01*
X145602380Y-98702380D02*
X145030952Y-99273809D01*
X145792857Y-99797619D02*
X146554761Y-99797619D01*
X147221428Y-99035714D02*
X147221428Y-99702380D01*
X146983333Y-98654761D02*
X146745238Y-99369047D01*
X147364285Y-99369047D01*
%TO.C,K_0*%
X259330952Y-99702380D02*
X259330952Y-98702380D01*
X259902380Y-99702380D02*
X259473809Y-99130952D01*
X259902380Y-98702380D02*
X259330952Y-99273809D01*
X260092857Y-99797619D02*
X260854761Y-99797619D01*
X261283333Y-98702380D02*
X261378571Y-98702380D01*
X261473809Y-98750000D01*
X261521428Y-98797619D01*
X261569047Y-98892857D01*
X261616666Y-99083333D01*
X261616666Y-99321428D01*
X261569047Y-99511904D01*
X261521428Y-99607142D01*
X261473809Y-99654761D01*
X261378571Y-99702380D01*
X261283333Y-99702380D01*
X261188095Y-99654761D01*
X261140476Y-99607142D01*
X261092857Y-99511904D01*
X261045238Y-99321428D01*
X261045238Y-99083333D01*
X261092857Y-98892857D01*
X261140476Y-98797619D01*
X261188095Y-98750000D01*
X261283333Y-98702380D01*
%TO.C,K_L1*%
X254226190Y-137802380D02*
X254226190Y-136802380D01*
X254797619Y-137802380D02*
X254369047Y-137230952D01*
X254797619Y-136802380D02*
X254226190Y-137373809D01*
X254988095Y-137897619D02*
X255750000Y-137897619D01*
X256464285Y-137802380D02*
X255988095Y-137802380D01*
X255988095Y-136802380D01*
X257321428Y-137802380D02*
X256750000Y-137802380D01*
X257035714Y-137802380D02*
X257035714Y-136802380D01*
X256940476Y-136945238D01*
X256845238Y-137040476D01*
X256750000Y-137088095D01*
%TO.C,K_closeBracket1*%
X302245238Y-118702380D02*
X302245238Y-117702380D01*
X302816666Y-118702380D02*
X302388095Y-118130952D01*
X302816666Y-117702380D02*
X302245238Y-118273809D01*
X303007142Y-118797619D02*
X303769047Y-118797619D01*
X304435714Y-118654761D02*
X304340476Y-118702380D01*
X304150000Y-118702380D01*
X304054761Y-118654761D01*
X304007142Y-118607142D01*
X303959523Y-118511904D01*
X303959523Y-118226190D01*
X304007142Y-118130952D01*
X304054761Y-118083333D01*
X304150000Y-118035714D01*
X304340476Y-118035714D01*
X304435714Y-118083333D01*
X305007142Y-118702380D02*
X304911904Y-118654761D01*
X304864285Y-118559523D01*
X304864285Y-117702380D01*
X305530952Y-118702380D02*
X305435714Y-118654761D01*
X305388095Y-118607142D01*
X305340476Y-118511904D01*
X305340476Y-118226190D01*
X305388095Y-118130952D01*
X305435714Y-118083333D01*
X305530952Y-118035714D01*
X305673809Y-118035714D01*
X305769047Y-118083333D01*
X305816666Y-118130952D01*
X305864285Y-118226190D01*
X305864285Y-118511904D01*
X305816666Y-118607142D01*
X305769047Y-118654761D01*
X305673809Y-118702380D01*
X305530952Y-118702380D01*
X306245238Y-118654761D02*
X306340476Y-118702380D01*
X306530952Y-118702380D01*
X306626190Y-118654761D01*
X306673809Y-118559523D01*
X306673809Y-118511904D01*
X306626190Y-118416666D01*
X306530952Y-118369047D01*
X306388095Y-118369047D01*
X306292857Y-118321428D01*
X306245238Y-118226190D01*
X306245238Y-118178571D01*
X306292857Y-118083333D01*
X306388095Y-118035714D01*
X306530952Y-118035714D01*
X306626190Y-118083333D01*
X307483333Y-118654761D02*
X307388095Y-118702380D01*
X307197619Y-118702380D01*
X307102380Y-118654761D01*
X307054761Y-118559523D01*
X307054761Y-118178571D01*
X307102380Y-118083333D01*
X307197619Y-118035714D01*
X307388095Y-118035714D01*
X307483333Y-118083333D01*
X307530952Y-118178571D01*
X307530952Y-118273809D01*
X307054761Y-118369047D01*
X308292857Y-118178571D02*
X308435714Y-118226190D01*
X308483333Y-118273809D01*
X308530952Y-118369047D01*
X308530952Y-118511904D01*
X308483333Y-118607142D01*
X308435714Y-118654761D01*
X308340476Y-118702380D01*
X307959523Y-118702380D01*
X307959523Y-117702380D01*
X308292857Y-117702380D01*
X308388095Y-117750000D01*
X308435714Y-117797619D01*
X308483333Y-117892857D01*
X308483333Y-117988095D01*
X308435714Y-118083333D01*
X308388095Y-118130952D01*
X308292857Y-118178571D01*
X307959523Y-118178571D01*
X308959523Y-118702380D02*
X308959523Y-118035714D01*
X308959523Y-118226190D02*
X309007142Y-118130952D01*
X309054761Y-118083333D01*
X309150000Y-118035714D01*
X309245238Y-118035714D01*
X310007142Y-118702380D02*
X310007142Y-118178571D01*
X309959523Y-118083333D01*
X309864285Y-118035714D01*
X309673809Y-118035714D01*
X309578571Y-118083333D01*
X310007142Y-118654761D02*
X309911904Y-118702380D01*
X309673809Y-118702380D01*
X309578571Y-118654761D01*
X309530952Y-118559523D01*
X309530952Y-118464285D01*
X309578571Y-118369047D01*
X309673809Y-118321428D01*
X309911904Y-118321428D01*
X310007142Y-118273809D01*
X310911904Y-118654761D02*
X310816666Y-118702380D01*
X310626190Y-118702380D01*
X310530952Y-118654761D01*
X310483333Y-118607142D01*
X310435714Y-118511904D01*
X310435714Y-118226190D01*
X310483333Y-118130952D01*
X310530952Y-118083333D01*
X310626190Y-118035714D01*
X310816666Y-118035714D01*
X310911904Y-118083333D01*
X311340476Y-118702380D02*
X311340476Y-117702380D01*
X311435714Y-118321428D02*
X311721428Y-118702380D01*
X311721428Y-118035714D02*
X311340476Y-118416666D01*
X312530952Y-118654761D02*
X312435714Y-118702380D01*
X312245238Y-118702380D01*
X312150000Y-118654761D01*
X312102380Y-118559523D01*
X312102380Y-118178571D01*
X312150000Y-118083333D01*
X312245238Y-118035714D01*
X312435714Y-118035714D01*
X312530952Y-118083333D01*
X312578571Y-118178571D01*
X312578571Y-118273809D01*
X312102380Y-118369047D01*
X312864285Y-118035714D02*
X313245238Y-118035714D01*
X313007142Y-117702380D02*
X313007142Y-118559523D01*
X313054761Y-118654761D01*
X313150000Y-118702380D01*
X313245238Y-118702380D01*
X314102380Y-118702380D02*
X313530952Y-118702380D01*
X313816666Y-118702380D02*
X313816666Y-117702380D01*
X313721428Y-117845238D01*
X313626190Y-117940476D01*
X313530952Y-117988095D01*
%TO.C,K_Y1*%
X192302380Y-118702380D02*
X192302380Y-117702380D01*
X192873809Y-118702380D02*
X192445238Y-118130952D01*
X192873809Y-117702380D02*
X192302380Y-118273809D01*
X193064285Y-118797619D02*
X193826190Y-118797619D01*
X194254761Y-118226190D02*
X194254761Y-118702380D01*
X193921428Y-117702380D02*
X194254761Y-118226190D01*
X194588095Y-117702380D01*
X195445238Y-118702380D02*
X194873809Y-118702380D01*
X195159523Y-118702380D02*
X195159523Y-117702380D01*
X195064285Y-117845238D01*
X194969047Y-117940476D01*
X194873809Y-117988095D01*
%TO.C,K_backSlash1*%
X327045238Y-118702380D02*
X327045238Y-117702380D01*
X327616666Y-118702380D02*
X327188095Y-118130952D01*
X327616666Y-117702380D02*
X327045238Y-118273809D01*
X327807142Y-118797619D02*
X328569047Y-118797619D01*
X328807142Y-118702380D02*
X328807142Y-117702380D01*
X328807142Y-118083333D02*
X328902380Y-118035714D01*
X329092857Y-118035714D01*
X329188095Y-118083333D01*
X329235714Y-118130952D01*
X329283333Y-118226190D01*
X329283333Y-118511904D01*
X329235714Y-118607142D01*
X329188095Y-118654761D01*
X329092857Y-118702380D01*
X328902380Y-118702380D01*
X328807142Y-118654761D01*
X330140476Y-118702380D02*
X330140476Y-118178571D01*
X330092857Y-118083333D01*
X329997619Y-118035714D01*
X329807142Y-118035714D01*
X329711904Y-118083333D01*
X330140476Y-118654761D02*
X330045238Y-118702380D01*
X329807142Y-118702380D01*
X329711904Y-118654761D01*
X329664285Y-118559523D01*
X329664285Y-118464285D01*
X329711904Y-118369047D01*
X329807142Y-118321428D01*
X330045238Y-118321428D01*
X330140476Y-118273809D01*
X331045238Y-118654761D02*
X330950000Y-118702380D01*
X330759523Y-118702380D01*
X330664285Y-118654761D01*
X330616666Y-118607142D01*
X330569047Y-118511904D01*
X330569047Y-118226190D01*
X330616666Y-118130952D01*
X330664285Y-118083333D01*
X330759523Y-118035714D01*
X330950000Y-118035714D01*
X331045238Y-118083333D01*
X331473809Y-118702380D02*
X331473809Y-117702380D01*
X331569047Y-118321428D02*
X331854761Y-118702380D01*
X331854761Y-118035714D02*
X331473809Y-118416666D01*
X332235714Y-118654761D02*
X332378571Y-118702380D01*
X332616666Y-118702380D01*
X332711904Y-118654761D01*
X332759523Y-118607142D01*
X332807142Y-118511904D01*
X332807142Y-118416666D01*
X332759523Y-118321428D01*
X332711904Y-118273809D01*
X332616666Y-118226190D01*
X332426190Y-118178571D01*
X332330952Y-118130952D01*
X332283333Y-118083333D01*
X332235714Y-117988095D01*
X332235714Y-117892857D01*
X332283333Y-117797619D01*
X332330952Y-117750000D01*
X332426190Y-117702380D01*
X332664285Y-117702380D01*
X332807142Y-117750000D01*
X333378571Y-118702380D02*
X333283333Y-118654761D01*
X333235714Y-118559523D01*
X333235714Y-117702380D01*
X334188095Y-118702380D02*
X334188095Y-118178571D01*
X334140476Y-118083333D01*
X334045238Y-118035714D01*
X333854761Y-118035714D01*
X333759523Y-118083333D01*
X334188095Y-118654761D02*
X334092857Y-118702380D01*
X333854761Y-118702380D01*
X333759523Y-118654761D01*
X333711904Y-118559523D01*
X333711904Y-118464285D01*
X333759523Y-118369047D01*
X333854761Y-118321428D01*
X334092857Y-118321428D01*
X334188095Y-118273809D01*
X334616666Y-118654761D02*
X334711904Y-118702380D01*
X334902380Y-118702380D01*
X334997619Y-118654761D01*
X335045238Y-118559523D01*
X335045238Y-118511904D01*
X334997619Y-118416666D01*
X334902380Y-118369047D01*
X334759523Y-118369047D01*
X334664285Y-118321428D01*
X334616666Y-118226190D01*
X334616666Y-118178571D01*
X334664285Y-118083333D01*
X334759523Y-118035714D01*
X334902380Y-118035714D01*
X334997619Y-118083333D01*
X335473809Y-118702380D02*
X335473809Y-117702380D01*
X335902380Y-118702380D02*
X335902380Y-118178571D01*
X335854761Y-118083333D01*
X335759523Y-118035714D01*
X335616666Y-118035714D01*
X335521428Y-118083333D01*
X335473809Y-118130952D01*
X336902380Y-118702380D02*
X336330952Y-118702380D01*
X336616666Y-118702380D02*
X336616666Y-117702380D01*
X336521428Y-117845238D01*
X336426190Y-117940476D01*
X336330952Y-117988095D01*
%TO.C,K_upArrow1*%
X337402380Y-161602380D02*
X337402380Y-160602380D01*
X337973809Y-161602380D02*
X337545238Y-161030952D01*
X337973809Y-160602380D02*
X337402380Y-161173809D01*
X338164285Y-161697619D02*
X338926190Y-161697619D01*
X339592857Y-160935714D02*
X339592857Y-161602380D01*
X339164285Y-160935714D02*
X339164285Y-161459523D01*
X339211904Y-161554761D01*
X339307142Y-161602380D01*
X339450000Y-161602380D01*
X339545238Y-161554761D01*
X339592857Y-161507142D01*
X340069047Y-160935714D02*
X340069047Y-161935714D01*
X340069047Y-160983333D02*
X340164285Y-160935714D01*
X340354761Y-160935714D01*
X340450000Y-160983333D01*
X340497619Y-161030952D01*
X340545238Y-161126190D01*
X340545238Y-161411904D01*
X340497619Y-161507142D01*
X340450000Y-161554761D01*
X340354761Y-161602380D01*
X340164285Y-161602380D01*
X340069047Y-161554761D01*
X340926190Y-161316666D02*
X341402380Y-161316666D01*
X340830952Y-161602380D02*
X341164285Y-160602380D01*
X341497619Y-161602380D01*
X341830952Y-161602380D02*
X341830952Y-160935714D01*
X341830952Y-161126190D02*
X341878571Y-161030952D01*
X341926190Y-160983333D01*
X342021428Y-160935714D01*
X342116666Y-160935714D01*
X342450000Y-161602380D02*
X342450000Y-160935714D01*
X342450000Y-161126190D02*
X342497619Y-161030952D01*
X342545238Y-160983333D01*
X342640476Y-160935714D01*
X342735714Y-160935714D01*
X343211904Y-161602380D02*
X343116666Y-161554761D01*
X343069047Y-161507142D01*
X343021428Y-161411904D01*
X343021428Y-161126190D01*
X343069047Y-161030952D01*
X343116666Y-160983333D01*
X343211904Y-160935714D01*
X343354761Y-160935714D01*
X343450000Y-160983333D01*
X343497619Y-161030952D01*
X343545238Y-161126190D01*
X343545238Y-161411904D01*
X343497619Y-161507142D01*
X343450000Y-161554761D01*
X343354761Y-161602380D01*
X343211904Y-161602380D01*
X343878571Y-160935714D02*
X344069047Y-161602380D01*
X344259523Y-161126190D01*
X344450000Y-161602380D01*
X344640476Y-160935714D01*
X345545238Y-161602380D02*
X344973809Y-161602380D01*
X345259523Y-161602380D02*
X345259523Y-160602380D01*
X345164285Y-160745238D01*
X345069047Y-160840476D01*
X344973809Y-160888095D01*
%TO.C,K_S1*%
X120754761Y-137802380D02*
X120754761Y-136802380D01*
X121326190Y-137802380D02*
X120897619Y-137230952D01*
X121326190Y-136802380D02*
X120754761Y-137373809D01*
X121516666Y-137897619D02*
X122278571Y-137897619D01*
X122469047Y-137754761D02*
X122611904Y-137802380D01*
X122850000Y-137802380D01*
X122945238Y-137754761D01*
X122992857Y-137707142D01*
X123040476Y-137611904D01*
X123040476Y-137516666D01*
X122992857Y-137421428D01*
X122945238Y-137373809D01*
X122850000Y-137326190D01*
X122659523Y-137278571D01*
X122564285Y-137230952D01*
X122516666Y-137183333D01*
X122469047Y-137088095D01*
X122469047Y-136992857D01*
X122516666Y-136897619D01*
X122564285Y-136850000D01*
X122659523Y-136802380D01*
X122897619Y-136802380D01*
X123040476Y-136850000D01*
X123992857Y-137802380D02*
X123421428Y-137802380D01*
X123707142Y-137802380D02*
X123707142Y-136802380D01*
X123611904Y-136945238D01*
X123516666Y-137040476D01*
X123421428Y-137088095D01*
%TO.C,K_F4*%
X149402380Y-75802380D02*
X149402380Y-74802380D01*
X149973809Y-75802380D02*
X149545238Y-75230952D01*
X149973809Y-74802380D02*
X149402380Y-75373809D01*
X150164285Y-75897619D02*
X150926190Y-75897619D01*
X151497619Y-75278571D02*
X151164285Y-75278571D01*
X151164285Y-75802380D02*
X151164285Y-74802380D01*
X151640476Y-74802380D01*
X152450000Y-75135714D02*
X152450000Y-75802380D01*
X152211904Y-74754761D02*
X151973809Y-75469047D01*
X152592857Y-75469047D01*
%TO.C,K_Z1*%
X111254761Y-156802380D02*
X111254761Y-155802380D01*
X111826190Y-156802380D02*
X111397619Y-156230952D01*
X111826190Y-155802380D02*
X111254761Y-156373809D01*
X112016666Y-156897619D02*
X112778571Y-156897619D01*
X112921428Y-155802380D02*
X113588095Y-155802380D01*
X112921428Y-156802380D01*
X113588095Y-156802380D01*
X114492857Y-156802380D02*
X113921428Y-156802380D01*
X114207142Y-156802380D02*
X114207142Y-155802380D01*
X114111904Y-155945238D01*
X114016666Y-156040476D01*
X113921428Y-156088095D01*
%TO.C,K_Q1*%
X96907142Y-118702380D02*
X96907142Y-117702380D01*
X97478571Y-118702380D02*
X97050000Y-118130952D01*
X97478571Y-117702380D02*
X96907142Y-118273809D01*
X97669047Y-118797619D02*
X98430952Y-118797619D01*
X99335714Y-118797619D02*
X99240476Y-118750000D01*
X99145238Y-118654761D01*
X99002380Y-118511904D01*
X98907142Y-118464285D01*
X98811904Y-118464285D01*
X98859523Y-118702380D02*
X98764285Y-118654761D01*
X98669047Y-118559523D01*
X98621428Y-118369047D01*
X98621428Y-118035714D01*
X98669047Y-117845238D01*
X98764285Y-117750000D01*
X98859523Y-117702380D01*
X99050000Y-117702380D01*
X99145238Y-117750000D01*
X99240476Y-117845238D01*
X99288095Y-118035714D01*
X99288095Y-118369047D01*
X99240476Y-118559523D01*
X99145238Y-118654761D01*
X99050000Y-118702380D01*
X98859523Y-118702380D01*
X100240476Y-118702380D02*
X99669047Y-118702380D01*
X99954761Y-118702380D02*
X99954761Y-117702380D01*
X99859523Y-117845238D01*
X99764285Y-117940476D01*
X99669047Y-117988095D01*
%TO.C,K_downArrow1*%
X336426190Y-180602380D02*
X336426190Y-179602380D01*
X336997619Y-180602380D02*
X336569047Y-180030952D01*
X336997619Y-179602380D02*
X336426190Y-180173809D01*
X337188095Y-180697619D02*
X337950000Y-180697619D01*
X338616666Y-180602380D02*
X338616666Y-179602380D01*
X338616666Y-180554761D02*
X338521428Y-180602380D01*
X338330952Y-180602380D01*
X338235714Y-180554761D01*
X338188095Y-180507142D01*
X338140476Y-180411904D01*
X338140476Y-180126190D01*
X338188095Y-180030952D01*
X338235714Y-179983333D01*
X338330952Y-179935714D01*
X338521428Y-179935714D01*
X338616666Y-179983333D01*
X339235714Y-180602380D02*
X339140476Y-180554761D01*
X339092857Y-180507142D01*
X339045238Y-180411904D01*
X339045238Y-180126190D01*
X339092857Y-180030952D01*
X339140476Y-179983333D01*
X339235714Y-179935714D01*
X339378571Y-179935714D01*
X339473809Y-179983333D01*
X339521428Y-180030952D01*
X339569047Y-180126190D01*
X339569047Y-180411904D01*
X339521428Y-180507142D01*
X339473809Y-180554761D01*
X339378571Y-180602380D01*
X339235714Y-180602380D01*
X339902380Y-179935714D02*
X340092857Y-180602380D01*
X340283333Y-180126190D01*
X340473809Y-180602380D01*
X340664285Y-179935714D01*
X341045238Y-179935714D02*
X341045238Y-180602380D01*
X341045238Y-180030952D02*
X341092857Y-179983333D01*
X341188095Y-179935714D01*
X341330952Y-179935714D01*
X341426190Y-179983333D01*
X341473809Y-180078571D01*
X341473809Y-180602380D01*
X341902380Y-180316666D02*
X342378571Y-180316666D01*
X341807142Y-180602380D02*
X342140476Y-179602380D01*
X342473809Y-180602380D01*
X342807142Y-180602380D02*
X342807142Y-179935714D01*
X342807142Y-180126190D02*
X342854761Y-180030952D01*
X342902380Y-179983333D01*
X342997619Y-179935714D01*
X343092857Y-179935714D01*
X343426190Y-180602380D02*
X343426190Y-179935714D01*
X343426190Y-180126190D02*
X343473809Y-180030952D01*
X343521428Y-179983333D01*
X343616666Y-179935714D01*
X343711904Y-179935714D01*
X344188095Y-180602380D02*
X344092857Y-180554761D01*
X344045238Y-180507142D01*
X343997619Y-180411904D01*
X343997619Y-180126190D01*
X344045238Y-180030952D01*
X344092857Y-179983333D01*
X344188095Y-179935714D01*
X344330952Y-179935714D01*
X344426190Y-179983333D01*
X344473809Y-180030952D01*
X344521428Y-180126190D01*
X344521428Y-180411904D01*
X344473809Y-180507142D01*
X344426190Y-180554761D01*
X344330952Y-180602380D01*
X344188095Y-180602380D01*
X344854761Y-179935714D02*
X345045238Y-180602380D01*
X345235714Y-180126190D01*
X345426190Y-180602380D01*
X345616666Y-179935714D01*
X346521428Y-180602380D02*
X345950000Y-180602380D01*
X346235714Y-180602380D02*
X346235714Y-179602380D01*
X346140476Y-179745238D01*
X346045238Y-179840476D01*
X345950000Y-179888095D01*
%TO.C,K_function1*%
X275283333Y-175902380D02*
X275283333Y-174902380D01*
X275854761Y-175902380D02*
X275426190Y-175330952D01*
X275854761Y-174902380D02*
X275283333Y-175473809D01*
X276045238Y-175997619D02*
X276807142Y-175997619D01*
X276902380Y-175235714D02*
X277283333Y-175235714D01*
X277045238Y-175902380D02*
X277045238Y-175045238D01*
X277092857Y-174950000D01*
X277188095Y-174902380D01*
X277283333Y-174902380D01*
X278045238Y-175235714D02*
X278045238Y-175902380D01*
X277616666Y-175235714D02*
X277616666Y-175759523D01*
X277664285Y-175854761D01*
X277759523Y-175902380D01*
X277902380Y-175902380D01*
X277997619Y-175854761D01*
X278045238Y-175807142D01*
X278521428Y-175235714D02*
X278521428Y-175902380D01*
X278521428Y-175330952D02*
X278569047Y-175283333D01*
X278664285Y-175235714D01*
X278807142Y-175235714D01*
X278902380Y-175283333D01*
X278950000Y-175378571D01*
X278950000Y-175902380D01*
X279854761Y-175854761D02*
X279759523Y-175902380D01*
X279569047Y-175902380D01*
X279473809Y-175854761D01*
X279426190Y-175807142D01*
X279378571Y-175711904D01*
X279378571Y-175426190D01*
X279426190Y-175330952D01*
X279473809Y-175283333D01*
X279569047Y-175235714D01*
X279759523Y-175235714D01*
X279854761Y-175283333D01*
X280140476Y-175235714D02*
X280521428Y-175235714D01*
X280283333Y-174902380D02*
X280283333Y-175759523D01*
X280330952Y-175854761D01*
X280426190Y-175902380D01*
X280521428Y-175902380D01*
X280854761Y-175902380D02*
X280854761Y-175235714D01*
X280854761Y-174902380D02*
X280807142Y-174950000D01*
X280854761Y-174997619D01*
X280902380Y-174950000D01*
X280854761Y-174902380D01*
X280854761Y-174997619D01*
X281473809Y-175902380D02*
X281378571Y-175854761D01*
X281330952Y-175807142D01*
X281283333Y-175711904D01*
X281283333Y-175426190D01*
X281330952Y-175330952D01*
X281378571Y-175283333D01*
X281473809Y-175235714D01*
X281616666Y-175235714D01*
X281711904Y-175283333D01*
X281759523Y-175330952D01*
X281807142Y-175426190D01*
X281807142Y-175711904D01*
X281759523Y-175807142D01*
X281711904Y-175854761D01*
X281616666Y-175902380D01*
X281473809Y-175902380D01*
X282235714Y-175235714D02*
X282235714Y-175902380D01*
X282235714Y-175330952D02*
X282283333Y-175283333D01*
X282378571Y-175235714D01*
X282521428Y-175235714D01*
X282616666Y-175283333D01*
X282664285Y-175378571D01*
X282664285Y-175902380D01*
X283664285Y-175902380D02*
X283092857Y-175902380D01*
X283378571Y-175902380D02*
X283378571Y-174902380D01*
X283283333Y-175045238D01*
X283188095Y-175140476D01*
X283092857Y-175188095D01*
%TO.C,K_F13*%
X158526190Y-137702380D02*
X158526190Y-136702380D01*
X159097619Y-137702380D02*
X158669047Y-137130952D01*
X159097619Y-136702380D02*
X158526190Y-137273809D01*
X159288095Y-137797619D02*
X160050000Y-137797619D01*
X160621428Y-137178571D02*
X160288095Y-137178571D01*
X160288095Y-137702380D02*
X160288095Y-136702380D01*
X160764285Y-136702380D01*
X161669047Y-137702380D02*
X161097619Y-137702380D01*
X161383333Y-137702380D02*
X161383333Y-136702380D01*
X161288095Y-136845238D01*
X161192857Y-136940476D01*
X161097619Y-136988095D01*
X162002380Y-136702380D02*
X162621428Y-136702380D01*
X162288095Y-137083333D01*
X162430952Y-137083333D01*
X162526190Y-137130952D01*
X162573809Y-137178571D01*
X162621428Y-137273809D01*
X162621428Y-137511904D01*
X162573809Y-137607142D01*
X162526190Y-137654761D01*
X162430952Y-137702380D01*
X162145238Y-137702380D01*
X162050000Y-137654761D01*
X162002380Y-137607142D01*
%TO.C,K_colon1*%
X271683333Y-137802380D02*
X271683333Y-136802380D01*
X272254761Y-137802380D02*
X271826190Y-137230952D01*
X272254761Y-136802380D02*
X271683333Y-137373809D01*
X272445238Y-137897619D02*
X273207142Y-137897619D01*
X273873809Y-137754761D02*
X273778571Y-137802380D01*
X273588095Y-137802380D01*
X273492857Y-137754761D01*
X273445238Y-137707142D01*
X273397619Y-137611904D01*
X273397619Y-137326190D01*
X273445238Y-137230952D01*
X273492857Y-137183333D01*
X273588095Y-137135714D01*
X273778571Y-137135714D01*
X273873809Y-137183333D01*
X274445238Y-137802380D02*
X274350000Y-137754761D01*
X274302380Y-137707142D01*
X274254761Y-137611904D01*
X274254761Y-137326190D01*
X274302380Y-137230952D01*
X274350000Y-137183333D01*
X274445238Y-137135714D01*
X274588095Y-137135714D01*
X274683333Y-137183333D01*
X274730952Y-137230952D01*
X274778571Y-137326190D01*
X274778571Y-137611904D01*
X274730952Y-137707142D01*
X274683333Y-137754761D01*
X274588095Y-137802380D01*
X274445238Y-137802380D01*
X275350000Y-137802380D02*
X275254761Y-137754761D01*
X275207142Y-137659523D01*
X275207142Y-136802380D01*
X275873809Y-137802380D02*
X275778571Y-137754761D01*
X275730952Y-137707142D01*
X275683333Y-137611904D01*
X275683333Y-137326190D01*
X275730952Y-137230952D01*
X275778571Y-137183333D01*
X275873809Y-137135714D01*
X276016666Y-137135714D01*
X276111904Y-137183333D01*
X276159523Y-137230952D01*
X276207142Y-137326190D01*
X276207142Y-137611904D01*
X276159523Y-137707142D01*
X276111904Y-137754761D01*
X276016666Y-137802380D01*
X275873809Y-137802380D01*
X276635714Y-137135714D02*
X276635714Y-137802380D01*
X276635714Y-137230952D02*
X276683333Y-137183333D01*
X276778571Y-137135714D01*
X276921428Y-137135714D01*
X277016666Y-137183333D01*
X277064285Y-137278571D01*
X277064285Y-137802380D01*
X278064285Y-137802380D02*
X277492857Y-137802380D01*
X277778571Y-137802380D02*
X277778571Y-136802380D01*
X277683333Y-136945238D01*
X277588095Y-137040476D01*
X277492857Y-137088095D01*
%TO.C,K_F8*%
X230302380Y-75902380D02*
X230302380Y-74902380D01*
X230873809Y-75902380D02*
X230445238Y-75330952D01*
X230873809Y-74902380D02*
X230302380Y-75473809D01*
X231064285Y-75997619D02*
X231826190Y-75997619D01*
X232397619Y-75378571D02*
X232064285Y-75378571D01*
X232064285Y-75902380D02*
X232064285Y-74902380D01*
X232540476Y-74902380D01*
X233064285Y-75330952D02*
X232969047Y-75283333D01*
X232921428Y-75235714D01*
X232873809Y-75140476D01*
X232873809Y-75092857D01*
X232921428Y-74997619D01*
X232969047Y-74950000D01*
X233064285Y-74902380D01*
X233254761Y-74902380D01*
X233350000Y-74950000D01*
X233397619Y-74997619D01*
X233445238Y-75092857D01*
X233445238Y-75140476D01*
X233397619Y-75235714D01*
X233350000Y-75283333D01*
X233254761Y-75330952D01*
X233064285Y-75330952D01*
X232969047Y-75378571D01*
X232921428Y-75426190D01*
X232873809Y-75521428D01*
X232873809Y-75711904D01*
X232921428Y-75807142D01*
X232969047Y-75854761D01*
X233064285Y-75902380D01*
X233254761Y-75902380D01*
X233350000Y-75854761D01*
X233397619Y-75807142D01*
X233445238Y-75711904D01*
X233445238Y-75521428D01*
X233397619Y-75426190D01*
X233350000Y-75378571D01*
X233254761Y-75330952D01*
%TO.C,K_6*%
X183230952Y-99702380D02*
X183230952Y-98702380D01*
X183802380Y-99702380D02*
X183373809Y-99130952D01*
X183802380Y-98702380D02*
X183230952Y-99273809D01*
X183992857Y-99797619D02*
X184754761Y-99797619D01*
X185421428Y-98702380D02*
X185230952Y-98702380D01*
X185135714Y-98750000D01*
X185088095Y-98797619D01*
X184992857Y-98940476D01*
X184945238Y-99130952D01*
X184945238Y-99511904D01*
X184992857Y-99607142D01*
X185040476Y-99654761D01*
X185135714Y-99702380D01*
X185326190Y-99702380D01*
X185421428Y-99654761D01*
X185469047Y-99607142D01*
X185516666Y-99511904D01*
X185516666Y-99273809D01*
X185469047Y-99178571D01*
X185421428Y-99130952D01*
X185326190Y-99083333D01*
X185135714Y-99083333D01*
X185040476Y-99130952D01*
X184992857Y-99178571D01*
X184945238Y-99273809D01*
%TO.C,K_C1*%
X149340952Y-156742380D02*
X149340952Y-155742380D01*
X149912380Y-156742380D02*
X149483809Y-156170952D01*
X149912380Y-155742380D02*
X149340952Y-156313809D01*
X150102857Y-156837619D02*
X150864761Y-156837619D01*
X151674285Y-156647142D02*
X151626666Y-156694761D01*
X151483809Y-156742380D01*
X151388571Y-156742380D01*
X151245714Y-156694761D01*
X151150476Y-156599523D01*
X151102857Y-156504285D01*
X151055238Y-156313809D01*
X151055238Y-156170952D01*
X151102857Y-155980476D01*
X151150476Y-155885238D01*
X151245714Y-155790000D01*
X151388571Y-155742380D01*
X151483809Y-155742380D01*
X151626666Y-155790000D01*
X151674285Y-155837619D01*
X152626666Y-156742380D02*
X152055238Y-156742380D01*
X152340952Y-156742380D02*
X152340952Y-155742380D01*
X152245714Y-155885238D01*
X152150476Y-155980476D01*
X152055238Y-156028095D01*
%TO.C,K_rightControl1*%
X292978571Y-175902380D02*
X292978571Y-174902380D01*
X293550000Y-175902380D02*
X293121428Y-175330952D01*
X293550000Y-174902380D02*
X292978571Y-175473809D01*
X293740476Y-175997619D02*
X294502380Y-175997619D01*
X294740476Y-175902380D02*
X294740476Y-175235714D01*
X294740476Y-175426190D02*
X294788095Y-175330952D01*
X294835714Y-175283333D01*
X294930952Y-175235714D01*
X295026190Y-175235714D01*
X295359523Y-175902380D02*
X295359523Y-175235714D01*
X295359523Y-174902380D02*
X295311904Y-174950000D01*
X295359523Y-174997619D01*
X295407142Y-174950000D01*
X295359523Y-174902380D01*
X295359523Y-174997619D01*
X296264285Y-175235714D02*
X296264285Y-176045238D01*
X296216666Y-176140476D01*
X296169047Y-176188095D01*
X296073809Y-176235714D01*
X295930952Y-176235714D01*
X295835714Y-176188095D01*
X296264285Y-175854761D02*
X296169047Y-175902380D01*
X295978571Y-175902380D01*
X295883333Y-175854761D01*
X295835714Y-175807142D01*
X295788095Y-175711904D01*
X295788095Y-175426190D01*
X295835714Y-175330952D01*
X295883333Y-175283333D01*
X295978571Y-175235714D01*
X296169047Y-175235714D01*
X296264285Y-175283333D01*
X296740476Y-175902380D02*
X296740476Y-174902380D01*
X297169047Y-175902380D02*
X297169047Y-175378571D01*
X297121428Y-175283333D01*
X297026190Y-175235714D01*
X296883333Y-175235714D01*
X296788095Y-175283333D01*
X296740476Y-175330952D01*
X297502380Y-175235714D02*
X297883333Y-175235714D01*
X297645238Y-174902380D02*
X297645238Y-175759523D01*
X297692857Y-175854761D01*
X297788095Y-175902380D01*
X297883333Y-175902380D01*
X298788095Y-175807142D02*
X298740476Y-175854761D01*
X298597619Y-175902380D01*
X298502380Y-175902380D01*
X298359523Y-175854761D01*
X298264285Y-175759523D01*
X298216666Y-175664285D01*
X298169047Y-175473809D01*
X298169047Y-175330952D01*
X298216666Y-175140476D01*
X298264285Y-175045238D01*
X298359523Y-174950000D01*
X298502380Y-174902380D01*
X298597619Y-174902380D01*
X298740476Y-174950000D01*
X298788095Y-174997619D01*
X299359523Y-175902380D02*
X299264285Y-175854761D01*
X299216666Y-175807142D01*
X299169047Y-175711904D01*
X299169047Y-175426190D01*
X299216666Y-175330952D01*
X299264285Y-175283333D01*
X299359523Y-175235714D01*
X299502380Y-175235714D01*
X299597619Y-175283333D01*
X299645238Y-175330952D01*
X299692857Y-175426190D01*
X299692857Y-175711904D01*
X299645238Y-175807142D01*
X299597619Y-175854761D01*
X299502380Y-175902380D01*
X299359523Y-175902380D01*
X300121428Y-175235714D02*
X300121428Y-175902380D01*
X300121428Y-175330952D02*
X300169047Y-175283333D01*
X300264285Y-175235714D01*
X300407142Y-175235714D01*
X300502380Y-175283333D01*
X300550000Y-175378571D01*
X300550000Y-175902380D01*
X300883333Y-175235714D02*
X301264285Y-175235714D01*
X301026190Y-174902380D02*
X301026190Y-175759523D01*
X301073809Y-175854761D01*
X301169047Y-175902380D01*
X301264285Y-175902380D01*
X301597619Y-175902380D02*
X301597619Y-175235714D01*
X301597619Y-175426190D02*
X301645238Y-175330952D01*
X301692857Y-175283333D01*
X301788095Y-175235714D01*
X301883333Y-175235714D01*
X302359523Y-175902380D02*
X302264285Y-175854761D01*
X302216666Y-175807142D01*
X302169047Y-175711904D01*
X302169047Y-175426190D01*
X302216666Y-175330952D01*
X302264285Y-175283333D01*
X302359523Y-175235714D01*
X302502380Y-175235714D01*
X302597619Y-175283333D01*
X302645238Y-175330952D01*
X302692857Y-175426190D01*
X302692857Y-175711904D01*
X302645238Y-175807142D01*
X302597619Y-175854761D01*
X302502380Y-175902380D01*
X302359523Y-175902380D01*
X303264285Y-175902380D02*
X303169047Y-175854761D01*
X303121428Y-175759523D01*
X303121428Y-174902380D01*
X304169047Y-175902380D02*
X303597619Y-175902380D01*
X303883333Y-175902380D02*
X303883333Y-174902380D01*
X303788095Y-175045238D01*
X303692857Y-175140476D01*
X303597619Y-175188095D01*
%TO.C,K_F10*%
X272826190Y-75802380D02*
X272826190Y-74802380D01*
X273397619Y-75802380D02*
X272969047Y-75230952D01*
X273397619Y-74802380D02*
X272826190Y-75373809D01*
X273588095Y-75897619D02*
X274350000Y-75897619D01*
X274921428Y-75278571D02*
X274588095Y-75278571D01*
X274588095Y-75802380D02*
X274588095Y-74802380D01*
X275064285Y-74802380D01*
X275969047Y-75802380D02*
X275397619Y-75802380D01*
X275683333Y-75802380D02*
X275683333Y-74802380D01*
X275588095Y-74945238D01*
X275492857Y-75040476D01*
X275397619Y-75088095D01*
X276588095Y-74802380D02*
X276683333Y-74802380D01*
X276778571Y-74850000D01*
X276826190Y-74897619D01*
X276873809Y-74992857D01*
X276921428Y-75183333D01*
X276921428Y-75421428D01*
X276873809Y-75611904D01*
X276826190Y-75707142D01*
X276778571Y-75754761D01*
X276683333Y-75802380D01*
X276588095Y-75802380D01*
X276492857Y-75754761D01*
X276445238Y-75707142D01*
X276397619Y-75611904D01*
X276350000Y-75421428D01*
X276350000Y-75183333D01*
X276397619Y-74992857D01*
X276445238Y-74897619D01*
X276492857Y-74850000D01*
X276588095Y-74802380D01*
%TO.C,K_J1*%
X216150000Y-137702380D02*
X216150000Y-136702380D01*
X216721428Y-137702380D02*
X216292857Y-137130952D01*
X216721428Y-136702380D02*
X216150000Y-137273809D01*
X216911904Y-137797619D02*
X217673809Y-137797619D01*
X218197619Y-136702380D02*
X218197619Y-137416666D01*
X218150000Y-137559523D01*
X218054761Y-137654761D01*
X217911904Y-137702380D01*
X217816666Y-137702380D01*
X219197619Y-137702380D02*
X218626190Y-137702380D01*
X218911904Y-137702380D02*
X218911904Y-136702380D01*
X218816666Y-136845238D01*
X218721428Y-136940476D01*
X218626190Y-136988095D01*
%TO.C,K_X1*%
X130254761Y-156802380D02*
X130254761Y-155802380D01*
X130826190Y-156802380D02*
X130397619Y-156230952D01*
X130826190Y-155802380D02*
X130254761Y-156373809D01*
X131016666Y-156897619D02*
X131778571Y-156897619D01*
X131921428Y-155802380D02*
X132588095Y-156802380D01*
X132588095Y-155802380D02*
X131921428Y-156802380D01*
X133492857Y-156802380D02*
X132921428Y-156802380D01*
X133207142Y-156802380D02*
X133207142Y-155802380D01*
X133111904Y-155945238D01*
X133016666Y-156040476D01*
X132921428Y-156088095D01*
%TO.C,K_leftControl1*%
X67254761Y-175902380D02*
X67254761Y-174902380D01*
X67826190Y-175902380D02*
X67397619Y-175330952D01*
X67826190Y-174902380D02*
X67254761Y-175473809D01*
X68016666Y-175997619D02*
X68778571Y-175997619D01*
X69159523Y-175902380D02*
X69064285Y-175854761D01*
X69016666Y-175759523D01*
X69016666Y-174902380D01*
X69921428Y-175854761D02*
X69826190Y-175902380D01*
X69635714Y-175902380D01*
X69540476Y-175854761D01*
X69492857Y-175759523D01*
X69492857Y-175378571D01*
X69540476Y-175283333D01*
X69635714Y-175235714D01*
X69826190Y-175235714D01*
X69921428Y-175283333D01*
X69969047Y-175378571D01*
X69969047Y-175473809D01*
X69492857Y-175569047D01*
X70254761Y-175235714D02*
X70635714Y-175235714D01*
X70397619Y-175902380D02*
X70397619Y-175045238D01*
X70445238Y-174950000D01*
X70540476Y-174902380D01*
X70635714Y-174902380D01*
X70826190Y-175235714D02*
X71207142Y-175235714D01*
X70969047Y-174902380D02*
X70969047Y-175759523D01*
X71016666Y-175854761D01*
X71111904Y-175902380D01*
X71207142Y-175902380D01*
X72111904Y-175807142D02*
X72064285Y-175854761D01*
X71921428Y-175902380D01*
X71826190Y-175902380D01*
X71683333Y-175854761D01*
X71588095Y-175759523D01*
X71540476Y-175664285D01*
X71492857Y-175473809D01*
X71492857Y-175330952D01*
X71540476Y-175140476D01*
X71588095Y-175045238D01*
X71683333Y-174950000D01*
X71826190Y-174902380D01*
X71921428Y-174902380D01*
X72064285Y-174950000D01*
X72111904Y-174997619D01*
X72683333Y-175902380D02*
X72588095Y-175854761D01*
X72540476Y-175807142D01*
X72492857Y-175711904D01*
X72492857Y-175426190D01*
X72540476Y-175330952D01*
X72588095Y-175283333D01*
X72683333Y-175235714D01*
X72826190Y-175235714D01*
X72921428Y-175283333D01*
X72969047Y-175330952D01*
X73016666Y-175426190D01*
X73016666Y-175711904D01*
X72969047Y-175807142D01*
X72921428Y-175854761D01*
X72826190Y-175902380D01*
X72683333Y-175902380D01*
X73445238Y-175235714D02*
X73445238Y-175902380D01*
X73445238Y-175330952D02*
X73492857Y-175283333D01*
X73588095Y-175235714D01*
X73730952Y-175235714D01*
X73826190Y-175283333D01*
X73873809Y-175378571D01*
X73873809Y-175902380D01*
X74207142Y-175235714D02*
X74588095Y-175235714D01*
X74350000Y-174902380D02*
X74350000Y-175759523D01*
X74397619Y-175854761D01*
X74492857Y-175902380D01*
X74588095Y-175902380D01*
X74921428Y-175902380D02*
X74921428Y-175235714D01*
X74921428Y-175426190D02*
X74969047Y-175330952D01*
X75016666Y-175283333D01*
X75111904Y-175235714D01*
X75207142Y-175235714D01*
X75683333Y-175902380D02*
X75588095Y-175854761D01*
X75540476Y-175807142D01*
X75492857Y-175711904D01*
X75492857Y-175426190D01*
X75540476Y-175330952D01*
X75588095Y-175283333D01*
X75683333Y-175235714D01*
X75826190Y-175235714D01*
X75921428Y-175283333D01*
X75969047Y-175330952D01*
X76016666Y-175426190D01*
X76016666Y-175711904D01*
X75969047Y-175807142D01*
X75921428Y-175854761D01*
X75826190Y-175902380D01*
X75683333Y-175902380D01*
X76588095Y-175902380D02*
X76492857Y-175854761D01*
X76445238Y-175759523D01*
X76445238Y-174902380D01*
X77492857Y-175902380D02*
X76921428Y-175902380D01*
X77207142Y-175902380D02*
X77207142Y-174902380D01*
X77111904Y-175045238D01*
X77016666Y-175140476D01*
X76921428Y-175188095D01*
%TO.C,K_P1*%
X268430952Y-118702380D02*
X268430952Y-117702380D01*
X269002380Y-118702380D02*
X268573809Y-118130952D01*
X269002380Y-117702380D02*
X268430952Y-118273809D01*
X269192857Y-118797619D02*
X269954761Y-118797619D01*
X270192857Y-118702380D02*
X270192857Y-117702380D01*
X270573809Y-117702380D01*
X270669047Y-117750000D01*
X270716666Y-117797619D01*
X270764285Y-117892857D01*
X270764285Y-118035714D01*
X270716666Y-118130952D01*
X270669047Y-118178571D01*
X270573809Y-118226190D01*
X270192857Y-118226190D01*
X271716666Y-118702380D02*
X271145238Y-118702380D01*
X271430952Y-118702380D02*
X271430952Y-117702380D01*
X271335714Y-117845238D01*
X271240476Y-117940476D01*
X271145238Y-117988095D01*
%TO.C,K_questionMark1*%
X278236190Y-156842380D02*
X278236190Y-155842380D01*
X278807619Y-156842380D02*
X278379047Y-156270952D01*
X278807619Y-155842380D02*
X278236190Y-156413809D01*
X278998095Y-156937619D02*
X279760000Y-156937619D01*
X280426666Y-156175714D02*
X280426666Y-157175714D01*
X280426666Y-156794761D02*
X280331428Y-156842380D01*
X280140952Y-156842380D01*
X280045714Y-156794761D01*
X279998095Y-156747142D01*
X279950476Y-156651904D01*
X279950476Y-156366190D01*
X279998095Y-156270952D01*
X280045714Y-156223333D01*
X280140952Y-156175714D01*
X280331428Y-156175714D01*
X280426666Y-156223333D01*
X281331428Y-156175714D02*
X281331428Y-156842380D01*
X280902857Y-156175714D02*
X280902857Y-156699523D01*
X280950476Y-156794761D01*
X281045714Y-156842380D01*
X281188571Y-156842380D01*
X281283809Y-156794761D01*
X281331428Y-156747142D01*
X282188571Y-156794761D02*
X282093333Y-156842380D01*
X281902857Y-156842380D01*
X281807619Y-156794761D01*
X281760000Y-156699523D01*
X281760000Y-156318571D01*
X281807619Y-156223333D01*
X281902857Y-156175714D01*
X282093333Y-156175714D01*
X282188571Y-156223333D01*
X282236190Y-156318571D01*
X282236190Y-156413809D01*
X281760000Y-156509047D01*
X282617142Y-156794761D02*
X282712380Y-156842380D01*
X282902857Y-156842380D01*
X282998095Y-156794761D01*
X283045714Y-156699523D01*
X283045714Y-156651904D01*
X282998095Y-156556666D01*
X282902857Y-156509047D01*
X282760000Y-156509047D01*
X282664761Y-156461428D01*
X282617142Y-156366190D01*
X282617142Y-156318571D01*
X282664761Y-156223333D01*
X282760000Y-156175714D01*
X282902857Y-156175714D01*
X282998095Y-156223333D01*
X283331428Y-156175714D02*
X283712380Y-156175714D01*
X283474285Y-155842380D02*
X283474285Y-156699523D01*
X283521904Y-156794761D01*
X283617142Y-156842380D01*
X283712380Y-156842380D01*
X284045714Y-156842380D02*
X284045714Y-156175714D01*
X284045714Y-155842380D02*
X283998095Y-155890000D01*
X284045714Y-155937619D01*
X284093333Y-155890000D01*
X284045714Y-155842380D01*
X284045714Y-155937619D01*
X284664761Y-156842380D02*
X284569523Y-156794761D01*
X284521904Y-156747142D01*
X284474285Y-156651904D01*
X284474285Y-156366190D01*
X284521904Y-156270952D01*
X284569523Y-156223333D01*
X284664761Y-156175714D01*
X284807619Y-156175714D01*
X284902857Y-156223333D01*
X284950476Y-156270952D01*
X284998095Y-156366190D01*
X284998095Y-156651904D01*
X284950476Y-156747142D01*
X284902857Y-156794761D01*
X284807619Y-156842380D01*
X284664761Y-156842380D01*
X285426666Y-156175714D02*
X285426666Y-156842380D01*
X285426666Y-156270952D02*
X285474285Y-156223333D01*
X285569523Y-156175714D01*
X285712380Y-156175714D01*
X285807619Y-156223333D01*
X285855238Y-156318571D01*
X285855238Y-156842380D01*
X286331428Y-156842380D02*
X286331428Y-155842380D01*
X286664761Y-156556666D01*
X286998095Y-155842380D01*
X286998095Y-156842380D01*
X287902857Y-156842380D02*
X287902857Y-156318571D01*
X287855238Y-156223333D01*
X287760000Y-156175714D01*
X287569523Y-156175714D01*
X287474285Y-156223333D01*
X287902857Y-156794761D02*
X287807619Y-156842380D01*
X287569523Y-156842380D01*
X287474285Y-156794761D01*
X287426666Y-156699523D01*
X287426666Y-156604285D01*
X287474285Y-156509047D01*
X287569523Y-156461428D01*
X287807619Y-156461428D01*
X287902857Y-156413809D01*
X288379047Y-156842380D02*
X288379047Y-156175714D01*
X288379047Y-156366190D02*
X288426666Y-156270952D01*
X288474285Y-156223333D01*
X288569523Y-156175714D01*
X288664761Y-156175714D01*
X288998095Y-156842380D02*
X288998095Y-155842380D01*
X289093333Y-156461428D02*
X289379047Y-156842380D01*
X289379047Y-156175714D02*
X288998095Y-156556666D01*
X290331428Y-156842380D02*
X289760000Y-156842380D01*
X290045714Y-156842380D02*
X290045714Y-155842380D01*
X289950476Y-155985238D01*
X289855238Y-156080476D01*
X289760000Y-156128095D01*
%TO.C,K_backspace1*%
X322126190Y-99702380D02*
X322126190Y-98702380D01*
X322697619Y-99702380D02*
X322269047Y-99130952D01*
X322697619Y-98702380D02*
X322126190Y-99273809D01*
X322888095Y-99797619D02*
X323650000Y-99797619D01*
X323888095Y-99702380D02*
X323888095Y-98702380D01*
X323888095Y-99083333D02*
X323983333Y-99035714D01*
X324173809Y-99035714D01*
X324269047Y-99083333D01*
X324316666Y-99130952D01*
X324364285Y-99226190D01*
X324364285Y-99511904D01*
X324316666Y-99607142D01*
X324269047Y-99654761D01*
X324173809Y-99702380D01*
X323983333Y-99702380D01*
X323888095Y-99654761D01*
X325221428Y-99702380D02*
X325221428Y-99178571D01*
X325173809Y-99083333D01*
X325078571Y-99035714D01*
X324888095Y-99035714D01*
X324792857Y-99083333D01*
X325221428Y-99654761D02*
X325126190Y-99702380D01*
X324888095Y-99702380D01*
X324792857Y-99654761D01*
X324745238Y-99559523D01*
X324745238Y-99464285D01*
X324792857Y-99369047D01*
X324888095Y-99321428D01*
X325126190Y-99321428D01*
X325221428Y-99273809D01*
X326126190Y-99654761D02*
X326030952Y-99702380D01*
X325840476Y-99702380D01*
X325745238Y-99654761D01*
X325697619Y-99607142D01*
X325650000Y-99511904D01*
X325650000Y-99226190D01*
X325697619Y-99130952D01*
X325745238Y-99083333D01*
X325840476Y-99035714D01*
X326030952Y-99035714D01*
X326126190Y-99083333D01*
X326554761Y-99702380D02*
X326554761Y-98702380D01*
X326650000Y-99321428D02*
X326935714Y-99702380D01*
X326935714Y-99035714D02*
X326554761Y-99416666D01*
X327316666Y-99654761D02*
X327411904Y-99702380D01*
X327602380Y-99702380D01*
X327697619Y-99654761D01*
X327745238Y-99559523D01*
X327745238Y-99511904D01*
X327697619Y-99416666D01*
X327602380Y-99369047D01*
X327459523Y-99369047D01*
X327364285Y-99321428D01*
X327316666Y-99226190D01*
X327316666Y-99178571D01*
X327364285Y-99083333D01*
X327459523Y-99035714D01*
X327602380Y-99035714D01*
X327697619Y-99083333D01*
X328173809Y-99035714D02*
X328173809Y-100035714D01*
X328173809Y-99083333D02*
X328269047Y-99035714D01*
X328459523Y-99035714D01*
X328554761Y-99083333D01*
X328602380Y-99130952D01*
X328650000Y-99226190D01*
X328650000Y-99511904D01*
X328602380Y-99607142D01*
X328554761Y-99654761D01*
X328459523Y-99702380D01*
X328269047Y-99702380D01*
X328173809Y-99654761D01*
X329507142Y-99702380D02*
X329507142Y-99178571D01*
X329459523Y-99083333D01*
X329364285Y-99035714D01*
X329173809Y-99035714D01*
X329078571Y-99083333D01*
X329507142Y-99654761D02*
X329411904Y-99702380D01*
X329173809Y-99702380D01*
X329078571Y-99654761D01*
X329030952Y-99559523D01*
X329030952Y-99464285D01*
X329078571Y-99369047D01*
X329173809Y-99321428D01*
X329411904Y-99321428D01*
X329507142Y-99273809D01*
X330411904Y-99654761D02*
X330316666Y-99702380D01*
X330126190Y-99702380D01*
X330030952Y-99654761D01*
X329983333Y-99607142D01*
X329935714Y-99511904D01*
X329935714Y-99226190D01*
X329983333Y-99130952D01*
X330030952Y-99083333D01*
X330126190Y-99035714D01*
X330316666Y-99035714D01*
X330411904Y-99083333D01*
X331221428Y-99654761D02*
X331126190Y-99702380D01*
X330935714Y-99702380D01*
X330840476Y-99654761D01*
X330792857Y-99559523D01*
X330792857Y-99178571D01*
X330840476Y-99083333D01*
X330935714Y-99035714D01*
X331126190Y-99035714D01*
X331221428Y-99083333D01*
X331269047Y-99178571D01*
X331269047Y-99273809D01*
X330792857Y-99369047D01*
X332221428Y-99702380D02*
X331650000Y-99702380D01*
X331935714Y-99702380D02*
X331935714Y-98702380D01*
X331840476Y-98845238D01*
X331745238Y-98940476D01*
X331650000Y-98988095D01*
%TO.C,K_F6*%
X192302380Y-75902380D02*
X192302380Y-74902380D01*
X192873809Y-75902380D02*
X192445238Y-75330952D01*
X192873809Y-74902380D02*
X192302380Y-75473809D01*
X193064285Y-75997619D02*
X193826190Y-75997619D01*
X194397619Y-75378571D02*
X194064285Y-75378571D01*
X194064285Y-75902380D02*
X194064285Y-74902380D01*
X194540476Y-74902380D01*
X195350000Y-74902380D02*
X195159523Y-74902380D01*
X195064285Y-74950000D01*
X195016666Y-74997619D01*
X194921428Y-75140476D01*
X194873809Y-75330952D01*
X194873809Y-75711904D01*
X194921428Y-75807142D01*
X194969047Y-75854761D01*
X195064285Y-75902380D01*
X195254761Y-75902380D01*
X195350000Y-75854761D01*
X195397619Y-75807142D01*
X195445238Y-75711904D01*
X195445238Y-75473809D01*
X195397619Y-75378571D01*
X195350000Y-75330952D01*
X195254761Y-75283333D01*
X195064285Y-75283333D01*
X194969047Y-75330952D01*
X194921428Y-75378571D01*
X194873809Y-75473809D01*
%TO.C,K_openBracket1*%
X283435714Y-118702380D02*
X283435714Y-117702380D01*
X284007142Y-118702380D02*
X283578571Y-118130952D01*
X284007142Y-117702380D02*
X283435714Y-118273809D01*
X284197619Y-118797619D02*
X284959523Y-118797619D01*
X285340476Y-118702380D02*
X285245238Y-118654761D01*
X285197619Y-118607142D01*
X285150000Y-118511904D01*
X285150000Y-118226190D01*
X285197619Y-118130952D01*
X285245238Y-118083333D01*
X285340476Y-118035714D01*
X285483333Y-118035714D01*
X285578571Y-118083333D01*
X285626190Y-118130952D01*
X285673809Y-118226190D01*
X285673809Y-118511904D01*
X285626190Y-118607142D01*
X285578571Y-118654761D01*
X285483333Y-118702380D01*
X285340476Y-118702380D01*
X286102380Y-118035714D02*
X286102380Y-119035714D01*
X286102380Y-118083333D02*
X286197619Y-118035714D01*
X286388095Y-118035714D01*
X286483333Y-118083333D01*
X286530952Y-118130952D01*
X286578571Y-118226190D01*
X286578571Y-118511904D01*
X286530952Y-118607142D01*
X286483333Y-118654761D01*
X286388095Y-118702380D01*
X286197619Y-118702380D01*
X286102380Y-118654761D01*
X287388095Y-118654761D02*
X287292857Y-118702380D01*
X287102380Y-118702380D01*
X287007142Y-118654761D01*
X286959523Y-118559523D01*
X286959523Y-118178571D01*
X287007142Y-118083333D01*
X287102380Y-118035714D01*
X287292857Y-118035714D01*
X287388095Y-118083333D01*
X287435714Y-118178571D01*
X287435714Y-118273809D01*
X286959523Y-118369047D01*
X287864285Y-118035714D02*
X287864285Y-118702380D01*
X287864285Y-118130952D02*
X287911904Y-118083333D01*
X288007142Y-118035714D01*
X288150000Y-118035714D01*
X288245238Y-118083333D01*
X288292857Y-118178571D01*
X288292857Y-118702380D01*
X289102380Y-118178571D02*
X289245238Y-118226190D01*
X289292857Y-118273809D01*
X289340476Y-118369047D01*
X289340476Y-118511904D01*
X289292857Y-118607142D01*
X289245238Y-118654761D01*
X289150000Y-118702380D01*
X288769047Y-118702380D01*
X288769047Y-117702380D01*
X289102380Y-117702380D01*
X289197619Y-117750000D01*
X289245238Y-117797619D01*
X289292857Y-117892857D01*
X289292857Y-117988095D01*
X289245238Y-118083333D01*
X289197619Y-118130952D01*
X289102380Y-118178571D01*
X288769047Y-118178571D01*
X289769047Y-118702380D02*
X289769047Y-118035714D01*
X289769047Y-118226190D02*
X289816666Y-118130952D01*
X289864285Y-118083333D01*
X289959523Y-118035714D01*
X290054761Y-118035714D01*
X290816666Y-118702380D02*
X290816666Y-118178571D01*
X290769047Y-118083333D01*
X290673809Y-118035714D01*
X290483333Y-118035714D01*
X290388095Y-118083333D01*
X290816666Y-118654761D02*
X290721428Y-118702380D01*
X290483333Y-118702380D01*
X290388095Y-118654761D01*
X290340476Y-118559523D01*
X290340476Y-118464285D01*
X290388095Y-118369047D01*
X290483333Y-118321428D01*
X290721428Y-118321428D01*
X290816666Y-118273809D01*
X291721428Y-118654761D02*
X291626190Y-118702380D01*
X291435714Y-118702380D01*
X291340476Y-118654761D01*
X291292857Y-118607142D01*
X291245238Y-118511904D01*
X291245238Y-118226190D01*
X291292857Y-118130952D01*
X291340476Y-118083333D01*
X291435714Y-118035714D01*
X291626190Y-118035714D01*
X291721428Y-118083333D01*
X292150000Y-118702380D02*
X292150000Y-117702380D01*
X292245238Y-118321428D02*
X292530952Y-118702380D01*
X292530952Y-118035714D02*
X292150000Y-118416666D01*
X293340476Y-118654761D02*
X293245238Y-118702380D01*
X293054761Y-118702380D01*
X292959523Y-118654761D01*
X292911904Y-118559523D01*
X292911904Y-118178571D01*
X292959523Y-118083333D01*
X293054761Y-118035714D01*
X293245238Y-118035714D01*
X293340476Y-118083333D01*
X293388095Y-118178571D01*
X293388095Y-118273809D01*
X292911904Y-118369047D01*
X293673809Y-118035714D02*
X294054761Y-118035714D01*
X293816666Y-117702380D02*
X293816666Y-118559523D01*
X293864285Y-118654761D01*
X293959523Y-118702380D01*
X294054761Y-118702380D01*
X294911904Y-118702380D02*
X294340476Y-118702380D01*
X294626190Y-118702380D02*
X294626190Y-117702380D01*
X294530952Y-117845238D01*
X294435714Y-117940476D01*
X294340476Y-117988095D01*
%TO.C,K_O1*%
X249307142Y-118702380D02*
X249307142Y-117702380D01*
X249878571Y-118702380D02*
X249450000Y-118130952D01*
X249878571Y-117702380D02*
X249307142Y-118273809D01*
X250069047Y-118797619D02*
X250830952Y-118797619D01*
X251259523Y-117702380D02*
X251450000Y-117702380D01*
X251545238Y-117750000D01*
X251640476Y-117845238D01*
X251688095Y-118035714D01*
X251688095Y-118369047D01*
X251640476Y-118559523D01*
X251545238Y-118654761D01*
X251450000Y-118702380D01*
X251259523Y-118702380D01*
X251164285Y-118654761D01*
X251069047Y-118559523D01*
X251021428Y-118369047D01*
X251021428Y-118035714D01*
X251069047Y-117845238D01*
X251164285Y-117750000D01*
X251259523Y-117702380D01*
X252640476Y-118702380D02*
X252069047Y-118702380D01*
X252354761Y-118702380D02*
X252354761Y-117702380D01*
X252259523Y-117845238D01*
X252164285Y-117940476D01*
X252069047Y-117988095D01*
%TO.C,K_H1*%
X196907142Y-137702380D02*
X196907142Y-136702380D01*
X197478571Y-137702380D02*
X197050000Y-137130952D01*
X197478571Y-136702380D02*
X196907142Y-137273809D01*
X197669047Y-137797619D02*
X198430952Y-137797619D01*
X198669047Y-137702380D02*
X198669047Y-136702380D01*
X198669047Y-137178571D02*
X199240476Y-137178571D01*
X199240476Y-137702380D02*
X199240476Y-136702380D01*
X200240476Y-137702380D02*
X199669047Y-137702380D01*
X199954761Y-137702380D02*
X199954761Y-136702380D01*
X199859523Y-136845238D01*
X199764285Y-136940476D01*
X199669047Y-136988095D01*
%TO.C,K_N1*%
X206407142Y-156802380D02*
X206407142Y-155802380D01*
X206978571Y-156802380D02*
X206550000Y-156230952D01*
X206978571Y-155802380D02*
X206407142Y-156373809D01*
X207169047Y-156897619D02*
X207930952Y-156897619D01*
X208169047Y-156802380D02*
X208169047Y-155802380D01*
X208740476Y-156802380D01*
X208740476Y-155802380D01*
X209740476Y-156802380D02*
X209169047Y-156802380D01*
X209454761Y-156802380D02*
X209454761Y-155802380D01*
X209359523Y-155945238D01*
X209264285Y-156040476D01*
X209169047Y-156088095D01*
%TO.C,K_F9*%
X254202380Y-75902380D02*
X254202380Y-74902380D01*
X254773809Y-75902380D02*
X254345238Y-75330952D01*
X254773809Y-74902380D02*
X254202380Y-75473809D01*
X254964285Y-75997619D02*
X255726190Y-75997619D01*
X256297619Y-75378571D02*
X255964285Y-75378571D01*
X255964285Y-75902380D02*
X255964285Y-74902380D01*
X256440476Y-74902380D01*
X256869047Y-75902380D02*
X257059523Y-75902380D01*
X257154761Y-75854761D01*
X257202380Y-75807142D01*
X257297619Y-75664285D01*
X257345238Y-75473809D01*
X257345238Y-75092857D01*
X257297619Y-74997619D01*
X257250000Y-74950000D01*
X257154761Y-74902380D01*
X256964285Y-74902380D01*
X256869047Y-74950000D01*
X256821428Y-74997619D01*
X256773809Y-75092857D01*
X256773809Y-75330952D01*
X256821428Y-75426190D01*
X256869047Y-75473809D01*
X256964285Y-75521428D01*
X257154761Y-75521428D01*
X257250000Y-75473809D01*
X257297619Y-75426190D01*
X257345238Y-75330952D01*
%TO.C,K_F5*%
X173202380Y-75902380D02*
X173202380Y-74902380D01*
X173773809Y-75902380D02*
X173345238Y-75330952D01*
X173773809Y-74902380D02*
X173202380Y-75473809D01*
X173964285Y-75997619D02*
X174726190Y-75997619D01*
X175297619Y-75378571D02*
X174964285Y-75378571D01*
X174964285Y-75902380D02*
X174964285Y-74902380D01*
X175440476Y-74902380D01*
X176297619Y-74902380D02*
X175821428Y-74902380D01*
X175773809Y-75378571D01*
X175821428Y-75330952D01*
X175916666Y-75283333D01*
X176154761Y-75283333D01*
X176250000Y-75330952D01*
X176297619Y-75378571D01*
X176345238Y-75473809D01*
X176345238Y-75711904D01*
X176297619Y-75807142D01*
X176250000Y-75854761D01*
X176154761Y-75902380D01*
X175916666Y-75902380D01*
X175821428Y-75854761D01*
X175773809Y-75807142D01*
%TO.C,K_capsLock1*%
X72602380Y-137802380D02*
X72602380Y-136802380D01*
X73173809Y-137802380D02*
X72745238Y-137230952D01*
X73173809Y-136802380D02*
X72602380Y-137373809D01*
X73364285Y-137897619D02*
X74126190Y-137897619D01*
X74792857Y-137754761D02*
X74697619Y-137802380D01*
X74507142Y-137802380D01*
X74411904Y-137754761D01*
X74364285Y-137707142D01*
X74316666Y-137611904D01*
X74316666Y-137326190D01*
X74364285Y-137230952D01*
X74411904Y-137183333D01*
X74507142Y-137135714D01*
X74697619Y-137135714D01*
X74792857Y-137183333D01*
X75650000Y-137802380D02*
X75650000Y-137278571D01*
X75602380Y-137183333D01*
X75507142Y-137135714D01*
X75316666Y-137135714D01*
X75221428Y-137183333D01*
X75650000Y-137754761D02*
X75554761Y-137802380D01*
X75316666Y-137802380D01*
X75221428Y-137754761D01*
X75173809Y-137659523D01*
X75173809Y-137564285D01*
X75221428Y-137469047D01*
X75316666Y-137421428D01*
X75554761Y-137421428D01*
X75650000Y-137373809D01*
X76126190Y-137135714D02*
X76126190Y-138135714D01*
X76126190Y-137183333D02*
X76221428Y-137135714D01*
X76411904Y-137135714D01*
X76507142Y-137183333D01*
X76554761Y-137230952D01*
X76602380Y-137326190D01*
X76602380Y-137611904D01*
X76554761Y-137707142D01*
X76507142Y-137754761D01*
X76411904Y-137802380D01*
X76221428Y-137802380D01*
X76126190Y-137754761D01*
X76983333Y-137754761D02*
X77078571Y-137802380D01*
X77269047Y-137802380D01*
X77364285Y-137754761D01*
X77411904Y-137659523D01*
X77411904Y-137611904D01*
X77364285Y-137516666D01*
X77269047Y-137469047D01*
X77126190Y-137469047D01*
X77030952Y-137421428D01*
X76983333Y-137326190D01*
X76983333Y-137278571D01*
X77030952Y-137183333D01*
X77126190Y-137135714D01*
X77269047Y-137135714D01*
X77364285Y-137183333D01*
X78316666Y-137802380D02*
X77840476Y-137802380D01*
X77840476Y-136802380D01*
X78792857Y-137802380D02*
X78697619Y-137754761D01*
X78650000Y-137707142D01*
X78602380Y-137611904D01*
X78602380Y-137326190D01*
X78650000Y-137230952D01*
X78697619Y-137183333D01*
X78792857Y-137135714D01*
X78935714Y-137135714D01*
X79030952Y-137183333D01*
X79078571Y-137230952D01*
X79126190Y-137326190D01*
X79126190Y-137611904D01*
X79078571Y-137707142D01*
X79030952Y-137754761D01*
X78935714Y-137802380D01*
X78792857Y-137802380D01*
X79983333Y-137754761D02*
X79888095Y-137802380D01*
X79697619Y-137802380D01*
X79602380Y-137754761D01*
X79554761Y-137707142D01*
X79507142Y-137611904D01*
X79507142Y-137326190D01*
X79554761Y-137230952D01*
X79602380Y-137183333D01*
X79697619Y-137135714D01*
X79888095Y-137135714D01*
X79983333Y-137183333D01*
X80411904Y-137802380D02*
X80411904Y-136802380D01*
X80507142Y-137421428D02*
X80792857Y-137802380D01*
X80792857Y-137135714D02*
X80411904Y-137516666D01*
X81745238Y-137802380D02*
X81173809Y-137802380D01*
X81459523Y-137802380D02*
X81459523Y-136802380D01*
X81364285Y-136945238D01*
X81269047Y-137040476D01*
X81173809Y-137088095D01*
%TO.C,K_delete1*%
X333245238Y-75902380D02*
X333245238Y-74902380D01*
X333816666Y-75902380D02*
X333388095Y-75330952D01*
X333816666Y-74902380D02*
X333245238Y-75473809D01*
X334007142Y-75997619D02*
X334769047Y-75997619D01*
X335435714Y-75902380D02*
X335435714Y-74902380D01*
X335435714Y-75854761D02*
X335340476Y-75902380D01*
X335150000Y-75902380D01*
X335054761Y-75854761D01*
X335007142Y-75807142D01*
X334959523Y-75711904D01*
X334959523Y-75426190D01*
X335007142Y-75330952D01*
X335054761Y-75283333D01*
X335150000Y-75235714D01*
X335340476Y-75235714D01*
X335435714Y-75283333D01*
X336292857Y-75854761D02*
X336197619Y-75902380D01*
X336007142Y-75902380D01*
X335911904Y-75854761D01*
X335864285Y-75759523D01*
X335864285Y-75378571D01*
X335911904Y-75283333D01*
X336007142Y-75235714D01*
X336197619Y-75235714D01*
X336292857Y-75283333D01*
X336340476Y-75378571D01*
X336340476Y-75473809D01*
X335864285Y-75569047D01*
X336911904Y-75902380D02*
X336816666Y-75854761D01*
X336769047Y-75759523D01*
X336769047Y-74902380D01*
X337673809Y-75854761D02*
X337578571Y-75902380D01*
X337388095Y-75902380D01*
X337292857Y-75854761D01*
X337245238Y-75759523D01*
X337245238Y-75378571D01*
X337292857Y-75283333D01*
X337388095Y-75235714D01*
X337578571Y-75235714D01*
X337673809Y-75283333D01*
X337721428Y-75378571D01*
X337721428Y-75473809D01*
X337245238Y-75569047D01*
X338007142Y-75235714D02*
X338388095Y-75235714D01*
X338150000Y-74902380D02*
X338150000Y-75759523D01*
X338197619Y-75854761D01*
X338292857Y-75902380D01*
X338388095Y-75902380D01*
X339102380Y-75854761D02*
X339007142Y-75902380D01*
X338816666Y-75902380D01*
X338721428Y-75854761D01*
X338673809Y-75759523D01*
X338673809Y-75378571D01*
X338721428Y-75283333D01*
X338816666Y-75235714D01*
X339007142Y-75235714D01*
X339102380Y-75283333D01*
X339150000Y-75378571D01*
X339150000Y-75473809D01*
X338673809Y-75569047D01*
X340102380Y-75902380D02*
X339530952Y-75902380D01*
X339816666Y-75902380D02*
X339816666Y-74902380D01*
X339721428Y-75045238D01*
X339626190Y-75140476D01*
X339530952Y-75188095D01*
%TO.C,K_F12*%
X310826190Y-75902380D02*
X310826190Y-74902380D01*
X311397619Y-75902380D02*
X310969047Y-75330952D01*
X311397619Y-74902380D02*
X310826190Y-75473809D01*
X311588095Y-75997619D02*
X312350000Y-75997619D01*
X312921428Y-75378571D02*
X312588095Y-75378571D01*
X312588095Y-75902380D02*
X312588095Y-74902380D01*
X313064285Y-74902380D01*
X313969047Y-75902380D02*
X313397619Y-75902380D01*
X313683333Y-75902380D02*
X313683333Y-74902380D01*
X313588095Y-75045238D01*
X313492857Y-75140476D01*
X313397619Y-75188095D01*
X314350000Y-74997619D02*
X314397619Y-74950000D01*
X314492857Y-74902380D01*
X314730952Y-74902380D01*
X314826190Y-74950000D01*
X314873809Y-74997619D01*
X314921428Y-75092857D01*
X314921428Y-75188095D01*
X314873809Y-75330952D01*
X314302380Y-75902380D01*
X314921428Y-75902380D01*
%TO.C,K_esc1*%
X67569047Y-75902380D02*
X67569047Y-74902380D01*
X68140476Y-75902380D02*
X67711904Y-75330952D01*
X68140476Y-74902380D02*
X67569047Y-75473809D01*
X68330952Y-75997619D02*
X69092857Y-75997619D01*
X69711904Y-75854761D02*
X69616666Y-75902380D01*
X69426190Y-75902380D01*
X69330952Y-75854761D01*
X69283333Y-75759523D01*
X69283333Y-75378571D01*
X69330952Y-75283333D01*
X69426190Y-75235714D01*
X69616666Y-75235714D01*
X69711904Y-75283333D01*
X69759523Y-75378571D01*
X69759523Y-75473809D01*
X69283333Y-75569047D01*
X70140476Y-75854761D02*
X70235714Y-75902380D01*
X70426190Y-75902380D01*
X70521428Y-75854761D01*
X70569047Y-75759523D01*
X70569047Y-75711904D01*
X70521428Y-75616666D01*
X70426190Y-75569047D01*
X70283333Y-75569047D01*
X70188095Y-75521428D01*
X70140476Y-75426190D01*
X70140476Y-75378571D01*
X70188095Y-75283333D01*
X70283333Y-75235714D01*
X70426190Y-75235714D01*
X70521428Y-75283333D01*
X71426190Y-75854761D02*
X71330952Y-75902380D01*
X71140476Y-75902380D01*
X71045238Y-75854761D01*
X70997619Y-75807142D01*
X70950000Y-75711904D01*
X70950000Y-75426190D01*
X70997619Y-75330952D01*
X71045238Y-75283333D01*
X71140476Y-75235714D01*
X71330952Y-75235714D01*
X71426190Y-75283333D01*
X72378571Y-75902380D02*
X71807142Y-75902380D01*
X72092857Y-75902380D02*
X72092857Y-74902380D01*
X71997619Y-75045238D01*
X71902380Y-75140476D01*
X71807142Y-75188095D01*
%TO.C,K_equals1*%
X294978571Y-99702380D02*
X294978571Y-98702380D01*
X295550000Y-99702380D02*
X295121428Y-99130952D01*
X295550000Y-98702380D02*
X294978571Y-99273809D01*
X295740476Y-99797619D02*
X296502380Y-99797619D01*
X297121428Y-99654761D02*
X297026190Y-99702380D01*
X296835714Y-99702380D01*
X296740476Y-99654761D01*
X296692857Y-99559523D01*
X296692857Y-99178571D01*
X296740476Y-99083333D01*
X296835714Y-99035714D01*
X297026190Y-99035714D01*
X297121428Y-99083333D01*
X297169047Y-99178571D01*
X297169047Y-99273809D01*
X296692857Y-99369047D01*
X298026190Y-99035714D02*
X298026190Y-100035714D01*
X298026190Y-99654761D02*
X297930952Y-99702380D01*
X297740476Y-99702380D01*
X297645238Y-99654761D01*
X297597619Y-99607142D01*
X297550000Y-99511904D01*
X297550000Y-99226190D01*
X297597619Y-99130952D01*
X297645238Y-99083333D01*
X297740476Y-99035714D01*
X297930952Y-99035714D01*
X298026190Y-99083333D01*
X298930952Y-99035714D02*
X298930952Y-99702380D01*
X298502380Y-99035714D02*
X298502380Y-99559523D01*
X298550000Y-99654761D01*
X298645238Y-99702380D01*
X298788095Y-99702380D01*
X298883333Y-99654761D01*
X298930952Y-99607142D01*
X299835714Y-99702380D02*
X299835714Y-99178571D01*
X299788095Y-99083333D01*
X299692857Y-99035714D01*
X299502380Y-99035714D01*
X299407142Y-99083333D01*
X299835714Y-99654761D02*
X299740476Y-99702380D01*
X299502380Y-99702380D01*
X299407142Y-99654761D01*
X299359523Y-99559523D01*
X299359523Y-99464285D01*
X299407142Y-99369047D01*
X299502380Y-99321428D01*
X299740476Y-99321428D01*
X299835714Y-99273809D01*
X300454761Y-99702380D02*
X300359523Y-99654761D01*
X300311904Y-99559523D01*
X300311904Y-98702380D01*
X300788095Y-99654761D02*
X300883333Y-99702380D01*
X301073809Y-99702380D01*
X301169047Y-99654761D01*
X301216666Y-99559523D01*
X301216666Y-99511904D01*
X301169047Y-99416666D01*
X301073809Y-99369047D01*
X300930952Y-99369047D01*
X300835714Y-99321428D01*
X300788095Y-99226190D01*
X300788095Y-99178571D01*
X300835714Y-99083333D01*
X300930952Y-99035714D01*
X301073809Y-99035714D01*
X301169047Y-99083333D01*
X302169047Y-99702380D02*
X301597619Y-99702380D01*
X301883333Y-99702380D02*
X301883333Y-98702380D01*
X301788095Y-98845238D01*
X301692857Y-98940476D01*
X301597619Y-98988095D01*
%TO.C,K_pgDown1*%
X361297619Y-137802380D02*
X361297619Y-136802380D01*
X361869047Y-137802380D02*
X361440476Y-137230952D01*
X361869047Y-136802380D02*
X361297619Y-137373809D01*
X362059523Y-137897619D02*
X362821428Y-137897619D01*
X363059523Y-137135714D02*
X363059523Y-138135714D01*
X363059523Y-137183333D02*
X363154761Y-137135714D01*
X363345238Y-137135714D01*
X363440476Y-137183333D01*
X363488095Y-137230952D01*
X363535714Y-137326190D01*
X363535714Y-137611904D01*
X363488095Y-137707142D01*
X363440476Y-137754761D01*
X363345238Y-137802380D01*
X363154761Y-137802380D01*
X363059523Y-137754761D01*
X364392857Y-137135714D02*
X364392857Y-137945238D01*
X364345238Y-138040476D01*
X364297619Y-138088095D01*
X364202380Y-138135714D01*
X364059523Y-138135714D01*
X363964285Y-138088095D01*
X364392857Y-137754761D02*
X364297619Y-137802380D01*
X364107142Y-137802380D01*
X364011904Y-137754761D01*
X363964285Y-137707142D01*
X363916666Y-137611904D01*
X363916666Y-137326190D01*
X363964285Y-137230952D01*
X364011904Y-137183333D01*
X364107142Y-137135714D01*
X364297619Y-137135714D01*
X364392857Y-137183333D01*
X364869047Y-137802380D02*
X364869047Y-136802380D01*
X365107142Y-136802380D01*
X365250000Y-136850000D01*
X365345238Y-136945238D01*
X365392857Y-137040476D01*
X365440476Y-137230952D01*
X365440476Y-137373809D01*
X365392857Y-137564285D01*
X365345238Y-137659523D01*
X365250000Y-137754761D01*
X365107142Y-137802380D01*
X364869047Y-137802380D01*
X366011904Y-137802380D02*
X365916666Y-137754761D01*
X365869047Y-137707142D01*
X365821428Y-137611904D01*
X365821428Y-137326190D01*
X365869047Y-137230952D01*
X365916666Y-137183333D01*
X366011904Y-137135714D01*
X366154761Y-137135714D01*
X366250000Y-137183333D01*
X366297619Y-137230952D01*
X366345238Y-137326190D01*
X366345238Y-137611904D01*
X366297619Y-137707142D01*
X366250000Y-137754761D01*
X366154761Y-137802380D01*
X366011904Y-137802380D01*
X366678571Y-137135714D02*
X366869047Y-137802380D01*
X367059523Y-137326190D01*
X367250000Y-137802380D01*
X367440476Y-137135714D01*
X367821428Y-137135714D02*
X367821428Y-137802380D01*
X367821428Y-137230952D02*
X367869047Y-137183333D01*
X367964285Y-137135714D01*
X368107142Y-137135714D01*
X368202380Y-137183333D01*
X368250000Y-137278571D01*
X368250000Y-137802380D01*
X369250000Y-137802380D02*
X368678571Y-137802380D01*
X368964285Y-137802380D02*
X368964285Y-136802380D01*
X368869047Y-136945238D01*
X368773809Y-137040476D01*
X368678571Y-137088095D01*
%TO.C,K_8*%
X221230952Y-99702380D02*
X221230952Y-98702380D01*
X221802380Y-99702380D02*
X221373809Y-99130952D01*
X221802380Y-98702380D02*
X221230952Y-99273809D01*
X221992857Y-99797619D02*
X222754761Y-99797619D01*
X223135714Y-99130952D02*
X223040476Y-99083333D01*
X222992857Y-99035714D01*
X222945238Y-98940476D01*
X222945238Y-98892857D01*
X222992857Y-98797619D01*
X223040476Y-98750000D01*
X223135714Y-98702380D01*
X223326190Y-98702380D01*
X223421428Y-98750000D01*
X223469047Y-98797619D01*
X223516666Y-98892857D01*
X223516666Y-98940476D01*
X223469047Y-99035714D01*
X223421428Y-99083333D01*
X223326190Y-99130952D01*
X223135714Y-99130952D01*
X223040476Y-99178571D01*
X222992857Y-99226190D01*
X222945238Y-99321428D01*
X222945238Y-99511904D01*
X222992857Y-99607142D01*
X223040476Y-99654761D01*
X223135714Y-99702380D01*
X223326190Y-99702380D01*
X223421428Y-99654761D01*
X223469047Y-99607142D01*
X223516666Y-99511904D01*
X223516666Y-99321428D01*
X223469047Y-99226190D01*
X223421428Y-99178571D01*
X223326190Y-99130952D01*
%TD*%
M02*
