%TF.GenerationSoftware,KiCad,Pcbnew,(6.0.6)*%
%TF.CreationDate,2022-08-08T11:29:03-04:00*%
%TF.ProjectId,Jupiter,4a757069-7465-4722-9e6b-696361645f70,rev?*%
%TF.SameCoordinates,Original*%
%TF.FileFunction,Copper,L1,Top*%
%TF.FilePolarity,Positive*%
%FSLAX46Y46*%
G04 Gerber Fmt 4.6, Leading zero omitted, Abs format (unit mm)*
G04 Created by KiCad (PCBNEW (6.0.6)) date 2022-08-08 11:29:03*
%MOMM*%
%LPD*%
G01*
G04 APERTURE LIST*
%TA.AperFunction,ComponentPad*%
%ADD10C,5.000000*%
%TD*%
%TA.AperFunction,ComponentPad*%
%ADD11C,4.000000*%
%TD*%
%TA.AperFunction,ComponentPad*%
%ADD12C,3.300000*%
%TD*%
%TA.AperFunction,ComponentPad*%
%ADD13O,1.200000X2.250000*%
%TD*%
%TA.AperFunction,ViaPad*%
%ADD14C,0.800000*%
%TD*%
%TA.AperFunction,Conductor*%
%ADD15C,0.250000*%
%TD*%
G04 APERTURE END LIST*
D10*
%TO.P,,1*%
%TO.N,N/C*%
X222900000Y-148100000D03*
%TD*%
%TO.P,,1*%
%TO.N,N/C*%
X239300000Y-74200000D03*
%TD*%
%TO.P,,1*%
%TO.N,N/C*%
X246400000Y-110000000D03*
%TD*%
%TO.P,,1*%
%TO.N,N/C*%
X367200000Y-187900000D03*
%TD*%
%TO.P,,1*%
%TO.N,N/C*%
X366300000Y-71600000D03*
%TD*%
%TO.P,,1*%
%TO.N,N/C*%
X77100000Y-75000000D03*
%TD*%
%TO.P,,1*%
%TO.N,N/C*%
X60100000Y-187700000D03*
%TD*%
%TO.P,,1*%
%TO.N,N/C*%
X304800000Y-97500000D03*
%TD*%
D11*
%TO.P,REF\u002A\u002A,*%
%TO.N,*%
X237206250Y-170215000D03*
X137193750Y-170215000D03*
%TD*%
D10*
%TO.P,,1*%
%TO.N,N/C*%
X151700000Y-92400000D03*
%TD*%
%TO.P,,1*%
%TO.N,N/C*%
X127600000Y-148100000D03*
%TD*%
%TO.P,,1*%
%TO.N,N/C*%
X81700000Y-114000000D03*
%TD*%
%TO.P,,1*%
%TO.N,N/C*%
X296300000Y-149500000D03*
%TD*%
D12*
%TO.P,K_T1,1,COL*%
%TO.N,COL5*%
X166690000Y-117460000D03*
%TO.P,K_T1,2,ROW*%
%TO.N,Net-(D35-Pad2)*%
X173040000Y-114920000D03*
%TD*%
%TO.P,K_E1,1,COL*%
%TO.N,COL3*%
X128590000Y-117460000D03*
%TO.P,K_E1,2,ROW*%
%TO.N,Net-(D33-Pad2)*%
X134940000Y-114920000D03*
%TD*%
%TO.P,K_pgUp1,1,COL*%
%TO.N,COL14*%
X357190000Y-117460000D03*
%TO.P,K_pgUp1,2,ROW*%
%TO.N,Net-(D44-Pad2)*%
X363540000Y-114920000D03*
%TD*%
%TO.P,K_rightArrow1,1,COL*%
%TO.N,COL14*%
X352390000Y-179360000D03*
%TO.P,K_rightArrow1,2,ROW*%
%TO.N,Net-(D82-Pad2)*%
X358740000Y-176820000D03*
%TD*%
%TO.P,K_B1,1,COL*%
%TO.N,COL5*%
X180990000Y-155560000D03*
%TO.P,K_B1,2,ROW*%
%TO.N,Net-(D64-Pad2)*%
X187340000Y-153020000D03*
%TD*%
%TO.P,K_G1,1,COL*%
%TO.N,COL5*%
X171490000Y-136460000D03*
%TO.P,K_G1,2,ROW*%
%TO.N,Net-(D50-Pad2)*%
X177840000Y-133920000D03*
%TD*%
%TO.P,K_I1,1,COL*%
%TO.N,COL8*%
X223790000Y-117460000D03*
%TO.P,K_I1,2,ROW*%
%TO.N,Net-(D38-Pad2)*%
X230140000Y-114920000D03*
%TD*%
%TO.P,K_V1,1,COL*%
%TO.N,COL4*%
X161990000Y-155560000D03*
%TO.P,K_V1,2,ROW*%
%TO.N,Net-(D63-Pad2)*%
X168340000Y-153020000D03*
%TD*%
%TO.P,K_enter1,1,COL*%
%TO.N,COL12*%
X316790000Y-136560000D03*
%TO.P,K_enter1,2,ROW*%
%TO.N,Net-(D57-Pad2)*%
X323140000Y-134020000D03*
%TD*%
%TO.P,K_end1,1,COL*%
%TO.N,COL14*%
X357190000Y-155560000D03*
%TO.P,K_end1,2,ROW*%
%TO.N,Net-(D72-Pad2)*%
X363540000Y-153020000D03*
%TD*%
%TO.P,K_tilda1,1,COL*%
%TO.N,COL0*%
X61990000Y-98460000D03*
%TO.P,K_tilda1,2,ROW*%
%TO.N,Net-(D15-Pad2)*%
X68340000Y-95920000D03*
%TD*%
%TO.P,K_rightAlt1,1,COL*%
%TO.N,COL8*%
X252390000Y-174660000D03*
%TO.P,K_rightAlt1,2,ROW*%
%TO.N,Net-(D77-Pad2)*%
X258740000Y-172120000D03*
%TD*%
%TO.P,K_7,1,COL*%
%TO.N,COL7*%
X195290000Y-98460000D03*
%TO.P,K_7,2,ROW*%
%TO.N,Net-(D22-Pad2)*%
X201640000Y-95920000D03*
%TD*%
%TO.P,K_A1,1,COL*%
%TO.N,COL1*%
X95290000Y-136560000D03*
%TO.P,K_A1,2,ROW*%
%TO.N,Net-(D46-Pad2)*%
X101640000Y-134020000D03*
%TD*%
%TO.P,K_home1,1,COL*%
%TO.N,COL14*%
X357190000Y-98460000D03*
%TO.P,K_home1,2,ROW*%
%TO.N,Net-(D29-Pad2)*%
X363540000Y-95920000D03*
%TD*%
%TO.P,K_space1,1,COL*%
%TO.N,COL5*%
X183390000Y-174660000D03*
%TO.P,K_space1,2,ROW*%
%TO.N,Net-(D76-Pad2)*%
X189740000Y-172120000D03*
%TD*%
%TO.P,K_U1,1,COL*%
%TO.N,COL7*%
X204790000Y-117460000D03*
%TO.P,K_U1,2,ROW*%
%TO.N,Net-(D37-Pad2)*%
X211140000Y-114920000D03*
%TD*%
%TO.P,K_leftAlt1,1,COL*%
%TO.N,COL2*%
X111990000Y-174660000D03*
%TO.P,K_leftAlt1,2,ROW*%
%TO.N,Net-(D75-Pad2)*%
X118340000Y-172120000D03*
%TD*%
%TO.P,K_F2,1,COL*%
%TO.N,COL2*%
X104790000Y-74660000D03*
%TO.P,K_F2,2,ROW*%
%TO.N,Net-(D3-Pad2)*%
X111140000Y-72120000D03*
%TD*%
%TO.P,K_F3,1,COL*%
%TO.N,COL3*%
X123890000Y-74660000D03*
%TO.P,K_F3,2,ROW*%
%TO.N,Net-(D4-Pad2)*%
X130240000Y-72120000D03*
%TD*%
%TO.P,K_M1,1,COL*%
%TO.N,COL7*%
X219090000Y-155560000D03*
%TO.P,K_M1,2,ROW*%
%TO.N,Net-(D66-Pad2)*%
X225440000Y-153020000D03*
%TD*%
%TO.P,K_windows1,1,COL*%
%TO.N,COL1*%
X88090000Y-174660000D03*
%TO.P,K_windows1,2,ROW*%
%TO.N,Net-(D74-Pad2)*%
X94440000Y-172120000D03*
%TD*%
%TO.P,K_R1,1,COL*%
%TO.N,COL4*%
X147590000Y-117460000D03*
%TO.P,K_R1,2,ROW*%
%TO.N,Net-(D34-Pad2)*%
X153940000Y-114920000D03*
%TD*%
%TO.P,K_2,1,COL*%
%TO.N,COL2*%
X99990000Y-98460000D03*
%TO.P,K_2,2,ROW*%
%TO.N,Net-(D17-Pad2)*%
X106340000Y-95920000D03*
%TD*%
%TO.P,K_leftShift1,1,COL*%
%TO.N,COL0*%
X73890000Y-155660000D03*
%TO.P,K_leftShift1,2,ROW*%
%TO.N,Net-(D59-Pad2)*%
X80240000Y-153120000D03*
%TD*%
%TO.P,K_F1,1,COL*%
%TO.N,COL1*%
X85690000Y-74660000D03*
%TO.P,K_F1,2,ROW*%
%TO.N,Net-(D2-Pad2)*%
X92040000Y-72120000D03*
%TD*%
%TO.P,K_9,1,COL*%
%TO.N,COL9*%
X233390000Y-98460000D03*
%TO.P,K_9,2,ROW*%
%TO.N,Net-(D24-Pad2)*%
X239740000Y-95920000D03*
%TD*%
%TO.P,K_D1,1,COL*%
%TO.N,COL3*%
X133390000Y-136560000D03*
%TO.P,K_D1,2,ROW*%
%TO.N,Net-(D48-Pad2)*%
X139740000Y-134020000D03*
%TD*%
%TO.P,K_leftArrow1,1,COL*%
%TO.N,COL12*%
X314290000Y-179360000D03*
%TO.P,K_leftArrow1,2,ROW*%
%TO.N,Net-(D80-Pad2)*%
X320640000Y-176820000D03*
%TD*%
%TO.P,K_F11,1,COL*%
%TO.N,COL11*%
X285790000Y-74660000D03*
%TO.P,K_F11,2,ROW*%
%TO.N,Net-(D12-Pad2)*%
X292140000Y-72120000D03*
%TD*%
%TO.P,K_period1,1,COL*%
%TO.N,COL9*%
X257190000Y-155560000D03*
%TO.P,K_period1,2,ROW*%
%TO.N,Net-(D68-Pad2)*%
X263540000Y-153020000D03*
%TD*%
%TO.P,K_tab1,1,COL*%
%TO.N,COL0*%
X66690000Y-117460000D03*
%TO.P,K_tab1,2,ROW*%
%TO.N,Net-(D30-Pad2)*%
X73040000Y-114920000D03*
%TD*%
%TO.P,K_rightShift1,1,COL*%
%TO.N,COL11*%
X302390000Y-155560000D03*
%TO.P,K_rightShift1,2,ROW*%
%TO.N,Net-(D70-Pad2)*%
X308740000Y-153020000D03*
%TD*%
%TO.P,K_minus1,1,COL*%
%TO.N,COL11*%
X271440000Y-98440000D03*
%TO.P,K_minus1,2,ROW*%
%TO.N,Net-(D26-Pad2)*%
X277790000Y-95900000D03*
%TD*%
%TO.P,K_W1,1,COL*%
%TO.N,COL2*%
X109490000Y-117460000D03*
%TO.P,K_W1,2,ROW*%
%TO.N,Net-(D32-Pad2)*%
X115840000Y-114920000D03*
%TD*%
%TO.P,K_5,1,COL*%
%TO.N,COL5*%
X157190000Y-98460000D03*
%TO.P,K_5,2,ROW*%
%TO.N,Net-(D20-Pad2)*%
X163540000Y-95920000D03*
%TD*%
%TO.P,K_3,1,COL*%
%TO.N,COL3*%
X119090000Y-98460000D03*
%TO.P,K_3,2,ROW*%
%TO.N,Net-(D18-Pad2)*%
X125440000Y-95920000D03*
%TD*%
%TO.P,K_quote1,1,COL*%
%TO.N,COL11*%
X285790000Y-136560000D03*
%TO.P,K_quote1,2,ROW*%
%TO.N,Net-(D56-Pad2)*%
X292140000Y-134020000D03*
%TD*%
%TO.P,K_F7,1,COL*%
%TO.N,COL7*%
X204790000Y-74660000D03*
%TO.P,K_F7,2,ROW*%
%TO.N,Net-(D8-Pad2)*%
X211140000Y-72120000D03*
%TD*%
%TO.P,K_K1,1,COL*%
%TO.N,COL8*%
X228590000Y-136560000D03*
%TO.P,K_K1,2,ROW*%
%TO.N,Net-(D53-Pad2)*%
X234940000Y-134020000D03*
%TD*%
%TO.P,K_comma1,1,COL*%
%TO.N,COL8*%
X238190000Y-155560000D03*
%TO.P,K_comma1,2,ROW*%
%TO.N,Net-(D67-Pad2)*%
X244540000Y-153020000D03*
%TD*%
%TO.P,K_1,1,COL*%
%TO.N,COL1*%
X80990000Y-98460000D03*
%TO.P,K_1,2,ROW*%
%TO.N,Net-(D16-Pad2)*%
X87340000Y-95920000D03*
%TD*%
%TO.P,K_4,1,COL*%
%TO.N,COL4*%
X138090000Y-98460000D03*
%TO.P,K_4,2,ROW*%
%TO.N,Net-(D19-Pad2)*%
X144440000Y-95920000D03*
%TD*%
%TO.P,K_0,1,COL*%
%TO.N,COL10*%
X252390000Y-98460000D03*
%TO.P,K_0,2,ROW*%
%TO.N,Net-(D25-Pad2)*%
X258740000Y-95920000D03*
%TD*%
%TO.P,K_L1,1,COL*%
%TO.N,COL9*%
X247690000Y-136560000D03*
%TO.P,K_L1,2,ROW*%
%TO.N,Net-(D54-Pad2)*%
X254040000Y-134020000D03*
%TD*%
%TO.P,K_closeBracket1,1,COL*%
%TO.N,COL12*%
X300090000Y-117460000D03*
%TO.P,K_closeBracket1,2,ROW*%
%TO.N,Net-(D42-Pad2)*%
X306440000Y-114920000D03*
%TD*%
%TO.P,K_Y1,1,COL*%
%TO.N,COL6*%
X185790000Y-117460000D03*
%TO.P,K_Y1,2,ROW*%
%TO.N,Net-(D36-Pad2)*%
X192140000Y-114920000D03*
%TD*%
%TO.P,K_backSlash1,1,COL*%
%TO.N,COL13*%
X323890000Y-117460000D03*
%TO.P,K_backSlash1,2,ROW*%
%TO.N,Net-(D43-Pad2)*%
X330240000Y-114920000D03*
%TD*%
%TO.P,K_upArrow1,1,COL*%
%TO.N,COL13*%
X333390000Y-160360000D03*
%TO.P,K_upArrow1,2,ROW*%
%TO.N,Net-(D71-Pad2)*%
X339740000Y-157820000D03*
%TD*%
%TO.P,K_S1,1,COL*%
%TO.N,COL2*%
X114290000Y-136560000D03*
%TO.P,K_S1,2,ROW*%
%TO.N,Net-(D47-Pad2)*%
X120640000Y-134020000D03*
%TD*%
%TO.P,K_F4,1,COL*%
%TO.N,COL4*%
X142890000Y-74560000D03*
%TO.P,K_F4,2,ROW*%
%TO.N,Net-(D5-Pad2)*%
X149240000Y-72020000D03*
%TD*%
D13*
%TO.P,J1,S1,SHIELD*%
%TO.N,GND*%
X360285000Y-73922500D03*
X349135000Y-73922500D03*
X349115000Y-69322500D03*
X360265000Y-69322500D03*
%TD*%
D12*
%TO.P,K_Z1,1,COL*%
%TO.N,COL1*%
X104790000Y-155560000D03*
%TO.P,K_Z1,2,ROW*%
%TO.N,Net-(D60-Pad2)*%
X111140000Y-153020000D03*
%TD*%
%TO.P,K_Q1,1,COL*%
%TO.N,COL1*%
X90490000Y-117460000D03*
%TO.P,K_Q1,2,ROW*%
%TO.N,Net-(D31-Pad2)*%
X96840000Y-114920000D03*
%TD*%
%TO.P,K_downArrow1,1,COL*%
%TO.N,COL13*%
X333390000Y-179360000D03*
%TO.P,K_downArrow1,2,ROW*%
%TO.N,Net-(D81-Pad2)*%
X339740000Y-176820000D03*
%TD*%
%TO.P,K_function1,1,COL*%
%TO.N,COL9*%
X271390000Y-174660000D03*
%TO.P,K_function1,2,ROW*%
%TO.N,Net-(D78-Pad2)*%
X277740000Y-172120000D03*
%TD*%
%TO.P,K_F13,1,COL*%
%TO.N,COL4*%
X152490000Y-136460000D03*
%TO.P,K_F13,2,ROW*%
%TO.N,Net-(D49-Pad2)*%
X158840000Y-133920000D03*
%TD*%
%TO.P,K_colon1,1,COL*%
%TO.N,COL10*%
X266790000Y-136560000D03*
%TO.P,K_colon1,2,ROW*%
%TO.N,Net-(D55-Pad2)*%
X273140000Y-134020000D03*
%TD*%
%TO.P,K_F8,1,COL*%
%TO.N,COL8*%
X223790000Y-74660000D03*
%TO.P,K_F8,2,ROW*%
%TO.N,Net-(D9-Pad2)*%
X230140000Y-72120000D03*
%TD*%
%TO.P,K_6,1,COL*%
%TO.N,COL6*%
X176290000Y-98460000D03*
%TO.P,K_6,2,ROW*%
%TO.N,Net-(D21-Pad2)*%
X182640000Y-95920000D03*
%TD*%
%TO.P,K_C1,1,COL*%
%TO.N,COL3*%
X142900000Y-155500000D03*
%TO.P,K_C1,2,ROW*%
%TO.N,Net-(D62-Pad2)*%
X149250000Y-152960000D03*
%TD*%
%TO.P,K_rightControl1,1,COL*%
%TO.N,COL11*%
X290490000Y-174660000D03*
%TO.P,K_rightControl1,2,ROW*%
%TO.N,Net-(D79-Pad2)*%
X296840000Y-172120000D03*
%TD*%
%TO.P,K_F10,1,COL*%
%TO.N,COL10*%
X266790000Y-74560000D03*
%TO.P,K_F10,2,ROW*%
%TO.N,Net-(D11-Pad2)*%
X273140000Y-72020000D03*
%TD*%
%TO.P,K_J1,1,COL*%
%TO.N,COL7*%
X209590000Y-136460000D03*
%TO.P,K_J1,2,ROW*%
%TO.N,Net-(D52-Pad2)*%
X215940000Y-133920000D03*
%TD*%
%TO.P,K_X1,1,COL*%
%TO.N,COL2*%
X123790000Y-155560000D03*
%TO.P,K_X1,2,ROW*%
%TO.N,Net-(D61-Pad2)*%
X130140000Y-153020000D03*
%TD*%
%TO.P,K_leftControl1,1,COL*%
%TO.N,COL0*%
X64290000Y-174660000D03*
%TO.P,K_leftControl1,2,ROW*%
%TO.N,Net-(D73-Pad2)*%
X70640000Y-172120000D03*
%TD*%
%TO.P,K_P1,1,COL*%
%TO.N,COL10*%
X261990000Y-117460000D03*
%TO.P,K_P1,2,ROW*%
%TO.N,Net-(D40-Pad2)*%
X268340000Y-114920000D03*
%TD*%
%TO.P,K_questionMark1,1,COL*%
%TO.N,COL10*%
X276200000Y-155600000D03*
%TO.P,K_questionMark1,2,ROW*%
%TO.N,Net-(D69-Pad2)*%
X282550000Y-153060000D03*
%TD*%
%TO.P,K_backspace1,1,COL*%
%TO.N,COL13*%
X319090000Y-98460000D03*
%TO.P,K_backspace1,2,ROW*%
%TO.N,Net-(D28-Pad2)*%
X325440000Y-95920000D03*
%TD*%
%TO.P,K_F6,1,COL*%
%TO.N,COL6*%
X185790000Y-74660000D03*
%TO.P,K_F6,2,ROW*%
%TO.N,Net-(D7-Pad2)*%
X192140000Y-72120000D03*
%TD*%
%TO.P,K_openBracket1,1,COL*%
%TO.N,COL11*%
X281090000Y-117460000D03*
%TO.P,K_openBracket1,2,ROW*%
%TO.N,Net-(D41-Pad2)*%
X287440000Y-114920000D03*
%TD*%
%TO.P,K_O1,1,COL*%
%TO.N,COL9*%
X242890000Y-117460000D03*
%TO.P,K_O1,2,ROW*%
%TO.N,Net-(D39-Pad2)*%
X249240000Y-114920000D03*
%TD*%
%TO.P,K_H1,1,COL*%
%TO.N,COL6*%
X190490000Y-136460000D03*
%TO.P,K_H1,2,ROW*%
%TO.N,Net-(D51-Pad2)*%
X196840000Y-133920000D03*
%TD*%
%TO.P,K_N1,1,COL*%
%TO.N,COL6*%
X199990000Y-155560000D03*
%TO.P,K_N1,2,ROW*%
%TO.N,Net-(D65-Pad2)*%
X206340000Y-153020000D03*
%TD*%
%TO.P,K_F9,1,COL*%
%TO.N,COL9*%
X247690000Y-74660000D03*
%TO.P,K_F9,2,ROW*%
%TO.N,Net-(D10-Pad2)*%
X254040000Y-72120000D03*
%TD*%
%TO.P,K_F5,1,COL*%
%TO.N,COL5*%
X166690000Y-74660000D03*
%TO.P,K_F5,2,ROW*%
%TO.N,Net-(D6-Pad2)*%
X173040000Y-72120000D03*
%TD*%
%TO.P,K_capsLock1,1,COL*%
%TO.N,COL0*%
X69090000Y-136560000D03*
%TO.P,K_capsLock1,2,ROW*%
%TO.N,Net-(D45-Pad2)*%
X75440000Y-134020000D03*
%TD*%
%TO.P,K_delete1,1,COL*%
%TO.N,COL13*%
X328590000Y-74660000D03*
%TO.P,K_delete1,2,ROW*%
%TO.N,Net-(D14-Pad2)*%
X334940000Y-72120000D03*
%TD*%
%TO.P,K_F12,1,COL*%
%TO.N,COL12*%
X304790000Y-74660000D03*
%TO.P,K_F12,2,ROW*%
%TO.N,Net-(D13-Pad2)*%
X311140000Y-72120000D03*
%TD*%
%TO.P,K_esc1,1,COL*%
%TO.N,COL0*%
X61890000Y-74660000D03*
%TO.P,K_esc1,2,ROW*%
%TO.N,Net-(D1-Pad2)*%
X68240000Y-72120000D03*
%TD*%
%TO.P,K_equals1,1,COL*%
%TO.N,COL12*%
X290490000Y-98460000D03*
%TO.P,K_equals1,2,ROW*%
%TO.N,Net-(D27-Pad2)*%
X296840000Y-95920000D03*
%TD*%
%TO.P,K_pgDown1,1,COL*%
%TO.N,COL14*%
X357190000Y-136560000D03*
%TO.P,K_pgDown1,2,ROW*%
%TO.N,Net-(D58-Pad2)*%
X363540000Y-134020000D03*
%TD*%
%TO.P,K_8,1,COL*%
%TO.N,COL8*%
X214290000Y-98460000D03*
%TO.P,K_8,2,ROW*%
%TO.N,Net-(D23-Pad2)*%
X220640000Y-95920000D03*
%TD*%
D14*
%TO.N,GND*%
X343800000Y-84800000D03*
X358430000Y-170820000D03*
X343700000Y-79600000D03*
X360380000Y-168670000D03*
%TO.N,+5V*%
X343400000Y-132700000D03*
X354810000Y-125760000D03*
X344600000Y-131400000D03*
X348512299Y-136312299D03*
X338300000Y-136000000D03*
X348500000Y-125980000D03*
X347112299Y-142987701D03*
X348800000Y-138800000D03*
%TO.N,ROW0*%
X73100000Y-84900000D03*
X73000000Y-80500000D03*
%TO.N,ROW1*%
X331300000Y-102700000D03*
X356000000Y-103200000D03*
%TO.N,ROW2*%
X334600000Y-126800000D03*
X356400000Y-122600000D03*
X333700000Y-121500000D03*
%TO.N,ROW3*%
X355100000Y-141800000D03*
X341900000Y-152600000D03*
%TO.N,ROW4*%
X355500000Y-160700000D03*
X343100000Y-164500000D03*
%TO.N,ROW5*%
X349200000Y-161600000D03*
X348098120Y-167624500D03*
%TO.N,COL0*%
X70300000Y-86600000D03*
%TO.N,VBUS*%
X352400000Y-76900000D03*
X357185500Y-77068563D03*
%TO.N,Net-(J1-PadA5)*%
X350600000Y-76900000D03*
X353500000Y-76500000D03*
%TO.N,Net-(J1-PadB5)*%
X356207243Y-76344063D03*
X358900000Y-76500000D03*
%TD*%
D15*
%TO.N,GND*%
X343700000Y-79600000D02*
X343700000Y-84700000D01*
X360380000Y-168870000D02*
X360380000Y-168670000D01*
X343700000Y-84700000D02*
X343800000Y-84800000D01*
X358430000Y-170820000D02*
X360380000Y-168870000D01*
%TO.N,+5V*%
X348512299Y-135312299D02*
X348512299Y-136312299D01*
X343400000Y-132700000D02*
X343400000Y-132600000D01*
X338300000Y-136000000D02*
X341600000Y-132700000D01*
X344600000Y-131400000D02*
X348512299Y-135312299D01*
X348500000Y-125980000D02*
X354590000Y-125980000D01*
X349300000Y-138500000D02*
X349300000Y-137100000D01*
X343400000Y-132600000D02*
X344600000Y-131400000D01*
X349300000Y-137100000D02*
X348512299Y-136312299D01*
X348800000Y-138800000D02*
X348800000Y-141300000D01*
X348800000Y-141300000D02*
X347112299Y-142987701D01*
X354590000Y-125980000D02*
X354810000Y-125760000D01*
X343400000Y-132700000D02*
X341600000Y-132700000D01*
X349000000Y-138800000D02*
X349300000Y-138500000D01*
X348800000Y-138800000D02*
X349000000Y-138800000D01*
X346700000Y-143400000D02*
X347112299Y-142987701D01*
%TO.N,ROW0*%
X73000000Y-84800000D02*
X73100000Y-84900000D01*
X73000000Y-80500000D02*
X73000000Y-84800000D01*
%TO.N,ROW1*%
X355500000Y-102700000D02*
X356000000Y-103200000D01*
X331300000Y-102700000D02*
X355500000Y-102700000D01*
%TO.N,ROW2*%
X333700000Y-121500000D02*
X334600000Y-122400000D01*
X334800000Y-122600000D02*
X333700000Y-121500000D01*
X334600000Y-122400000D02*
X334600000Y-126800000D01*
X356400000Y-122600000D02*
X334800000Y-122600000D01*
%TO.N,ROW3*%
X341900000Y-152600000D02*
X344300000Y-152600000D01*
X344300000Y-152600000D02*
X355100000Y-141800000D01*
%TO.N,ROW4*%
X343100000Y-164500000D02*
X346900000Y-160700000D01*
X346900000Y-160700000D02*
X355500000Y-160700000D01*
%TO.N,ROW5*%
X349200000Y-166522620D02*
X348098120Y-167624500D01*
X349200000Y-161600000D02*
X349200000Y-166522620D01*
%TO.N,COL10*%
X266790000Y-146190000D02*
X276200000Y-155600000D01*
X252390000Y-86626548D02*
X252390000Y-98460000D01*
X252390000Y-98460000D02*
X252390000Y-107860000D01*
X252390000Y-107860000D02*
X261990000Y-117460000D01*
X264456548Y-74560000D02*
X252390000Y-86626548D01*
X261990000Y-117460000D02*
X261990000Y-131760000D01*
X261990000Y-131760000D02*
X266790000Y-136560000D01*
X266790000Y-74560000D02*
X264456548Y-74560000D01*
X266790000Y-136560000D02*
X266790000Y-146190000D01*
%TO.N,COL1*%
X90490000Y-117460000D02*
X90490000Y-131760000D01*
X88090000Y-174660000D02*
X91975151Y-170774849D01*
X83356548Y-74660000D02*
X80990000Y-77026548D01*
X95290000Y-146060000D02*
X104790000Y-155560000D01*
X91975151Y-166041397D02*
X102456548Y-155560000D01*
X91975151Y-170774849D02*
X91975151Y-166041397D01*
X80990000Y-98460000D02*
X80990000Y-107960000D01*
X85690000Y-74660000D02*
X83356548Y-74660000D01*
X80990000Y-107960000D02*
X90490000Y-117460000D01*
X80990000Y-77026548D02*
X80990000Y-98460000D01*
X90490000Y-131760000D02*
X95290000Y-136560000D01*
X95290000Y-136560000D02*
X95290000Y-146060000D01*
X102456548Y-155560000D02*
X104790000Y-155560000D01*
%TO.N,COL2*%
X123790000Y-155560000D02*
X114290000Y-146060000D01*
X99990000Y-107960000D02*
X109490000Y-117460000D01*
X99990000Y-98460000D02*
X99990000Y-107960000D01*
X109490000Y-131760000D02*
X114290000Y-136560000D01*
X104790000Y-74660000D02*
X102456548Y-74660000D01*
X109490000Y-117460000D02*
X109490000Y-131760000D01*
X102456548Y-74660000D02*
X99990000Y-77126548D01*
X121524464Y-155560000D02*
X123790000Y-155560000D01*
X114290000Y-146060000D02*
X114290000Y-136560000D01*
X99990000Y-77126548D02*
X99990000Y-98460000D01*
X111990000Y-174660000D02*
X111990000Y-165094464D01*
X111990000Y-165094464D02*
X121524464Y-155560000D01*
%TO.N,COL3*%
X119090000Y-98460000D02*
X119090000Y-107960000D01*
X123890000Y-74660000D02*
X121556548Y-74660000D01*
X119090000Y-77126548D02*
X119090000Y-98460000D01*
X128590000Y-131760000D02*
X133390000Y-136560000D01*
X133390000Y-145990000D02*
X142900000Y-155500000D01*
X128590000Y-117460000D02*
X128590000Y-131760000D01*
X133390000Y-136560000D02*
X133390000Y-145990000D01*
X119090000Y-107960000D02*
X128590000Y-117460000D01*
X121556548Y-74660000D02*
X119090000Y-77126548D01*
%TO.N,COL4*%
X138090000Y-107960000D02*
X147590000Y-117460000D01*
X152490000Y-136460000D02*
X152490000Y-146060000D01*
X142890000Y-74560000D02*
X142890000Y-93660000D01*
X152490000Y-146060000D02*
X161990000Y-155560000D01*
X147590000Y-131560000D02*
X152490000Y-136460000D01*
X142890000Y-93660000D02*
X138090000Y-98460000D01*
X147590000Y-117460000D02*
X147590000Y-131560000D01*
X138090000Y-98460000D02*
X138090000Y-107960000D01*
%TO.N,COL5*%
X171490000Y-146060000D02*
X180990000Y-155560000D01*
X180990000Y-155560000D02*
X180990000Y-172260000D01*
X157190000Y-107960000D02*
X166690000Y-117460000D01*
X171490000Y-136460000D02*
X166690000Y-131660000D01*
X171490000Y-136460000D02*
X171490000Y-146060000D01*
X166690000Y-74660000D02*
X166690000Y-88960000D01*
X166690000Y-88960000D02*
X157190000Y-98460000D01*
X180990000Y-172260000D02*
X183390000Y-174660000D01*
X157190000Y-98460000D02*
X157190000Y-107960000D01*
X166690000Y-131660000D02*
X166690000Y-117460000D01*
%TO.N,COL6*%
X190490000Y-146060000D02*
X199990000Y-155560000D01*
X185790000Y-131760000D02*
X190490000Y-136460000D01*
X176290000Y-107960000D02*
X176290000Y-98460000D01*
X185790000Y-74660000D02*
X185790000Y-88960000D01*
X190490000Y-136460000D02*
X190490000Y-146060000D01*
X185790000Y-117460000D02*
X176290000Y-107960000D01*
X185790000Y-117460000D02*
X185790000Y-131760000D01*
X185790000Y-88960000D02*
X176290000Y-98460000D01*
%TO.N,COL7*%
X204790000Y-74660000D02*
X202456548Y-74660000D01*
X195290000Y-98460000D02*
X195290000Y-107960000D01*
X219090000Y-155560000D02*
X209590000Y-146060000D01*
X204790000Y-117460000D02*
X204790000Y-131660000D01*
X204790000Y-131660000D02*
X209590000Y-136460000D01*
X195290000Y-107960000D02*
X204790000Y-117460000D01*
X202456548Y-74660000D02*
X195290000Y-81826548D01*
X209590000Y-146060000D02*
X209590000Y-136460000D01*
X195290000Y-81826548D02*
X195290000Y-98460000D01*
%TO.N,COL8*%
X228590000Y-145960000D02*
X238190000Y-155560000D01*
X249502732Y-174660000D02*
X252390000Y-174660000D01*
X214290000Y-107960000D02*
X223790000Y-117460000D01*
X228590000Y-136560000D02*
X228590000Y-145960000D01*
X238190000Y-155560000D02*
X238190000Y-163347268D01*
X223790000Y-117460000D02*
X223790000Y-131760000D01*
X214290000Y-81826548D02*
X214290000Y-98460000D01*
X221456548Y-74660000D02*
X214290000Y-81826548D01*
X238190000Y-163347268D02*
X249502732Y-174660000D01*
X223790000Y-74660000D02*
X221456548Y-74660000D01*
X223790000Y-131760000D02*
X228590000Y-136560000D01*
X214290000Y-98460000D02*
X214290000Y-107960000D01*
%TO.N,COL9*%
X242890000Y-131760000D02*
X247690000Y-136560000D01*
X245356548Y-74660000D02*
X233390000Y-86626548D01*
X233390000Y-107960000D02*
X242890000Y-117460000D01*
X233390000Y-98460000D02*
X233390000Y-107960000D01*
X247690000Y-146060000D02*
X257190000Y-155560000D01*
X247690000Y-136560000D02*
X247690000Y-146060000D01*
X242890000Y-117460000D02*
X242890000Y-131760000D01*
X233390000Y-86626548D02*
X233390000Y-98460000D01*
X268502732Y-174660000D02*
X271390000Y-174660000D01*
X257190000Y-163347268D02*
X268502732Y-174660000D01*
X247690000Y-74660000D02*
X245356548Y-74660000D01*
X257190000Y-155560000D02*
X257190000Y-163347268D01*
%TO.N,COL13*%
X324429999Y-135684465D02*
X325115000Y-134999464D01*
X333390000Y-160360000D02*
X324429999Y-151399999D01*
X319090000Y-112660000D02*
X323890000Y-117460000D01*
X324429999Y-151399999D02*
X324429999Y-135684465D01*
X333390000Y-160360000D02*
X333390000Y-179360000D01*
X328590000Y-88960000D02*
X328590000Y-74660000D01*
X319090000Y-98460000D02*
X319090000Y-112660000D01*
X323890000Y-117460000D02*
X325115000Y-118685000D01*
X319090000Y-98460000D02*
X328590000Y-88960000D01*
X325115000Y-118685000D02*
X325115000Y-134999464D01*
%TO.N,COL0*%
X61990000Y-112760000D02*
X66690000Y-117460000D01*
X61890000Y-74660000D02*
X61890000Y-98360000D01*
X66690000Y-134160000D02*
X69090000Y-136560000D01*
X69090000Y-136560000D02*
X69090000Y-150860000D01*
X61990000Y-98460000D02*
X61990000Y-94910000D01*
X61462388Y-165754160D02*
X71556548Y-155660000D01*
X69090000Y-150860000D02*
X73890000Y-155660000D01*
X61890000Y-98360000D02*
X61990000Y-98460000D01*
X64290000Y-174660000D02*
X61462388Y-171832388D01*
X61990000Y-98460000D02*
X61990000Y-112760000D01*
X66690000Y-117460000D02*
X66690000Y-134160000D01*
X61462388Y-171832388D02*
X61462388Y-165754160D01*
X71556548Y-155660000D02*
X73890000Y-155660000D01*
X61990000Y-94910000D02*
X70300000Y-86600000D01*
%TO.N,COL12*%
X316790000Y-136560000D02*
X316790000Y-176860000D01*
X316790000Y-136560000D02*
X306301929Y-136560000D01*
X300090000Y-130348071D02*
X300090000Y-117460000D01*
X304790000Y-84160000D02*
X290490000Y-98460000D01*
X306301929Y-136560000D02*
X300090000Y-130348071D01*
X304790000Y-74660000D02*
X304790000Y-84160000D01*
X290490000Y-107860000D02*
X290490000Y-98460000D01*
X300090000Y-117460000D02*
X290490000Y-107860000D01*
X316790000Y-176860000D02*
X314290000Y-179360000D01*
%TO.N,COL14*%
X357224500Y-155594500D02*
X357190000Y-155560000D01*
X357224500Y-174525500D02*
X357224500Y-155594500D01*
X352390000Y-179360000D02*
X357224500Y-174525500D01*
X357190000Y-155560000D02*
X357190000Y-136560000D01*
X357190000Y-136560000D02*
X357190000Y-117460000D01*
X357190000Y-117460000D02*
X357190000Y-98460000D01*
%TO.N,COL11*%
X285790000Y-136560000D02*
X285790000Y-144347268D01*
X283456548Y-74660000D02*
X271440000Y-86676548D01*
X281090000Y-131860000D02*
X285790000Y-136560000D01*
X297002732Y-155560000D02*
X302390000Y-155560000D01*
X271440000Y-107810000D02*
X271440000Y-98440000D01*
X281090000Y-117460000D02*
X271440000Y-107810000D01*
X302390000Y-162760000D02*
X290490000Y-174660000D01*
X285790000Y-144347268D02*
X297002732Y-155560000D01*
X281090000Y-117460000D02*
X281090000Y-131860000D01*
X271440000Y-86676548D02*
X271440000Y-98440000D01*
X285790000Y-74660000D02*
X283456548Y-74660000D01*
X302390000Y-155560000D02*
X302390000Y-162760000D01*
%TO.N,VBUS*%
X352900000Y-77400000D02*
X356854063Y-77400000D01*
X352400000Y-76900000D02*
X352900000Y-77400000D01*
X356854063Y-77400000D02*
X357185500Y-77068563D01*
%TO.N,Net-(J1-PadA5)*%
X350600000Y-76900000D02*
X351400000Y-76100000D01*
X353100000Y-76100000D02*
X353500000Y-76500000D01*
X351400000Y-76100000D02*
X353100000Y-76100000D01*
%TO.N,Net-(J1-PadB5)*%
X356207243Y-76344063D02*
X358744063Y-76344063D01*
X358744063Y-76344063D02*
X358900000Y-76500000D01*
%TD*%
M02*
