%TF.GenerationSoftware,KiCad,Pcbnew,(6.0.6)*%
%TF.CreationDate,2022-08-10T00:18:22-04:00*%
%TF.ProjectId,Jupiter,4a757069-7465-4722-9e6b-696361645f70,rev?*%
%TF.SameCoordinates,Original*%
%TF.FileFunction,Soldermask,Bot*%
%TF.FilePolarity,Negative*%
%FSLAX46Y46*%
G04 Gerber Fmt 4.6, Leading zero omitted, Abs format (unit mm)*
G04 Created by KiCad (PCBNEW (6.0.6)) date 2022-08-10 00:18:22*
%MOMM*%
%LPD*%
G01*
G04 APERTURE LIST*
G04 Aperture macros list*
%AMRoundRect*
0 Rectangle with rounded corners*
0 $1 Rounding radius*
0 $2 $3 $4 $5 $6 $7 $8 $9 X,Y pos of 4 corners*
0 Add a 4 corners polygon primitive as box body*
4,1,4,$2,$3,$4,$5,$6,$7,$8,$9,$2,$3,0*
0 Add four circle primitives for the rounded corners*
1,1,$1+$1,$2,$3*
1,1,$1+$1,$4,$5*
1,1,$1+$1,$6,$7*
1,1,$1+$1,$8,$9*
0 Add four rect primitives between the rounded corners*
20,1,$1+$1,$2,$3,$4,$5,0*
20,1,$1+$1,$4,$5,$6,$7,0*
20,1,$1+$1,$6,$7,$8,$9,0*
20,1,$1+$1,$8,$9,$2,$3,0*%
%AMRotRect*
0 Rectangle, with rotation*
0 The origin of the aperture is its center*
0 $1 length*
0 $2 width*
0 $3 Rotation angle, in degrees counterclockwise*
0 Add horizontal line*
21,1,$1,$2,0,0,$3*%
%AMFreePoly0*
4,1,18,-0.410000,0.593000,-0.403758,0.624380,-0.385983,0.650983,-0.359380,0.668758,-0.328000,0.675000,0.328000,0.675000,0.359380,0.668758,0.385983,0.650983,0.403758,0.624380,0.410000,0.593000,0.410000,-0.593000,0.403758,-0.624380,0.385983,-0.650983,0.359380,-0.668758,0.328000,-0.675000,0.000000,-0.675000,-0.410000,-0.265000,-0.410000,0.593000,-0.410000,0.593000,$1*%
G04 Aperture macros list end*
%ADD10R,1.200000X0.900000*%
%ADD11C,5.000000*%
%ADD12C,3.048000*%
%ADD13C,3.987800*%
%ADD14C,4.000000*%
%ADD15C,1.750000*%
%ADD16RoundRect,0.250000X1.025000X1.000000X-1.025000X1.000000X-1.025000X-1.000000X1.025000X-1.000000X0*%
%ADD17C,3.300000*%
%ADD18FreePoly0,270.000000*%
%ADD19RoundRect,0.082000X-0.593000X0.328000X-0.593000X-0.328000X0.593000X-0.328000X0.593000X0.328000X0*%
%ADD20RoundRect,0.225000X-0.250000X0.225000X-0.250000X-0.225000X0.250000X-0.225000X0.250000X0.225000X0*%
%ADD21FreePoly0,90.000000*%
%ADD22RoundRect,0.082000X0.593000X-0.328000X0.593000X0.328000X-0.593000X0.328000X-0.593000X-0.328000X0*%
%ADD23RoundRect,0.225000X0.250000X-0.225000X0.250000X0.225000X-0.250000X0.225000X-0.250000X-0.225000X0*%
%ADD24RoundRect,0.225000X-0.017678X0.335876X-0.335876X0.017678X0.017678X-0.335876X0.335876X-0.017678X0*%
%ADD25RoundRect,0.200000X0.335876X0.053033X0.053033X0.335876X-0.335876X-0.053033X-0.053033X-0.335876X0*%
%ADD26RoundRect,0.200000X-0.275000X0.200000X-0.275000X-0.200000X0.275000X-0.200000X0.275000X0.200000X0*%
%ADD27RotRect,1.400000X1.200000X315.000000*%
%ADD28R,1.100000X1.800000*%
%ADD29RoundRect,0.250000X-0.625000X0.375000X-0.625000X-0.375000X0.625000X-0.375000X0.625000X0.375000X0*%
%ADD30RoundRect,0.225000X0.335876X0.017678X0.017678X0.335876X-0.335876X-0.017678X-0.017678X-0.335876X0*%
%ADD31R,0.700000X0.600000*%
%ADD32R,0.700000X1.000000*%
%ADD33RoundRect,0.225000X-0.335876X-0.017678X-0.017678X-0.335876X0.335876X0.017678X0.017678X0.335876X0*%
%ADD34O,1.200000X2.250000*%
%ADD35R,0.540000X1.100000*%
%ADD36R,0.300000X1.100000*%
%ADD37C,0.650000*%
%ADD38RoundRect,0.200000X0.053033X-0.335876X0.335876X-0.053033X-0.053033X0.335876X-0.335876X0.053033X0*%
%ADD39RotRect,5.200000X5.200000X135.000000*%
%ADD40RoundRect,0.062500X0.380070X0.291682X0.291682X0.380070X-0.380070X-0.291682X-0.291682X-0.380070X0*%
%ADD41RoundRect,0.062500X0.380070X-0.291682X-0.291682X0.380070X-0.380070X0.291682X0.291682X-0.380070X0*%
%ADD42RoundRect,0.225000X0.017678X-0.335876X0.335876X-0.017678X-0.017678X0.335876X-0.335876X0.017678X0*%
G04 APERTURE END LIST*
D10*
%TO.C,D82*%
X363200000Y-184337500D03*
X363200000Y-181037500D03*
%TD*%
%TO.C,D81*%
X344200000Y-184350000D03*
X344200000Y-181050000D03*
%TD*%
%TO.C,D80*%
X325100000Y-184437500D03*
X325100000Y-181137500D03*
%TD*%
%TO.C,D79*%
X301300000Y-179650000D03*
X301300000Y-176350000D03*
%TD*%
%TO.C,D78*%
X282300000Y-179637500D03*
X282300000Y-176337500D03*
%TD*%
%TO.C,D77*%
X263200000Y-179637500D03*
X263200000Y-176337500D03*
%TD*%
%TO.C,D76*%
X194200000Y-179637500D03*
X194200000Y-176337500D03*
%TD*%
%TO.C,D75*%
X122700000Y-179650000D03*
X122700000Y-176350000D03*
%TD*%
%TO.C,D74*%
X98900000Y-179650000D03*
X98900000Y-176350000D03*
%TD*%
%TO.C,D73*%
X75100000Y-179637500D03*
X75100000Y-176337500D03*
%TD*%
%TO.C,D72*%
X368000000Y-157237500D03*
X368000000Y-160537500D03*
%TD*%
%TO.C,D71*%
X344200000Y-162037500D03*
X344200000Y-165337500D03*
%TD*%
%TO.C,D70*%
X313200000Y-157237500D03*
X313200000Y-160537500D03*
%TD*%
%TO.C,D69*%
X287000000Y-157237500D03*
X287000000Y-160537500D03*
%TD*%
%TO.C,D68*%
X268000000Y-157237500D03*
X268000000Y-160537500D03*
%TD*%
%TO.C,D67*%
X249000000Y-157250000D03*
X249000000Y-160550000D03*
%TD*%
%TO.C,D66*%
X229900000Y-157250000D03*
X229900000Y-160550000D03*
%TD*%
%TO.C,D65*%
X210800000Y-157237500D03*
X210800000Y-160537500D03*
%TD*%
%TO.C,D64*%
X191800000Y-157337500D03*
X191800000Y-160637500D03*
%TD*%
%TO.C,D63*%
X172800000Y-157250000D03*
X172800000Y-160550000D03*
%TD*%
%TO.C,D62*%
X153700000Y-157137500D03*
X153700000Y-160437500D03*
%TD*%
%TO.C,D61*%
X134600000Y-157237500D03*
X134600000Y-160537500D03*
%TD*%
%TO.C,D60*%
X115600000Y-157237500D03*
X115600000Y-160537500D03*
%TD*%
%TO.C,D59*%
X84600000Y-157350000D03*
X84600000Y-160650000D03*
%TD*%
%TO.C,D58*%
X368000000Y-141550000D03*
X368000000Y-138250000D03*
%TD*%
%TO.C,D57*%
X327500000Y-141537500D03*
X327500000Y-138237500D03*
%TD*%
%TO.C,D56*%
X296600000Y-141550000D03*
X296600000Y-138250000D03*
%TD*%
%TO.C,D55*%
X277500000Y-141550000D03*
X277500000Y-138250000D03*
%TD*%
%TO.C,D54*%
X258500000Y-141537500D03*
X258500000Y-138237500D03*
%TD*%
%TO.C,D53*%
X239400000Y-141537500D03*
X239400000Y-138237500D03*
%TD*%
%TO.C,D52*%
X220400000Y-141437500D03*
X220400000Y-138137500D03*
%TD*%
%TO.C,D51*%
X201300000Y-141450000D03*
X201300000Y-138150000D03*
%TD*%
%TO.C,D50*%
X182300000Y-141437500D03*
X182300000Y-138137500D03*
%TD*%
%TO.C,D49*%
X163200000Y-141462500D03*
X163200000Y-138162500D03*
%TD*%
%TO.C,D48*%
X144200000Y-141537500D03*
X144200000Y-138237500D03*
%TD*%
%TO.C,D47*%
X125100000Y-141637500D03*
X125100000Y-138337500D03*
%TD*%
%TO.C,D46*%
X106100000Y-141537500D03*
X106100000Y-138237500D03*
%TD*%
%TO.C,D45*%
X79900000Y-141537500D03*
X79900000Y-138237500D03*
%TD*%
%TO.C,D44*%
X368000000Y-119137500D03*
X368000000Y-122437500D03*
%TD*%
%TO.C,D43*%
X334700000Y-119137500D03*
X334700000Y-122437500D03*
%TD*%
%TO.C,D42*%
X310900000Y-119137500D03*
X310900000Y-122437500D03*
%TD*%
%TO.C,D41*%
X291800000Y-119137500D03*
X291800000Y-122437500D03*
%TD*%
%TO.C,D40*%
X272800000Y-119137500D03*
X272800000Y-122437500D03*
%TD*%
%TO.C,D39*%
X253700000Y-119150000D03*
X253700000Y-122450000D03*
%TD*%
%TO.C,D38*%
X234700000Y-119137500D03*
X234700000Y-122437500D03*
%TD*%
%TO.C,D37*%
X215600000Y-119137500D03*
X215600000Y-122437500D03*
%TD*%
%TO.C,D36*%
X196600000Y-119150000D03*
X196600000Y-122450000D03*
%TD*%
%TO.C,D35*%
X177500000Y-119150000D03*
X177500000Y-122450000D03*
%TD*%
%TO.C,D34*%
X158400000Y-119137500D03*
X158400000Y-122437500D03*
%TD*%
%TO.C,D33*%
X139400000Y-119137500D03*
X139400000Y-122437500D03*
%TD*%
%TO.C,D32*%
X120400000Y-119137500D03*
X120400000Y-122437500D03*
%TD*%
%TO.C,D31*%
X101300000Y-119150000D03*
X101300000Y-122450000D03*
%TD*%
%TO.C,D30*%
X77500000Y-119150000D03*
X77500000Y-122450000D03*
%TD*%
%TO.C,D29*%
X368000000Y-103450000D03*
X368000000Y-100150000D03*
%TD*%
%TO.C,D28*%
X329900000Y-103550000D03*
X329900000Y-100250000D03*
%TD*%
%TO.C,D27*%
X301300000Y-103437500D03*
X301300000Y-100137500D03*
%TD*%
%TO.C,D26*%
X282300000Y-103437500D03*
X282300000Y-100137500D03*
%TD*%
%TO.C,D25*%
X263200000Y-103450000D03*
X263200000Y-100150000D03*
%TD*%
%TO.C,D24*%
X244200000Y-103437500D03*
X244200000Y-100137500D03*
%TD*%
%TO.C,D23*%
X225100000Y-103450000D03*
X225100000Y-100150000D03*
%TD*%
%TO.C,D22*%
X206100000Y-103437500D03*
X206100000Y-100137500D03*
%TD*%
%TO.C,D21*%
X187000000Y-103450000D03*
X187000000Y-100150000D03*
%TD*%
%TO.C,D20*%
X168000000Y-103437500D03*
X168000000Y-100137500D03*
%TD*%
%TO.C,D19*%
X148900000Y-103437500D03*
X148900000Y-100137500D03*
%TD*%
%TO.C,D18*%
X129900000Y-103437500D03*
X129900000Y-100137500D03*
%TD*%
%TO.C,D17*%
X110800000Y-103437500D03*
X110800000Y-100137500D03*
%TD*%
%TO.C,D16*%
X91800000Y-103450000D03*
X91800000Y-100150000D03*
%TD*%
%TO.C,D15*%
X72700000Y-103437500D03*
X72700000Y-100137500D03*
%TD*%
%TO.C,D14*%
X339400000Y-79637500D03*
X339400000Y-76337500D03*
%TD*%
%TO.C,D13*%
X315600000Y-79650000D03*
X315600000Y-76350000D03*
%TD*%
%TO.C,D12*%
X296600000Y-79650000D03*
X296600000Y-76350000D03*
%TD*%
%TO.C,D11*%
X277500000Y-79550000D03*
X277500000Y-76250000D03*
%TD*%
%TO.C,D10*%
X258500000Y-79650000D03*
X258500000Y-76350000D03*
%TD*%
%TO.C,D9*%
X234700000Y-79637500D03*
X234700000Y-76337500D03*
%TD*%
%TO.C,D8*%
X215600000Y-79662500D03*
X215600000Y-76362500D03*
%TD*%
%TO.C,D7*%
X196600000Y-79650000D03*
X196600000Y-76350000D03*
%TD*%
%TO.C,D6*%
X177500000Y-79650000D03*
X177500000Y-76350000D03*
%TD*%
%TO.C,D5*%
X153700000Y-79562500D03*
X153700000Y-76262500D03*
%TD*%
%TO.C,D4*%
X134600000Y-79637500D03*
X134600000Y-76337500D03*
%TD*%
%TO.C,D3*%
X115600000Y-79650000D03*
X115600000Y-76350000D03*
%TD*%
%TO.C,D2*%
X96500000Y-79550000D03*
X96500000Y-76250000D03*
%TD*%
%TO.C,D1*%
X72900000Y-75850000D03*
X72900000Y-79150000D03*
%TD*%
D11*
%TO.C,*%
X222900000Y-148100000D03*
%TD*%
%TO.C,*%
X239300000Y-74200000D03*
%TD*%
%TO.C,*%
X246400000Y-110000000D03*
%TD*%
%TO.C,*%
X367200000Y-187900000D03*
%TD*%
%TO.C,*%
X366300000Y-71600000D03*
%TD*%
%TO.C,*%
X77100000Y-75000000D03*
%TD*%
%TO.C,*%
X60100000Y-187700000D03*
%TD*%
D12*
%TO.C,REF\u002A\u002A*%
X65793750Y-151215000D03*
D13*
X89606250Y-166455000D03*
D12*
X89606250Y-151215000D03*
D13*
X65793750Y-166455000D03*
%TD*%
D11*
%TO.C,*%
X304800000Y-97500000D03*
%TD*%
D13*
%TO.C,REF\u002A\u002A*%
X237206250Y-185455000D03*
D14*
X237206250Y-170215000D03*
X137193750Y-170215000D03*
D13*
X137193750Y-185455000D03*
%TD*%
%TO.C,REF\u002A\u002A*%
X332506250Y-147355000D03*
D12*
X332506250Y-132115000D03*
D13*
X308693750Y-147355000D03*
D12*
X308693750Y-132115000D03*
%TD*%
%TO.C,REF\u002A\u002A*%
X310993750Y-94015000D03*
D13*
X310993750Y-109255000D03*
D12*
X334806250Y-94015000D03*
D13*
X334806250Y-109255000D03*
%TD*%
D11*
%TO.C,*%
X151700000Y-92400000D03*
%TD*%
%TO.C,*%
X127600000Y-148100000D03*
%TD*%
%TO.C,*%
X81700000Y-114000000D03*
%TD*%
%TO.C,*%
X296300000Y-149500000D03*
%TD*%
D15*
%TO.C,K_T1*%
X175580000Y-120000000D03*
X165420000Y-120000000D03*
D13*
X170500000Y-120000000D03*
D16*
X163140000Y-117460000D03*
D17*
X166690000Y-117460000D03*
X173040000Y-114920000D03*
D16*
X176590000Y-114920000D03*
%TD*%
D18*
%TO.C,LED_R1*%
X148675000Y-124330000D03*
D19*
X148675000Y-125830000D03*
X154125000Y-124330000D03*
X154125000Y-125830000D03*
%TD*%
D13*
%TO.C,K_E1*%
X132400000Y-120000000D03*
D15*
X127320000Y-120000000D03*
X137480000Y-120000000D03*
D16*
X125040000Y-117460000D03*
D17*
X128590000Y-117460000D03*
X134940000Y-114920000D03*
D16*
X138490000Y-114920000D03*
%TD*%
D15*
%TO.C,K_pgUp1*%
X366080000Y-120000000D03*
X355920000Y-120000000D03*
D13*
X361000000Y-120000000D03*
D17*
X357190000Y-117460000D03*
D16*
X353640000Y-117460000D03*
D17*
X363540000Y-114920000D03*
D16*
X367090000Y-114920000D03*
%TD*%
D20*
%TO.C,C29*%
X193200000Y-106900000D03*
X193200000Y-105350000D03*
%TD*%
D21*
%TO.C,LED_quote1*%
X292325000Y-144930000D03*
D22*
X292325000Y-143430000D03*
X286875000Y-144930000D03*
X286875000Y-143430000D03*
%TD*%
D23*
%TO.C,C64*%
X114600000Y-162450000D03*
X114600000Y-164000000D03*
%TD*%
D20*
%TO.C,C26*%
X136100000Y-106900000D03*
X136100000Y-105350000D03*
%TD*%
D15*
%TO.C,K_rightArrow1*%
X351120000Y-181900000D03*
D13*
X356200000Y-181900000D03*
D15*
X361280000Y-181900000D03*
D16*
X348840000Y-179360000D03*
D17*
X352390000Y-179360000D03*
X358740000Y-176820000D03*
D16*
X362290000Y-176820000D03*
%TD*%
D21*
%TO.C,LED_5*%
X163725000Y-106830000D03*
D22*
X163725000Y-105330000D03*
X158275000Y-106830000D03*
X158275000Y-105330000D03*
%TD*%
D24*
%TO.C,C5*%
X344083984Y-147026016D03*
X345180000Y-145930000D03*
%TD*%
D18*
%TO.C,LED_leftShift1*%
X74975000Y-162530000D03*
D19*
X74975000Y-164030000D03*
X80425000Y-162530000D03*
X80425000Y-164030000D03*
%TD*%
D23*
%TO.C,C8*%
X71700000Y-81250000D03*
X71700000Y-82800000D03*
%TD*%
%TO.C,C69*%
X209800000Y-162350000D03*
X209800000Y-163900000D03*
%TD*%
D13*
%TO.C,K_B1*%
X184800000Y-158100000D03*
D15*
X189880000Y-158100000D03*
X179720000Y-158100000D03*
D16*
X177440000Y-155560000D03*
D17*
X180990000Y-155560000D03*
D16*
X190890000Y-153020000D03*
D17*
X187340000Y-153020000D03*
%TD*%
D20*
%TO.C,C59*%
X245700000Y-144950000D03*
X245700000Y-143400000D03*
%TD*%
D23*
%TO.C,C49*%
X76600000Y-124250000D03*
X76600000Y-125800000D03*
%TD*%
D18*
%TO.C,LED_F5*%
X167775000Y-81530000D03*
D19*
X167775000Y-83030000D03*
X173225000Y-81530000D03*
X173225000Y-83030000D03*
%TD*%
D23*
%TO.C,C40*%
X252700000Y-124250000D03*
X252700000Y-125800000D03*
%TD*%
%TO.C,C73*%
X286000000Y-162450000D03*
X286000000Y-164000000D03*
%TD*%
D25*
%TO.C,R2*%
X341133274Y-130633274D03*
X342300000Y-131800000D03*
%TD*%
D23*
%TO.C,C66*%
X152700000Y-162350000D03*
X152700000Y-163900000D03*
%TD*%
%TO.C,C21*%
X355100000Y-105300000D03*
X355100000Y-106850000D03*
%TD*%
D20*
%TO.C,C79*%
X181400000Y-183100000D03*
X181400000Y-181550000D03*
%TD*%
D23*
%TO.C,C67*%
X171800000Y-162350000D03*
X171800000Y-163900000D03*
%TD*%
D15*
%TO.C,K_G1*%
X180380000Y-139000000D03*
X170220000Y-139000000D03*
D13*
X175300000Y-139000000D03*
D17*
X171490000Y-136460000D03*
D16*
X167940000Y-136460000D03*
X181390000Y-133920000D03*
D17*
X177840000Y-133920000D03*
%TD*%
D20*
%TO.C,C31*%
X231200000Y-106900000D03*
X231200000Y-105350000D03*
%TD*%
D21*
%TO.C,LED_tilda1*%
X68525000Y-106830000D03*
D22*
X68525000Y-105330000D03*
X63075000Y-106830000D03*
X63075000Y-105330000D03*
%TD*%
D20*
%TO.C,C60*%
X264700000Y-144950000D03*
X264700000Y-143400000D03*
%TD*%
D15*
%TO.C,K_I1*%
X222520000Y-120000000D03*
X232680000Y-120000000D03*
D13*
X227600000Y-120000000D03*
D17*
X223790000Y-117460000D03*
D16*
X220240000Y-117460000D03*
D17*
X230140000Y-114920000D03*
D16*
X233690000Y-114920000D03*
%TD*%
D20*
%TO.C,C52*%
X112200000Y-144950000D03*
X112200000Y-143400000D03*
%TD*%
D13*
%TO.C,K_V1*%
X165800000Y-158100000D03*
D15*
X160720000Y-158100000D03*
X170880000Y-158100000D03*
D17*
X161990000Y-155560000D03*
D16*
X158440000Y-155560000D03*
X171890000Y-153020000D03*
D17*
X168340000Y-153020000D03*
%TD*%
D20*
%TO.C,C27*%
X155000000Y-106900000D03*
X155000000Y-105350000D03*
%TD*%
D21*
%TO.C,LED_J1*%
X216125000Y-144830000D03*
D22*
X216125000Y-143330000D03*
X210675000Y-144830000D03*
X210675000Y-143330000D03*
%TD*%
D21*
%TO.C,LED_rightAlt1*%
X258925000Y-183030000D03*
D22*
X258925000Y-181530000D03*
X253475000Y-183030000D03*
X253475000Y-181530000D03*
%TD*%
D21*
%TO.C,LED_D1*%
X139925000Y-144930000D03*
D22*
X139925000Y-143430000D03*
X134475000Y-144930000D03*
X134475000Y-143430000D03*
%TD*%
D23*
%TO.C,C20*%
X314500000Y-81550000D03*
X314500000Y-83100000D03*
%TD*%
D21*
%TO.C,LED_4*%
X144625000Y-106830000D03*
D22*
X144625000Y-105330000D03*
X139175000Y-106830000D03*
X139175000Y-105330000D03*
%TD*%
D23*
%TO.C,C65*%
X133700000Y-162350000D03*
X133700000Y-163900000D03*
%TD*%
D15*
%TO.C,K_enter1*%
X325680000Y-139100000D03*
D13*
X320600000Y-139100000D03*
D15*
X315520000Y-139100000D03*
D17*
X316790000Y-136560000D03*
D16*
X313240000Y-136560000D03*
X326690000Y-134020000D03*
D17*
X323140000Y-134020000D03*
%TD*%
D20*
%TO.C,C87*%
X367000000Y-163950000D03*
X367000000Y-162400000D03*
%TD*%
D23*
%TO.C,C74*%
X312200000Y-162350000D03*
X312200000Y-163900000D03*
%TD*%
%TO.C,C46*%
X138400000Y-124250000D03*
X138400000Y-125800000D03*
%TD*%
D21*
%TO.C,LED_6*%
X182825000Y-106830000D03*
D22*
X182825000Y-105330000D03*
X177375000Y-106830000D03*
X177375000Y-105330000D03*
%TD*%
D21*
%TO.C,LED_equals1*%
X297025000Y-106830000D03*
D22*
X297025000Y-105330000D03*
X291575000Y-106830000D03*
X291575000Y-105330000D03*
%TD*%
D18*
%TO.C,LED_N1*%
X201075000Y-162430000D03*
D19*
X201075000Y-163930000D03*
X206525000Y-162430000D03*
X206525000Y-163930000D03*
%TD*%
D23*
%TO.C,C41*%
X233600000Y-124250000D03*
X233600000Y-125800000D03*
%TD*%
D15*
%TO.C,K_end1*%
X366080000Y-158100000D03*
D13*
X361000000Y-158100000D03*
D15*
X355920000Y-158100000D03*
D17*
X357190000Y-155560000D03*
D16*
X353640000Y-155560000D03*
X367090000Y-153020000D03*
D17*
X363540000Y-153020000D03*
%TD*%
D18*
%TO.C,LED_rightShift1*%
X303475000Y-162430000D03*
D19*
X303475000Y-163930000D03*
X308925000Y-162430000D03*
X308925000Y-163930000D03*
%TD*%
D18*
%TO.C,LED_P1*%
X263075000Y-124330000D03*
D19*
X263075000Y-125830000D03*
X268525000Y-124330000D03*
X268525000Y-125830000D03*
%TD*%
D15*
%TO.C,K_tilda1*%
X60720000Y-101000000D03*
D13*
X65800000Y-101000000D03*
D15*
X70880000Y-101000000D03*
D17*
X61990000Y-98460000D03*
D16*
X58440000Y-98460000D03*
D17*
X68340000Y-95920000D03*
D16*
X71890000Y-95920000D03*
%TD*%
D18*
%TO.C,LED_F4*%
X143975000Y-81430000D03*
D19*
X143975000Y-82930000D03*
X149425000Y-81430000D03*
X149425000Y-82930000D03*
%TD*%
D18*
%TO.C,LED_upArrow1*%
X334475000Y-167230000D03*
D19*
X334475000Y-168730000D03*
X339925000Y-167230000D03*
X339925000Y-168730000D03*
%TD*%
D18*
%TO.C,LED_F6*%
X186875000Y-81530000D03*
D19*
X186875000Y-83030000D03*
X192325000Y-81530000D03*
X192325000Y-83030000D03*
%TD*%
D18*
%TO.C,LED_X1*%
X124875000Y-162430000D03*
D19*
X124875000Y-163930000D03*
X130325000Y-162430000D03*
X130325000Y-163930000D03*
%TD*%
D13*
%TO.C,K_rightAlt1*%
X256200000Y-177200000D03*
D15*
X261280000Y-177200000D03*
X251120000Y-177200000D03*
D17*
X252390000Y-174660000D03*
D16*
X248840000Y-174660000D03*
D17*
X258740000Y-172120000D03*
D16*
X262290000Y-172120000D03*
%TD*%
D18*
%TO.C,LED_esc1*%
X62975000Y-81530000D03*
D19*
X62975000Y-83030000D03*
X68425000Y-81530000D03*
X68425000Y-83030000D03*
%TD*%
D21*
%TO.C,LED_K1*%
X235125000Y-144930000D03*
D22*
X235125000Y-143430000D03*
X229675000Y-144930000D03*
X229675000Y-143430000D03*
%TD*%
D15*
%TO.C,K_7*%
X194020000Y-101000000D03*
X204180000Y-101000000D03*
D13*
X199100000Y-101000000D03*
D17*
X195290000Y-98460000D03*
D16*
X191740000Y-98460000D03*
D17*
X201640000Y-95920000D03*
D16*
X205190000Y-95920000D03*
%TD*%
D13*
%TO.C,K_A1*%
X99100000Y-139100000D03*
D15*
X94020000Y-139100000D03*
X104180000Y-139100000D03*
D16*
X91740000Y-136560000D03*
D17*
X95290000Y-136560000D03*
X101640000Y-134020000D03*
D16*
X105190000Y-134020000D03*
%TD*%
D20*
%TO.C,C22*%
X59900000Y-106850000D03*
X59900000Y-105300000D03*
%TD*%
%TO.C,C30*%
X212100000Y-106900000D03*
X212100000Y-105350000D03*
%TD*%
D15*
%TO.C,K_home1*%
X366080000Y-101000000D03*
D13*
X361000000Y-101000000D03*
D15*
X355920000Y-101000000D03*
D16*
X353640000Y-98460000D03*
D17*
X357190000Y-98460000D03*
X363540000Y-95920000D03*
D16*
X367090000Y-95920000D03*
%TD*%
D15*
%TO.C,K_space1*%
X182120000Y-177200000D03*
X192280000Y-177200000D03*
D13*
X187200000Y-177200000D03*
D17*
X183390000Y-174660000D03*
D16*
X179840000Y-174660000D03*
D17*
X189740000Y-172120000D03*
D16*
X193290000Y-172120000D03*
%TD*%
D18*
%TO.C,LED_F2*%
X105875000Y-81530000D03*
D19*
X105875000Y-83030000D03*
X111325000Y-81530000D03*
X111325000Y-83030000D03*
%TD*%
D23*
%TO.C,C39*%
X271900000Y-124250000D03*
X271900000Y-125800000D03*
%TD*%
%TO.C,C13*%
X176500000Y-81450000D03*
X176500000Y-83000000D03*
%TD*%
D18*
%TO.C,LED_F7*%
X205875000Y-81530000D03*
D19*
X205875000Y-83030000D03*
X211325000Y-81530000D03*
X211325000Y-83030000D03*
%TD*%
D20*
%TO.C,C57*%
X207400000Y-144850000D03*
X207400000Y-143300000D03*
%TD*%
D24*
%TO.C,C4*%
X349103984Y-134696016D03*
X350200000Y-133600000D03*
%TD*%
D18*
%TO.C,LED_Z1*%
X105875000Y-162530000D03*
D19*
X105875000Y-164030000D03*
X111325000Y-162530000D03*
X111325000Y-164030000D03*
%TD*%
D26*
%TO.C,R4*%
X355750000Y-81600000D03*
X355750000Y-83250000D03*
%TD*%
D21*
%TO.C,LED_minus1*%
X277975000Y-106810000D03*
D22*
X277975000Y-105310000D03*
X272525000Y-106810000D03*
X272525000Y-105310000D03*
%TD*%
D20*
%TO.C,C58*%
X226500000Y-144950000D03*
X226500000Y-143400000D03*
%TD*%
D15*
%TO.C,K_U1*%
X213680000Y-120000000D03*
D13*
X208600000Y-120000000D03*
D15*
X203520000Y-120000000D03*
D16*
X201240000Y-117460000D03*
D17*
X204790000Y-117460000D03*
D16*
X214690000Y-114920000D03*
D17*
X211140000Y-114920000D03*
%TD*%
D21*
%TO.C,LED_A1*%
X101825000Y-144930000D03*
D22*
X101825000Y-143430000D03*
X96375000Y-144930000D03*
X96375000Y-143430000D03*
%TD*%
D20*
%TO.C,C84*%
X331400000Y-187800000D03*
X331400000Y-186250000D03*
%TD*%
%TO.C,C51*%
X93100000Y-144950000D03*
X93100000Y-143400000D03*
%TD*%
D27*
%TO.C,Y1*%
X336021142Y-142923223D03*
X337576777Y-144478858D03*
X338778858Y-143276777D03*
X337223223Y-141721142D03*
%TD*%
D13*
%TO.C,K_leftAlt1*%
X115800000Y-177200000D03*
D15*
X120880000Y-177200000D03*
X110720000Y-177200000D03*
D16*
X108440000Y-174660000D03*
D17*
X111990000Y-174660000D03*
D16*
X121890000Y-172120000D03*
D17*
X118340000Y-172120000D03*
%TD*%
D21*
%TO.C,LED_H1*%
X197025000Y-144830000D03*
D22*
X197025000Y-143330000D03*
X191575000Y-144830000D03*
X191575000Y-143330000D03*
%TD*%
D23*
%TO.C,C44*%
X176500000Y-124250000D03*
X176500000Y-125800000D03*
%TD*%
D18*
%TO.C,LED_F11*%
X286875000Y-81530000D03*
D19*
X286875000Y-83030000D03*
X292325000Y-81530000D03*
X292325000Y-83030000D03*
%TD*%
D18*
%TO.C,LED_M1*%
X220175000Y-162430000D03*
D19*
X220175000Y-163930000D03*
X225625000Y-162430000D03*
X225625000Y-163930000D03*
%TD*%
D18*
%TO.C,LED_closeBracket1*%
X301175000Y-124330000D03*
D19*
X301175000Y-125830000D03*
X306625000Y-124330000D03*
X306625000Y-125830000D03*
%TD*%
D21*
%TO.C,LED_windows1*%
X94625000Y-183030000D03*
D22*
X94625000Y-181530000D03*
X89175000Y-183030000D03*
X89175000Y-181530000D03*
%TD*%
D23*
%TO.C,C48*%
X100300000Y-124250000D03*
X100300000Y-125800000D03*
%TD*%
D13*
%TO.C,K_F2*%
X108600000Y-77200000D03*
D15*
X113680000Y-77200000D03*
X103520000Y-77200000D03*
D16*
X101240000Y-74660000D03*
D17*
X104790000Y-74660000D03*
D16*
X114690000Y-72120000D03*
D17*
X111140000Y-72120000D03*
%TD*%
D21*
%TO.C,LED_rightControl1*%
X297025000Y-183030000D03*
D22*
X297025000Y-181530000D03*
X291575000Y-183030000D03*
X291575000Y-181530000D03*
%TD*%
D23*
%TO.C,C37*%
X309900000Y-124250000D03*
X309900000Y-125800000D03*
%TD*%
D13*
%TO.C,K_F3*%
X127700000Y-77200000D03*
D15*
X132780000Y-77200000D03*
X122620000Y-77200000D03*
D16*
X120340000Y-74660000D03*
D17*
X123890000Y-74660000D03*
D16*
X133790000Y-72120000D03*
D17*
X130240000Y-72120000D03*
%TD*%
D23*
%TO.C,C9*%
X95500000Y-81450000D03*
X95500000Y-83000000D03*
%TD*%
D15*
%TO.C,K_M1*%
X217820000Y-158100000D03*
D13*
X222900000Y-158100000D03*
D15*
X227980000Y-158100000D03*
D16*
X215540000Y-155560000D03*
D17*
X219090000Y-155560000D03*
D16*
X228990000Y-153020000D03*
D17*
X225440000Y-153020000D03*
%TD*%
D15*
%TO.C,K_windows1*%
X86820000Y-177200000D03*
D13*
X91900000Y-177200000D03*
D15*
X96980000Y-177200000D03*
D16*
X84540000Y-174660000D03*
D17*
X88090000Y-174660000D03*
D16*
X97990000Y-172120000D03*
D17*
X94440000Y-172120000D03*
%TD*%
D20*
%TO.C,C32*%
X250200000Y-106900000D03*
X250200000Y-105350000D03*
%TD*%
D15*
%TO.C,K_R1*%
X146320000Y-120000000D03*
X156480000Y-120000000D03*
D13*
X151400000Y-120000000D03*
D17*
X147590000Y-117460000D03*
D16*
X144040000Y-117460000D03*
D17*
X153940000Y-114920000D03*
D16*
X157490000Y-114920000D03*
%TD*%
D23*
%TO.C,C71*%
X248000000Y-162350000D03*
X248000000Y-163900000D03*
%TD*%
D20*
%TO.C,C76*%
X62200000Y-183100000D03*
X62200000Y-181550000D03*
%TD*%
D15*
%TO.C,K_2*%
X98720000Y-101000000D03*
D13*
X103800000Y-101000000D03*
D15*
X108880000Y-101000000D03*
D16*
X96440000Y-98460000D03*
D17*
X99990000Y-98460000D03*
D16*
X109890000Y-95920000D03*
D17*
X106340000Y-95920000D03*
%TD*%
D15*
%TO.C,K_leftShift1*%
X82780000Y-158200000D03*
D13*
X77700000Y-158200000D03*
D15*
X72620000Y-158200000D03*
D17*
X73890000Y-155660000D03*
D16*
X70340000Y-155660000D03*
D17*
X80240000Y-153120000D03*
D16*
X83790000Y-153120000D03*
%TD*%
D28*
%TO.C,SW1*%
X351050000Y-157100000D03*
X347350000Y-163300000D03*
X347350000Y-157100000D03*
X351050000Y-163300000D03*
%TD*%
D15*
%TO.C,K_F1*%
X94580000Y-77200000D03*
D13*
X89500000Y-77200000D03*
D15*
X84420000Y-77200000D03*
D16*
X82140000Y-74660000D03*
D17*
X85690000Y-74660000D03*
X92040000Y-72120000D03*
D16*
X95590000Y-72120000D03*
%TD*%
D21*
%TO.C,LED_function1*%
X277925000Y-183030000D03*
D22*
X277925000Y-181530000D03*
X272475000Y-183030000D03*
X272475000Y-181530000D03*
%TD*%
D13*
%TO.C,K_9*%
X237200000Y-101000000D03*
D15*
X232120000Y-101000000D03*
X242280000Y-101000000D03*
D17*
X233390000Y-98460000D03*
D16*
X229840000Y-98460000D03*
D17*
X239740000Y-95920000D03*
D16*
X243290000Y-95920000D03*
%TD*%
D20*
%TO.C,C35*%
X317000000Y-106900000D03*
X317000000Y-105350000D03*
%TD*%
D21*
%TO.C,LED_3*%
X125625000Y-106830000D03*
D22*
X125625000Y-105330000D03*
X120175000Y-106830000D03*
X120175000Y-105330000D03*
%TD*%
D21*
%TO.C,LED_7*%
X201825000Y-106830000D03*
D22*
X201825000Y-105330000D03*
X196375000Y-106830000D03*
X196375000Y-105330000D03*
%TD*%
D15*
%TO.C,K_D1*%
X142280000Y-139100000D03*
D13*
X137200000Y-139100000D03*
D15*
X132120000Y-139100000D03*
D16*
X129840000Y-136560000D03*
D17*
X133390000Y-136560000D03*
X139740000Y-134020000D03*
D16*
X143290000Y-134020000D03*
%TD*%
D18*
%TO.C,LED_C1*%
X143985000Y-162370000D03*
D19*
X143985000Y-163870000D03*
X149435000Y-162370000D03*
X149435000Y-163870000D03*
%TD*%
D29*
%TO.C,F1*%
X350500000Y-81500000D03*
X350500000Y-84300000D03*
%TD*%
D18*
%TO.C,LED_F9*%
X248775000Y-81530000D03*
D19*
X248775000Y-83030000D03*
X254225000Y-81530000D03*
X254225000Y-83030000D03*
%TD*%
D15*
%TO.C,K_leftArrow1*%
X313020000Y-181900000D03*
X323180000Y-181900000D03*
D13*
X318100000Y-181900000D03*
D17*
X314290000Y-179360000D03*
D16*
X310740000Y-179360000D03*
X324190000Y-176820000D03*
D17*
X320640000Y-176820000D03*
%TD*%
D23*
%TO.C,C38*%
X290900000Y-124250000D03*
X290900000Y-125800000D03*
%TD*%
D20*
%TO.C,C56*%
X188400000Y-144850000D03*
X188400000Y-143300000D03*
%TD*%
D15*
%TO.C,K_F11*%
X284520000Y-77200000D03*
X294680000Y-77200000D03*
D13*
X289600000Y-77200000D03*
D17*
X285790000Y-74660000D03*
D16*
X282240000Y-74660000D03*
D17*
X292140000Y-72120000D03*
D16*
X295690000Y-72120000D03*
%TD*%
D13*
%TO.C,K_period1*%
X261000000Y-158100000D03*
D15*
X255920000Y-158100000D03*
X266080000Y-158100000D03*
D16*
X253640000Y-155560000D03*
D17*
X257190000Y-155560000D03*
D16*
X267090000Y-153020000D03*
D17*
X263540000Y-153020000D03*
%TD*%
D20*
%TO.C,C33*%
X269300000Y-106875000D03*
X269300000Y-105325000D03*
%TD*%
D23*
%TO.C,C43*%
X195600000Y-124250000D03*
X195600000Y-125800000D03*
%TD*%
D15*
%TO.C,K_tab1*%
X75580000Y-120000000D03*
D13*
X70500000Y-120000000D03*
D15*
X65420000Y-120000000D03*
D17*
X66690000Y-117460000D03*
D16*
X63140000Y-117460000D03*
X76590000Y-114920000D03*
D17*
X73040000Y-114920000D03*
%TD*%
D21*
%TO.C,LED_capsLock1*%
X75625000Y-144930000D03*
D22*
X75625000Y-143430000D03*
X70175000Y-144930000D03*
X70175000Y-143430000D03*
%TD*%
D21*
%TO.C,LED_downArrow1*%
X339925000Y-187730000D03*
D22*
X339925000Y-186230000D03*
X334475000Y-187730000D03*
X334475000Y-186230000D03*
%TD*%
D21*
%TO.C,LED_end1*%
X363725000Y-163930000D03*
D22*
X363725000Y-162430000D03*
X358275000Y-163930000D03*
X358275000Y-162430000D03*
%TD*%
D30*
%TO.C,C6*%
X336251992Y-134051992D03*
X337348008Y-135148008D03*
%TD*%
D18*
%TO.C,LED_E1*%
X129675000Y-124330000D03*
D19*
X129675000Y-125830000D03*
X135125000Y-124330000D03*
X135125000Y-125830000D03*
%TD*%
D23*
%TO.C,C15*%
X214500000Y-81450000D03*
X214500000Y-83000000D03*
%TD*%
%TO.C,C36*%
X333800000Y-124300000D03*
X333800000Y-125850000D03*
%TD*%
D15*
%TO.C,K_rightShift1*%
X301120000Y-158100000D03*
X311280000Y-158100000D03*
D13*
X306200000Y-158100000D03*
D16*
X298840000Y-155560000D03*
D17*
X302390000Y-155560000D03*
X308740000Y-153020000D03*
D16*
X312290000Y-153020000D03*
%TD*%
D13*
%TO.C,K_minus1*%
X275250000Y-100980000D03*
D15*
X270170000Y-100980000D03*
X280330000Y-100980000D03*
D17*
X271440000Y-98440000D03*
D16*
X267890000Y-98440000D03*
D17*
X277790000Y-95900000D03*
D16*
X281340000Y-95900000D03*
%TD*%
D15*
%TO.C,K_W1*%
X108220000Y-120000000D03*
D13*
X113300000Y-120000000D03*
D15*
X118380000Y-120000000D03*
D17*
X109490000Y-117460000D03*
D16*
X105940000Y-117460000D03*
D17*
X115840000Y-114920000D03*
D16*
X119390000Y-114920000D03*
%TD*%
D15*
%TO.C,K_5*%
X155920000Y-101000000D03*
D13*
X161000000Y-101000000D03*
D15*
X166080000Y-101000000D03*
D17*
X157190000Y-98460000D03*
D16*
X153640000Y-98460000D03*
D17*
X163540000Y-95920000D03*
D16*
X167090000Y-95920000D03*
%TD*%
D26*
%TO.C,R6*%
X358900000Y-79600000D03*
X358900000Y-77950000D03*
%TD*%
D13*
%TO.C,K_3*%
X122900000Y-101000000D03*
D15*
X127980000Y-101000000D03*
X117820000Y-101000000D03*
D16*
X115540000Y-98460000D03*
D17*
X119090000Y-98460000D03*
D16*
X128990000Y-95920000D03*
D17*
X125440000Y-95920000D03*
%TD*%
D20*
%TO.C,C28*%
X174100000Y-106900000D03*
X174100000Y-105350000D03*
%TD*%
%TO.C,C62*%
X314700000Y-144950000D03*
X314700000Y-143400000D03*
%TD*%
D13*
%TO.C,K_quote1*%
X289600000Y-139100000D03*
D15*
X294680000Y-139100000D03*
X284520000Y-139100000D03*
D16*
X282240000Y-136560000D03*
D17*
X285790000Y-136560000D03*
X292140000Y-134020000D03*
D16*
X295690000Y-134020000D03*
%TD*%
D23*
%TO.C,C12*%
X152600000Y-81350000D03*
X152600000Y-82900000D03*
%TD*%
D21*
%TO.C,LED_pgUp1*%
X363725000Y-125830000D03*
D22*
X363725000Y-124330000D03*
X358275000Y-125830000D03*
X358275000Y-124330000D03*
%TD*%
D15*
%TO.C,K_F7*%
X203520000Y-77200000D03*
X213680000Y-77200000D03*
D13*
X208600000Y-77200000D03*
D17*
X204790000Y-74660000D03*
D16*
X201240000Y-74660000D03*
X214690000Y-72120000D03*
D17*
X211140000Y-72120000D03*
%TD*%
D15*
%TO.C,K_K1*%
X227320000Y-139100000D03*
D13*
X232400000Y-139100000D03*
D15*
X237480000Y-139100000D03*
D17*
X228590000Y-136560000D03*
D16*
X225040000Y-136560000D03*
D17*
X234940000Y-134020000D03*
D16*
X238490000Y-134020000D03*
%TD*%
D15*
%TO.C,K_comma1*%
X236920000Y-158100000D03*
D13*
X242000000Y-158100000D03*
D15*
X247080000Y-158100000D03*
D16*
X234640000Y-155560000D03*
D17*
X238190000Y-155560000D03*
D16*
X248090000Y-153020000D03*
D17*
X244540000Y-153020000D03*
%TD*%
D18*
%TO.C,LED_Q1*%
X91575000Y-124330000D03*
D19*
X91575000Y-125830000D03*
X97025000Y-124330000D03*
X97025000Y-125830000D03*
%TD*%
D21*
%TO.C,LED_colon1*%
X273325000Y-144930000D03*
D22*
X273325000Y-143430000D03*
X267875000Y-144930000D03*
X267875000Y-143430000D03*
%TD*%
D13*
%TO.C,K_1*%
X84800000Y-101000000D03*
D15*
X89880000Y-101000000D03*
X79720000Y-101000000D03*
D17*
X80990000Y-98460000D03*
D16*
X77440000Y-98460000D03*
D17*
X87340000Y-95920000D03*
D16*
X90890000Y-95920000D03*
%TD*%
D13*
%TO.C,K_4*%
X141900000Y-101000000D03*
D15*
X136820000Y-101000000D03*
X146980000Y-101000000D03*
D16*
X134540000Y-98460000D03*
D17*
X138090000Y-98460000D03*
X144440000Y-95920000D03*
D16*
X147990000Y-95920000D03*
%TD*%
D23*
%TO.C,C19*%
X295500000Y-81550000D03*
X295500000Y-83100000D03*
%TD*%
D13*
%TO.C,K_0*%
X256200000Y-101000000D03*
D15*
X261280000Y-101000000D03*
X251120000Y-101000000D03*
D17*
X252390000Y-98460000D03*
D16*
X248840000Y-98460000D03*
X262290000Y-95920000D03*
D17*
X258740000Y-95920000D03*
%TD*%
D13*
%TO.C,K_L1*%
X251500000Y-139100000D03*
D15*
X256580000Y-139100000D03*
X246420000Y-139100000D03*
D17*
X247690000Y-136560000D03*
D16*
X244140000Y-136560000D03*
D17*
X254040000Y-134020000D03*
D16*
X257590000Y-134020000D03*
%TD*%
D23*
%TO.C,C18*%
X276500000Y-81300000D03*
X276500000Y-82850000D03*
%TD*%
D20*
%TO.C,C83*%
X312200000Y-187800000D03*
X312200000Y-186250000D03*
%TD*%
D23*
%TO.C,C63*%
X83700000Y-162450000D03*
X83700000Y-164000000D03*
%TD*%
D13*
%TO.C,K_closeBracket1*%
X303900000Y-120000000D03*
D15*
X298820000Y-120000000D03*
X308980000Y-120000000D03*
D17*
X300090000Y-117460000D03*
D16*
X296540000Y-117460000D03*
D17*
X306440000Y-114920000D03*
D16*
X309990000Y-114920000D03*
%TD*%
D21*
%TO.C,LED_9*%
X239925000Y-106830000D03*
D22*
X239925000Y-105330000D03*
X234475000Y-106830000D03*
X234475000Y-105330000D03*
%TD*%
D31*
%TO.C,U2*%
X353750000Y-78160000D03*
X353750000Y-80060000D03*
X355750000Y-80060000D03*
D32*
X355750000Y-78360000D03*
%TD*%
D13*
%TO.C,K_Y1*%
X189600000Y-120000000D03*
D15*
X194680000Y-120000000D03*
X184520000Y-120000000D03*
D17*
X185790000Y-117460000D03*
D16*
X182240000Y-117460000D03*
D17*
X192140000Y-114920000D03*
D16*
X195690000Y-114920000D03*
%TD*%
D23*
%TO.C,C45*%
X157400000Y-124250000D03*
X157400000Y-125800000D03*
%TD*%
D15*
%TO.C,K_backSlash1*%
X322620000Y-120000000D03*
D13*
X327700000Y-120000000D03*
D15*
X332780000Y-120000000D03*
D17*
X323890000Y-117460000D03*
D16*
X320340000Y-117460000D03*
X333790000Y-114920000D03*
D17*
X330240000Y-114920000D03*
%TD*%
D20*
%TO.C,C54*%
X150400000Y-144850000D03*
X150400000Y-143300000D03*
%TD*%
D23*
%TO.C,C14*%
X195500000Y-81450000D03*
X195500000Y-83000000D03*
%TD*%
D33*
%TO.C,C3*%
X349100000Y-143300000D03*
X348003984Y-142203984D03*
%TD*%
D20*
%TO.C,C25*%
X117000000Y-106900000D03*
X117000000Y-105350000D03*
%TD*%
D18*
%TO.C,LED_F1*%
X86775000Y-81530000D03*
D19*
X86775000Y-83030000D03*
X92225000Y-81530000D03*
X92225000Y-83030000D03*
%TD*%
D15*
%TO.C,K_upArrow1*%
X332120000Y-162900000D03*
D13*
X337200000Y-162900000D03*
D15*
X342280000Y-162900000D03*
D16*
X329840000Y-160360000D03*
D17*
X333390000Y-160360000D03*
D16*
X343290000Y-157820000D03*
D17*
X339740000Y-157820000D03*
%TD*%
D21*
%TO.C,LED_backspace1*%
X325625000Y-106830000D03*
D22*
X325625000Y-105330000D03*
X320175000Y-106830000D03*
X320175000Y-105330000D03*
%TD*%
D18*
%TO.C,LED_T1*%
X167775000Y-124330000D03*
D19*
X167775000Y-125830000D03*
X173225000Y-124330000D03*
X173225000Y-125830000D03*
%TD*%
D26*
%TO.C,R3*%
X353750000Y-81600000D03*
X353750000Y-83250000D03*
%TD*%
D20*
%TO.C,C55*%
X169500000Y-144875000D03*
X169500000Y-143325000D03*
%TD*%
D15*
%TO.C,K_S1*%
X113020000Y-139100000D03*
X123180000Y-139100000D03*
D13*
X118100000Y-139100000D03*
D17*
X114290000Y-136560000D03*
D16*
X110740000Y-136560000D03*
D17*
X120640000Y-134020000D03*
D16*
X124190000Y-134020000D03*
%TD*%
D21*
%TO.C,LED_0*%
X258925000Y-106830000D03*
D22*
X258925000Y-105330000D03*
X253475000Y-106830000D03*
X253475000Y-105330000D03*
%TD*%
D18*
%TO.C,LED_F8*%
X224875000Y-81530000D03*
D19*
X224875000Y-83030000D03*
X230325000Y-81530000D03*
X230325000Y-83030000D03*
%TD*%
D15*
%TO.C,K_F4*%
X141620000Y-77100000D03*
X151780000Y-77100000D03*
D13*
X146700000Y-77100000D03*
D16*
X139340000Y-74560000D03*
D17*
X142890000Y-74560000D03*
X149240000Y-72020000D03*
D16*
X152790000Y-72020000D03*
%TD*%
D18*
%TO.C,LED_period1*%
X258275000Y-162430000D03*
D19*
X258275000Y-163930000D03*
X263725000Y-162430000D03*
X263725000Y-163930000D03*
%TD*%
D34*
%TO.C,J1*%
X360265000Y-69322500D03*
X349115000Y-69322500D03*
X349135000Y-73922500D03*
X360285000Y-73922500D03*
D35*
X351510000Y-75202500D03*
X352260000Y-75202500D03*
D36*
X352960000Y-75202500D03*
X353960000Y-75202500D03*
X355460000Y-75202500D03*
X356460000Y-75202500D03*
D35*
X357160000Y-75202500D03*
X357910000Y-75202500D03*
X357910000Y-75202500D03*
X357160000Y-75202500D03*
D36*
X355960000Y-75202500D03*
X354960000Y-75202500D03*
X354460000Y-75202500D03*
X353460000Y-75202500D03*
D35*
X352260000Y-75202500D03*
X351510000Y-75202500D03*
D37*
X358460000Y-74002500D03*
X350960000Y-74002500D03*
%TD*%
D20*
%TO.C,C81*%
X269400000Y-183100000D03*
X269400000Y-181550000D03*
%TD*%
%TO.C,C82*%
X288500000Y-183100000D03*
X288500000Y-181550000D03*
%TD*%
D15*
%TO.C,K_Z1*%
X113680000Y-158100000D03*
X103520000Y-158100000D03*
D13*
X108600000Y-158100000D03*
D16*
X101240000Y-155560000D03*
D17*
X104790000Y-155560000D03*
D16*
X114690000Y-153020000D03*
D17*
X111140000Y-153020000D03*
%TD*%
D18*
%TO.C,LED_O1*%
X243975000Y-124330000D03*
D19*
X243975000Y-125830000D03*
X249425000Y-124330000D03*
X249425000Y-125830000D03*
%TD*%
D15*
%TO.C,K_Q1*%
X89220000Y-120000000D03*
X99380000Y-120000000D03*
D13*
X94300000Y-120000000D03*
D16*
X86940000Y-117460000D03*
D17*
X90490000Y-117460000D03*
X96840000Y-114920000D03*
D16*
X100390000Y-114920000D03*
%TD*%
D15*
%TO.C,K_downArrow1*%
X332120000Y-181900000D03*
D13*
X337200000Y-181900000D03*
D15*
X342280000Y-181900000D03*
D17*
X333390000Y-179360000D03*
D16*
X329840000Y-179360000D03*
D17*
X339740000Y-176820000D03*
D16*
X343290000Y-176820000D03*
%TD*%
D13*
%TO.C,K_function1*%
X275200000Y-177200000D03*
D15*
X280280000Y-177200000D03*
X270120000Y-177200000D03*
D16*
X267840000Y-174660000D03*
D17*
X271390000Y-174660000D03*
X277740000Y-172120000D03*
D16*
X281290000Y-172120000D03*
%TD*%
D13*
%TO.C,K_F13*%
X156300000Y-139000000D03*
D15*
X161380000Y-139000000D03*
X151220000Y-139000000D03*
D17*
X152490000Y-136460000D03*
D16*
X148940000Y-136460000D03*
X162390000Y-133920000D03*
D17*
X158840000Y-133920000D03*
%TD*%
D20*
%TO.C,C61*%
X283700000Y-144950000D03*
X283700000Y-143400000D03*
%TD*%
D18*
%TO.C,LED_W1*%
X110575000Y-124330000D03*
D19*
X110575000Y-125830000D03*
X116025000Y-124330000D03*
X116025000Y-125830000D03*
%TD*%
D23*
%TO.C,C17*%
X257500000Y-81350000D03*
X257500000Y-82900000D03*
%TD*%
D15*
%TO.C,K_colon1*%
X265520000Y-139100000D03*
X275680000Y-139100000D03*
D13*
X270600000Y-139100000D03*
D17*
X266790000Y-136560000D03*
D16*
X263240000Y-136560000D03*
D17*
X273140000Y-134020000D03*
D16*
X276690000Y-134020000D03*
%TD*%
D23*
%TO.C,C70*%
X228900000Y-162350000D03*
X228900000Y-163900000D03*
%TD*%
D15*
%TO.C,K_F8*%
X222520000Y-77200000D03*
D13*
X227600000Y-77200000D03*
D15*
X232680000Y-77200000D03*
D17*
X223790000Y-74660000D03*
D16*
X220240000Y-74660000D03*
X233690000Y-72120000D03*
D17*
X230140000Y-72120000D03*
%TD*%
D15*
%TO.C,K_6*%
X185180000Y-101000000D03*
X175020000Y-101000000D03*
D13*
X180100000Y-101000000D03*
D16*
X172740000Y-98460000D03*
D17*
X176290000Y-98460000D03*
D16*
X186190000Y-95920000D03*
D17*
X182640000Y-95920000D03*
%TD*%
D20*
%TO.C,C86*%
X362200000Y-187750000D03*
X362200000Y-186200000D03*
%TD*%
D21*
%TO.C,LED_leftAlt1*%
X118525000Y-183030000D03*
D22*
X118525000Y-181530000D03*
X113075000Y-183030000D03*
X113075000Y-181530000D03*
%TD*%
D23*
%TO.C,C16*%
X233500000Y-81450000D03*
X233500000Y-83000000D03*
%TD*%
D13*
%TO.C,K_C1*%
X146710000Y-158040000D03*
D15*
X151790000Y-158040000D03*
X141630000Y-158040000D03*
D16*
X139350000Y-155500000D03*
D17*
X142900000Y-155500000D03*
X149250000Y-152960000D03*
D16*
X152800000Y-152960000D03*
%TD*%
D15*
%TO.C,K_rightControl1*%
X289220000Y-177200000D03*
X299380000Y-177200000D03*
D13*
X294300000Y-177200000D03*
D17*
X290490000Y-174660000D03*
D16*
X286940000Y-174660000D03*
X300390000Y-172120000D03*
D17*
X296840000Y-172120000D03*
%TD*%
D18*
%TO.C,LED_B1*%
X182075000Y-162430000D03*
D19*
X182075000Y-163930000D03*
X187525000Y-162430000D03*
X187525000Y-163930000D03*
%TD*%
D13*
%TO.C,K_F10*%
X270600000Y-77100000D03*
D15*
X265520000Y-77100000D03*
X275680000Y-77100000D03*
D16*
X263240000Y-74560000D03*
D17*
X266790000Y-74560000D03*
X273140000Y-72020000D03*
D16*
X276690000Y-72020000D03*
%TD*%
D23*
%TO.C,C10*%
X114600000Y-81450000D03*
X114600000Y-83000000D03*
%TD*%
D21*
%TO.C,LED_L1*%
X254225000Y-144930000D03*
D22*
X254225000Y-143430000D03*
X248775000Y-144930000D03*
X248775000Y-143430000D03*
%TD*%
D15*
%TO.C,K_J1*%
X208320000Y-139000000D03*
X218480000Y-139000000D03*
D13*
X213400000Y-139000000D03*
D16*
X206040000Y-136460000D03*
D17*
X209590000Y-136460000D03*
X215940000Y-133920000D03*
D16*
X219490000Y-133920000D03*
%TD*%
D13*
%TO.C,K_X1*%
X127600000Y-158100000D03*
D15*
X132680000Y-158100000D03*
X122520000Y-158100000D03*
D17*
X123790000Y-155560000D03*
D16*
X120240000Y-155560000D03*
X133690000Y-153020000D03*
D17*
X130140000Y-153020000D03*
%TD*%
D18*
%TO.C,LED_F10*%
X267875000Y-81430000D03*
D19*
X267875000Y-82930000D03*
X273325000Y-81430000D03*
X273325000Y-82930000D03*
%TD*%
D18*
%TO.C,LED_Y1*%
X186875000Y-124330000D03*
D19*
X186875000Y-125830000D03*
X192325000Y-124330000D03*
X192325000Y-125830000D03*
%TD*%
D18*
%TO.C,LED_V1*%
X163075000Y-162430000D03*
D19*
X163075000Y-163930000D03*
X168525000Y-162430000D03*
X168525000Y-163930000D03*
%TD*%
D18*
%TO.C,LED_I1*%
X224875000Y-124330000D03*
D19*
X224875000Y-125830000D03*
X230325000Y-124330000D03*
X230325000Y-125830000D03*
%TD*%
D15*
%TO.C,K_leftControl1*%
X63020000Y-177200000D03*
D13*
X68100000Y-177200000D03*
D15*
X73180000Y-177200000D03*
D16*
X60740000Y-174660000D03*
D17*
X64290000Y-174660000D03*
D16*
X74190000Y-172120000D03*
D17*
X70640000Y-172120000D03*
%TD*%
D21*
%TO.C,LED_space1*%
X189925000Y-183030000D03*
D22*
X189925000Y-181530000D03*
X184475000Y-183030000D03*
X184475000Y-181530000D03*
%TD*%
D15*
%TO.C,K_P1*%
X260720000Y-120000000D03*
D13*
X265800000Y-120000000D03*
D15*
X270880000Y-120000000D03*
D16*
X258440000Y-117460000D03*
D17*
X261990000Y-117460000D03*
D16*
X271890000Y-114920000D03*
D17*
X268340000Y-114920000D03*
%TD*%
D20*
%TO.C,C34*%
X288400000Y-106900000D03*
X288400000Y-105350000D03*
%TD*%
D26*
%TO.C,R5*%
X350600000Y-79550000D03*
X350600000Y-77900000D03*
%TD*%
D23*
%TO.C,C72*%
X267000000Y-162350000D03*
X267000000Y-163900000D03*
%TD*%
D21*
%TO.C,LED_leftControl1*%
X70825000Y-183030000D03*
D22*
X70825000Y-181530000D03*
X65375000Y-183030000D03*
X65375000Y-181530000D03*
%TD*%
D23*
%TO.C,C47*%
X119400000Y-124250000D03*
X119400000Y-125800000D03*
%TD*%
D20*
%TO.C,C88*%
X367000000Y-144900000D03*
X367000000Y-143350000D03*
%TD*%
D13*
%TO.C,K_questionMark1*%
X280010000Y-158140000D03*
D15*
X274930000Y-158140000D03*
X285090000Y-158140000D03*
D16*
X272650000Y-155600000D03*
D17*
X276200000Y-155600000D03*
D16*
X286100000Y-153060000D03*
D17*
X282550000Y-153060000D03*
%TD*%
D23*
%TO.C,C68*%
X190800000Y-162350000D03*
X190800000Y-163900000D03*
%TD*%
D15*
%TO.C,K_backspace1*%
X327980000Y-101000000D03*
D13*
X322900000Y-101000000D03*
D15*
X317820000Y-101000000D03*
D16*
X315540000Y-98460000D03*
D17*
X319090000Y-98460000D03*
D16*
X328990000Y-95920000D03*
D17*
X325440000Y-95920000D03*
%TD*%
D21*
%TO.C,LED_8*%
X220825000Y-106830000D03*
D22*
X220825000Y-105330000D03*
X215375000Y-106830000D03*
X215375000Y-105330000D03*
%TD*%
D18*
%TO.C,LED_openBracket1*%
X282175000Y-124330000D03*
D19*
X282175000Y-125830000D03*
X287625000Y-124330000D03*
X287625000Y-125830000D03*
%TD*%
D15*
%TO.C,K_F6*%
X194680000Y-77200000D03*
X184520000Y-77200000D03*
D13*
X189600000Y-77200000D03*
D17*
X185790000Y-74660000D03*
D16*
X182240000Y-74660000D03*
D17*
X192140000Y-72120000D03*
D16*
X195690000Y-72120000D03*
%TD*%
D38*
%TO.C,R1*%
X345163274Y-148186726D03*
X346330000Y-147020000D03*
%TD*%
D20*
%TO.C,C53*%
X131300000Y-144950000D03*
X131300000Y-143400000D03*
%TD*%
D24*
%TO.C,C1*%
X334103984Y-140896016D03*
X335200000Y-139800000D03*
%TD*%
D18*
%TO.C,LED_home1*%
X358275000Y-105330000D03*
D19*
X358275000Y-106830000D03*
X363725000Y-105330000D03*
X363725000Y-106830000D03*
%TD*%
D13*
%TO.C,K_openBracket1*%
X284900000Y-120000000D03*
D15*
X289980000Y-120000000D03*
X279820000Y-120000000D03*
D17*
X281090000Y-117460000D03*
D16*
X277540000Y-117460000D03*
D17*
X287440000Y-114920000D03*
D16*
X290990000Y-114920000D03*
%TD*%
D20*
%TO.C,C24*%
X97900000Y-106950000D03*
X97900000Y-105400000D03*
%TD*%
D13*
%TO.C,K_O1*%
X246700000Y-120000000D03*
D15*
X241620000Y-120000000D03*
X251780000Y-120000000D03*
D17*
X242890000Y-117460000D03*
D16*
X239340000Y-117460000D03*
X252790000Y-114920000D03*
D17*
X249240000Y-114920000D03*
%TD*%
D15*
%TO.C,K_H1*%
X199380000Y-139000000D03*
D13*
X194300000Y-139000000D03*
D15*
X189220000Y-139000000D03*
D17*
X190490000Y-136460000D03*
D16*
X186940000Y-136460000D03*
D17*
X196840000Y-133920000D03*
D16*
X200390000Y-133920000D03*
%TD*%
D15*
%TO.C,K_N1*%
X208880000Y-158100000D03*
X198720000Y-158100000D03*
D13*
X203800000Y-158100000D03*
D17*
X199990000Y-155560000D03*
D16*
X196440000Y-155560000D03*
X209890000Y-153020000D03*
D17*
X206340000Y-153020000D03*
%TD*%
D39*
%TO.C,U1*%
X343500000Y-137700000D03*
D40*
X347627736Y-137107798D03*
X347274182Y-136754245D03*
X346920629Y-136400691D03*
X346567076Y-136047138D03*
X346213522Y-135693585D03*
X345859969Y-135340031D03*
X345506415Y-134986478D03*
X345152862Y-134632924D03*
X344799309Y-134279371D03*
X344445755Y-133925818D03*
X344092202Y-133572264D03*
D41*
X342907798Y-133572264D03*
X342554245Y-133925818D03*
X342200691Y-134279371D03*
X341847138Y-134632924D03*
X341493585Y-134986478D03*
X341140031Y-135340031D03*
X340786478Y-135693585D03*
X340432924Y-136047138D03*
X340079371Y-136400691D03*
X339725818Y-136754245D03*
X339372264Y-137107798D03*
D40*
X339372264Y-138292202D03*
X339725818Y-138645755D03*
X340079371Y-138999309D03*
X340432924Y-139352862D03*
X340786478Y-139706415D03*
X341140031Y-140059969D03*
X341493585Y-140413522D03*
X341847138Y-140767076D03*
X342200691Y-141120629D03*
X342554245Y-141474182D03*
X342907798Y-141827736D03*
D41*
X344092202Y-141827736D03*
X344445755Y-141474182D03*
X344799309Y-141120629D03*
X345152862Y-140767076D03*
X345506415Y-140413522D03*
X345859969Y-140059969D03*
X346213522Y-139706415D03*
X346567076Y-139352862D03*
X346920629Y-138999309D03*
X347274182Y-138645755D03*
X347627736Y-138292202D03*
%TD*%
D20*
%TO.C,C77*%
X86200000Y-183075000D03*
X86200000Y-181525000D03*
%TD*%
D23*
%TO.C,C42*%
X214600000Y-124250000D03*
X214600000Y-125800000D03*
%TD*%
D21*
%TO.C,LED_1*%
X87525000Y-106830000D03*
D22*
X87525000Y-105330000D03*
X82075000Y-106830000D03*
X82075000Y-105330000D03*
%TD*%
D15*
%TO.C,K_F9*%
X256580000Y-77200000D03*
X246420000Y-77200000D03*
D13*
X251500000Y-77200000D03*
D17*
X247690000Y-74660000D03*
D16*
X244140000Y-74660000D03*
X257590000Y-72120000D03*
D17*
X254040000Y-72120000D03*
%TD*%
D13*
%TO.C,K_F5*%
X170500000Y-77200000D03*
D15*
X175580000Y-77200000D03*
X165420000Y-77200000D03*
D17*
X166690000Y-74660000D03*
D16*
X163140000Y-74660000D03*
X176590000Y-72120000D03*
D17*
X173040000Y-72120000D03*
%TD*%
D21*
%TO.C,LED_G1*%
X178025000Y-144830000D03*
D22*
X178025000Y-143330000D03*
X172575000Y-144830000D03*
X172575000Y-143330000D03*
%TD*%
D18*
%TO.C,LED_tab1*%
X67775000Y-124330000D03*
D19*
X67775000Y-125830000D03*
X73225000Y-124330000D03*
X73225000Y-125830000D03*
%TD*%
D13*
%TO.C,K_capsLock1*%
X72900000Y-139100000D03*
D15*
X77980000Y-139100000D03*
X67820000Y-139100000D03*
D16*
X65540000Y-136560000D03*
D17*
X69090000Y-136560000D03*
X75440000Y-134020000D03*
D16*
X78990000Y-134020000D03*
%TD*%
D21*
%TO.C,LED_F13*%
X159025000Y-144830000D03*
D22*
X159025000Y-143330000D03*
X153575000Y-144830000D03*
X153575000Y-143330000D03*
%TD*%
D13*
%TO.C,K_delete1*%
X332400000Y-77200000D03*
D15*
X337480000Y-77200000D03*
X327320000Y-77200000D03*
D17*
X328590000Y-74660000D03*
D16*
X325040000Y-74660000D03*
X338490000Y-72120000D03*
D17*
X334940000Y-72120000D03*
%TD*%
D21*
%TO.C,LED_leftArrow1*%
X320825000Y-187730000D03*
D22*
X320825000Y-186230000D03*
X315375000Y-187730000D03*
X315375000Y-186230000D03*
%TD*%
D20*
%TO.C,C78*%
X110000000Y-183100000D03*
X110000000Y-181550000D03*
%TD*%
D18*
%TO.C,LED_comma1*%
X239275000Y-162430000D03*
D19*
X239275000Y-163930000D03*
X244725000Y-162430000D03*
X244725000Y-163930000D03*
%TD*%
D18*
%TO.C,LED_F12*%
X305875000Y-81530000D03*
D19*
X305875000Y-83030000D03*
X311325000Y-81530000D03*
X311325000Y-83030000D03*
%TD*%
D18*
%TO.C,LED_F3*%
X125075000Y-81430000D03*
D19*
X125075000Y-82930000D03*
X130525000Y-81430000D03*
X130525000Y-82930000D03*
%TD*%
D21*
%TO.C,LED_enter1*%
X323325000Y-144930000D03*
D22*
X323325000Y-143430000D03*
X317875000Y-144930000D03*
X317875000Y-143430000D03*
%TD*%
D21*
%TO.C,LED_rightArrow1*%
X358925000Y-187730000D03*
D22*
X358925000Y-186230000D03*
X353475000Y-187730000D03*
X353475000Y-186230000D03*
%TD*%
D21*
%TO.C,LED_S1*%
X120825000Y-144930000D03*
D22*
X120825000Y-143430000D03*
X115375000Y-144930000D03*
X115375000Y-143430000D03*
%TD*%
D13*
%TO.C,K_F12*%
X308600000Y-77200000D03*
D15*
X303520000Y-77200000D03*
X313680000Y-77200000D03*
D16*
X301240000Y-74660000D03*
D17*
X304790000Y-74660000D03*
D16*
X314690000Y-72120000D03*
D17*
X311140000Y-72120000D03*
%TD*%
D23*
%TO.C,C11*%
X133800000Y-81350000D03*
X133800000Y-82900000D03*
%TD*%
D20*
%TO.C,C23*%
X79000000Y-106850000D03*
X79000000Y-105300000D03*
%TD*%
D15*
%TO.C,K_esc1*%
X70780000Y-77200000D03*
D13*
X65700000Y-77200000D03*
D15*
X60620000Y-77200000D03*
D16*
X58340000Y-74660000D03*
D17*
X61890000Y-74660000D03*
D16*
X71790000Y-72120000D03*
D17*
X68240000Y-72120000D03*
%TD*%
D13*
%TO.C,K_equals1*%
X294300000Y-101000000D03*
D15*
X299380000Y-101000000D03*
X289220000Y-101000000D03*
D16*
X286940000Y-98460000D03*
D17*
X290490000Y-98460000D03*
D16*
X300390000Y-95920000D03*
D17*
X296840000Y-95920000D03*
%TD*%
D18*
%TO.C,LED_U1*%
X205875000Y-124330000D03*
D19*
X205875000Y-125830000D03*
X211325000Y-124330000D03*
X211325000Y-125830000D03*
%TD*%
D30*
%TO.C,C7*%
X342503984Y-129303984D03*
X343600000Y-130400000D03*
%TD*%
D18*
%TO.C,LED_delete1*%
X329675000Y-81530000D03*
D19*
X329675000Y-83030000D03*
X335125000Y-81530000D03*
X335125000Y-83030000D03*
%TD*%
D20*
%TO.C,C89*%
X367000000Y-125850000D03*
X367000000Y-124300000D03*
%TD*%
D15*
%TO.C,K_pgDown1*%
X355920000Y-139100000D03*
X366080000Y-139100000D03*
D13*
X361000000Y-139100000D03*
D16*
X353640000Y-136560000D03*
D17*
X357190000Y-136560000D03*
D16*
X367090000Y-134020000D03*
D17*
X363540000Y-134020000D03*
%TD*%
D18*
%TO.C,LED_backslash1*%
X324975000Y-124330000D03*
D19*
X324975000Y-125830000D03*
X330425000Y-124330000D03*
X330425000Y-125830000D03*
%TD*%
D18*
%TO.C,LED_questionMark1*%
X277285000Y-162470000D03*
D19*
X277285000Y-163970000D03*
X282735000Y-162470000D03*
X282735000Y-163970000D03*
%TD*%
D21*
%TO.C,LED_2*%
X106525000Y-106830000D03*
D22*
X106525000Y-105330000D03*
X101075000Y-106830000D03*
X101075000Y-105330000D03*
%TD*%
D42*
%TO.C,C2*%
X340600000Y-145200000D03*
X339503984Y-146296016D03*
%TD*%
D15*
%TO.C,K_8*%
X223180000Y-101000000D03*
X213020000Y-101000000D03*
D13*
X218100000Y-101000000D03*
D16*
X210740000Y-98460000D03*
D17*
X214290000Y-98460000D03*
D16*
X224190000Y-95920000D03*
D17*
X220640000Y-95920000D03*
%TD*%
D20*
%TO.C,C50*%
X67000000Y-144950000D03*
X67000000Y-143400000D03*
%TD*%
%TO.C,C85*%
X350300000Y-187800000D03*
X350300000Y-186250000D03*
%TD*%
D23*
%TO.C,C75*%
X343200000Y-167150000D03*
X343200000Y-168700000D03*
%TD*%
D21*
%TO.C,LED_pgDn1*%
X363725000Y-144930000D03*
D22*
X363725000Y-143430000D03*
X358275000Y-144930000D03*
X358275000Y-143430000D03*
%TD*%
D20*
%TO.C,C80*%
X250400000Y-183100000D03*
X250400000Y-181550000D03*
%TD*%
M02*
