M48
; DRILL file {KiCad (6.0.6)} date Wed Aug 10 00:18:25 2022
; FORMAT={-:-/ absolute / inch / decimal}
; #@! TF.CreationDate,2022-08-10T00:18:25-04:00
; #@! TF.GenerationSoftware,Kicad,Pcbnew,(6.0.6)
; #@! TF.FileFunction,Plated,1,2,PTH
FMAT,2
INCH
; #@! TA.AperFunction,Plated,PTH,ViaDrill
T1C0.0157
; #@! TA.AperFunction,Plated,PTH,ComponentDrill
T2C0.0236
; #@! TA.AperFunction,Plated,PTH,ComponentDrill
T3C0.0984
; #@! TA.AperFunction,Plated,PTH,ComponentDrill
T4C0.1181
; #@! TA.AperFunction,Plated,PTH,ComponentDrill
T5C0.1200
%
G90
G05
T1
X2.7677Y-3.4094
X2.878Y-3.3425
X2.937Y-3.1457
X13.0433Y-4.0433
X13.1378Y-4.7835
X13.1732Y-4.9921
X13.3189Y-5.3543
X13.4606Y-6.0079
X13.5197Y-5.2244
X13.5315Y-3.1339
X13.5354Y-3.3386
X13.5512Y-6.4449
X13.5669Y-5.1732
X13.6658Y-5.6294
X13.7047Y-6.5994
X13.7205Y-4.9598
X13.721Y-5.3666
X13.7323Y-5.4646
X13.748Y-6.3622
X13.8031Y-3.0276
X13.874Y-3.0276
X13.9173Y-3.0118
X13.9606Y-4.9606
X13.9803Y-5.5827
X13.9961Y-6.3268
X14.0157Y-4.063
X14.0239Y-3.0057
X14.0315Y-4.8268
X14.0624Y-3.0342
X14.1114Y-6.7252
X14.1299Y-3.0118
X14.1882Y-6.6406
T3
X2.3661Y-7.3898
X3.0354Y-2.9528
X3.2165Y-4.4882
X5.0236Y-5.8307
X5.9724Y-3.6378
X8.7756Y-5.8307
X9.4213Y-2.9213
X9.7008Y-4.3307
X11.6654Y-5.8858
X12.0Y-3.8386
X14.4213Y-2.8189
X14.4567Y-7.3976
T4
X2.4366Y-2.9394
X2.4406Y-3.8764
X2.5311Y-6.8764
X2.6256Y-4.6244
X2.6866Y-2.8394
X2.6906Y-3.7764
X2.7201Y-5.3764
X2.7811Y-6.7764
X2.8756Y-4.5244
X2.9091Y-6.1283
X2.9701Y-5.2764
X3.1591Y-6.0283
X3.1886Y-3.8764
X3.3736Y-2.9394
X3.4386Y-3.7764
X3.4681Y-6.8764
X3.5626Y-4.6244
X3.6236Y-2.8394
X3.7181Y-6.7764
X3.7516Y-5.3764
X3.8126Y-4.5244
X3.9366Y-3.8764
X4.0016Y-5.2764
X4.1256Y-2.9394
X4.1256Y-6.1244
X4.1866Y-3.7764
X4.3106Y-4.6244
X4.3756Y-2.8394
X4.3756Y-6.0244
X4.4091Y-6.8764
X4.4996Y-5.3764
X4.5606Y-4.5244
X4.6591Y-6.7764
X4.6886Y-3.8764
X4.7496Y-5.2764
X4.8736Y-6.1244
X4.8776Y-2.9394
X4.9386Y-3.7764
X5.0626Y-4.6244
X5.1236Y-6.0244
X5.1276Y-2.8394
X5.2516Y-5.3764
X5.3126Y-4.5244
X5.4366Y-3.8764
X5.5016Y-5.2764
X5.6256Y-2.9354
X5.626Y-6.122
X5.6866Y-3.7764
X5.8106Y-4.6244
X5.8756Y-2.8354
X5.876Y-6.022
X6.0035Y-5.3724
X6.0606Y-4.5244
X6.1886Y-3.8764
X6.2535Y-5.2724
X6.3776Y-6.1244
X6.4386Y-3.7764
X6.5626Y-2.9394
X6.5626Y-4.6244
X6.6276Y-6.0244
X6.7516Y-5.3724
X6.8126Y-2.8394
X6.8126Y-4.5244
X6.9406Y-3.8764
X7.0016Y-5.2724
X7.1256Y-6.1244
X7.1906Y-3.7764
X7.2201Y-6.8764
X7.3146Y-2.9394
X7.3146Y-4.6244
X7.3756Y-6.0244
X7.4701Y-6.7764
X7.4996Y-5.3724
X7.5646Y-2.8394
X7.5646Y-4.5244
X7.6886Y-3.8764
X7.7496Y-5.2724
X7.8736Y-6.1244
X7.9386Y-3.7764
X8.0626Y-2.9394
X8.0626Y-4.6244
X8.1236Y-6.0244
X8.2516Y-5.3724
X8.3126Y-2.8394
X8.3126Y-4.5244
X8.4366Y-3.8764
X8.5016Y-5.2724
X8.6256Y-6.1244
X8.6866Y-3.7764
X8.8106Y-2.9394
X8.8106Y-4.6244
X8.8756Y-6.0244
X8.9996Y-5.3764
X9.0606Y-2.8394
X9.0606Y-4.5244
X9.1886Y-3.8764
X9.2496Y-5.2764
X9.3776Y-6.1244
X9.4386Y-3.7764
X9.5626Y-4.6244
X9.6276Y-6.0244
X9.7516Y-2.9394
X9.7516Y-5.3764
X9.8126Y-4.5244
X9.9366Y-3.8764
X9.9366Y-6.8764
X10.0016Y-2.8394
X10.0016Y-5.2764
X10.1256Y-6.1244
X10.1866Y-3.7764
X10.1866Y-6.7764
X10.3146Y-4.6244
X10.3756Y-6.0244
X10.5035Y-2.9354
X10.5035Y-5.3764
X10.5646Y-4.5244
X10.6846Y-6.8764
X10.6866Y-3.8756
X10.7535Y-2.8354
X10.7535Y-5.2764
X10.874Y-6.126
X10.9346Y-6.7764
X10.9366Y-3.7756
X11.0665Y-4.6244
X11.124Y-6.026
X11.2516Y-2.9394
X11.2516Y-5.3764
X11.3165Y-4.5244
X11.4366Y-3.8764
X11.4366Y-6.8764
X11.5016Y-2.8394
X11.5016Y-5.2764
X11.6866Y-3.7764
X11.6866Y-6.7764
X11.8146Y-4.6244
X11.9051Y-6.1244
X11.9996Y-2.9394
X12.0646Y-4.5244
X12.1551Y-6.0244
X12.2496Y-2.8394
X12.3736Y-7.0614
X12.472Y-5.3764
X12.5626Y-3.8764
X12.6236Y-6.9614
X12.722Y-5.2764
X12.7516Y-4.6244
X12.8126Y-3.7764
X12.9366Y-2.9394
X13.0016Y-4.5244
X13.1256Y-6.3134
X13.1256Y-7.0614
X13.1866Y-2.8394
X13.3756Y-6.2134
X13.3756Y-6.9614
X13.8736Y-7.0614
X14.0626Y-3.8764
X14.0626Y-4.6244
X14.0626Y-5.3764
X14.0626Y-6.1244
X14.1236Y-6.9614
X14.3126Y-3.7764
X14.3126Y-4.5244
X14.3126Y-5.2764
X14.3126Y-6.0244
T5
X5.4013Y-6.7014
X9.3388Y-6.7014
T2
G00X13.7447Y-2.7499
M15
G01X13.7447Y-2.7086
M16
G05
G00X13.7455Y-2.931
M15
G01X13.7455Y-2.8897
M16
G05
G00X14.1837Y-2.7499
M15
G01X14.1837Y-2.7086
M16
G05
G00X14.1844Y-2.931
M15
G01X14.1844Y-2.8897
M16
G05
T0
M30
